<?xml version="1.0" encoding="utf-8" standalone="no"?>
<!DOCTYPE svg PUBLIC "-//W3C//DTD SVG 1.1//EN"
  "http://www.w3.org/Graphics/SVG/1.1/DTD/svg11.dtd">
<!-- Created with matplotlib (http://matplotlib.org/) -->
<svg height="28pt" version="1.1" viewBox="0 0 180 28" width="180pt" xmlns="http://www.w3.org/2000/svg" xmlns:xlink="http://www.w3.org/1999/xlink">
 <defs>
  <style type="text/css">
*{stroke-linecap:butt;stroke-linejoin:round;}
  </style>
 </defs>
 <g id="figure_1">
  <g id="patch_1">
   <path d="M 0 28.8 
L 180 28.8 
L 180 0 
L 0 0 
z
" style="fill:none;"/>
  </g>
  <g id="axes_1">
   <g id="patch_2">
    <path d="M 0 27.36 
L 180 27.36 
L 180 1.44 
L 0 1.44 
z
" style="fill:none;"/>
   </g>
   <g id="PolyCollection_1">
    <path clip-path="url(#pbaf9565e3f)" d="M 8.181818 27.36 
L 8.181818 20.681509 
L 9.954282 20.551943 
L 11.916652 20.422376 
L 13.81572 20.292809 
L 15.77809 20.168071 
L 17.677158 20.009427 
L 19.639529 20.055323 
L 21.601899 20.026558 
L 23.500967 20.006676 
L 25.463337 19.951079 
L 27.362405 19.799864 
L 29.324776 19.645518 
L 31.287146 19.540275 
L 33.122912 19.305595 
L 35.085282 19.235512 
L 36.98435 19.259183 
L 38.946721 19.203372 
L 40.845789 19.174616 
L 42.808159 19.148324 
L 44.770529 19.175237 
L 46.669597 19.147056 
L 48.631968 19.156946 
L 50.531036 19.049676 
L 52.493406 18.890447 
L 54.455776 18.784734 
L 56.22824 18.85808 
L 58.19061 18.835661 
L 60.089678 18.787584 
L 62.052049 18.659948 
L 63.951117 18.586843 
L 65.913487 18.551809 
L 67.875857 18.518768 
L 69.774925 18.262268 
L 71.737296 18.118352 
L 73.636364 17.977995 
L 75.598734 17.781846 
L 77.561104 17.559224 
L 79.333568 17.430702 
L 81.295938 17.265213 
L 83.195006 17.16347 
L 85.157376 16.998054 
L 87.056445 16.844827 
L 89.018815 16.470518 
L 90.981185 16.323834 
L 92.880253 16.099663 
L 94.842624 15.897288 
L 96.741692 15.618027 
L 98.704062 15.412487 
L 100.666432 15.150774 
L 102.438896 15.269702 
L 104.401266 15.235806 
L 106.300334 15.080801 
L 108.262704 14.992941 
L 110.161772 14.966196 
L 112.124143 14.934533 
L 114.086513 14.933646 
L 115.985581 14.795687 
L 117.947951 14.80505 
L 119.84702 14.930643 
L 121.80939 14.947623 
L 123.77176 15.263531 
L 125.607526 15.39197 
L 127.569896 15.527454 
L 129.468964 15.441786 
L 131.431335 15.469129 
L 133.330403 15.461472 
L 135.292773 15.550501 
L 137.255143 15.286913 
L 139.154211 15.16941 
L 141.116582 15.09323 
L 143.01565 15.265629 
L 144.97802 15.2335 
L 146.94039 15.234501 
L 148.712854 15.256598 
L 150.675224 15.326347 
L 152.574292 15.404561 
L 154.536663 15.565367 
L 156.435731 15.541398 
L 158.398101 15.514844 
L 160.360471 15.629095 
L 162.259539 15.700491 
L 164.22191 15.801498 
L 166.120978 15.928016 
L 168.083348 16.104818 
L 170.045718 16.281619 
L 171.818182 16.458421 
L 171.818182 27.36 
L 171.818182 27.36 
L 170.045718 27.36 
L 168.083348 27.36 
L 166.120978 27.36 
L 164.22191 27.36 
L 162.259539 27.36 
L 160.360471 27.36 
L 158.398101 27.36 
L 156.435731 27.36 
L 154.536663 27.36 
L 152.574292 27.36 
L 150.675224 27.36 
L 148.712854 27.36 
L 146.94039 27.36 
L 144.97802 27.36 
L 143.01565 27.36 
L 141.116582 27.36 
L 139.154211 27.36 
L 137.255143 27.36 
L 135.292773 27.36 
L 133.330403 27.36 
L 131.431335 27.36 
L 129.468964 27.36 
L 127.569896 27.36 
L 125.607526 27.36 
L 123.77176 27.36 
L 121.80939 27.36 
L 119.84702 27.36 
L 117.947951 27.36 
L 115.985581 27.36 
L 114.086513 27.36 
L 112.124143 27.36 
L 110.161772 27.36 
L 108.262704 27.36 
L 106.300334 27.36 
L 104.401266 27.36 
L 102.438896 27.36 
L 100.666432 27.36 
L 98.704062 27.36 
L 96.741692 27.36 
L 94.842624 27.36 
L 92.880253 27.36 
L 90.981185 27.36 
L 89.018815 27.36 
L 87.056445 27.36 
L 85.157376 27.36 
L 83.195006 27.36 
L 81.295938 27.36 
L 79.333568 27.36 
L 77.561104 27.36 
L 75.598734 27.36 
L 73.636364 27.36 
L 71.737296 27.36 
L 69.774925 27.36 
L 67.875857 27.36 
L 65.913487 27.36 
L 63.951117 27.36 
L 62.052049 27.36 
L 60.089678 27.36 
L 58.19061 27.36 
L 56.22824 27.36 
L 54.455776 27.36 
L 52.493406 27.36 
L 50.531036 27.36 
L 48.631968 27.36 
L 46.669597 27.36 
L 44.770529 27.36 
L 42.808159 27.36 
L 40.845789 27.36 
L 38.946721 27.36 
L 36.98435 27.36 
L 35.085282 27.36 
L 33.122912 27.36 
L 31.287146 27.36 
L 29.324776 27.36 
L 27.362405 27.36 
L 25.463337 27.36 
L 23.500967 27.36 
L 21.601899 27.36 
L 19.639529 27.36 
L 17.677158 27.36 
L 15.77809 27.36 
L 13.81572 27.36 
L 11.916652 27.36 
L 9.954282 27.36 
L 8.181818 27.36 
z
" style="fill:#1f77b4;fill-opacity:0.1;"/>
   </g>
   <g id="matplotlib.axis_1"/>
   <g id="matplotlib.axis_2"/>
   <g id="line2d_1">
    <path clip-path="url(#pbaf9565e3f)" d="M 8.181818 20.681509 
L 9.954282 20.551943 
L 11.916652 20.422376 
L 13.81572 20.292809 
L 15.77809 20.168071 
L 17.677158 20.009427 
L 19.639529 20.055323 
L 21.601899 20.026558 
L 23.500967 20.006676 
L 25.463337 19.951079 
L 27.362405 19.799864 
L 29.324776 19.645518 
L 31.287146 19.540275 
L 33.122912 19.305595 
L 35.085282 19.235512 
L 36.98435 19.259183 
L 38.946721 19.203372 
L 40.845789 19.174616 
L 42.808159 19.148324 
L 44.770529 19.175237 
L 46.669597 19.147056 
L 48.631968 19.156946 
L 50.531036 19.049676 
L 52.493406 18.890447 
L 54.455776 18.784734 
L 56.22824 18.85808 
L 58.19061 18.835661 
L 60.089678 18.787584 
L 62.052049 18.659948 
L 63.951117 18.586843 
L 65.913487 18.551809 
L 67.875857 18.518768 
L 69.774925 18.262268 
L 71.737296 18.118352 
L 73.636364 17.977995 
L 75.598734 17.781846 
L 77.561104 17.559224 
L 79.333568 17.430702 
L 81.295938 17.265213 
L 83.195006 17.16347 
L 85.157376 16.998054 
L 87.056445 16.844827 
L 89.018815 16.470518 
L 90.981185 16.323834 
L 92.880253 16.099663 
L 94.842624 15.897288 
L 96.741692 15.618027 
L 98.704062 15.412487 
L 100.666432 15.150774 
L 102.438896 15.269702 
L 104.401266 15.235806 
L 106.300334 15.080801 
L 108.262704 14.992941 
L 110.161772 14.966196 
L 112.124143 14.934533 
L 114.086513 14.933646 
L 115.985581 14.795687 
L 117.947951 14.80505 
L 119.84702 14.930643 
L 121.80939 14.947623 
L 123.77176 15.263531 
L 125.607526 15.39197 
L 127.569896 15.527454 
L 129.468964 15.441786 
L 131.431335 15.469129 
L 133.330403 15.461472 
L 135.292773 15.550501 
L 137.255143 15.286913 
L 139.154211 15.16941 
L 141.116582 15.09323 
L 143.01565 15.265629 
L 144.97802 15.2335 
L 146.94039 15.234501 
L 148.712854 15.256598 
L 150.675224 15.326347 
L 152.574292 15.404561 
L 154.536663 15.565367 
L 156.435731 15.541398 
L 158.398101 15.514844 
L 160.360471 15.629095 
L 162.259539 15.700491 
L 164.22191 15.801498 
L 166.120978 15.928016 
L 168.083348 16.104818 
L 170.045718 16.281619 
L 171.818182 16.458421 
" style="fill:none;stroke:#1f77b4;stroke-linecap:square;stroke-width:1.5;"/>
   </g>
  </g>
 </g>
 <defs>
  <clipPath id="pbaf9565e3f">
   <rect height="25.92" width="180" x="0" y="1.44"/>
  </clipPath>
 </defs>
</svg>
