<?xml version="1.0" encoding="utf-8" standalone="no"?>
<!DOCTYPE svg PUBLIC "-//W3C//DTD SVG 1.1//EN"
  "http://www.w3.org/Graphics/SVG/1.1/DTD/svg11.dtd">
<!-- Created with matplotlib (http://matplotlib.org/) -->
<svg height="28pt" version="1.1" viewBox="0 0 180 28" width="180pt" xmlns="http://www.w3.org/2000/svg" xmlns:xlink="http://www.w3.org/1999/xlink">
 <defs>
  <style type="text/css">
*{stroke-linecap:butt;stroke-linejoin:round;}
  </style>
 </defs>
 <g id="figure_1">
  <g id="patch_1">
   <path d="M 0 28.8 
L 180 28.8 
L 180 0 
L 0 0 
z
" style="fill:none;"/>
  </g>
  <g id="axes_1">
   <g id="patch_2">
    <path d="M 0 27.36 
L 180 27.36 
L 180 1.44 
L 0 1.44 
z
" style="fill:none;"/>
   </g>
   <g id="PolyCollection_1">
    <path clip-path="url(#p94727b5703)" d="M 8.181818 27.36 
L 8.181818 20.681297 
L 10.018218 20.551821 
L 12.051375 20.422345 
L 14.018947 20.292869 
L 16.052104 20.168126 
L 18.019676 20.009474 
L 20.052833 20.055373 
L 22.08599 20.026979 
L 24.053562 20.006707 
L 26.086719 19.95126 
L 28.05429 19.800171 
L 30.087448 19.645818 
L 32.120605 19.540571 
L 34.022591 19.30588 
L 36.055748 19.23542 
L 38.023319 19.259093 
L 40.056477 19.203126 
L 42.024048 19.174236 
L 44.057205 19.147943 
L 46.090363 19.174948 
L 48.057934 19.146845 
L 50.091091 19.156736 
L 52.058663 19.049531 
L 54.09182 18.890362 
L 56.124977 18.785538 
L 57.961377 18.859014 
L 59.994535 18.836629 
L 61.962106 18.788536 
L 63.995263 18.660894 
L 65.962835 18.587773 
L 67.995992 18.552726 
L 70.029149 18.518789 
L 71.996721 18.26215 
L 74.029878 18.118101 
L 75.997449 17.977673 
L 78.030607 17.781653 
L 80.063764 17.559054 
L 81.900164 17.430516 
L 83.933321 17.26511 
L 85.900893 17.163407 
L 87.93405 16.997984 
L 89.901621 16.844787 
L 91.934779 16.47036 
L 93.967936 16.323617 
L 95.935507 16.099497 
L 97.968665 15.897092 
L 99.936236 15.617865 
L 101.969393 15.412439 
L 104.002551 15.150737 
L 105.838951 15.269695 
L 107.872108 15.235941 
L 109.839679 15.080912 
L 111.872837 14.993092 
L 113.840408 14.966386 
L 115.873565 14.934701 
L 117.906723 14.933858 
L 119.874294 14.795882 
L 121.907451 14.805444 
L 123.875023 14.931251 
L 125.90818 14.94844 
L 127.941337 15.264638 
L 129.843323 15.39342 
L 131.87648 15.529245 
L 133.844052 15.443942 
L 135.877209 15.471338 
L 137.84478 15.463623 
L 139.877938 15.552735 
L 141.911095 15.289087 
L 143.878666 15.171671 
L 145.911824 15.095431 
L 147.879395 15.268244 
L 149.912552 15.236778 
L 151.94571 15.238623 
L 153.78211 15.261733 
L 155.815267 15.369804 
L 157.782838 15.491588 
L 159.815996 15.656138 
L 161.783567 15.636241 
L 163.816724 15.634727 
L 165.849882 15.80499 
L 167.817453 15.8376 
L 169.85061 15.870209 
L 171.818182 15.902818 
L 171.818182 27.36 
L 171.818182 27.36 
L 169.85061 27.36 
L 167.817453 27.36 
L 165.849882 27.36 
L 163.816724 27.36 
L 161.783567 27.36 
L 159.815996 27.36 
L 157.782838 27.36 
L 155.815267 27.36 
L 153.78211 27.36 
L 151.94571 27.36 
L 149.912552 27.36 
L 147.879395 27.36 
L 145.911824 27.36 
L 143.878666 27.36 
L 141.911095 27.36 
L 139.877938 27.36 
L 137.84478 27.36 
L 135.877209 27.36 
L 133.844052 27.36 
L 131.87648 27.36 
L 129.843323 27.36 
L 127.941337 27.36 
L 125.90818 27.36 
L 123.875023 27.36 
L 121.907451 27.36 
L 119.874294 27.36 
L 117.906723 27.36 
L 115.873565 27.36 
L 113.840408 27.36 
L 111.872837 27.36 
L 109.839679 27.36 
L 107.872108 27.36 
L 105.838951 27.36 
L 104.002551 27.36 
L 101.969393 27.36 
L 99.936236 27.36 
L 97.968665 27.36 
L 95.935507 27.36 
L 93.967936 27.36 
L 91.934779 27.36 
L 89.901621 27.36 
L 87.93405 27.36 
L 85.900893 27.36 
L 83.933321 27.36 
L 81.900164 27.36 
L 80.063764 27.36 
L 78.030607 27.36 
L 75.997449 27.36 
L 74.029878 27.36 
L 71.996721 27.36 
L 70.029149 27.36 
L 67.995992 27.36 
L 65.962835 27.36 
L 63.995263 27.36 
L 61.962106 27.36 
L 59.994535 27.36 
L 57.961377 27.36 
L 56.124977 27.36 
L 54.09182 27.36 
L 52.058663 27.36 
L 50.091091 27.36 
L 48.057934 27.36 
L 46.090363 27.36 
L 44.057205 27.36 
L 42.024048 27.36 
L 40.056477 27.36 
L 38.023319 27.36 
L 36.055748 27.36 
L 34.022591 27.36 
L 32.120605 27.36 
L 30.087448 27.36 
L 28.05429 27.36 
L 26.086719 27.36 
L 24.053562 27.36 
L 22.08599 27.36 
L 20.052833 27.36 
L 18.019676 27.36 
L 16.052104 27.36 
L 14.018947 27.36 
L 12.051375 27.36 
L 10.018218 27.36 
L 8.181818 27.36 
z
" style="fill:#1f77b4;fill-opacity:0.1;"/>
   </g>
   <g id="matplotlib.axis_1"/>
   <g id="matplotlib.axis_2"/>
   <g id="line2d_1">
    <path clip-path="url(#p94727b5703)" d="M 8.181818 20.681297 
L 10.018218 20.551821 
L 12.051375 20.422345 
L 14.018947 20.292869 
L 16.052104 20.168126 
L 18.019676 20.009474 
L 20.052833 20.055373 
L 22.08599 20.026979 
L 24.053562 20.006707 
L 26.086719 19.95126 
L 28.05429 19.800171 
L 30.087448 19.645818 
L 32.120605 19.540571 
L 34.022591 19.30588 
L 36.055748 19.23542 
L 38.023319 19.259093 
L 40.056477 19.203126 
L 42.024048 19.174236 
L 44.057205 19.147943 
L 46.090363 19.174948 
L 48.057934 19.146845 
L 50.091091 19.156736 
L 52.058663 19.049531 
L 54.09182 18.890362 
L 56.124977 18.785538 
L 57.961377 18.859014 
L 59.994535 18.836629 
L 61.962106 18.788536 
L 63.995263 18.660894 
L 65.962835 18.587773 
L 67.995992 18.552726 
L 70.029149 18.518789 
L 71.996721 18.26215 
L 74.029878 18.118101 
L 75.997449 17.977673 
L 78.030607 17.781653 
L 80.063764 17.559054 
L 81.900164 17.430516 
L 83.933321 17.26511 
L 85.900893 17.163407 
L 87.93405 16.997984 
L 89.901621 16.844787 
L 91.934779 16.47036 
L 93.967936 16.323617 
L 95.935507 16.099497 
L 97.968665 15.897092 
L 99.936236 15.617865 
L 101.969393 15.412439 
L 104.002551 15.150737 
L 105.838951 15.269695 
L 107.872108 15.235941 
L 109.839679 15.080912 
L 111.872837 14.993092 
L 113.840408 14.966386 
L 115.873565 14.934701 
L 117.906723 14.933858 
L 119.874294 14.795882 
L 121.907451 14.805444 
L 123.875023 14.931251 
L 125.90818 14.94844 
L 127.941337 15.264638 
L 129.843323 15.39342 
L 131.87648 15.529245 
L 133.844052 15.443942 
L 135.877209 15.471338 
L 137.84478 15.463623 
L 139.877938 15.552735 
L 141.911095 15.289087 
L 143.878666 15.171671 
L 145.911824 15.095431 
L 147.879395 15.268244 
L 149.912552 15.236778 
L 151.94571 15.238623 
L 153.78211 15.261733 
L 155.815267 15.369804 
L 157.782838 15.491588 
L 159.815996 15.656138 
L 161.783567 15.636241 
L 163.816724 15.634727 
L 165.849882 15.80499 
L 167.817453 15.8376 
L 169.85061 15.870209 
L 171.818182 15.902818 
" style="fill:none;stroke:#1f77b4;stroke-linecap:square;stroke-width:1.5;"/>
   </g>
  </g>
 </g>
 <defs>
  <clipPath id="p94727b5703">
   <rect height="25.92" width="180" x="0" y="1.44"/>
  </clipPath>
 </defs>
</svg>
