<?xml version="1.0" encoding="utf-8" standalone="no"?>
<!DOCTYPE svg PUBLIC "-//W3C//DTD SVG 1.1//EN"
  "http://www.w3.org/Graphics/SVG/1.1/DTD/svg11.dtd">
<!-- Created with matplotlib (http://matplotlib.org/) -->
<svg height="28pt" version="1.1" viewBox="0 0 180 28" width="180pt" xmlns="http://www.w3.org/2000/svg" xmlns:xlink="http://www.w3.org/1999/xlink">
 <defs>
  <style type="text/css">
*{stroke-linecap:butt;stroke-linejoin:round;}
  </style>
 </defs>
 <g id="figure_1">
  <g id="patch_1">
   <path d="M 0 28.8 
L 180 28.8 
L 180 0 
L 0 0 
z
" style="fill:none;"/>
  </g>
  <g id="axes_1">
   <g id="patch_2">
    <path d="M 0 27.36 
L 180 27.36 
L 180 1.44 
L 0 1.44 
z
" style="fill:none;"/>
   </g>
   <g id="PolyCollection_1">
    <path clip-path="url(#p1ef4212427)" d="M 8.181818 27.36 
L 8.181818 17.872048 
L 10.018218 17.709926 
L 12.051375 17.547804 
L 14.018947 17.385682 
L 16.052104 17.243767 
L 18.019676 17.195968 
L 20.052833 16.960103 
L 22.08599 16.830842 
L 24.053562 16.941368 
L 26.086719 16.828217 
L 28.05429 16.742278 
L 30.087448 16.475191 
L 32.120605 16.374814 
L 34.022591 16.390061 
L 36.055748 16.571677 
L 38.023319 16.592498 
L 40.056477 16.603993 
L 42.024048 16.566235 
L 44.057205 16.683366 
L 46.090363 16.648096 
L 48.057934 16.702996 
L 50.091091 16.615801 
L 52.058663 16.514079 
L 54.09182 16.343491 
L 56.124977 16.094785 
L 57.961377 16.181901 
L 59.994535 16.140612 
L 61.962106 15.972897 
L 63.995263 15.763373 
L 65.962835 15.604168 
L 67.995992 15.514062 
L 70.029149 15.353792 
L 71.996721 14.940193 
L 74.029878 14.783886 
L 75.997449 14.565023 
L 78.030607 14.419633 
L 80.063764 14.288991 
L 81.900164 14.270936 
L 83.933321 14.346569 
L 85.900893 14.3699 
L 87.93405 14.28893 
L 89.901621 14.351201 
L 91.934779 14.252086 
L 93.967936 14.16991 
L 95.935507 13.970991 
L 97.968665 14.031002 
L 99.936236 13.920194 
L 101.969393 13.787009 
L 104.002551 13.699945 
L 105.838951 13.763105 
L 107.872108 13.859883 
L 109.839679 13.957747 
L 111.872837 13.824133 
L 113.840408 13.86009 
L 115.873565 13.709407 
L 117.906723 13.298545 
L 119.874294 13.108691 
L 121.907451 13.121781 
L 123.875023 13.087473 
L 125.90818 13.071623 
L 127.941337 13.26781 
L 129.843323 13.572274 
L 131.87648 14.165635 
L 133.844052 14.494146 
L 135.877209 14.561836 
L 137.84478 14.651685 
L 139.877938 14.810105 
L 141.911095 14.646611 
L 143.878666 14.651312 
L 145.911824 14.653869 
L 147.879395 14.530834 
L 149.912552 14.490045 
L 151.94571 14.543881 
L 153.78211 14.558939 
L 155.815267 14.619057 
L 157.782838 14.656498 
L 159.815996 14.656823 
L 161.783567 14.62565 
L 163.816724 14.62803 
L 165.849882 14.54728 
L 167.817453 14.457308 
L 169.85061 14.367335 
L 171.818182 14.277363 
L 171.818182 27.36 
L 171.818182 27.36 
L 169.85061 27.36 
L 167.817453 27.36 
L 165.849882 27.36 
L 163.816724 27.36 
L 161.783567 27.36 
L 159.815996 27.36 
L 157.782838 27.36 
L 155.815267 27.36 
L 153.78211 27.36 
L 151.94571 27.36 
L 149.912552 27.36 
L 147.879395 27.36 
L 145.911824 27.36 
L 143.878666 27.36 
L 141.911095 27.36 
L 139.877938 27.36 
L 137.84478 27.36 
L 135.877209 27.36 
L 133.844052 27.36 
L 131.87648 27.36 
L 129.843323 27.36 
L 127.941337 27.36 
L 125.90818 27.36 
L 123.875023 27.36 
L 121.907451 27.36 
L 119.874294 27.36 
L 117.906723 27.36 
L 115.873565 27.36 
L 113.840408 27.36 
L 111.872837 27.36 
L 109.839679 27.36 
L 107.872108 27.36 
L 105.838951 27.36 
L 104.002551 27.36 
L 101.969393 27.36 
L 99.936236 27.36 
L 97.968665 27.36 
L 95.935507 27.36 
L 93.967936 27.36 
L 91.934779 27.36 
L 89.901621 27.36 
L 87.93405 27.36 
L 85.900893 27.36 
L 83.933321 27.36 
L 81.900164 27.36 
L 80.063764 27.36 
L 78.030607 27.36 
L 75.997449 27.36 
L 74.029878 27.36 
L 71.996721 27.36 
L 70.029149 27.36 
L 67.995992 27.36 
L 65.962835 27.36 
L 63.995263 27.36 
L 61.962106 27.36 
L 59.994535 27.36 
L 57.961377 27.36 
L 56.124977 27.36 
L 54.09182 27.36 
L 52.058663 27.36 
L 50.091091 27.36 
L 48.057934 27.36 
L 46.090363 27.36 
L 44.057205 27.36 
L 42.024048 27.36 
L 40.056477 27.36 
L 38.023319 27.36 
L 36.055748 27.36 
L 34.022591 27.36 
L 32.120605 27.36 
L 30.087448 27.36 
L 28.05429 27.36 
L 26.086719 27.36 
L 24.053562 27.36 
L 22.08599 27.36 
L 20.052833 27.36 
L 18.019676 27.36 
L 16.052104 27.36 
L 14.018947 27.36 
L 12.051375 27.36 
L 10.018218 27.36 
L 8.181818 27.36 
z
" style="fill:#1f77b4;fill-opacity:0.1;"/>
   </g>
   <g id="matplotlib.axis_1"/>
   <g id="matplotlib.axis_2"/>
   <g id="line2d_1">
    <path clip-path="url(#p1ef4212427)" d="M 8.181818 17.872048 
L 10.018218 17.709926 
L 12.051375 17.547804 
L 14.018947 17.385682 
L 16.052104 17.243767 
L 18.019676 17.195968 
L 20.052833 16.960103 
L 22.08599 16.830842 
L 24.053562 16.941368 
L 26.086719 16.828217 
L 28.05429 16.742278 
L 30.087448 16.475191 
L 32.120605 16.374814 
L 34.022591 16.390061 
L 36.055748 16.571677 
L 38.023319 16.592498 
L 40.056477 16.603993 
L 42.024048 16.566235 
L 44.057205 16.683366 
L 46.090363 16.648096 
L 48.057934 16.702996 
L 50.091091 16.615801 
L 52.058663 16.514079 
L 54.09182 16.343491 
L 56.124977 16.094785 
L 57.961377 16.181901 
L 59.994535 16.140612 
L 61.962106 15.972897 
L 63.995263 15.763373 
L 65.962835 15.604168 
L 67.995992 15.514062 
L 70.029149 15.353792 
L 71.996721 14.940193 
L 74.029878 14.783886 
L 75.997449 14.565023 
L 78.030607 14.419633 
L 80.063764 14.288991 
L 81.900164 14.270936 
L 83.933321 14.346569 
L 85.900893 14.3699 
L 87.93405 14.28893 
L 89.901621 14.351201 
L 91.934779 14.252086 
L 93.967936 14.16991 
L 95.935507 13.970991 
L 97.968665 14.031002 
L 99.936236 13.920194 
L 101.969393 13.787009 
L 104.002551 13.699945 
L 105.838951 13.763105 
L 107.872108 13.859883 
L 109.839679 13.957747 
L 111.872837 13.824133 
L 113.840408 13.86009 
L 115.873565 13.709407 
L 117.906723 13.298545 
L 119.874294 13.108691 
L 121.907451 13.121781 
L 123.875023 13.087473 
L 125.90818 13.071623 
L 127.941337 13.26781 
L 129.843323 13.572274 
L 131.87648 14.165635 
L 133.844052 14.494146 
L 135.877209 14.561836 
L 137.84478 14.651685 
L 139.877938 14.810105 
L 141.911095 14.646611 
L 143.878666 14.651312 
L 145.911824 14.653869 
L 147.879395 14.530834 
L 149.912552 14.490045 
L 151.94571 14.543881 
L 153.78211 14.558939 
L 155.815267 14.619057 
L 157.782838 14.656498 
L 159.815996 14.656823 
L 161.783567 14.62565 
L 163.816724 14.62803 
L 165.849882 14.54728 
L 167.817453 14.457308 
L 169.85061 14.367335 
L 171.818182 14.277363 
" style="fill:none;stroke:#1f77b4;stroke-linecap:square;stroke-width:1.5;"/>
   </g>
  </g>
 </g>
 <defs>
  <clipPath id="p1ef4212427">
   <rect height="25.92" width="180" x="0" y="1.44"/>
  </clipPath>
 </defs>
</svg>
