<?xml version="1.0" encoding="utf-8" standalone="no"?>
<!DOCTYPE svg PUBLIC "-//W3C//DTD SVG 1.1//EN"
  "http://www.w3.org/Graphics/SVG/1.1/DTD/svg11.dtd">
<!-- Created with matplotlib (http://matplotlib.org/) -->
<svg height="28pt" version="1.1" viewBox="0 0 180 28" width="180pt" xmlns="http://www.w3.org/2000/svg" xmlns:xlink="http://www.w3.org/1999/xlink">
 <defs>
  <style type="text/css">
*{stroke-linecap:butt;stroke-linejoin:round;}
  </style>
 </defs>
 <g id="figure_1">
  <g id="patch_1">
   <path d="M 0 28.8 
L 180 28.8 
L 180 0 
L 0 0 
z
" style="fill:none;"/>
  </g>
  <g id="axes_1">
   <g id="patch_2">
    <path d="M 0 27.36 
L 180 27.36 
L 180 1.44 
L 0 1.44 
z
" style="fill:none;"/>
   </g>
   <g id="PolyCollection_1">
    <path clip-path="url(#peb89a9f21d)" d="M 8.181818 27.36 
L 8.181818 17.861948 
L 9.954282 17.699299 
L 11.916652 17.536649 
L 13.81572 17.374 
L 15.77809 17.231247 
L 17.677158 17.183129 
L 19.639529 16.946844 
L 21.601899 16.817691 
L 23.500967 16.928587 
L 25.463337 16.815467 
L 27.362405 16.729662 
L 29.324776 16.463022 
L 31.287146 16.363231 
L 33.122912 16.37888 
L 35.085282 16.560796 
L 36.98435 16.581636 
L 38.946721 16.593662 
L 40.845789 16.555894 
L 42.808159 16.673137 
L 44.770529 16.637771 
L 46.669597 16.69267 
L 48.631968 16.605292 
L 50.531036 16.503473 
L 52.493406 16.332723 
L 54.455776 16.083142 
L 56.22824 16.170255 
L 58.19061 16.12886 
L 60.089678 15.960995 
L 62.052049 15.75137 
L 63.951117 15.591936 
L 65.913487 15.501668 
L 67.875857 15.341826 
L 69.774925 14.927845 
L 71.737296 14.771412 
L 73.636364 14.552321 
L 75.598734 14.406605 
L 77.561104 14.275761 
L 79.333568 14.257734 
L 81.295938 14.333499 
L 83.195006 14.356895 
L 85.157376 14.275812 
L 87.056445 14.33813 
L 89.018815 14.238933 
L 90.981185 14.156702 
L 92.880253 13.957772 
L 94.842624 14.017736 
L 96.741692 13.906896 
L 98.704062 13.774062 
L 100.666432 13.687075 
L 102.438896 13.750575 
L 104.401266 13.847742 
L 106.300334 13.945739 
L 108.262704 13.823387 
L 110.161772 13.862981 
L 112.124143 13.71819 
L 114.086513 13.309627 
L 115.985581 13.121941 
L 117.947951 13.135948 
L 119.84702 13.102471 
L 121.80939 13.076155 
L 123.77176 13.269488 
L 125.607526 13.568185 
L 127.569896 14.160148 
L 129.468964 14.48696 
L 131.431335 14.553967 
L 133.330403 14.643054 
L 135.292773 14.801594 
L 137.255143 14.638677 
L 139.154211 14.643556 
L 141.116582 14.645352 
L 143.01565 14.521749 
L 144.97802 14.480254 
L 146.94039 14.533122 
L 148.712854 14.546637 
L 150.675224 14.588235 
L 152.574292 14.604201 
L 154.536663 14.601076 
L 156.435731 14.565868 
L 158.398101 14.550078 
L 160.360471 14.431404 
L 162.259539 14.120483 
L 164.22191 14.201204 
L 166.120978 14.297176 
L 168.083348 14.368142 
L 170.045718 14.439108 
L 171.818182 14.510074 
L 171.818182 27.36 
L 171.818182 27.36 
L 170.045718 27.36 
L 168.083348 27.36 
L 166.120978 27.36 
L 164.22191 27.36 
L 162.259539 27.36 
L 160.360471 27.36 
L 158.398101 27.36 
L 156.435731 27.36 
L 154.536663 27.36 
L 152.574292 27.36 
L 150.675224 27.36 
L 148.712854 27.36 
L 146.94039 27.36 
L 144.97802 27.36 
L 143.01565 27.36 
L 141.116582 27.36 
L 139.154211 27.36 
L 137.255143 27.36 
L 135.292773 27.36 
L 133.330403 27.36 
L 131.431335 27.36 
L 129.468964 27.36 
L 127.569896 27.36 
L 125.607526 27.36 
L 123.77176 27.36 
L 121.80939 27.36 
L 119.84702 27.36 
L 117.947951 27.36 
L 115.985581 27.36 
L 114.086513 27.36 
L 112.124143 27.36 
L 110.161772 27.36 
L 108.262704 27.36 
L 106.300334 27.36 
L 104.401266 27.36 
L 102.438896 27.36 
L 100.666432 27.36 
L 98.704062 27.36 
L 96.741692 27.36 
L 94.842624 27.36 
L 92.880253 27.36 
L 90.981185 27.36 
L 89.018815 27.36 
L 87.056445 27.36 
L 85.157376 27.36 
L 83.195006 27.36 
L 81.295938 27.36 
L 79.333568 27.36 
L 77.561104 27.36 
L 75.598734 27.36 
L 73.636364 27.36 
L 71.737296 27.36 
L 69.774925 27.36 
L 67.875857 27.36 
L 65.913487 27.36 
L 63.951117 27.36 
L 62.052049 27.36 
L 60.089678 27.36 
L 58.19061 27.36 
L 56.22824 27.36 
L 54.455776 27.36 
L 52.493406 27.36 
L 50.531036 27.36 
L 48.631968 27.36 
L 46.669597 27.36 
L 44.770529 27.36 
L 42.808159 27.36 
L 40.845789 27.36 
L 38.946721 27.36 
L 36.98435 27.36 
L 35.085282 27.36 
L 33.122912 27.36 
L 31.287146 27.36 
L 29.324776 27.36 
L 27.362405 27.36 
L 25.463337 27.36 
L 23.500967 27.36 
L 21.601899 27.36 
L 19.639529 27.36 
L 17.677158 27.36 
L 15.77809 27.36 
L 13.81572 27.36 
L 11.916652 27.36 
L 9.954282 27.36 
L 8.181818 27.36 
z
" style="fill:#1f77b4;fill-opacity:0.1;"/>
   </g>
   <g id="matplotlib.axis_1"/>
   <g id="matplotlib.axis_2"/>
   <g id="line2d_1">
    <path clip-path="url(#peb89a9f21d)" d="M 8.181818 17.861948 
L 9.954282 17.699299 
L 11.916652 17.536649 
L 13.81572 17.374 
L 15.77809 17.231247 
L 17.677158 17.183129 
L 19.639529 16.946844 
L 21.601899 16.817691 
L 23.500967 16.928587 
L 25.463337 16.815467 
L 27.362405 16.729662 
L 29.324776 16.463022 
L 31.287146 16.363231 
L 33.122912 16.37888 
L 35.085282 16.560796 
L 36.98435 16.581636 
L 38.946721 16.593662 
L 40.845789 16.555894 
L 42.808159 16.673137 
L 44.770529 16.637771 
L 46.669597 16.69267 
L 48.631968 16.605292 
L 50.531036 16.503473 
L 52.493406 16.332723 
L 54.455776 16.083142 
L 56.22824 16.170255 
L 58.19061 16.12886 
L 60.089678 15.960995 
L 62.052049 15.75137 
L 63.951117 15.591936 
L 65.913487 15.501668 
L 67.875857 15.341826 
L 69.774925 14.927845 
L 71.737296 14.771412 
L 73.636364 14.552321 
L 75.598734 14.406605 
L 77.561104 14.275761 
L 79.333568 14.257734 
L 81.295938 14.333499 
L 83.195006 14.356895 
L 85.157376 14.275812 
L 87.056445 14.33813 
L 89.018815 14.238933 
L 90.981185 14.156702 
L 92.880253 13.957772 
L 94.842624 14.017736 
L 96.741692 13.906896 
L 98.704062 13.774062 
L 100.666432 13.687075 
L 102.438896 13.750575 
L 104.401266 13.847742 
L 106.300334 13.945739 
L 108.262704 13.823387 
L 110.161772 13.862981 
L 112.124143 13.71819 
L 114.086513 13.309627 
L 115.985581 13.121941 
L 117.947951 13.135948 
L 119.84702 13.102471 
L 121.80939 13.076155 
L 123.77176 13.269488 
L 125.607526 13.568185 
L 127.569896 14.160148 
L 129.468964 14.48696 
L 131.431335 14.553967 
L 133.330403 14.643054 
L 135.292773 14.801594 
L 137.255143 14.638677 
L 139.154211 14.643556 
L 141.116582 14.645352 
L 143.01565 14.521749 
L 144.97802 14.480254 
L 146.94039 14.533122 
L 148.712854 14.546637 
L 150.675224 14.588235 
L 152.574292 14.604201 
L 154.536663 14.601076 
L 156.435731 14.565868 
L 158.398101 14.550078 
L 160.360471 14.431404 
L 162.259539 14.120483 
L 164.22191 14.201204 
L 166.120978 14.297176 
L 168.083348 14.368142 
L 170.045718 14.439108 
L 171.818182 14.510074 
" style="fill:none;stroke:#1f77b4;stroke-linecap:square;stroke-width:1.5;"/>
   </g>
  </g>
 </g>
 <defs>
  <clipPath id="peb89a9f21d">
   <rect height="25.92" width="180" x="0" y="1.44"/>
  </clipPath>
 </defs>
</svg>
