<?xml version="1.0" encoding="utf-8" standalone="no"?>
<!DOCTYPE svg PUBLIC "-//W3C//DTD SVG 1.1//EN"
  "http://www.w3.org/Graphics/SVG/1.1/DTD/svg11.dtd">
<!-- Created with matplotlib (http://matplotlib.org/) -->
<svg height="28pt" version="1.1" viewBox="0 0 180 28" width="180pt" xmlns="http://www.w3.org/2000/svg" xmlns:xlink="http://www.w3.org/1999/xlink">
 <defs>
  <style type="text/css">
*{stroke-linecap:butt;stroke-linejoin:round;}
  </style>
 </defs>
 <g id="figure_1">
  <g id="patch_1">
   <path d="M 0 28.8 
L 180 28.8 
L 180 0 
L 0 0 
z
" style="fill:none;"/>
  </g>
  <g id="axes_1">
   <g id="patch_2">
    <path d="M 0 27.36 
L 180 27.36 
L 180 1.44 
L 0 1.44 
z
" style="fill:none;"/>
   </g>
   <g id="PolyCollection_1">
    <path clip-path="url(#p54130c0ca0)" d="M 8.181818 27.36 
L 8.181818 14.641151 
L 10.018218 14.732106 
L 12.051375 14.823061 
L 14.018947 14.914016 
L 16.052104 14.671502 
L 18.019676 14.774184 
L 20.052833 15.11622 
L 22.08599 15.151925 
L 24.053562 15.384406 
L 26.086719 15.35046 
L 28.05429 15.055131 
L 30.087448 15.075853 
L 32.120605 14.920853 
L 34.022591 14.738834 
L 36.055748 14.739848 
L 38.023319 14.561767 
L 40.056477 14.5381 
L 42.024048 14.703574 
L 44.057205 14.804723 
L 46.090363 14.802567 
L 48.057934 14.727573 
L 50.091091 14.713189 
L 52.058663 14.806048 
L 54.09182 14.630789 
L 56.124977 14.499027 
L 57.961377 14.634086 
L 59.994535 14.615165 
L 61.962106 14.360837 
L 63.995263 14.090122 
L 65.962835 14.091506 
L 67.995992 14.059236 
L 70.029149 13.719071 
L 71.996721 13.312589 
L 74.029878 13.041751 
L 75.997449 13.089565 
L 78.030607 13.124089 
L 80.063764 13.066733 
L 81.900164 13.104251 
L 83.933321 13.323247 
L 85.900893 13.542316 
L 87.93405 13.75559 
L 89.901621 14.006344 
L 91.934779 14.115843 
L 93.967936 14.075005 
L 95.935507 14.244661 
L 97.968665 14.67545 
L 99.936236 14.79365 
L 101.969393 15.061446 
L 104.002551 15.203776 
L 105.838951 15.387335 
L 107.872108 15.657357 
L 109.839679 15.695849 
L 111.872837 15.606817 
L 113.840408 15.683399 
L 115.873565 15.712328 
L 117.906723 15.669607 
L 119.874294 15.666036 
L 121.907451 15.815808 
L 123.875023 15.880745 
L 125.90818 15.918387 
L 127.941337 16.22581 
L 129.843323 16.322736 
L 131.87648 16.571632 
L 133.844052 16.768424 
L 135.877209 16.857384 
L 137.84478 17.001136 
L 139.877938 17.226702 
L 141.911095 17.056697 
L 143.878666 17.147963 
L 145.911824 17.185917 
L 147.879395 17.209329 
L 149.912552 17.277553 
L 151.94571 17.389207 
L 153.78211 17.447551 
L 155.815267 17.608071 
L 157.782838 17.727024 
L 159.815996 17.815063 
L 161.783567 17.881569 
L 163.816724 17.915635 
L 165.849882 17.97846 
L 167.817453 18.012867 
L 169.85061 18.047273 
L 171.818182 18.08168 
L 171.818182 27.36 
L 171.818182 27.36 
L 169.85061 27.36 
L 167.817453 27.36 
L 165.849882 27.36 
L 163.816724 27.36 
L 161.783567 27.36 
L 159.815996 27.36 
L 157.782838 27.36 
L 155.815267 27.36 
L 153.78211 27.36 
L 151.94571 27.36 
L 149.912552 27.36 
L 147.879395 27.36 
L 145.911824 27.36 
L 143.878666 27.36 
L 141.911095 27.36 
L 139.877938 27.36 
L 137.84478 27.36 
L 135.877209 27.36 
L 133.844052 27.36 
L 131.87648 27.36 
L 129.843323 27.36 
L 127.941337 27.36 
L 125.90818 27.36 
L 123.875023 27.36 
L 121.907451 27.36 
L 119.874294 27.36 
L 117.906723 27.36 
L 115.873565 27.36 
L 113.840408 27.36 
L 111.872837 27.36 
L 109.839679 27.36 
L 107.872108 27.36 
L 105.838951 27.36 
L 104.002551 27.36 
L 101.969393 27.36 
L 99.936236 27.36 
L 97.968665 27.36 
L 95.935507 27.36 
L 93.967936 27.36 
L 91.934779 27.36 
L 89.901621 27.36 
L 87.93405 27.36 
L 85.900893 27.36 
L 83.933321 27.36 
L 81.900164 27.36 
L 80.063764 27.36 
L 78.030607 27.36 
L 75.997449 27.36 
L 74.029878 27.36 
L 71.996721 27.36 
L 70.029149 27.36 
L 67.995992 27.36 
L 65.962835 27.36 
L 63.995263 27.36 
L 61.962106 27.36 
L 59.994535 27.36 
L 57.961377 27.36 
L 56.124977 27.36 
L 54.09182 27.36 
L 52.058663 27.36 
L 50.091091 27.36 
L 48.057934 27.36 
L 46.090363 27.36 
L 44.057205 27.36 
L 42.024048 27.36 
L 40.056477 27.36 
L 38.023319 27.36 
L 36.055748 27.36 
L 34.022591 27.36 
L 32.120605 27.36 
L 30.087448 27.36 
L 28.05429 27.36 
L 26.086719 27.36 
L 24.053562 27.36 
L 22.08599 27.36 
L 20.052833 27.36 
L 18.019676 27.36 
L 16.052104 27.36 
L 14.018947 27.36 
L 12.051375 27.36 
L 10.018218 27.36 
L 8.181818 27.36 
z
" style="fill:#1f77b4;fill-opacity:0.1;"/>
   </g>
   <g id="matplotlib.axis_1"/>
   <g id="matplotlib.axis_2"/>
   <g id="line2d_1">
    <path clip-path="url(#p54130c0ca0)" d="M 8.181818 14.641151 
L 10.018218 14.732106 
L 12.051375 14.823061 
L 14.018947 14.914016 
L 16.052104 14.671502 
L 18.019676 14.774184 
L 20.052833 15.11622 
L 22.08599 15.151925 
L 24.053562 15.384406 
L 26.086719 15.35046 
L 28.05429 15.055131 
L 30.087448 15.075853 
L 32.120605 14.920853 
L 34.022591 14.738834 
L 36.055748 14.739848 
L 38.023319 14.561767 
L 40.056477 14.5381 
L 42.024048 14.703574 
L 44.057205 14.804723 
L 46.090363 14.802567 
L 48.057934 14.727573 
L 50.091091 14.713189 
L 52.058663 14.806048 
L 54.09182 14.630789 
L 56.124977 14.499027 
L 57.961377 14.634086 
L 59.994535 14.615165 
L 61.962106 14.360837 
L 63.995263 14.090122 
L 65.962835 14.091506 
L 67.995992 14.059236 
L 70.029149 13.719071 
L 71.996721 13.312589 
L 74.029878 13.041751 
L 75.997449 13.089565 
L 78.030607 13.124089 
L 80.063764 13.066733 
L 81.900164 13.104251 
L 83.933321 13.323247 
L 85.900893 13.542316 
L 87.93405 13.75559 
L 89.901621 14.006344 
L 91.934779 14.115843 
L 93.967936 14.075005 
L 95.935507 14.244661 
L 97.968665 14.67545 
L 99.936236 14.79365 
L 101.969393 15.061446 
L 104.002551 15.203776 
L 105.838951 15.387335 
L 107.872108 15.657357 
L 109.839679 15.695849 
L 111.872837 15.606817 
L 113.840408 15.683399 
L 115.873565 15.712328 
L 117.906723 15.669607 
L 119.874294 15.666036 
L 121.907451 15.815808 
L 123.875023 15.880745 
L 125.90818 15.918387 
L 127.941337 16.22581 
L 129.843323 16.322736 
L 131.87648 16.571632 
L 133.844052 16.768424 
L 135.877209 16.857384 
L 137.84478 17.001136 
L 139.877938 17.226702 
L 141.911095 17.056697 
L 143.878666 17.147963 
L 145.911824 17.185917 
L 147.879395 17.209329 
L 149.912552 17.277553 
L 151.94571 17.389207 
L 153.78211 17.447551 
L 155.815267 17.608071 
L 157.782838 17.727024 
L 159.815996 17.815063 
L 161.783567 17.881569 
L 163.816724 17.915635 
L 165.849882 17.97846 
L 167.817453 18.012867 
L 169.85061 18.047273 
L 171.818182 18.08168 
" style="fill:none;stroke:#1f77b4;stroke-linecap:square;stroke-width:1.5;"/>
   </g>
  </g>
 </g>
 <defs>
  <clipPath id="p54130c0ca0">
   <rect height="25.92" width="180" x="0" y="1.44"/>
  </clipPath>
 </defs>
</svg>
