<?xml version="1.0" encoding="utf-8" standalone="no"?>
<!DOCTYPE svg PUBLIC "-//W3C//DTD SVG 1.1//EN"
  "http://www.w3.org/Graphics/SVG/1.1/DTD/svg11.dtd">
<!-- Created with matplotlib (http://matplotlib.org/) -->
<svg height="28pt" version="1.1" viewBox="0 0 180 28" width="180pt" xmlns="http://www.w3.org/2000/svg" xmlns:xlink="http://www.w3.org/1999/xlink">
 <defs>
  <style type="text/css">
*{stroke-linecap:butt;stroke-linejoin:round;}
  </style>
 </defs>
 <g id="figure_1">
  <g id="patch_1">
   <path d="M 0 28.8 
L 180 28.8 
L 180 0 
L 0 0 
z
" style="fill:none;"/>
  </g>
  <g id="axes_1">
   <g id="patch_2">
    <path d="M 0 27.36 
L 180 27.36 
L 180 1.44 
L 0 1.44 
z
" style="fill:none;"/>
   </g>
   <g id="PolyCollection_1">
    <path clip-path="url(#pf1ca744cfc)" d="M 8.181818 27.36 
L 8.181818 14.640877 
L 9.954282 14.731817 
L 11.916652 14.822758 
L 13.81572 14.913699 
L 15.77809 14.67077 
L 17.677158 14.773652 
L 19.639529 15.115426 
L 21.601899 15.150931 
L 23.500967 15.38307 
L 25.463337 15.348815 
L 27.362405 15.053464 
L 29.324776 15.074603 
L 31.287146 14.919606 
L 33.122912 14.737847 
L 35.085282 14.739238 
L 36.98435 14.561497 
L 38.946721 14.53814 
L 40.845789 14.703792 
L 42.808159 14.804877 
L 44.770529 14.802721 
L 46.669597 14.727675 
L 48.631968 14.713193 
L 50.531036 14.806003 
L 52.493406 14.630748 
L 54.455776 14.498152 
L 56.22824 14.633184 
L 58.19061 14.614178 
L 60.089678 14.359776 
L 62.052049 14.089164 
L 63.951117 14.090556 
L 65.913487 14.05821 
L 67.875857 13.718807 
L 69.774925 13.312381 
L 71.737296 13.041669 
L 73.636364 13.089582 
L 75.598734 13.124074 
L 77.561104 13.066665 
L 79.333568 13.104228 
L 81.295938 13.323331 
L 83.195006 13.542433 
L 85.157376 13.755583 
L 87.056445 14.00634 
L 89.018815 14.115843 
L 90.981185 14.075045 
L 92.880253 14.244535 
L 94.842624 14.675192 
L 96.741692 14.793244 
L 98.704062 15.060621 
L 100.666432 15.202787 
L 102.438896 15.386057 
L 104.401266 15.655778 
L 106.300334 15.694217 
L 108.262704 15.594578 
L 110.161772 15.667793 
L 112.124143 15.690201 
L 114.086513 15.643663 
L 115.985581 15.637561 
L 117.947951 15.785749 
L 119.84702 15.848962 
L 121.80939 15.895914 
L 123.77176 16.205556 
L 125.607526 16.308327 
L 127.569896 16.559764 
L 129.468964 16.758319 
L 131.431335 16.84793 
L 133.330403 16.992467 
L 135.292773 17.217379 
L 137.255143 17.046456 
L 139.154211 17.137269 
L 141.116582 17.175468 
L 143.01565 17.19847 
L 144.97802 17.26651 
L 146.94039 17.377812 
L 148.712854 17.436658 
L 150.675224 17.584335 
L 152.574292 17.687227 
L 154.536663 17.773716 
L 156.435731 17.838405 
L 158.398101 17.861035 
L 160.360471 17.897681 
L 162.259539 17.869138 
L 164.22191 17.994715 
L 166.120978 18.059437 
L 168.083348 18.167547 
L 170.045718 18.275658 
L 171.818182 18.383768 
L 171.818182 27.36 
L 171.818182 27.36 
L 170.045718 27.36 
L 168.083348 27.36 
L 166.120978 27.36 
L 164.22191 27.36 
L 162.259539 27.36 
L 160.360471 27.36 
L 158.398101 27.36 
L 156.435731 27.36 
L 154.536663 27.36 
L 152.574292 27.36 
L 150.675224 27.36 
L 148.712854 27.36 
L 146.94039 27.36 
L 144.97802 27.36 
L 143.01565 27.36 
L 141.116582 27.36 
L 139.154211 27.36 
L 137.255143 27.36 
L 135.292773 27.36 
L 133.330403 27.36 
L 131.431335 27.36 
L 129.468964 27.36 
L 127.569896 27.36 
L 125.607526 27.36 
L 123.77176 27.36 
L 121.80939 27.36 
L 119.84702 27.36 
L 117.947951 27.36 
L 115.985581 27.36 
L 114.086513 27.36 
L 112.124143 27.36 
L 110.161772 27.36 
L 108.262704 27.36 
L 106.300334 27.36 
L 104.401266 27.36 
L 102.438896 27.36 
L 100.666432 27.36 
L 98.704062 27.36 
L 96.741692 27.36 
L 94.842624 27.36 
L 92.880253 27.36 
L 90.981185 27.36 
L 89.018815 27.36 
L 87.056445 27.36 
L 85.157376 27.36 
L 83.195006 27.36 
L 81.295938 27.36 
L 79.333568 27.36 
L 77.561104 27.36 
L 75.598734 27.36 
L 73.636364 27.36 
L 71.737296 27.36 
L 69.774925 27.36 
L 67.875857 27.36 
L 65.913487 27.36 
L 63.951117 27.36 
L 62.052049 27.36 
L 60.089678 27.36 
L 58.19061 27.36 
L 56.22824 27.36 
L 54.455776 27.36 
L 52.493406 27.36 
L 50.531036 27.36 
L 48.631968 27.36 
L 46.669597 27.36 
L 44.770529 27.36 
L 42.808159 27.36 
L 40.845789 27.36 
L 38.946721 27.36 
L 36.98435 27.36 
L 35.085282 27.36 
L 33.122912 27.36 
L 31.287146 27.36 
L 29.324776 27.36 
L 27.362405 27.36 
L 25.463337 27.36 
L 23.500967 27.36 
L 21.601899 27.36 
L 19.639529 27.36 
L 17.677158 27.36 
L 15.77809 27.36 
L 13.81572 27.36 
L 11.916652 27.36 
L 9.954282 27.36 
L 8.181818 27.36 
z
" style="fill:#1f77b4;fill-opacity:0.1;"/>
   </g>
   <g id="matplotlib.axis_1"/>
   <g id="matplotlib.axis_2"/>
   <g id="line2d_1">
    <path clip-path="url(#pf1ca744cfc)" d="M 8.181818 14.640877 
L 9.954282 14.731817 
L 11.916652 14.822758 
L 13.81572 14.913699 
L 15.77809 14.67077 
L 17.677158 14.773652 
L 19.639529 15.115426 
L 21.601899 15.150931 
L 23.500967 15.38307 
L 25.463337 15.348815 
L 27.362405 15.053464 
L 29.324776 15.074603 
L 31.287146 14.919606 
L 33.122912 14.737847 
L 35.085282 14.739238 
L 36.98435 14.561497 
L 38.946721 14.53814 
L 40.845789 14.703792 
L 42.808159 14.804877 
L 44.770529 14.802721 
L 46.669597 14.727675 
L 48.631968 14.713193 
L 50.531036 14.806003 
L 52.493406 14.630748 
L 54.455776 14.498152 
L 56.22824 14.633184 
L 58.19061 14.614178 
L 60.089678 14.359776 
L 62.052049 14.089164 
L 63.951117 14.090556 
L 65.913487 14.05821 
L 67.875857 13.718807 
L 69.774925 13.312381 
L 71.737296 13.041669 
L 73.636364 13.089582 
L 75.598734 13.124074 
L 77.561104 13.066665 
L 79.333568 13.104228 
L 81.295938 13.323331 
L 83.195006 13.542433 
L 85.157376 13.755583 
L 87.056445 14.00634 
L 89.018815 14.115843 
L 90.981185 14.075045 
L 92.880253 14.244535 
L 94.842624 14.675192 
L 96.741692 14.793244 
L 98.704062 15.060621 
L 100.666432 15.202787 
L 102.438896 15.386057 
L 104.401266 15.655778 
L 106.300334 15.694217 
L 108.262704 15.594578 
L 110.161772 15.667793 
L 112.124143 15.690201 
L 114.086513 15.643663 
L 115.985581 15.637561 
L 117.947951 15.785749 
L 119.84702 15.848962 
L 121.80939 15.895914 
L 123.77176 16.205556 
L 125.607526 16.308327 
L 127.569896 16.559764 
L 129.468964 16.758319 
L 131.431335 16.84793 
L 133.330403 16.992467 
L 135.292773 17.217379 
L 137.255143 17.046456 
L 139.154211 17.137269 
L 141.116582 17.175468 
L 143.01565 17.19847 
L 144.97802 17.26651 
L 146.94039 17.377812 
L 148.712854 17.436658 
L 150.675224 17.584335 
L 152.574292 17.687227 
L 154.536663 17.773716 
L 156.435731 17.838405 
L 158.398101 17.861035 
L 160.360471 17.897681 
L 162.259539 17.869138 
L 164.22191 17.994715 
L 166.120978 18.059437 
L 168.083348 18.167547 
L 170.045718 18.275658 
L 171.818182 18.383768 
" style="fill:none;stroke:#1f77b4;stroke-linecap:square;stroke-width:1.5;"/>
   </g>
  </g>
 </g>
 <defs>
  <clipPath id="pf1ca744cfc">
   <rect height="25.92" width="180" x="0" y="1.44"/>
  </clipPath>
 </defs>
</svg>
