<?xml version="1.0" encoding="utf-8" standalone="no"?>
<!DOCTYPE svg PUBLIC "-//W3C//DTD SVG 1.1//EN"
  "http://www.w3.org/Graphics/SVG/1.1/DTD/svg11.dtd">
<!-- Created with matplotlib (http://matplotlib.org/) -->
<svg height="28pt" version="1.1" viewBox="0 0 180 28" width="180pt" xmlns="http://www.w3.org/2000/svg" xmlns:xlink="http://www.w3.org/1999/xlink">
 <defs>
  <style type="text/css">
*{stroke-linecap:butt;stroke-linejoin:round;}
  </style>
 </defs>
 <g id="figure_1">
  <g id="patch_1">
   <path d="M 0 28.8 
L 180 28.8 
L 180 0 
L 0 0 
z
" style="fill:none;"/>
  </g>
  <g id="axes_1">
   <g id="patch_2">
    <path d="M 0 27.36 
L 180 27.36 
L 180 1.44 
L 0 1.44 
z
" style="fill:none;"/>
   </g>
   <g id="PolyCollection_1">
    <path clip-path="url(#pe25995211b)" d="M 8.181818 27.36 
L 8.181818 24.18693 
L 9.954282 23.443219 
L 11.916652 22.699508 
L 13.81572 21.955796 
L 15.77809 21.29661 
L 17.677158 20.699507 
L 19.639529 20.846195 
L 21.601899 20.663028 
L 23.500967 20.519638 
L 25.463337 20.122769 
L 27.362405 19.84209 
L 29.324776 19.558097 
L 31.287146 19.397581 
L 33.122912 19.185832 
L 35.085282 18.981176 
L 36.98435 18.884416 
L 38.946721 19.004451 
L 40.845789 19.260685 
L 42.808159 19.421572 
L 44.770529 19.384248 
L 46.669597 19.230689 
L 48.631968 18.936923 
L 50.531036 18.814774 
L 52.493406 18.364025 
L 54.455776 18.158744 
L 56.22824 18.180058 
L 58.19061 18.23188 
L 60.089678 18.086681 
L 62.052049 18.168423 
L 63.951117 18.248607 
L 65.913487 18.602164 
L 67.875857 18.577493 
L 69.774925 18.223574 
L 71.737296 17.755806 
L 73.636364 17.781343 
L 75.598734 17.922046 
L 77.561104 17.223215 
L 79.333568 17.190127 
L 81.295938 16.948913 
L 83.195006 16.948517 
L 85.157376 17.197783 
L 87.056445 17.369613 
L 89.018815 17.34919 
L 90.981185 17.924561 
L 92.880253 18.190966 
L 94.842624 18.744801 
L 96.741692 19.093032 
L 98.704062 19.51298 
L 100.666432 19.784968 
L 102.438896 19.853983 
L 104.401266 20.192435 
L 106.300334 20.309985 
L 108.262704 20.419553 
L 110.161772 20.402631 
L 112.124143 20.503356 
L 114.086513 20.63965 
L 115.985581 21.048839 
L 117.947951 21.274371 
L 119.84702 21.524409 
L 121.80939 21.699813 
L 123.77176 22.270834 
L 125.607526 22.463617 
L 127.569896 22.579806 
L 129.468964 22.69798 
L 131.431335 22.886093 
L 133.330403 23.118695 
L 135.292773 23.324951 
L 137.255143 23.424812 
L 139.154211 23.629092 
L 141.116582 23.946988 
L 143.01565 24.160781 
L 144.97802 24.306224 
L 146.94039 24.378577 
L 148.712854 24.519528 
L 150.675224 24.624687 
L 152.574292 24.715348 
L 154.536663 24.827943 
L 156.435731 24.898107 
L 158.398101 24.980723 
L 160.360471 25.114653 
L 162.259539 25.189033 
L 164.22191 25.272166 
L 166.120978 25.367558 
L 168.083348 25.449721 
L 170.045718 25.531884 
L 171.818182 25.614048 
L 171.818182 27.36 
L 171.818182 27.36 
L 170.045718 27.36 
L 168.083348 27.36 
L 166.120978 27.36 
L 164.22191 27.36 
L 162.259539 27.36 
L 160.360471 27.36 
L 158.398101 27.36 
L 156.435731 27.36 
L 154.536663 27.36 
L 152.574292 27.36 
L 150.675224 27.36 
L 148.712854 27.36 
L 146.94039 27.36 
L 144.97802 27.36 
L 143.01565 27.36 
L 141.116582 27.36 
L 139.154211 27.36 
L 137.255143 27.36 
L 135.292773 27.36 
L 133.330403 27.36 
L 131.431335 27.36 
L 129.468964 27.36 
L 127.569896 27.36 
L 125.607526 27.36 
L 123.77176 27.36 
L 121.80939 27.36 
L 119.84702 27.36 
L 117.947951 27.36 
L 115.985581 27.36 
L 114.086513 27.36 
L 112.124143 27.36 
L 110.161772 27.36 
L 108.262704 27.36 
L 106.300334 27.36 
L 104.401266 27.36 
L 102.438896 27.36 
L 100.666432 27.36 
L 98.704062 27.36 
L 96.741692 27.36 
L 94.842624 27.36 
L 92.880253 27.36 
L 90.981185 27.36 
L 89.018815 27.36 
L 87.056445 27.36 
L 85.157376 27.36 
L 83.195006 27.36 
L 81.295938 27.36 
L 79.333568 27.36 
L 77.561104 27.36 
L 75.598734 27.36 
L 73.636364 27.36 
L 71.737296 27.36 
L 69.774925 27.36 
L 67.875857 27.36 
L 65.913487 27.36 
L 63.951117 27.36 
L 62.052049 27.36 
L 60.089678 27.36 
L 58.19061 27.36 
L 56.22824 27.36 
L 54.455776 27.36 
L 52.493406 27.36 
L 50.531036 27.36 
L 48.631968 27.36 
L 46.669597 27.36 
L 44.770529 27.36 
L 42.808159 27.36 
L 40.845789 27.36 
L 38.946721 27.36 
L 36.98435 27.36 
L 35.085282 27.36 
L 33.122912 27.36 
L 31.287146 27.36 
L 29.324776 27.36 
L 27.362405 27.36 
L 25.463337 27.36 
L 23.500967 27.36 
L 21.601899 27.36 
L 19.639529 27.36 
L 17.677158 27.36 
L 15.77809 27.36 
L 13.81572 27.36 
L 11.916652 27.36 
L 9.954282 27.36 
L 8.181818 27.36 
z
" style="fill:#1f77b4;fill-opacity:0.1;"/>
   </g>
   <g id="matplotlib.axis_1"/>
   <g id="matplotlib.axis_2"/>
   <g id="line2d_1">
    <path clip-path="url(#pe25995211b)" d="M 8.181818 24.18693 
L 9.954282 23.443219 
L 11.916652 22.699508 
L 13.81572 21.955796 
L 15.77809 21.29661 
L 17.677158 20.699507 
L 19.639529 20.846195 
L 21.601899 20.663028 
L 23.500967 20.519638 
L 25.463337 20.122769 
L 27.362405 19.84209 
L 29.324776 19.558097 
L 31.287146 19.397581 
L 33.122912 19.185832 
L 35.085282 18.981176 
L 36.98435 18.884416 
L 38.946721 19.004451 
L 40.845789 19.260685 
L 42.808159 19.421572 
L 44.770529 19.384248 
L 46.669597 19.230689 
L 48.631968 18.936923 
L 50.531036 18.814774 
L 52.493406 18.364025 
L 54.455776 18.158744 
L 56.22824 18.180058 
L 58.19061 18.23188 
L 60.089678 18.086681 
L 62.052049 18.168423 
L 63.951117 18.248607 
L 65.913487 18.602164 
L 67.875857 18.577493 
L 69.774925 18.223574 
L 71.737296 17.755806 
L 73.636364 17.781343 
L 75.598734 17.922046 
L 77.561104 17.223215 
L 79.333568 17.190127 
L 81.295938 16.948913 
L 83.195006 16.948517 
L 85.157376 17.197783 
L 87.056445 17.369613 
L 89.018815 17.34919 
L 90.981185 17.924561 
L 92.880253 18.190966 
L 94.842624 18.744801 
L 96.741692 19.093032 
L 98.704062 19.51298 
L 100.666432 19.784968 
L 102.438896 19.853983 
L 104.401266 20.192435 
L 106.300334 20.309985 
L 108.262704 20.419553 
L 110.161772 20.402631 
L 112.124143 20.503356 
L 114.086513 20.63965 
L 115.985581 21.048839 
L 117.947951 21.274371 
L 119.84702 21.524409 
L 121.80939 21.699813 
L 123.77176 22.270834 
L 125.607526 22.463617 
L 127.569896 22.579806 
L 129.468964 22.69798 
L 131.431335 22.886093 
L 133.330403 23.118695 
L 135.292773 23.324951 
L 137.255143 23.424812 
L 139.154211 23.629092 
L 141.116582 23.946988 
L 143.01565 24.160781 
L 144.97802 24.306224 
L 146.94039 24.378577 
L 148.712854 24.519528 
L 150.675224 24.624687 
L 152.574292 24.715348 
L 154.536663 24.827943 
L 156.435731 24.898107 
L 158.398101 24.980723 
L 160.360471 25.114653 
L 162.259539 25.189033 
L 164.22191 25.272166 
L 166.120978 25.367558 
L 168.083348 25.449721 
L 170.045718 25.531884 
L 171.818182 25.614048 
" style="fill:none;stroke:#1f77b4;stroke-linecap:square;stroke-width:1.5;"/>
   </g>
  </g>
 </g>
 <defs>
  <clipPath id="pe25995211b">
   <rect height="25.92" width="180" x="0" y="1.44"/>
  </clipPath>
 </defs>
</svg>
