<?xml version="1.0" encoding="utf-8" standalone="no"?>
<!DOCTYPE svg PUBLIC "-//W3C//DTD SVG 1.1//EN"
  "http://www.w3.org/Graphics/SVG/1.1/DTD/svg11.dtd">
<!-- Created with matplotlib (http://matplotlib.org/) -->
<svg height="28pt" version="1.1" viewBox="0 0 180 28" width="180pt" xmlns="http://www.w3.org/2000/svg" xmlns:xlink="http://www.w3.org/1999/xlink">
 <defs>
  <style type="text/css">
*{stroke-linecap:butt;stroke-linejoin:round;}
  </style>
 </defs>
 <g id="figure_1">
  <g id="patch_1">
   <path d="M 0 28.8 
L 180 28.8 
L 180 0 
L 0 0 
z
" style="fill:none;"/>
  </g>
  <g id="axes_1">
   <g id="patch_2">
    <path d="M 0 27.36 
L 180 27.36 
L 180 1.44 
L 0 1.44 
z
" style="fill:none;"/>
   </g>
   <g id="PolyCollection_1">
    <path clip-path="url(#pc7b55360e5)" d="M 8.181818 27.36 
L 8.181818 24.18693 
L 10.018218 23.443219 
L 12.051375 22.699508 
L 14.018947 21.955796 
L 16.052104 21.29661 
L 18.019676 20.700914 
L 20.052833 20.849269 
L 22.08599 20.667413 
L 24.053562 20.524023 
L 26.086719 20.127153 
L 28.05429 19.846474 
L 30.087448 19.562481 
L 32.120605 19.400559 
L 34.022591 19.187142 
L 36.055748 18.981176 
L 38.023319 18.884416 
L 40.056477 19.004451 
L 42.024048 19.260685 
L 44.057205 19.421572 
L 46.090363 19.384248 
L 48.057934 19.230689 
L 50.091091 18.936923 
L 52.058663 18.814774 
L 54.09182 18.364025 
L 56.124977 18.158865 
L 57.961377 18.180178 
L 59.994535 18.232001 
L 61.962106 18.086802 
L 63.995263 18.168544 
L 65.962835 18.248727 
L 67.995992 18.602285 
L 70.029149 18.577493 
L 71.996721 18.223574 
L 74.029878 17.755806 
L 75.997449 17.781343 
L 78.030607 17.922046 
L 80.063764 17.223215 
L 81.900164 17.190127 
L 83.933321 16.948913 
L 85.900893 16.948517 
L 87.93405 17.197783 
L 89.901621 17.369613 
L 91.934779 17.349255 
L 93.967936 17.924626 
L 95.935507 18.191094 
L 97.968665 18.744929 
L 99.936236 19.09316 
L 101.969393 19.513108 
L 104.002551 19.785151 
L 105.838951 19.854208 
L 107.872108 20.192713 
L 109.839679 20.3102 
L 111.872837 20.419818 
L 113.840408 20.402896 
L 115.873565 20.503621 
L 117.906723 20.639907 
L 119.874294 21.049032 
L 121.907451 21.274511 
L 123.875023 21.52455 
L 125.90818 21.699866 
L 127.941337 22.270919 
L 129.843323 22.463741 
L 131.87648 22.579922 
L 133.844052 22.698089 
L 135.877209 22.886167 
L 137.84478 23.118737 
L 139.877938 23.324967 
L 141.911095 23.424828 
L 143.878666 23.629134 
L 145.911824 23.947022 
L 147.879395 24.160833 
L 149.912552 24.306282 
L 151.94571 24.378667 
L 153.78211 24.519711 
L 155.815267 24.625807 
L 157.782838 24.71729 
L 159.815996 24.829936 
L 161.783567 24.900147 
L 163.816724 24.983139 
L 165.849882 25.118242 
L 167.817453 25.197557 
L 169.85061 25.276872 
L 171.818182 25.356187 
L 171.818182 27.36 
L 171.818182 27.36 
L 169.85061 27.36 
L 167.817453 27.36 
L 165.849882 27.36 
L 163.816724 27.36 
L 161.783567 27.36 
L 159.815996 27.36 
L 157.782838 27.36 
L 155.815267 27.36 
L 153.78211 27.36 
L 151.94571 27.36 
L 149.912552 27.36 
L 147.879395 27.36 
L 145.911824 27.36 
L 143.878666 27.36 
L 141.911095 27.36 
L 139.877938 27.36 
L 137.84478 27.36 
L 135.877209 27.36 
L 133.844052 27.36 
L 131.87648 27.36 
L 129.843323 27.36 
L 127.941337 27.36 
L 125.90818 27.36 
L 123.875023 27.36 
L 121.907451 27.36 
L 119.874294 27.36 
L 117.906723 27.36 
L 115.873565 27.36 
L 113.840408 27.36 
L 111.872837 27.36 
L 109.839679 27.36 
L 107.872108 27.36 
L 105.838951 27.36 
L 104.002551 27.36 
L 101.969393 27.36 
L 99.936236 27.36 
L 97.968665 27.36 
L 95.935507 27.36 
L 93.967936 27.36 
L 91.934779 27.36 
L 89.901621 27.36 
L 87.93405 27.36 
L 85.900893 27.36 
L 83.933321 27.36 
L 81.900164 27.36 
L 80.063764 27.36 
L 78.030607 27.36 
L 75.997449 27.36 
L 74.029878 27.36 
L 71.996721 27.36 
L 70.029149 27.36 
L 67.995992 27.36 
L 65.962835 27.36 
L 63.995263 27.36 
L 61.962106 27.36 
L 59.994535 27.36 
L 57.961377 27.36 
L 56.124977 27.36 
L 54.09182 27.36 
L 52.058663 27.36 
L 50.091091 27.36 
L 48.057934 27.36 
L 46.090363 27.36 
L 44.057205 27.36 
L 42.024048 27.36 
L 40.056477 27.36 
L 38.023319 27.36 
L 36.055748 27.36 
L 34.022591 27.36 
L 32.120605 27.36 
L 30.087448 27.36 
L 28.05429 27.36 
L 26.086719 27.36 
L 24.053562 27.36 
L 22.08599 27.36 
L 20.052833 27.36 
L 18.019676 27.36 
L 16.052104 27.36 
L 14.018947 27.36 
L 12.051375 27.36 
L 10.018218 27.36 
L 8.181818 27.36 
z
" style="fill:#1f77b4;fill-opacity:0.1;"/>
   </g>
   <g id="matplotlib.axis_1"/>
   <g id="matplotlib.axis_2"/>
   <g id="line2d_1">
    <path clip-path="url(#pc7b55360e5)" d="M 8.181818 24.18693 
L 10.018218 23.443219 
L 12.051375 22.699508 
L 14.018947 21.955796 
L 16.052104 21.29661 
L 18.019676 20.700914 
L 20.052833 20.849269 
L 22.08599 20.667413 
L 24.053562 20.524023 
L 26.086719 20.127153 
L 28.05429 19.846474 
L 30.087448 19.562481 
L 32.120605 19.400559 
L 34.022591 19.187142 
L 36.055748 18.981176 
L 38.023319 18.884416 
L 40.056477 19.004451 
L 42.024048 19.260685 
L 44.057205 19.421572 
L 46.090363 19.384248 
L 48.057934 19.230689 
L 50.091091 18.936923 
L 52.058663 18.814774 
L 54.09182 18.364025 
L 56.124977 18.158865 
L 57.961377 18.180178 
L 59.994535 18.232001 
L 61.962106 18.086802 
L 63.995263 18.168544 
L 65.962835 18.248727 
L 67.995992 18.602285 
L 70.029149 18.577493 
L 71.996721 18.223574 
L 74.029878 17.755806 
L 75.997449 17.781343 
L 78.030607 17.922046 
L 80.063764 17.223215 
L 81.900164 17.190127 
L 83.933321 16.948913 
L 85.900893 16.948517 
L 87.93405 17.197783 
L 89.901621 17.369613 
L 91.934779 17.349255 
L 93.967936 17.924626 
L 95.935507 18.191094 
L 97.968665 18.744929 
L 99.936236 19.09316 
L 101.969393 19.513108 
L 104.002551 19.785151 
L 105.838951 19.854208 
L 107.872108 20.192713 
L 109.839679 20.3102 
L 111.872837 20.419818 
L 113.840408 20.402896 
L 115.873565 20.503621 
L 117.906723 20.639907 
L 119.874294 21.049032 
L 121.907451 21.274511 
L 123.875023 21.52455 
L 125.90818 21.699866 
L 127.941337 22.270919 
L 129.843323 22.463741 
L 131.87648 22.579922 
L 133.844052 22.698089 
L 135.877209 22.886167 
L 137.84478 23.118737 
L 139.877938 23.324967 
L 141.911095 23.424828 
L 143.878666 23.629134 
L 145.911824 23.947022 
L 147.879395 24.160833 
L 149.912552 24.306282 
L 151.94571 24.378667 
L 153.78211 24.519711 
L 155.815267 24.625807 
L 157.782838 24.71729 
L 159.815996 24.829936 
L 161.783567 24.900147 
L 163.816724 24.983139 
L 165.849882 25.118242 
L 167.817453 25.197557 
L 169.85061 25.276872 
L 171.818182 25.356187 
" style="fill:none;stroke:#1f77b4;stroke-linecap:square;stroke-width:1.5;"/>
   </g>
  </g>
 </g>
 <defs>
  <clipPath id="pc7b55360e5">
   <rect height="25.92" width="180" x="0" y="1.44"/>
  </clipPath>
 </defs>
</svg>
