<?xml version="1.0" encoding="utf-8" standalone="no"?>
<!DOCTYPE svg PUBLIC "-//W3C//DTD SVG 1.1//EN"
  "http://www.w3.org/Graphics/SVG/1.1/DTD/svg11.dtd">
<!-- Created with matplotlib (http://matplotlib.org/) -->
<svg height="28pt" version="1.1" viewBox="0 0 180 28" width="180pt" xmlns="http://www.w3.org/2000/svg" xmlns:xlink="http://www.w3.org/1999/xlink">
 <defs>
  <style type="text/css">
*{stroke-linecap:butt;stroke-linejoin:round;}
  </style>
 </defs>
 <g id="figure_1">
  <g id="patch_1">
   <path d="M 0 28.8 
L 180 28.8 
L 180 0 
L 0 0 
z
" style="fill:none;"/>
  </g>
  <g id="axes_1">
   <g id="patch_2">
    <path d="M 0 27.36 
L 180 27.36 
L 180 1.44 
L 0 1.44 
z
" style="fill:none;"/>
   </g>
   <g id="PolyCollection_1">
    <path clip-path="url(#pcb1497ddee)" d="M 8.181818 27.36 
L 8.181818 26.197816 
L 9.954282 26.144873 
L 11.916652 26.091929 
L 13.81572 26.038986 
L 15.77809 26.011092 
L 17.677158 26.021199 
L 19.639529 26.084806 
L 21.601899 26.168886 
L 23.500967 26.269079 
L 25.463337 26.260885 
L 27.362405 26.262001 
L 29.324776 26.192439 
L 31.287146 26.144126 
L 33.122912 26.134917 
L 35.085282 26.117332 
L 36.98435 26.079022 
L 38.946721 25.881635 
L 40.845789 25.692377 
L 42.808159 25.610696 
L 44.770529 25.475908 
L 46.669597 25.317289 
L 48.631968 25.216466 
L 50.531036 24.978891 
L 52.493406 24.887005 
L 54.455776 24.691652 
L 56.22824 24.435815 
L 58.19061 24.101512 
L 60.089678 23.641322 
L 62.052049 23.224491 
L 63.951117 22.779305 
L 65.913487 22.403957 
L 67.875857 22.050713 
L 69.774925 21.648365 
L 71.737296 21.335588 
L 73.636364 21.331833 
L 75.598734 21.055258 
L 77.561104 20.980027 
L 79.333568 20.696762 
L 81.295938 20.275706 
L 83.195006 19.979143 
L 85.157376 19.836286 
L 87.056445 19.579042 
L 89.018815 19.485516 
L 90.981185 19.122337 
L 92.880253 18.925733 
L 94.842624 18.965591 
L 96.741692 18.89793 
L 98.704062 18.719807 
L 100.666432 18.447237 
L 102.438896 18.20924 
L 104.401266 18.257434 
L 106.300334 17.974139 
L 108.262704 17.773138 
L 110.161772 17.733475 
L 112.124143 17.693428 
L 114.086513 17.594247 
L 115.985581 17.417902 
L 117.947951 17.291312 
L 119.84702 17.451338 
L 121.80939 17.492613 
L 123.77176 17.610539 
L 125.607526 17.532152 
L 127.569896 17.521499 
L 129.468964 17.405514 
L 131.431335 17.284199 
L 133.330403 17.330106 
L 135.292773 17.403671 
L 137.255143 17.188086 
L 139.154211 17.049802 
L 141.116582 16.909536 
L 143.01565 17.004271 
L 144.97802 17.036077 
L 146.94039 16.919627 
L 148.712854 16.772843 
L 150.675224 16.655765 
L 152.574292 16.597954 
L 154.536663 16.659017 
L 156.435731 16.534039 
L 158.398101 16.420359 
L 160.360471 16.361088 
L 162.259539 16.171503 
L 164.22191 16.096131 
L 166.120978 16.016567 
L 168.083348 15.84862 
L 170.045718 15.680674 
L 171.818182 15.512728 
L 171.818182 27.36 
L 171.818182 27.36 
L 170.045718 27.36 
L 168.083348 27.36 
L 166.120978 27.36 
L 164.22191 27.36 
L 162.259539 27.36 
L 160.360471 27.36 
L 158.398101 27.36 
L 156.435731 27.36 
L 154.536663 27.36 
L 152.574292 27.36 
L 150.675224 27.36 
L 148.712854 27.36 
L 146.94039 27.36 
L 144.97802 27.36 
L 143.01565 27.36 
L 141.116582 27.36 
L 139.154211 27.36 
L 137.255143 27.36 
L 135.292773 27.36 
L 133.330403 27.36 
L 131.431335 27.36 
L 129.468964 27.36 
L 127.569896 27.36 
L 125.607526 27.36 
L 123.77176 27.36 
L 121.80939 27.36 
L 119.84702 27.36 
L 117.947951 27.36 
L 115.985581 27.36 
L 114.086513 27.36 
L 112.124143 27.36 
L 110.161772 27.36 
L 108.262704 27.36 
L 106.300334 27.36 
L 104.401266 27.36 
L 102.438896 27.36 
L 100.666432 27.36 
L 98.704062 27.36 
L 96.741692 27.36 
L 94.842624 27.36 
L 92.880253 27.36 
L 90.981185 27.36 
L 89.018815 27.36 
L 87.056445 27.36 
L 85.157376 27.36 
L 83.195006 27.36 
L 81.295938 27.36 
L 79.333568 27.36 
L 77.561104 27.36 
L 75.598734 27.36 
L 73.636364 27.36 
L 71.737296 27.36 
L 69.774925 27.36 
L 67.875857 27.36 
L 65.913487 27.36 
L 63.951117 27.36 
L 62.052049 27.36 
L 60.089678 27.36 
L 58.19061 27.36 
L 56.22824 27.36 
L 54.455776 27.36 
L 52.493406 27.36 
L 50.531036 27.36 
L 48.631968 27.36 
L 46.669597 27.36 
L 44.770529 27.36 
L 42.808159 27.36 
L 40.845789 27.36 
L 38.946721 27.36 
L 36.98435 27.36 
L 35.085282 27.36 
L 33.122912 27.36 
L 31.287146 27.36 
L 29.324776 27.36 
L 27.362405 27.36 
L 25.463337 27.36 
L 23.500967 27.36 
L 21.601899 27.36 
L 19.639529 27.36 
L 17.677158 27.36 
L 15.77809 27.36 
L 13.81572 27.36 
L 11.916652 27.36 
L 9.954282 27.36 
L 8.181818 27.36 
z
" style="fill:#1f77b4;fill-opacity:0.1;"/>
   </g>
   <g id="matplotlib.axis_1"/>
   <g id="matplotlib.axis_2"/>
   <g id="line2d_1">
    <path clip-path="url(#pcb1497ddee)" d="M 8.181818 26.197816 
L 9.954282 26.144873 
L 11.916652 26.091929 
L 13.81572 26.038986 
L 15.77809 26.011092 
L 17.677158 26.021199 
L 19.639529 26.084806 
L 21.601899 26.168886 
L 23.500967 26.269079 
L 25.463337 26.260885 
L 27.362405 26.262001 
L 29.324776 26.192439 
L 31.287146 26.144126 
L 33.122912 26.134917 
L 35.085282 26.117332 
L 36.98435 26.079022 
L 38.946721 25.881635 
L 40.845789 25.692377 
L 42.808159 25.610696 
L 44.770529 25.475908 
L 46.669597 25.317289 
L 48.631968 25.216466 
L 50.531036 24.978891 
L 52.493406 24.887005 
L 54.455776 24.691652 
L 56.22824 24.435815 
L 58.19061 24.101512 
L 60.089678 23.641322 
L 62.052049 23.224491 
L 63.951117 22.779305 
L 65.913487 22.403957 
L 67.875857 22.050713 
L 69.774925 21.648365 
L 71.737296 21.335588 
L 73.636364 21.331833 
L 75.598734 21.055258 
L 77.561104 20.980027 
L 79.333568 20.696762 
L 81.295938 20.275706 
L 83.195006 19.979143 
L 85.157376 19.836286 
L 87.056445 19.579042 
L 89.018815 19.485516 
L 90.981185 19.122337 
L 92.880253 18.925733 
L 94.842624 18.965591 
L 96.741692 18.89793 
L 98.704062 18.719807 
L 100.666432 18.447237 
L 102.438896 18.20924 
L 104.401266 18.257434 
L 106.300334 17.974139 
L 108.262704 17.773138 
L 110.161772 17.733475 
L 112.124143 17.693428 
L 114.086513 17.594247 
L 115.985581 17.417902 
L 117.947951 17.291312 
L 119.84702 17.451338 
L 121.80939 17.492613 
L 123.77176 17.610539 
L 125.607526 17.532152 
L 127.569896 17.521499 
L 129.468964 17.405514 
L 131.431335 17.284199 
L 133.330403 17.330106 
L 135.292773 17.403671 
L 137.255143 17.188086 
L 139.154211 17.049802 
L 141.116582 16.909536 
L 143.01565 17.004271 
L 144.97802 17.036077 
L 146.94039 16.919627 
L 148.712854 16.772843 
L 150.675224 16.655765 
L 152.574292 16.597954 
L 154.536663 16.659017 
L 156.435731 16.534039 
L 158.398101 16.420359 
L 160.360471 16.361088 
L 162.259539 16.171503 
L 164.22191 16.096131 
L 166.120978 16.016567 
L 168.083348 15.84862 
L 170.045718 15.680674 
L 171.818182 15.512728 
" style="fill:none;stroke:#1f77b4;stroke-linecap:square;stroke-width:1.5;"/>
   </g>
  </g>
 </g>
 <defs>
  <clipPath id="pcb1497ddee">
   <rect height="25.92" width="180" x="0" y="1.44"/>
  </clipPath>
 </defs>
</svg>
