<?xml version="1.0" encoding="utf-8" standalone="no"?>
<!DOCTYPE svg PUBLIC "-//W3C//DTD SVG 1.1//EN"
  "http://www.w3.org/Graphics/SVG/1.1/DTD/svg11.dtd">
<!-- Created with matplotlib (http://matplotlib.org/) -->
<svg height="28pt" version="1.1" viewBox="0 0 180 28" width="180pt" xmlns="http://www.w3.org/2000/svg" xmlns:xlink="http://www.w3.org/1999/xlink">
 <defs>
  <style type="text/css">
*{stroke-linecap:butt;stroke-linejoin:round;}
  </style>
 </defs>
 <g id="figure_1">
  <g id="patch_1">
   <path d="M 0 28.8 
L 180 28.8 
L 180 0 
L 0 0 
z
" style="fill:none;"/>
  </g>
  <g id="axes_1">
   <g id="patch_2">
    <path d="M 0 27.36 
L 180 27.36 
L 180 1.44 
L 0 1.44 
z
" style="fill:none;"/>
   </g>
   <g id="PolyCollection_1">
    <path clip-path="url(#pcbdac7048f)" d="M 8.181818 27.36 
L 8.181818 26.143503 
L 10.018218 26.087914 
L 12.051375 26.032325 
L 14.018947 25.976736 
L 16.052104 25.947515 
L 18.019676 25.957729 
L 20.052833 26.024363 
L 22.08599 26.112444 
L 24.053562 26.21737 
L 26.086719 26.208977 
L 28.05429 26.210146 
L 30.087448 26.137273 
L 32.120605 26.086662 
L 34.022591 26.077014 
L 36.055748 26.058593 
L 38.023319 26.018252 
L 40.056477 25.811281 
L 42.024048 25.613015 
L 44.057205 25.527447 
L 46.090363 25.386245 
L 48.057934 25.220077 
L 50.091091 25.114456 
L 52.058663 24.865575 
L 54.09182 24.769316 
L 56.124977 24.564667 
L 57.961377 24.296654 
L 59.994535 23.946442 
L 61.962106 23.464351 
L 63.995263 23.027684 
L 65.962835 22.561311 
L 67.995992 22.168101 
L 70.029149 21.798046 
L 71.996721 21.37655 
L 74.029878 21.048954 
L 75.997449 21.04502 
L 78.030607 20.755283 
L 80.063764 20.676472 
L 81.900164 20.379726 
L 83.933321 19.938633 
L 85.900893 19.627956 
L 87.93405 19.478235 
L 89.901621 19.20875 
L 91.934779 19.110819 
L 93.967936 18.730356 
L 95.935507 18.52444 
L 97.968665 18.566239 
L 99.936236 18.495358 
L 101.969393 18.308759 
L 104.002551 18.023217 
L 105.838951 17.773885 
L 107.872108 17.824449 
L 109.839679 17.527665 
L 111.872837 17.317126 
L 113.840408 17.275708 
L 115.873565 17.233787 
L 117.906723 17.129886 
L 119.874294 16.945173 
L 121.907451 16.812661 
L 123.875023 16.980345 
L 125.90818 17.023621 
L 127.941337 17.147165 
L 129.843323 17.065153 
L 131.87648 17.054103 
L 133.844052 16.932667 
L 135.877209 16.805523 
L 137.84478 16.853767 
L 139.877938 16.931044 
L 141.911095 16.705109 
L 143.878666 16.56029 
L 145.911824 16.413325 
L 147.879395 16.512691 
L 149.912552 16.546338 
L 151.94571 16.424492 
L 153.78211 16.270634 
L 155.815267 16.155751 
L 157.782838 16.104578 
L 159.815996 16.169809 
L 161.783567 16.040012 
L 163.816724 15.926534 
L 165.849882 15.877993 
L 167.817453 15.816966 
L 169.85061 15.75594 
L 171.818182 15.694913 
L 171.818182 27.36 
L 171.818182 27.36 
L 169.85061 27.36 
L 167.817453 27.36 
L 165.849882 27.36 
L 163.816724 27.36 
L 161.783567 27.36 
L 159.815996 27.36 
L 157.782838 27.36 
L 155.815267 27.36 
L 153.78211 27.36 
L 151.94571 27.36 
L 149.912552 27.36 
L 147.879395 27.36 
L 145.911824 27.36 
L 143.878666 27.36 
L 141.911095 27.36 
L 139.877938 27.36 
L 137.84478 27.36 
L 135.877209 27.36 
L 133.844052 27.36 
L 131.87648 27.36 
L 129.843323 27.36 
L 127.941337 27.36 
L 125.90818 27.36 
L 123.875023 27.36 
L 121.907451 27.36 
L 119.874294 27.36 
L 117.906723 27.36 
L 115.873565 27.36 
L 113.840408 27.36 
L 111.872837 27.36 
L 109.839679 27.36 
L 107.872108 27.36 
L 105.838951 27.36 
L 104.002551 27.36 
L 101.969393 27.36 
L 99.936236 27.36 
L 97.968665 27.36 
L 95.935507 27.36 
L 93.967936 27.36 
L 91.934779 27.36 
L 89.901621 27.36 
L 87.93405 27.36 
L 85.900893 27.36 
L 83.933321 27.36 
L 81.900164 27.36 
L 80.063764 27.36 
L 78.030607 27.36 
L 75.997449 27.36 
L 74.029878 27.36 
L 71.996721 27.36 
L 70.029149 27.36 
L 67.995992 27.36 
L 65.962835 27.36 
L 63.995263 27.36 
L 61.962106 27.36 
L 59.994535 27.36 
L 57.961377 27.36 
L 56.124977 27.36 
L 54.09182 27.36 
L 52.058663 27.36 
L 50.091091 27.36 
L 48.057934 27.36 
L 46.090363 27.36 
L 44.057205 27.36 
L 42.024048 27.36 
L 40.056477 27.36 
L 38.023319 27.36 
L 36.055748 27.36 
L 34.022591 27.36 
L 32.120605 27.36 
L 30.087448 27.36 
L 28.05429 27.36 
L 26.086719 27.36 
L 24.053562 27.36 
L 22.08599 27.36 
L 20.052833 27.36 
L 18.019676 27.36 
L 16.052104 27.36 
L 14.018947 27.36 
L 12.051375 27.36 
L 10.018218 27.36 
L 8.181818 27.36 
z
" style="fill:#1f77b4;fill-opacity:0.1;"/>
   </g>
   <g id="matplotlib.axis_1"/>
   <g id="matplotlib.axis_2"/>
   <g id="line2d_1">
    <path clip-path="url(#pcbdac7048f)" d="M 8.181818 26.143503 
L 10.018218 26.087914 
L 12.051375 26.032325 
L 14.018947 25.976736 
L 16.052104 25.947515 
L 18.019676 25.957729 
L 20.052833 26.024363 
L 22.08599 26.112444 
L 24.053562 26.21737 
L 26.086719 26.208977 
L 28.05429 26.210146 
L 30.087448 26.137273 
L 32.120605 26.086662 
L 34.022591 26.077014 
L 36.055748 26.058593 
L 38.023319 26.018252 
L 40.056477 25.811281 
L 42.024048 25.613015 
L 44.057205 25.527447 
L 46.090363 25.386245 
L 48.057934 25.220077 
L 50.091091 25.114456 
L 52.058663 24.865575 
L 54.09182 24.769316 
L 56.124977 24.564667 
L 57.961377 24.296654 
L 59.994535 23.946442 
L 61.962106 23.464351 
L 63.995263 23.027684 
L 65.962835 22.561311 
L 67.995992 22.168101 
L 70.029149 21.798046 
L 71.996721 21.37655 
L 74.029878 21.048954 
L 75.997449 21.04502 
L 78.030607 20.755283 
L 80.063764 20.676472 
L 81.900164 20.379726 
L 83.933321 19.938633 
L 85.900893 19.627956 
L 87.93405 19.478235 
L 89.901621 19.20875 
L 91.934779 19.110819 
L 93.967936 18.730356 
L 95.935507 18.52444 
L 97.968665 18.566239 
L 99.936236 18.495358 
L 101.969393 18.308759 
L 104.002551 18.023217 
L 105.838951 17.773885 
L 107.872108 17.824449 
L 109.839679 17.527665 
L 111.872837 17.317126 
L 113.840408 17.275708 
L 115.873565 17.233787 
L 117.906723 17.129886 
L 119.874294 16.945173 
L 121.907451 16.812661 
L 123.875023 16.980345 
L 125.90818 17.023621 
L 127.941337 17.147165 
L 129.843323 17.065153 
L 131.87648 17.054103 
L 133.844052 16.932667 
L 135.877209 16.805523 
L 137.84478 16.853767 
L 139.877938 16.931044 
L 141.911095 16.705109 
L 143.878666 16.56029 
L 145.911824 16.413325 
L 147.879395 16.512691 
L 149.912552 16.546338 
L 151.94571 16.424492 
L 153.78211 16.270634 
L 155.815267 16.155751 
L 157.782838 16.104578 
L 159.815996 16.169809 
L 161.783567 16.040012 
L 163.816724 15.926534 
L 165.849882 15.877993 
L 167.817453 15.816966 
L 169.85061 15.75594 
L 171.818182 15.694913 
" style="fill:none;stroke:#1f77b4;stroke-linecap:square;stroke-width:1.5;"/>
   </g>
  </g>
 </g>
 <defs>
  <clipPath id="pcbdac7048f">
   <rect height="25.92" width="180" x="0" y="1.44"/>
  </clipPath>
 </defs>
</svg>
