<?xml version="1.0" encoding="utf-8" standalone="no"?>
<!DOCTYPE svg PUBLIC "-//W3C//DTD SVG 1.1//EN"
  "http://www.w3.org/Graphics/SVG/1.1/DTD/svg11.dtd">
<!-- Created with matplotlib (http://matplotlib.org/) -->
<svg height="28pt" version="1.1" viewBox="0 0 180 28" width="180pt" xmlns="http://www.w3.org/2000/svg" xmlns:xlink="http://www.w3.org/1999/xlink">
 <defs>
  <style type="text/css">
*{stroke-linecap:butt;stroke-linejoin:round;}
  </style>
 </defs>
 <g id="figure_1">
  <g id="patch_1">
   <path d="M 0 28.8 
L 180 28.8 
L 180 0 
L 0 0 
z
" style="fill:none;"/>
  </g>
  <g id="axes_1">
   <g id="patch_2">
    <path d="M 0 27.36 
L 180 27.36 
L 180 1.44 
L 0 1.44 
z
" style="fill:none;"/>
   </g>
   <g id="PolyCollection_1">
    <path clip-path="url(#p80924894ae)" d="M 8.181818 27.36 
L 8.181818 22.674897 
L 10.018218 22.467474 
L 12.051375 22.260051 
L 14.018947 22.052628 
L 16.052104 21.962373 
L 18.019676 21.953355 
L 20.052833 21.941377 
L 22.08599 22.034365 
L 24.053562 22.17951 
L 26.086719 22.25018 
L 28.05429 22.269607 
L 30.087448 22.26099 
L 32.120605 22.174822 
L 34.022591 21.88892 
L 36.055748 21.763405 
L 38.023319 21.838053 
L 40.056477 21.789994 
L 42.024048 21.805084 
L 44.057205 21.79096 
L 46.090363 21.867132 
L 48.057934 22.09827 
L 50.091091 22.205717 
L 52.058663 22.200733 
L 54.09182 22.241845 
L 56.124977 22.277039 
L 57.961377 22.396842 
L 59.994535 22.37165 
L 61.962106 22.390689 
L 63.995263 22.410986 
L 65.962835 22.383386 
L 67.995992 22.375659 
L 70.029149 22.274601 
L 71.996721 22.190434 
L 74.029878 22.151446 
L 75.997449 22.038305 
L 78.030607 21.889507 
L 80.063764 21.701112 
L 81.900164 21.385567 
L 83.933321 21.05919 
L 85.900893 20.704665 
L 87.93405 20.432414 
L 89.901621 20.258313 
L 91.934779 20.232393 
L 93.967936 20.399873 
L 95.935507 20.660353 
L 97.968665 21.086112 
L 99.936236 21.36217 
L 101.969393 21.66587 
L 104.002551 21.957021 
L 105.838951 22.06502 
L 107.872108 22.083827 
L 109.839679 22.070494 
L 111.872837 21.994187 
L 113.840408 22.016876 
L 115.873565 21.979191 
L 117.906723 21.890656 
L 119.874294 21.801355 
L 121.907451 21.727989 
L 123.875023 21.735783 
L 125.90818 21.75996 
L 127.941337 21.916571 
L 129.843323 21.937629 
L 131.87648 21.959181 
L 133.844052 22.064524 
L 135.877209 22.176099 
L 137.84478 22.288551 
L 139.877938 22.307234 
L 141.911095 22.105566 
L 143.878666 22.06639 
L 145.911824 22.126347 
L 147.879395 22.147245 
L 149.912552 22.159006 
L 151.94571 22.169735 
L 153.78211 22.225935 
L 155.815267 22.321498 
L 157.782838 22.412223 
L 159.815996 22.476631 
L 161.783567 22.536316 
L 163.816724 22.492863 
L 165.849882 22.36456 
L 167.817453 22.320361 
L 169.85061 22.276161 
L 171.818182 22.231962 
L 171.818182 27.36 
L 171.818182 27.36 
L 169.85061 27.36 
L 167.817453 27.36 
L 165.849882 27.36 
L 163.816724 27.36 
L 161.783567 27.36 
L 159.815996 27.36 
L 157.782838 27.36 
L 155.815267 27.36 
L 153.78211 27.36 
L 151.94571 27.36 
L 149.912552 27.36 
L 147.879395 27.36 
L 145.911824 27.36 
L 143.878666 27.36 
L 141.911095 27.36 
L 139.877938 27.36 
L 137.84478 27.36 
L 135.877209 27.36 
L 133.844052 27.36 
L 131.87648 27.36 
L 129.843323 27.36 
L 127.941337 27.36 
L 125.90818 27.36 
L 123.875023 27.36 
L 121.907451 27.36 
L 119.874294 27.36 
L 117.906723 27.36 
L 115.873565 27.36 
L 113.840408 27.36 
L 111.872837 27.36 
L 109.839679 27.36 
L 107.872108 27.36 
L 105.838951 27.36 
L 104.002551 27.36 
L 101.969393 27.36 
L 99.936236 27.36 
L 97.968665 27.36 
L 95.935507 27.36 
L 93.967936 27.36 
L 91.934779 27.36 
L 89.901621 27.36 
L 87.93405 27.36 
L 85.900893 27.36 
L 83.933321 27.36 
L 81.900164 27.36 
L 80.063764 27.36 
L 78.030607 27.36 
L 75.997449 27.36 
L 74.029878 27.36 
L 71.996721 27.36 
L 70.029149 27.36 
L 67.995992 27.36 
L 65.962835 27.36 
L 63.995263 27.36 
L 61.962106 27.36 
L 59.994535 27.36 
L 57.961377 27.36 
L 56.124977 27.36 
L 54.09182 27.36 
L 52.058663 27.36 
L 50.091091 27.36 
L 48.057934 27.36 
L 46.090363 27.36 
L 44.057205 27.36 
L 42.024048 27.36 
L 40.056477 27.36 
L 38.023319 27.36 
L 36.055748 27.36 
L 34.022591 27.36 
L 32.120605 27.36 
L 30.087448 27.36 
L 28.05429 27.36 
L 26.086719 27.36 
L 24.053562 27.36 
L 22.08599 27.36 
L 20.052833 27.36 
L 18.019676 27.36 
L 16.052104 27.36 
L 14.018947 27.36 
L 12.051375 27.36 
L 10.018218 27.36 
L 8.181818 27.36 
z
" style="fill:#1f77b4;fill-opacity:0.1;"/>
   </g>
   <g id="matplotlib.axis_1"/>
   <g id="matplotlib.axis_2"/>
   <g id="line2d_1">
    <path clip-path="url(#p80924894ae)" d="M 8.181818 22.674897 
L 10.018218 22.467474 
L 12.051375 22.260051 
L 14.018947 22.052628 
L 16.052104 21.962373 
L 18.019676 21.953355 
L 20.052833 21.941377 
L 22.08599 22.034365 
L 24.053562 22.17951 
L 26.086719 22.25018 
L 28.05429 22.269607 
L 30.087448 22.26099 
L 32.120605 22.174822 
L 34.022591 21.88892 
L 36.055748 21.763405 
L 38.023319 21.838053 
L 40.056477 21.789994 
L 42.024048 21.805084 
L 44.057205 21.79096 
L 46.090363 21.867132 
L 48.057934 22.09827 
L 50.091091 22.205717 
L 52.058663 22.200733 
L 54.09182 22.241845 
L 56.124977 22.277039 
L 57.961377 22.396842 
L 59.994535 22.37165 
L 61.962106 22.390689 
L 63.995263 22.410986 
L 65.962835 22.383386 
L 67.995992 22.375659 
L 70.029149 22.274601 
L 71.996721 22.190434 
L 74.029878 22.151446 
L 75.997449 22.038305 
L 78.030607 21.889507 
L 80.063764 21.701112 
L 81.900164 21.385567 
L 83.933321 21.05919 
L 85.900893 20.704665 
L 87.93405 20.432414 
L 89.901621 20.258313 
L 91.934779 20.232393 
L 93.967936 20.399873 
L 95.935507 20.660353 
L 97.968665 21.086112 
L 99.936236 21.36217 
L 101.969393 21.66587 
L 104.002551 21.957021 
L 105.838951 22.06502 
L 107.872108 22.083827 
L 109.839679 22.070494 
L 111.872837 21.994187 
L 113.840408 22.016876 
L 115.873565 21.979191 
L 117.906723 21.890656 
L 119.874294 21.801355 
L 121.907451 21.727989 
L 123.875023 21.735783 
L 125.90818 21.75996 
L 127.941337 21.916571 
L 129.843323 21.937629 
L 131.87648 21.959181 
L 133.844052 22.064524 
L 135.877209 22.176099 
L 137.84478 22.288551 
L 139.877938 22.307234 
L 141.911095 22.105566 
L 143.878666 22.06639 
L 145.911824 22.126347 
L 147.879395 22.147245 
L 149.912552 22.159006 
L 151.94571 22.169735 
L 153.78211 22.225935 
L 155.815267 22.321498 
L 157.782838 22.412223 
L 159.815996 22.476631 
L 161.783567 22.536316 
L 163.816724 22.492863 
L 165.849882 22.36456 
L 167.817453 22.320361 
L 169.85061 22.276161 
L 171.818182 22.231962 
" style="fill:none;stroke:#1f77b4;stroke-linecap:square;stroke-width:1.5;"/>
   </g>
  </g>
 </g>
 <defs>
  <clipPath id="p80924894ae">
   <rect height="25.92" width="180" x="0" y="1.44"/>
  </clipPath>
 </defs>
</svg>
