<?xml version="1.0" encoding="utf-8" standalone="no"?>
<!DOCTYPE svg PUBLIC "-//W3C//DTD SVG 1.1//EN"
  "http://www.w3.org/Graphics/SVG/1.1/DTD/svg11.dtd">
<!-- Created with matplotlib (http://matplotlib.org/) -->
<svg height="28pt" version="1.1" viewBox="0 0 180 28" width="180pt" xmlns="http://www.w3.org/2000/svg" xmlns:xlink="http://www.w3.org/1999/xlink">
 <defs>
  <style type="text/css">
*{stroke-linecap:butt;stroke-linejoin:round;}
  </style>
 </defs>
 <g id="figure_1">
  <g id="patch_1">
   <path d="M 0 28.8 
L 180 28.8 
L 180 0 
L 0 0 
z
" style="fill:none;"/>
  </g>
  <g id="axes_1">
   <g id="patch_2">
    <path d="M 0 27.36 
L 180 27.36 
L 180 1.44 
L 0 1.44 
z
" style="fill:none;"/>
   </g>
   <g id="PolyCollection_1">
    <path clip-path="url(#p8cbe28fd42)" d="M 8.181818 27.36 
L 8.181818 22.674897 
L 9.954282 22.467474 
L 11.916652 22.260051 
L 13.81572 22.052628 
L 15.77809 21.962373 
L 17.677158 21.953355 
L 19.639529 21.941377 
L 21.601899 22.034365 
L 23.500967 22.17951 
L 25.463337 22.25018 
L 27.362405 22.269607 
L 29.324776 22.26099 
L 31.287146 22.174822 
L 33.122912 21.88892 
L 35.085282 21.763405 
L 36.98435 21.838053 
L 38.946721 21.789994 
L 40.845789 21.805084 
L 42.808159 21.79096 
L 44.770529 21.867132 
L 46.669597 22.09827 
L 48.631968 22.205717 
L 50.531036 22.200733 
L 52.493406 22.241845 
L 54.455776 22.276662 
L 56.22824 22.396466 
L 58.19061 22.371273 
L 60.089678 22.390312 
L 62.052049 22.41061 
L 63.951117 22.383009 
L 65.913487 22.375282 
L 67.875857 22.274601 
L 69.774925 22.190434 
L 71.737296 22.151446 
L 73.636364 22.038305 
L 75.598734 21.889507 
L 77.561104 21.701112 
L 79.333568 21.385567 
L 81.295938 21.05919 
L 83.195006 20.704665 
L 85.157376 20.432414 
L 87.056445 20.258313 
L 89.018815 20.232393 
L 90.981185 20.399873 
L 92.880253 20.660353 
L 94.842624 21.086112 
L 96.741692 21.36217 
L 98.704062 21.665701 
L 100.666432 21.956684 
L 102.438896 22.064683 
L 104.401266 22.083323 
L 106.300334 22.069824 
L 108.262704 21.993517 
L 110.161772 22.016061 
L 112.124143 21.978545 
L 114.086513 21.890179 
L 115.985581 21.800877 
L 117.947951 21.727548 
L 119.84702 21.735391 
L 121.80939 21.759333 
L 123.77176 21.915784 
L 125.607526 21.936481 
L 127.569896 21.958033 
L 129.468964 22.063033 
L 131.431335 22.174522 
L 133.330403 22.286887 
L 135.292773 22.305506 
L 137.255143 22.104349 
L 139.154211 22.065031 
L 141.116582 22.124606 
L 143.01565 22.145677 
L 144.97802 22.157205 
L 146.94039 22.167964 
L 148.712854 22.224098 
L 150.675224 22.313775 
L 152.574292 22.397965 
L 154.536663 22.462079 
L 156.435731 22.521457 
L 158.398101 22.472967 
L 160.360471 22.33557 
L 162.259539 22.304812 
L 164.22191 22.412417 
L 166.120978 22.531848 
L 168.083348 22.59524 
L 170.045718 22.658631 
L 171.818182 22.722023 
L 171.818182 27.36 
L 171.818182 27.36 
L 170.045718 27.36 
L 168.083348 27.36 
L 166.120978 27.36 
L 164.22191 27.36 
L 162.259539 27.36 
L 160.360471 27.36 
L 158.398101 27.36 
L 156.435731 27.36 
L 154.536663 27.36 
L 152.574292 27.36 
L 150.675224 27.36 
L 148.712854 27.36 
L 146.94039 27.36 
L 144.97802 27.36 
L 143.01565 27.36 
L 141.116582 27.36 
L 139.154211 27.36 
L 137.255143 27.36 
L 135.292773 27.36 
L 133.330403 27.36 
L 131.431335 27.36 
L 129.468964 27.36 
L 127.569896 27.36 
L 125.607526 27.36 
L 123.77176 27.36 
L 121.80939 27.36 
L 119.84702 27.36 
L 117.947951 27.36 
L 115.985581 27.36 
L 114.086513 27.36 
L 112.124143 27.36 
L 110.161772 27.36 
L 108.262704 27.36 
L 106.300334 27.36 
L 104.401266 27.36 
L 102.438896 27.36 
L 100.666432 27.36 
L 98.704062 27.36 
L 96.741692 27.36 
L 94.842624 27.36 
L 92.880253 27.36 
L 90.981185 27.36 
L 89.018815 27.36 
L 87.056445 27.36 
L 85.157376 27.36 
L 83.195006 27.36 
L 81.295938 27.36 
L 79.333568 27.36 
L 77.561104 27.36 
L 75.598734 27.36 
L 73.636364 27.36 
L 71.737296 27.36 
L 69.774925 27.36 
L 67.875857 27.36 
L 65.913487 27.36 
L 63.951117 27.36 
L 62.052049 27.36 
L 60.089678 27.36 
L 58.19061 27.36 
L 56.22824 27.36 
L 54.455776 27.36 
L 52.493406 27.36 
L 50.531036 27.36 
L 48.631968 27.36 
L 46.669597 27.36 
L 44.770529 27.36 
L 42.808159 27.36 
L 40.845789 27.36 
L 38.946721 27.36 
L 36.98435 27.36 
L 35.085282 27.36 
L 33.122912 27.36 
L 31.287146 27.36 
L 29.324776 27.36 
L 27.362405 27.36 
L 25.463337 27.36 
L 23.500967 27.36 
L 21.601899 27.36 
L 19.639529 27.36 
L 17.677158 27.36 
L 15.77809 27.36 
L 13.81572 27.36 
L 11.916652 27.36 
L 9.954282 27.36 
L 8.181818 27.36 
z
" style="fill:#1f77b4;fill-opacity:0.1;"/>
   </g>
   <g id="matplotlib.axis_1"/>
   <g id="matplotlib.axis_2"/>
   <g id="line2d_1">
    <path clip-path="url(#p8cbe28fd42)" d="M 8.181818 22.674897 
L 9.954282 22.467474 
L 11.916652 22.260051 
L 13.81572 22.052628 
L 15.77809 21.962373 
L 17.677158 21.953355 
L 19.639529 21.941377 
L 21.601899 22.034365 
L 23.500967 22.17951 
L 25.463337 22.25018 
L 27.362405 22.269607 
L 29.324776 22.26099 
L 31.287146 22.174822 
L 33.122912 21.88892 
L 35.085282 21.763405 
L 36.98435 21.838053 
L 38.946721 21.789994 
L 40.845789 21.805084 
L 42.808159 21.79096 
L 44.770529 21.867132 
L 46.669597 22.09827 
L 48.631968 22.205717 
L 50.531036 22.200733 
L 52.493406 22.241845 
L 54.455776 22.276662 
L 56.22824 22.396466 
L 58.19061 22.371273 
L 60.089678 22.390312 
L 62.052049 22.41061 
L 63.951117 22.383009 
L 65.913487 22.375282 
L 67.875857 22.274601 
L 69.774925 22.190434 
L 71.737296 22.151446 
L 73.636364 22.038305 
L 75.598734 21.889507 
L 77.561104 21.701112 
L 79.333568 21.385567 
L 81.295938 21.05919 
L 83.195006 20.704665 
L 85.157376 20.432414 
L 87.056445 20.258313 
L 89.018815 20.232393 
L 90.981185 20.399873 
L 92.880253 20.660353 
L 94.842624 21.086112 
L 96.741692 21.36217 
L 98.704062 21.665701 
L 100.666432 21.956684 
L 102.438896 22.064683 
L 104.401266 22.083323 
L 106.300334 22.069824 
L 108.262704 21.993517 
L 110.161772 22.016061 
L 112.124143 21.978545 
L 114.086513 21.890179 
L 115.985581 21.800877 
L 117.947951 21.727548 
L 119.84702 21.735391 
L 121.80939 21.759333 
L 123.77176 21.915784 
L 125.607526 21.936481 
L 127.569896 21.958033 
L 129.468964 22.063033 
L 131.431335 22.174522 
L 133.330403 22.286887 
L 135.292773 22.305506 
L 137.255143 22.104349 
L 139.154211 22.065031 
L 141.116582 22.124606 
L 143.01565 22.145677 
L 144.97802 22.157205 
L 146.94039 22.167964 
L 148.712854 22.224098 
L 150.675224 22.313775 
L 152.574292 22.397965 
L 154.536663 22.462079 
L 156.435731 22.521457 
L 158.398101 22.472967 
L 160.360471 22.33557 
L 162.259539 22.304812 
L 164.22191 22.412417 
L 166.120978 22.531848 
L 168.083348 22.59524 
L 170.045718 22.658631 
L 171.818182 22.722023 
" style="fill:none;stroke:#1f77b4;stroke-linecap:square;stroke-width:1.5;"/>
   </g>
  </g>
 </g>
 <defs>
  <clipPath id="p8cbe28fd42">
   <rect height="25.92" width="180" x="0" y="1.44"/>
  </clipPath>
 </defs>
</svg>
