<?xml version="1.0" encoding="utf-8" standalone="no"?>
<!DOCTYPE svg PUBLIC "-//W3C//DTD SVG 1.1//EN"
  "http://www.w3.org/Graphics/SVG/1.1/DTD/svg11.dtd">
<!-- Created with matplotlib (http://matplotlib.org/) -->
<svg height="28pt" version="1.1" viewBox="0 0 180 28" width="180pt" xmlns="http://www.w3.org/2000/svg" xmlns:xlink="http://www.w3.org/1999/xlink">
 <defs>
  <style type="text/css">
*{stroke-linecap:butt;stroke-linejoin:round;}
  </style>
 </defs>
 <g id="figure_1">
  <g id="patch_1">
   <path d="M 0 28.8 
L 180 28.8 
L 180 0 
L 0 0 
z
" style="fill:none;"/>
  </g>
  <g id="axes_1">
   <g id="patch_2">
    <path d="M 0 27.36 
L 180 27.36 
L 180 1.44 
L 0 1.44 
z
" style="fill:none;"/>
   </g>
   <g id="PolyCollection_1">
    <path clip-path="url(#p917d59ab4f)" d="M 8.181818 27.36 
L 8.181818 20.505535 
L 9.954282 20.392682 
L 11.916652 20.27983 
L 13.81572 20.166977 
L 15.77809 20.013243 
L 17.677158 19.922856 
L 19.639529 19.987204 
L 21.601899 19.990007 
L 23.500967 20.11917 
L 25.463337 20.068765 
L 27.362405 20.099298 
L 29.324776 20.114603 
L 31.287146 20.111165 
L 33.122912 20.130199 
L 35.085282 20.125103 
L 36.98435 20.190465 
L 38.946721 20.181257 
L 40.845789 20.235991 
L 42.808159 20.329732 
L 44.770529 20.351721 
L 46.669597 20.416254 
L 48.631968 20.592636 
L 50.531036 20.72629 
L 52.493406 20.899841 
L 54.455776 20.898259 
L 56.22824 21.040236 
L 58.19061 21.205599 
L 60.089678 21.16701 
L 62.052049 21.120879 
L 63.951117 21.01553 
L 65.913487 20.901234 
L 67.875857 20.864466 
L 69.774925 20.730377 
L 71.737296 20.716687 
L 73.636364 20.819275 
L 75.598734 20.705544 
L 77.561104 20.645869 
L 79.333568 20.334203 
L 81.295938 20.245362 
L 83.195006 20.122221 
L 85.157376 19.956878 
L 87.056445 19.953678 
L 89.018815 20.124857 
L 90.981185 20.148869 
L 92.880253 20.074468 
L 94.842624 20.223258 
L 96.741692 20.376819 
L 98.704062 20.482262 
L 100.666432 20.416124 
L 102.438896 20.433084 
L 104.401266 20.269372 
L 106.300334 20.746232 
L 108.262704 20.75458 
L 110.161772 20.805164 
L 112.124143 20.893439 
L 114.086513 21.013491 
L 115.985581 20.970477 
L 117.947951 21.27916 
L 119.84702 21.423289 
L 121.80939 21.626608 
L 123.77176 21.897137 
L 125.607526 22.013818 
L 127.569896 22.079122 
L 129.468964 22.313147 
L 131.431335 22.55365 
L 133.330403 22.601567 
L 135.292773 22.68962 
L 137.255143 22.612404 
L 139.154211 22.58745 
L 141.116582 22.767367 
L 143.01565 22.74304 
L 144.97802 22.689855 
L 146.94039 22.671409 
L 148.712854 22.683004 
L 150.675224 22.761344 
L 152.574292 22.857075 
L 154.536663 22.87823 
L 156.435731 22.963702 
L 158.398101 23.059154 
L 160.360471 23.111918 
L 162.259539 23.044103 
L 164.22191 23.089134 
L 166.120978 23.191638 
L 168.083348 23.227579 
L 170.045718 23.26352 
L 171.818182 23.299462 
L 171.818182 27.36 
L 171.818182 27.36 
L 170.045718 27.36 
L 168.083348 27.36 
L 166.120978 27.36 
L 164.22191 27.36 
L 162.259539 27.36 
L 160.360471 27.36 
L 158.398101 27.36 
L 156.435731 27.36 
L 154.536663 27.36 
L 152.574292 27.36 
L 150.675224 27.36 
L 148.712854 27.36 
L 146.94039 27.36 
L 144.97802 27.36 
L 143.01565 27.36 
L 141.116582 27.36 
L 139.154211 27.36 
L 137.255143 27.36 
L 135.292773 27.36 
L 133.330403 27.36 
L 131.431335 27.36 
L 129.468964 27.36 
L 127.569896 27.36 
L 125.607526 27.36 
L 123.77176 27.36 
L 121.80939 27.36 
L 119.84702 27.36 
L 117.947951 27.36 
L 115.985581 27.36 
L 114.086513 27.36 
L 112.124143 27.36 
L 110.161772 27.36 
L 108.262704 27.36 
L 106.300334 27.36 
L 104.401266 27.36 
L 102.438896 27.36 
L 100.666432 27.36 
L 98.704062 27.36 
L 96.741692 27.36 
L 94.842624 27.36 
L 92.880253 27.36 
L 90.981185 27.36 
L 89.018815 27.36 
L 87.056445 27.36 
L 85.157376 27.36 
L 83.195006 27.36 
L 81.295938 27.36 
L 79.333568 27.36 
L 77.561104 27.36 
L 75.598734 27.36 
L 73.636364 27.36 
L 71.737296 27.36 
L 69.774925 27.36 
L 67.875857 27.36 
L 65.913487 27.36 
L 63.951117 27.36 
L 62.052049 27.36 
L 60.089678 27.36 
L 58.19061 27.36 
L 56.22824 27.36 
L 54.455776 27.36 
L 52.493406 27.36 
L 50.531036 27.36 
L 48.631968 27.36 
L 46.669597 27.36 
L 44.770529 27.36 
L 42.808159 27.36 
L 40.845789 27.36 
L 38.946721 27.36 
L 36.98435 27.36 
L 35.085282 27.36 
L 33.122912 27.36 
L 31.287146 27.36 
L 29.324776 27.36 
L 27.362405 27.36 
L 25.463337 27.36 
L 23.500967 27.36 
L 21.601899 27.36 
L 19.639529 27.36 
L 17.677158 27.36 
L 15.77809 27.36 
L 13.81572 27.36 
L 11.916652 27.36 
L 9.954282 27.36 
L 8.181818 27.36 
z
" style="fill:#1f77b4;fill-opacity:0.1;"/>
   </g>
   <g id="matplotlib.axis_1"/>
   <g id="matplotlib.axis_2"/>
   <g id="line2d_1">
    <path clip-path="url(#p917d59ab4f)" d="M 8.181818 20.505535 
L 9.954282 20.392682 
L 11.916652 20.27983 
L 13.81572 20.166977 
L 15.77809 20.013243 
L 17.677158 19.922856 
L 19.639529 19.987204 
L 21.601899 19.990007 
L 23.500967 20.11917 
L 25.463337 20.068765 
L 27.362405 20.099298 
L 29.324776 20.114603 
L 31.287146 20.111165 
L 33.122912 20.130199 
L 35.085282 20.125103 
L 36.98435 20.190465 
L 38.946721 20.181257 
L 40.845789 20.235991 
L 42.808159 20.329732 
L 44.770529 20.351721 
L 46.669597 20.416254 
L 48.631968 20.592636 
L 50.531036 20.72629 
L 52.493406 20.899841 
L 54.455776 20.898259 
L 56.22824 21.040236 
L 58.19061 21.205599 
L 60.089678 21.16701 
L 62.052049 21.120879 
L 63.951117 21.01553 
L 65.913487 20.901234 
L 67.875857 20.864466 
L 69.774925 20.730377 
L 71.737296 20.716687 
L 73.636364 20.819275 
L 75.598734 20.705544 
L 77.561104 20.645869 
L 79.333568 20.334203 
L 81.295938 20.245362 
L 83.195006 20.122221 
L 85.157376 19.956878 
L 87.056445 19.953678 
L 89.018815 20.124857 
L 90.981185 20.148869 
L 92.880253 20.074468 
L 94.842624 20.223258 
L 96.741692 20.376819 
L 98.704062 20.482262 
L 100.666432 20.416124 
L 102.438896 20.433084 
L 104.401266 20.269372 
L 106.300334 20.746232 
L 108.262704 20.75458 
L 110.161772 20.805164 
L 112.124143 20.893439 
L 114.086513 21.013491 
L 115.985581 20.970477 
L 117.947951 21.27916 
L 119.84702 21.423289 
L 121.80939 21.626608 
L 123.77176 21.897137 
L 125.607526 22.013818 
L 127.569896 22.079122 
L 129.468964 22.313147 
L 131.431335 22.55365 
L 133.330403 22.601567 
L 135.292773 22.68962 
L 137.255143 22.612404 
L 139.154211 22.58745 
L 141.116582 22.767367 
L 143.01565 22.74304 
L 144.97802 22.689855 
L 146.94039 22.671409 
L 148.712854 22.683004 
L 150.675224 22.761344 
L 152.574292 22.857075 
L 154.536663 22.87823 
L 156.435731 22.963702 
L 158.398101 23.059154 
L 160.360471 23.111918 
L 162.259539 23.044103 
L 164.22191 23.089134 
L 166.120978 23.191638 
L 168.083348 23.227579 
L 170.045718 23.26352 
L 171.818182 23.299462 
" style="fill:none;stroke:#1f77b4;stroke-linecap:square;stroke-width:1.5;"/>
   </g>
  </g>
 </g>
 <defs>
  <clipPath id="p917d59ab4f">
   <rect height="25.92" width="180" x="0" y="1.44"/>
  </clipPath>
 </defs>
</svg>
