<?xml version="1.0" encoding="utf-8" standalone="no"?>
<!DOCTYPE svg PUBLIC "-//W3C//DTD SVG 1.1//EN"
  "http://www.w3.org/Graphics/SVG/1.1/DTD/svg11.dtd">
<!-- Created with matplotlib (http://matplotlib.org/) -->
<svg height="28pt" version="1.1" viewBox="0 0 180 28" width="180pt" xmlns="http://www.w3.org/2000/svg" xmlns:xlink="http://www.w3.org/1999/xlink">
 <defs>
  <style type="text/css">
*{stroke-linecap:butt;stroke-linejoin:round;}
  </style>
 </defs>
 <g id="figure_1">
  <g id="patch_1">
   <path d="M 0 28.8 
L 180 28.8 
L 180 0 
L 0 0 
z
" style="fill:none;"/>
  </g>
  <g id="axes_1">
   <g id="patch_2">
    <path d="M 0 27.36 
L 180 27.36 
L 180 1.44 
L 0 1.44 
z
" style="fill:none;"/>
   </g>
   <g id="PolyCollection_1">
    <path clip-path="url(#p77d51eb631)" d="M 8.181818 27.36 
L 8.181818 20.504847 
L 10.018218 20.391983 
L 12.051375 20.27912 
L 14.018947 20.166256 
L 16.052104 20.0135 
L 18.019676 19.923105 
L 20.052833 19.987459 
L 22.08599 19.989364 
L 24.053562 20.119341 
L 26.086719 20.068931 
L 28.05429 20.099467 
L 30.087448 20.113779 
L 32.120605 20.110341 
L 34.022591 20.129377 
L 36.055748 20.125179 
L 38.023319 20.189746 
L 40.056477 20.180537 
L 42.024048 20.235277 
L 44.057205 20.329027 
L 46.090363 20.351018 
L 48.057934 20.415558 
L 50.091091 20.591957 
L 52.058663 20.725625 
L 54.09182 20.899193 
L 56.124977 20.897611 
L 57.961377 21.039602 
L 59.994535 21.204982 
L 61.962106 21.166389 
L 63.995263 21.120253 
L 65.962835 21.014893 
L 67.995992 20.900587 
L 70.029149 20.864101 
L 71.996721 20.729998 
L 74.029878 20.716307 
L 75.997449 20.818905 
L 78.030607 20.705163 
L 80.063764 20.645482 
L 81.900164 20.333785 
L 83.933321 20.244648 
L 85.900893 20.121495 
L 87.93405 19.956338 
L 89.901621 19.953137 
L 91.934779 20.124334 
L 93.967936 20.148348 
L 95.935507 20.074113 
L 97.968665 20.222918 
L 99.936236 20.376496 
L 101.969393 20.481746 
L 104.002551 20.415749 
L 105.838951 20.432712 
L 107.872108 20.268983 
L 109.839679 20.745717 
L 111.872837 20.754066 
L 113.840408 20.804655 
L 115.873565 20.893187 
L 117.906723 21.013103 
L 119.874294 20.970084 
L 121.907451 21.279027 
L 123.875023 21.423378 
L 125.90818 21.626821 
L 127.941337 21.897377 
L 129.843323 22.013821 
L 131.87648 22.079238 
L 133.844052 22.313287 
L 135.877209 22.554059 
L 137.84478 22.601955 
L 139.877938 22.690176 
L 141.911095 22.613043 
L 143.878666 22.588353 
L 145.911824 22.768518 
L 147.879395 22.744489 
L 149.912552 22.690981 
L 151.94571 22.672585 
L 153.78211 22.684078 
L 155.815267 22.768059 
L 157.782838 22.869496 
L 159.815996 22.890911 
L 161.783567 22.976863 
L 163.816724 23.077948 
L 165.849882 23.146163 
L 167.817453 23.133196 
L 169.85061 23.120229 
L 171.818182 23.107262 
L 171.818182 27.36 
L 171.818182 27.36 
L 169.85061 27.36 
L 167.817453 27.36 
L 165.849882 27.36 
L 163.816724 27.36 
L 161.783567 27.36 
L 159.815996 27.36 
L 157.782838 27.36 
L 155.815267 27.36 
L 153.78211 27.36 
L 151.94571 27.36 
L 149.912552 27.36 
L 147.879395 27.36 
L 145.911824 27.36 
L 143.878666 27.36 
L 141.911095 27.36 
L 139.877938 27.36 
L 137.84478 27.36 
L 135.877209 27.36 
L 133.844052 27.36 
L 131.87648 27.36 
L 129.843323 27.36 
L 127.941337 27.36 
L 125.90818 27.36 
L 123.875023 27.36 
L 121.907451 27.36 
L 119.874294 27.36 
L 117.906723 27.36 
L 115.873565 27.36 
L 113.840408 27.36 
L 111.872837 27.36 
L 109.839679 27.36 
L 107.872108 27.36 
L 105.838951 27.36 
L 104.002551 27.36 
L 101.969393 27.36 
L 99.936236 27.36 
L 97.968665 27.36 
L 95.935507 27.36 
L 93.967936 27.36 
L 91.934779 27.36 
L 89.901621 27.36 
L 87.93405 27.36 
L 85.900893 27.36 
L 83.933321 27.36 
L 81.900164 27.36 
L 80.063764 27.36 
L 78.030607 27.36 
L 75.997449 27.36 
L 74.029878 27.36 
L 71.996721 27.36 
L 70.029149 27.36 
L 67.995992 27.36 
L 65.962835 27.36 
L 63.995263 27.36 
L 61.962106 27.36 
L 59.994535 27.36 
L 57.961377 27.36 
L 56.124977 27.36 
L 54.09182 27.36 
L 52.058663 27.36 
L 50.091091 27.36 
L 48.057934 27.36 
L 46.090363 27.36 
L 44.057205 27.36 
L 42.024048 27.36 
L 40.056477 27.36 
L 38.023319 27.36 
L 36.055748 27.36 
L 34.022591 27.36 
L 32.120605 27.36 
L 30.087448 27.36 
L 28.05429 27.36 
L 26.086719 27.36 
L 24.053562 27.36 
L 22.08599 27.36 
L 20.052833 27.36 
L 18.019676 27.36 
L 16.052104 27.36 
L 14.018947 27.36 
L 12.051375 27.36 
L 10.018218 27.36 
L 8.181818 27.36 
z
" style="fill:#1f77b4;fill-opacity:0.1;"/>
   </g>
   <g id="matplotlib.axis_1"/>
   <g id="matplotlib.axis_2"/>
   <g id="line2d_1">
    <path clip-path="url(#p77d51eb631)" d="M 8.181818 20.504847 
L 10.018218 20.391983 
L 12.051375 20.27912 
L 14.018947 20.166256 
L 16.052104 20.0135 
L 18.019676 19.923105 
L 20.052833 19.987459 
L 22.08599 19.989364 
L 24.053562 20.119341 
L 26.086719 20.068931 
L 28.05429 20.099467 
L 30.087448 20.113779 
L 32.120605 20.110341 
L 34.022591 20.129377 
L 36.055748 20.125179 
L 38.023319 20.189746 
L 40.056477 20.180537 
L 42.024048 20.235277 
L 44.057205 20.329027 
L 46.090363 20.351018 
L 48.057934 20.415558 
L 50.091091 20.591957 
L 52.058663 20.725625 
L 54.09182 20.899193 
L 56.124977 20.897611 
L 57.961377 21.039602 
L 59.994535 21.204982 
L 61.962106 21.166389 
L 63.995263 21.120253 
L 65.962835 21.014893 
L 67.995992 20.900587 
L 70.029149 20.864101 
L 71.996721 20.729998 
L 74.029878 20.716307 
L 75.997449 20.818905 
L 78.030607 20.705163 
L 80.063764 20.645482 
L 81.900164 20.333785 
L 83.933321 20.244648 
L 85.900893 20.121495 
L 87.93405 19.956338 
L 89.901621 19.953137 
L 91.934779 20.124334 
L 93.967936 20.148348 
L 95.935507 20.074113 
L 97.968665 20.222918 
L 99.936236 20.376496 
L 101.969393 20.481746 
L 104.002551 20.415749 
L 105.838951 20.432712 
L 107.872108 20.268983 
L 109.839679 20.745717 
L 111.872837 20.754066 
L 113.840408 20.804655 
L 115.873565 20.893187 
L 117.906723 21.013103 
L 119.874294 20.970084 
L 121.907451 21.279027 
L 123.875023 21.423378 
L 125.90818 21.626821 
L 127.941337 21.897377 
L 129.843323 22.013821 
L 131.87648 22.079238 
L 133.844052 22.313287 
L 135.877209 22.554059 
L 137.84478 22.601955 
L 139.877938 22.690176 
L 141.911095 22.613043 
L 143.878666 22.588353 
L 145.911824 22.768518 
L 147.879395 22.744489 
L 149.912552 22.690981 
L 151.94571 22.672585 
L 153.78211 22.684078 
L 155.815267 22.768059 
L 157.782838 22.869496 
L 159.815996 22.890911 
L 161.783567 22.976863 
L 163.816724 23.077948 
L 165.849882 23.146163 
L 167.817453 23.133196 
L 169.85061 23.120229 
L 171.818182 23.107262 
" style="fill:none;stroke:#1f77b4;stroke-linecap:square;stroke-width:1.5;"/>
   </g>
  </g>
 </g>
 <defs>
  <clipPath id="p77d51eb631">
   <rect height="25.92" width="180" x="0" y="1.44"/>
  </clipPath>
 </defs>
</svg>
