<?xml version="1.0" encoding="utf-8" standalone="no"?>
<!DOCTYPE svg PUBLIC "-//W3C//DTD SVG 1.1//EN"
  "http://www.w3.org/Graphics/SVG/1.1/DTD/svg11.dtd">
<!-- Created with matplotlib (http://matplotlib.org/) -->
<svg height="28pt" version="1.1" viewBox="0 0 180 28" width="180pt" xmlns="http://www.w3.org/2000/svg" xmlns:xlink="http://www.w3.org/1999/xlink">
 <defs>
  <style type="text/css">
*{stroke-linecap:butt;stroke-linejoin:round;}
  </style>
 </defs>
 <g id="figure_1">
  <g id="patch_1">
   <path d="M 0 28.8 
L 180 28.8 
L 180 0 
L 0 0 
z
" style="fill:none;"/>
  </g>
  <g id="axes_1">
   <g id="patch_2">
    <path d="M 0 27.36 
L 180 27.36 
L 180 1.44 
L 0 1.44 
z
" style="fill:none;"/>
   </g>
   <g id="PolyCollection_1">
    <path clip-path="url(#p35ca4d7d63)" d="M 8.181818 27.36 
L 8.181818 14.103607 
L 9.954282 13.746545 
L 11.916652 13.389483 
L 13.81572 13.032421 
L 15.77809 12.780255 
L 17.677158 12.616325 
L 19.639529 12.546465 
L 21.601899 12.536617 
L 23.500967 12.396441 
L 25.463337 12.246023 
L 27.362405 11.948283 
L 29.324776 11.523093 
L 31.287146 11.147127 
L 33.122912 10.578418 
L 35.085282 10.31696 
L 36.98435 10.109016 
L 38.946721 9.825046 
L 40.845789 9.702462 
L 42.808159 9.591553 
L 44.770529 9.50161 
L 46.669597 9.45432 
L 48.631968 9.319307 
L 50.531036 9.047101 
L 52.493406 8.787026 
L 54.455776 8.547735 
L 56.22824 8.558451 
L 58.19061 8.197872 
L 60.089678 8.089328 
L 62.052049 8.032022 
L 63.951117 8.220427 
L 65.913487 8.408649 
L 67.875857 8.597365 
L 69.774925 8.572903 
L 71.737296 8.960711 
L 73.636364 9.088577 
L 75.598734 9.124144 
L 77.561104 9.130171 
L 79.333568 9.06389 
L 81.295938 9.01637 
L 83.195006 9.029326 
L 85.157376 9.060275 
L 87.056445 9.104885 
L 89.018815 9.177982 
L 90.981185 9.270144 
L 92.880253 9.549286 
L 94.842624 9.902382 
L 96.741692 10.180523 
L 98.704062 10.425478 
L 100.666432 10.713457 
L 102.438896 10.812324 
L 104.401266 10.846243 
L 106.300334 10.837896 
L 108.262704 10.772812 
L 110.161772 10.698247 
L 112.124143 10.566689 
L 114.086513 10.429966 
L 115.985581 10.338209 
L 117.947951 10.434485 
L 119.84702 10.513823 
L 121.80939 10.569241 
L 123.77176 10.952291 
L 125.607526 11.060987 
L 127.569896 11.181603 
L 129.468964 11.378383 
L 131.431335 11.5251 
L 133.330403 11.618013 
L 135.292773 11.761578 
L 137.255143 11.508504 
L 139.154211 11.570203 
L 141.116582 11.630026 
L 143.01565 11.702257 
L 144.97802 11.752262 
L 146.94039 11.804296 
L 148.712854 11.786135 
L 150.675224 11.827928 
L 152.574292 11.814051 
L 154.536663 11.957312 
L 156.435731 12.033393 
L 158.398101 12.103807 
L 160.360471 12.273452 
L 162.259539 12.529202 
L 164.22191 12.769784 
L 166.120978 13.143672 
L 168.083348 13.420934 
L 170.045718 13.698196 
L 171.818182 13.975458 
L 171.818182 27.36 
L 171.818182 27.36 
L 170.045718 27.36 
L 168.083348 27.36 
L 166.120978 27.36 
L 164.22191 27.36 
L 162.259539 27.36 
L 160.360471 27.36 
L 158.398101 27.36 
L 156.435731 27.36 
L 154.536663 27.36 
L 152.574292 27.36 
L 150.675224 27.36 
L 148.712854 27.36 
L 146.94039 27.36 
L 144.97802 27.36 
L 143.01565 27.36 
L 141.116582 27.36 
L 139.154211 27.36 
L 137.255143 27.36 
L 135.292773 27.36 
L 133.330403 27.36 
L 131.431335 27.36 
L 129.468964 27.36 
L 127.569896 27.36 
L 125.607526 27.36 
L 123.77176 27.36 
L 121.80939 27.36 
L 119.84702 27.36 
L 117.947951 27.36 
L 115.985581 27.36 
L 114.086513 27.36 
L 112.124143 27.36 
L 110.161772 27.36 
L 108.262704 27.36 
L 106.300334 27.36 
L 104.401266 27.36 
L 102.438896 27.36 
L 100.666432 27.36 
L 98.704062 27.36 
L 96.741692 27.36 
L 94.842624 27.36 
L 92.880253 27.36 
L 90.981185 27.36 
L 89.018815 27.36 
L 87.056445 27.36 
L 85.157376 27.36 
L 83.195006 27.36 
L 81.295938 27.36 
L 79.333568 27.36 
L 77.561104 27.36 
L 75.598734 27.36 
L 73.636364 27.36 
L 71.737296 27.36 
L 69.774925 27.36 
L 67.875857 27.36 
L 65.913487 27.36 
L 63.951117 27.36 
L 62.052049 27.36 
L 60.089678 27.36 
L 58.19061 27.36 
L 56.22824 27.36 
L 54.455776 27.36 
L 52.493406 27.36 
L 50.531036 27.36 
L 48.631968 27.36 
L 46.669597 27.36 
L 44.770529 27.36 
L 42.808159 27.36 
L 40.845789 27.36 
L 38.946721 27.36 
L 36.98435 27.36 
L 35.085282 27.36 
L 33.122912 27.36 
L 31.287146 27.36 
L 29.324776 27.36 
L 27.362405 27.36 
L 25.463337 27.36 
L 23.500967 27.36 
L 21.601899 27.36 
L 19.639529 27.36 
L 17.677158 27.36 
L 15.77809 27.36 
L 13.81572 27.36 
L 11.916652 27.36 
L 9.954282 27.36 
L 8.181818 27.36 
z
" style="fill:#1f77b4;fill-opacity:0.1;"/>
   </g>
   <g id="matplotlib.axis_1"/>
   <g id="matplotlib.axis_2"/>
   <g id="line2d_1">
    <path clip-path="url(#p35ca4d7d63)" d="M 8.181818 14.103607 
L 9.954282 13.746545 
L 11.916652 13.389483 
L 13.81572 13.032421 
L 15.77809 12.780255 
L 17.677158 12.616325 
L 19.639529 12.546465 
L 21.601899 12.536617 
L 23.500967 12.396441 
L 25.463337 12.246023 
L 27.362405 11.948283 
L 29.324776 11.523093 
L 31.287146 11.147127 
L 33.122912 10.578418 
L 35.085282 10.31696 
L 36.98435 10.109016 
L 38.946721 9.825046 
L 40.845789 9.702462 
L 42.808159 9.591553 
L 44.770529 9.50161 
L 46.669597 9.45432 
L 48.631968 9.319307 
L 50.531036 9.047101 
L 52.493406 8.787026 
L 54.455776 8.547735 
L 56.22824 8.558451 
L 58.19061 8.197872 
L 60.089678 8.089328 
L 62.052049 8.032022 
L 63.951117 8.220427 
L 65.913487 8.408649 
L 67.875857 8.597365 
L 69.774925 8.572903 
L 71.737296 8.960711 
L 73.636364 9.088577 
L 75.598734 9.124144 
L 77.561104 9.130171 
L 79.333568 9.06389 
L 81.295938 9.01637 
L 83.195006 9.029326 
L 85.157376 9.060275 
L 87.056445 9.104885 
L 89.018815 9.177982 
L 90.981185 9.270144 
L 92.880253 9.549286 
L 94.842624 9.902382 
L 96.741692 10.180523 
L 98.704062 10.425478 
L 100.666432 10.713457 
L 102.438896 10.812324 
L 104.401266 10.846243 
L 106.300334 10.837896 
L 108.262704 10.772812 
L 110.161772 10.698247 
L 112.124143 10.566689 
L 114.086513 10.429966 
L 115.985581 10.338209 
L 117.947951 10.434485 
L 119.84702 10.513823 
L 121.80939 10.569241 
L 123.77176 10.952291 
L 125.607526 11.060987 
L 127.569896 11.181603 
L 129.468964 11.378383 
L 131.431335 11.5251 
L 133.330403 11.618013 
L 135.292773 11.761578 
L 137.255143 11.508504 
L 139.154211 11.570203 
L 141.116582 11.630026 
L 143.01565 11.702257 
L 144.97802 11.752262 
L 146.94039 11.804296 
L 148.712854 11.786135 
L 150.675224 11.827928 
L 152.574292 11.814051 
L 154.536663 11.957312 
L 156.435731 12.033393 
L 158.398101 12.103807 
L 160.360471 12.273452 
L 162.259539 12.529202 
L 164.22191 12.769784 
L 166.120978 13.143672 
L 168.083348 13.420934 
L 170.045718 13.698196 
L 171.818182 13.975458 
" style="fill:none;stroke:#1f77b4;stroke-linecap:square;stroke-width:1.5;"/>
   </g>
  </g>
 </g>
 <defs>
  <clipPath id="p35ca4d7d63">
   <rect height="25.92" width="180" x="0" y="1.44"/>
  </clipPath>
 </defs>
</svg>
