<?xml version="1.0" encoding="utf-8" standalone="no"?>
<!DOCTYPE svg PUBLIC "-//W3C//DTD SVG 1.1//EN"
  "http://www.w3.org/Graphics/SVG/1.1/DTD/svg11.dtd">
<!-- Created with matplotlib (http://matplotlib.org/) -->
<svg height="28pt" version="1.1" viewBox="0 0 180 28" width="180pt" xmlns="http://www.w3.org/2000/svg" xmlns:xlink="http://www.w3.org/1999/xlink">
 <defs>
  <style type="text/css">
*{stroke-linecap:butt;stroke-linejoin:round;}
  </style>
 </defs>
 <g id="figure_1">
  <g id="patch_1">
   <path d="M 0 28.8 
L 180 28.8 
L 180 0 
L 0 0 
z
" style="fill:none;"/>
  </g>
  <g id="axes_1">
   <g id="patch_2">
    <path d="M 0 27.36 
L 180 27.36 
L 180 1.44 
L 0 1.44 
z
" style="fill:none;"/>
   </g>
   <g id="PolyCollection_1">
    <path clip-path="url(#p27c5d44a54)" d="M 8.181818 27.36 
L 8.181818 14.104616 
L 10.018218 13.7474 
L 12.051375 13.390184 
L 14.018947 13.032967 
L 16.052104 12.780471 
L 18.019676 12.616478 
L 20.052833 12.546692 
L 22.08599 12.537048 
L 24.053562 12.396689 
L 26.086719 12.24649 
L 28.05429 11.948423 
L 30.087448 11.523039 
L 32.120605 11.146942 
L 34.022591 10.578044 
L 36.055748 10.316365 
L 38.023319 10.108318 
L 40.056477 9.824038 
L 42.024048 9.7015 
L 44.057205 9.590608 
L 46.090363 9.500761 
L 48.057934 9.453512 
L 50.091091 9.318511 
L 52.058663 9.046328 
L 54.09182 8.786331 
L 56.124977 8.548202 
L 57.961377 8.558929 
L 59.994535 8.198246 
L 61.962106 8.08967 
L 63.995263 8.032392 
L 65.962835 8.220817 
L 67.995992 8.40905 
L 70.029149 8.596613 
L 71.996721 8.572174 
L 74.029878 8.96006 
L 75.997449 9.087993 
L 78.030607 9.123612 
L 80.063764 9.129642 
L 81.900164 9.06329 
L 83.933321 9.015776 
L 85.900893 9.028736 
L 87.93405 9.059684 
L 89.901621 9.1043 
L 91.934779 9.177381 
L 93.967936 9.269531 
L 95.935507 9.548713 
L 97.968665 9.90187 
L 99.936236 10.18015 
L 101.969393 10.425118 
L 104.002551 10.713066 
L 105.838951 10.811991 
L 107.872108 10.846147 
L 109.839679 10.837767 
L 111.872837 10.772659 
L 113.840408 10.698062 
L 115.873565 10.566584 
L 117.906723 10.429935 
L 119.874294 10.338183 
L 121.907451 10.434486 
L 123.875023 10.514183 
L 125.90818 10.569835 
L 127.941337 10.953017 
L 129.843323 11.061962 
L 131.87648 11.182838 
L 133.844052 11.379875 
L 135.877209 11.526789 
L 137.84478 11.619823 
L 139.877938 11.763537 
L 141.911095 11.510667 
L 143.878666 11.572571 
L 145.911824 11.632513 
L 147.879395 11.70502 
L 149.912552 11.755307 
L 151.94571 11.807859 
L 153.78211 11.790373 
L 155.815267 11.868066 
L 157.782838 11.896955 
L 159.815996 12.043441 
L 161.783567 12.123115 
L 163.816724 12.213583 
L 165.849882 12.429042 
L 167.817453 12.689406 
L 169.85061 12.94977 
L 171.818182 13.210134 
L 171.818182 27.36 
L 171.818182 27.36 
L 169.85061 27.36 
L 167.817453 27.36 
L 165.849882 27.36 
L 163.816724 27.36 
L 161.783567 27.36 
L 159.815996 27.36 
L 157.782838 27.36 
L 155.815267 27.36 
L 153.78211 27.36 
L 151.94571 27.36 
L 149.912552 27.36 
L 147.879395 27.36 
L 145.911824 27.36 
L 143.878666 27.36 
L 141.911095 27.36 
L 139.877938 27.36 
L 137.84478 27.36 
L 135.877209 27.36 
L 133.844052 27.36 
L 131.87648 27.36 
L 129.843323 27.36 
L 127.941337 27.36 
L 125.90818 27.36 
L 123.875023 27.36 
L 121.907451 27.36 
L 119.874294 27.36 
L 117.906723 27.36 
L 115.873565 27.36 
L 113.840408 27.36 
L 111.872837 27.36 
L 109.839679 27.36 
L 107.872108 27.36 
L 105.838951 27.36 
L 104.002551 27.36 
L 101.969393 27.36 
L 99.936236 27.36 
L 97.968665 27.36 
L 95.935507 27.36 
L 93.967936 27.36 
L 91.934779 27.36 
L 89.901621 27.36 
L 87.93405 27.36 
L 85.900893 27.36 
L 83.933321 27.36 
L 81.900164 27.36 
L 80.063764 27.36 
L 78.030607 27.36 
L 75.997449 27.36 
L 74.029878 27.36 
L 71.996721 27.36 
L 70.029149 27.36 
L 67.995992 27.36 
L 65.962835 27.36 
L 63.995263 27.36 
L 61.962106 27.36 
L 59.994535 27.36 
L 57.961377 27.36 
L 56.124977 27.36 
L 54.09182 27.36 
L 52.058663 27.36 
L 50.091091 27.36 
L 48.057934 27.36 
L 46.090363 27.36 
L 44.057205 27.36 
L 42.024048 27.36 
L 40.056477 27.36 
L 38.023319 27.36 
L 36.055748 27.36 
L 34.022591 27.36 
L 32.120605 27.36 
L 30.087448 27.36 
L 28.05429 27.36 
L 26.086719 27.36 
L 24.053562 27.36 
L 22.08599 27.36 
L 20.052833 27.36 
L 18.019676 27.36 
L 16.052104 27.36 
L 14.018947 27.36 
L 12.051375 27.36 
L 10.018218 27.36 
L 8.181818 27.36 
z
" style="fill:#1f77b4;fill-opacity:0.1;"/>
   </g>
   <g id="matplotlib.axis_1"/>
   <g id="matplotlib.axis_2"/>
   <g id="line2d_1">
    <path clip-path="url(#p27c5d44a54)" d="M 8.181818 14.104616 
L 10.018218 13.7474 
L 12.051375 13.390184 
L 14.018947 13.032967 
L 16.052104 12.780471 
L 18.019676 12.616478 
L 20.052833 12.546692 
L 22.08599 12.537048 
L 24.053562 12.396689 
L 26.086719 12.24649 
L 28.05429 11.948423 
L 30.087448 11.523039 
L 32.120605 11.146942 
L 34.022591 10.578044 
L 36.055748 10.316365 
L 38.023319 10.108318 
L 40.056477 9.824038 
L 42.024048 9.7015 
L 44.057205 9.590608 
L 46.090363 9.500761 
L 48.057934 9.453512 
L 50.091091 9.318511 
L 52.058663 9.046328 
L 54.09182 8.786331 
L 56.124977 8.548202 
L 57.961377 8.558929 
L 59.994535 8.198246 
L 61.962106 8.08967 
L 63.995263 8.032392 
L 65.962835 8.220817 
L 67.995992 8.40905 
L 70.029149 8.596613 
L 71.996721 8.572174 
L 74.029878 8.96006 
L 75.997449 9.087993 
L 78.030607 9.123612 
L 80.063764 9.129642 
L 81.900164 9.06329 
L 83.933321 9.015776 
L 85.900893 9.028736 
L 87.93405 9.059684 
L 89.901621 9.1043 
L 91.934779 9.177381 
L 93.967936 9.269531 
L 95.935507 9.548713 
L 97.968665 9.90187 
L 99.936236 10.18015 
L 101.969393 10.425118 
L 104.002551 10.713066 
L 105.838951 10.811991 
L 107.872108 10.846147 
L 109.839679 10.837767 
L 111.872837 10.772659 
L 113.840408 10.698062 
L 115.873565 10.566584 
L 117.906723 10.429935 
L 119.874294 10.338183 
L 121.907451 10.434486 
L 123.875023 10.514183 
L 125.90818 10.569835 
L 127.941337 10.953017 
L 129.843323 11.061962 
L 131.87648 11.182838 
L 133.844052 11.379875 
L 135.877209 11.526789 
L 137.84478 11.619823 
L 139.877938 11.763537 
L 141.911095 11.510667 
L 143.878666 11.572571 
L 145.911824 11.632513 
L 147.879395 11.70502 
L 149.912552 11.755307 
L 151.94571 11.807859 
L 153.78211 11.790373 
L 155.815267 11.868066 
L 157.782838 11.896955 
L 159.815996 12.043441 
L 161.783567 12.123115 
L 163.816724 12.213583 
L 165.849882 12.429042 
L 167.817453 12.689406 
L 169.85061 12.94977 
L 171.818182 13.210134 
" style="fill:none;stroke:#1f77b4;stroke-linecap:square;stroke-width:1.5;"/>
   </g>
  </g>
 </g>
 <defs>
  <clipPath id="p27c5d44a54">
   <rect height="25.92" width="180" x="0" y="1.44"/>
  </clipPath>
 </defs>
</svg>
