<?xml version="1.0" encoding="utf-8" standalone="no"?>
<!DOCTYPE svg PUBLIC "-//W3C//DTD SVG 1.1//EN"
  "http://www.w3.org/Graphics/SVG/1.1/DTD/svg11.dtd">
<!-- Created with matplotlib (http://matplotlib.org/) -->
<svg height="28pt" version="1.1" viewBox="0 0 180 28" width="180pt" xmlns="http://www.w3.org/2000/svg" xmlns:xlink="http://www.w3.org/1999/xlink">
 <defs>
  <style type="text/css">
*{stroke-linecap:butt;stroke-linejoin:round;}
  </style>
 </defs>
 <g id="figure_1">
  <g id="patch_1">
   <path d="M 0 28.8 
L 180 28.8 
L 180 0 
L 0 0 
z
" style="fill:none;"/>
  </g>
  <g id="axes_1">
   <g id="patch_2">
    <path d="M 0 27.36 
L 180 27.36 
L 180 1.44 
L 0 1.44 
z
" style="fill:none;"/>
   </g>
   <g id="PolyCollection_1">
    <path clip-path="url(#pf34145577a)" d="M 8.181818 27.36 
L 8.181818 17.579917 
L 9.954282 17.418393 
L 11.916652 17.256869 
L 13.81572 17.095345 
L 15.77809 16.782233 
L 17.677158 16.627091 
L 19.639529 16.559361 
L 21.601899 16.374648 
L 23.500967 16.357049 
L 25.463337 16.155201 
L 27.362405 15.74703 
L 29.324776 15.470575 
L 31.287146 15.18456 
L 33.122912 14.964422 
L 35.085282 14.929369 
L 36.98435 14.820435 
L 38.946721 14.66652 
L 40.845789 14.580377 
L 42.808159 14.42815 
L 44.770529 14.329242 
L 46.669597 14.184579 
L 48.631968 14.06094 
L 50.531036 13.680519 
L 52.493406 13.352906 
L 54.455776 13.12523 
L 56.22824 13.252115 
L 58.19061 13.242834 
L 60.089678 13.145507 
L 62.052049 12.900464 
L 63.951117 12.871623 
L 65.913487 12.713384 
L 67.875857 12.58339 
L 69.774925 12.2015 
L 71.737296 11.893794 
L 73.636364 11.540244 
L 75.598734 11.290901 
L 77.561104 11.061931 
L 79.333568 11.14027 
L 81.295938 11.162253 
L 83.195006 11.186052 
L 85.157376 11.170435 
L 87.056445 11.230437 
L 89.018815 11.134492 
L 90.981185 11.076267 
L 92.880253 11.059057 
L 94.842624 11.058848 
L 96.741692 10.826178 
L 98.704062 10.721437 
L 100.666432 10.643629 
L 102.438896 10.758197 
L 104.401266 10.998439 
L 106.300334 11.008067 
L 108.262704 10.910646 
L 110.161772 11.012216 
L 112.124143 11.003505 
L 114.086513 10.992036 
L 115.985581 10.974464 
L 117.947951 10.986589 
L 119.84702 11.005453 
L 121.80939 11.056987 
L 123.77176 11.482184 
L 125.607526 11.795711 
L 127.569896 12.067495 
L 129.468964 12.298037 
L 131.431335 12.426066 
L 133.330403 12.5342 
L 135.292773 12.728452 
L 137.255143 12.388345 
L 139.154211 12.454623 
L 141.116582 12.390391 
L 143.01565 12.260343 
L 144.97802 12.167221 
L 146.94039 12.16288 
L 148.712854 12.224317 
L 150.675224 12.457471 
L 152.574292 12.460676 
L 154.536663 12.631463 
L 156.435731 12.827192 
L 158.398101 12.915206 
L 160.360471 13.127621 
L 162.259539 13.388589 
L 164.22191 13.695577 
L 166.120978 13.965449 
L 168.083348 14.354935 
L 170.045718 14.744422 
L 171.818182 15.133908 
L 171.818182 27.36 
L 171.818182 27.36 
L 170.045718 27.36 
L 168.083348 27.36 
L 166.120978 27.36 
L 164.22191 27.36 
L 162.259539 27.36 
L 160.360471 27.36 
L 158.398101 27.36 
L 156.435731 27.36 
L 154.536663 27.36 
L 152.574292 27.36 
L 150.675224 27.36 
L 148.712854 27.36 
L 146.94039 27.36 
L 144.97802 27.36 
L 143.01565 27.36 
L 141.116582 27.36 
L 139.154211 27.36 
L 137.255143 27.36 
L 135.292773 27.36 
L 133.330403 27.36 
L 131.431335 27.36 
L 129.468964 27.36 
L 127.569896 27.36 
L 125.607526 27.36 
L 123.77176 27.36 
L 121.80939 27.36 
L 119.84702 27.36 
L 117.947951 27.36 
L 115.985581 27.36 
L 114.086513 27.36 
L 112.124143 27.36 
L 110.161772 27.36 
L 108.262704 27.36 
L 106.300334 27.36 
L 104.401266 27.36 
L 102.438896 27.36 
L 100.666432 27.36 
L 98.704062 27.36 
L 96.741692 27.36 
L 94.842624 27.36 
L 92.880253 27.36 
L 90.981185 27.36 
L 89.018815 27.36 
L 87.056445 27.36 
L 85.157376 27.36 
L 83.195006 27.36 
L 81.295938 27.36 
L 79.333568 27.36 
L 77.561104 27.36 
L 75.598734 27.36 
L 73.636364 27.36 
L 71.737296 27.36 
L 69.774925 27.36 
L 67.875857 27.36 
L 65.913487 27.36 
L 63.951117 27.36 
L 62.052049 27.36 
L 60.089678 27.36 
L 58.19061 27.36 
L 56.22824 27.36 
L 54.455776 27.36 
L 52.493406 27.36 
L 50.531036 27.36 
L 48.631968 27.36 
L 46.669597 27.36 
L 44.770529 27.36 
L 42.808159 27.36 
L 40.845789 27.36 
L 38.946721 27.36 
L 36.98435 27.36 
L 35.085282 27.36 
L 33.122912 27.36 
L 31.287146 27.36 
L 29.324776 27.36 
L 27.362405 27.36 
L 25.463337 27.36 
L 23.500967 27.36 
L 21.601899 27.36 
L 19.639529 27.36 
L 17.677158 27.36 
L 15.77809 27.36 
L 13.81572 27.36 
L 11.916652 27.36 
L 9.954282 27.36 
L 8.181818 27.36 
z
" style="fill:#1f77b4;fill-opacity:0.1;"/>
   </g>
   <g id="matplotlib.axis_1"/>
   <g id="matplotlib.axis_2"/>
   <g id="line2d_1">
    <path clip-path="url(#pf34145577a)" d="M 8.181818 17.579917 
L 9.954282 17.418393 
L 11.916652 17.256869 
L 13.81572 17.095345 
L 15.77809 16.782233 
L 17.677158 16.627091 
L 19.639529 16.559361 
L 21.601899 16.374648 
L 23.500967 16.357049 
L 25.463337 16.155201 
L 27.362405 15.74703 
L 29.324776 15.470575 
L 31.287146 15.18456 
L 33.122912 14.964422 
L 35.085282 14.929369 
L 36.98435 14.820435 
L 38.946721 14.66652 
L 40.845789 14.580377 
L 42.808159 14.42815 
L 44.770529 14.329242 
L 46.669597 14.184579 
L 48.631968 14.06094 
L 50.531036 13.680519 
L 52.493406 13.352906 
L 54.455776 13.12523 
L 56.22824 13.252115 
L 58.19061 13.242834 
L 60.089678 13.145507 
L 62.052049 12.900464 
L 63.951117 12.871623 
L 65.913487 12.713384 
L 67.875857 12.58339 
L 69.774925 12.2015 
L 71.737296 11.893794 
L 73.636364 11.540244 
L 75.598734 11.290901 
L 77.561104 11.061931 
L 79.333568 11.14027 
L 81.295938 11.162253 
L 83.195006 11.186052 
L 85.157376 11.170435 
L 87.056445 11.230437 
L 89.018815 11.134492 
L 90.981185 11.076267 
L 92.880253 11.059057 
L 94.842624 11.058848 
L 96.741692 10.826178 
L 98.704062 10.721437 
L 100.666432 10.643629 
L 102.438896 10.758197 
L 104.401266 10.998439 
L 106.300334 11.008067 
L 108.262704 10.910646 
L 110.161772 11.012216 
L 112.124143 11.003505 
L 114.086513 10.992036 
L 115.985581 10.974464 
L 117.947951 10.986589 
L 119.84702 11.005453 
L 121.80939 11.056987 
L 123.77176 11.482184 
L 125.607526 11.795711 
L 127.569896 12.067495 
L 129.468964 12.298037 
L 131.431335 12.426066 
L 133.330403 12.5342 
L 135.292773 12.728452 
L 137.255143 12.388345 
L 139.154211 12.454623 
L 141.116582 12.390391 
L 143.01565 12.260343 
L 144.97802 12.167221 
L 146.94039 12.16288 
L 148.712854 12.224317 
L 150.675224 12.457471 
L 152.574292 12.460676 
L 154.536663 12.631463 
L 156.435731 12.827192 
L 158.398101 12.915206 
L 160.360471 13.127621 
L 162.259539 13.388589 
L 164.22191 13.695577 
L 166.120978 13.965449 
L 168.083348 14.354935 
L 170.045718 14.744422 
L 171.818182 15.133908 
" style="fill:none;stroke:#1f77b4;stroke-linecap:square;stroke-width:1.5;"/>
   </g>
  </g>
 </g>
 <defs>
  <clipPath id="pf34145577a">
   <rect height="25.92" width="180" x="0" y="1.44"/>
  </clipPath>
 </defs>
</svg>
