<?xml version="1.0" encoding="utf-8" standalone="no"?>
<!DOCTYPE svg PUBLIC "-//W3C//DTD SVG 1.1//EN"
  "http://www.w3.org/Graphics/SVG/1.1/DTD/svg11.dtd">
<!-- Created with matplotlib (http://matplotlib.org/) -->
<svg height="28pt" version="1.1" viewBox="0 0 180 28" width="180pt" xmlns="http://www.w3.org/2000/svg" xmlns:xlink="http://www.w3.org/1999/xlink">
 <defs>
  <style type="text/css">
*{stroke-linecap:butt;stroke-linejoin:round;}
  </style>
 </defs>
 <g id="figure_1">
  <g id="patch_1">
   <path d="M 0 28.8 
L 180 28.8 
L 180 0 
L 0 0 
z
" style="fill:none;"/>
  </g>
  <g id="axes_1">
   <g id="patch_2">
    <path d="M 0 27.36 
L 180 27.36 
L 180 1.44 
L 0 1.44 
z
" style="fill:none;"/>
   </g>
   <g id="PolyCollection_1">
    <path clip-path="url(#pc28a50e6e5)" d="M 8.181818 27.36 
L 8.181818 17.581616 
L 10.018218 17.419837 
L 12.051375 17.258058 
L 14.018947 17.09628 
L 16.052104 16.783032 
L 18.019676 16.628524 
L 20.052833 16.560873 
L 22.08599 16.376437 
L 24.053562 16.358743 
L 26.086719 16.15711 
L 28.05429 15.748736 
L 30.087448 15.471834 
L 32.120605 15.185045 
L 34.022591 14.964819 
L 36.055748 14.92937 
L 38.023319 14.820362 
L 40.056477 14.666163 
L 42.024048 14.580058 
L 44.057205 14.427826 
L 46.090363 14.32907 
L 48.057934 14.184469 
L 50.091091 14.060858 
L 52.058663 13.680572 
L 54.09182 13.352961 
L 56.124977 13.126201 
L 57.961377 13.253144 
L 59.994535 13.243788 
L 61.962106 13.146556 
L 63.995263 12.901528 
L 65.962835 12.872562 
L 67.995992 12.714308 
L 70.029149 12.583372 
L 71.996721 12.201462 
L 74.029878 11.893709 
L 75.997449 11.540024 
L 78.030607 11.290737 
L 80.063764 11.061812 
L 81.900164 11.140204 
L 83.933321 11.162296 
L 85.900893 11.186089 
L 87.93405 11.170517 
L 89.901621 11.230528 
L 91.934779 11.134556 
L 93.967936 11.076302 
L 95.935507 11.059131 
L 97.968665 11.058847 
L 99.936236 10.826248 
L 101.969393 10.721507 
L 104.002551 10.643806 
L 105.838951 10.758374 
L 107.872108 10.998845 
L 109.839679 11.008439 
L 111.872837 10.911088 
L 113.840408 11.012689 
L 115.873565 11.004061 
L 117.906723 10.99257 
L 119.874294 10.975066 
L 121.907451 10.987346 
L 123.875023 11.006562 
L 125.90818 11.058484 
L 127.941337 11.484106 
L 129.843323 11.798104 
L 131.87648 12.07022 
L 133.844052 12.301169 
L 135.877209 12.429464 
L 137.84478 12.537652 
L 139.877938 12.732349 
L 141.911095 12.392331 
L 143.878666 12.458772 
L 145.911824 12.394769 
L 147.879395 12.265268 
L 149.912552 12.173007 
L 151.94571 12.16989 
L 153.78211 12.232008 
L 155.815267 12.520184 
L 157.782838 12.587609 
L 159.815996 12.763892 
L 161.783567 12.964681 
L 163.816724 13.085491 
L 165.849882 13.369135 
L 167.817453 13.519209 
L 169.85061 13.669284 
L 171.818182 13.819359 
L 171.818182 27.36 
L 171.818182 27.36 
L 169.85061 27.36 
L 167.817453 27.36 
L 165.849882 27.36 
L 163.816724 27.36 
L 161.783567 27.36 
L 159.815996 27.36 
L 157.782838 27.36 
L 155.815267 27.36 
L 153.78211 27.36 
L 151.94571 27.36 
L 149.912552 27.36 
L 147.879395 27.36 
L 145.911824 27.36 
L 143.878666 27.36 
L 141.911095 27.36 
L 139.877938 27.36 
L 137.84478 27.36 
L 135.877209 27.36 
L 133.844052 27.36 
L 131.87648 27.36 
L 129.843323 27.36 
L 127.941337 27.36 
L 125.90818 27.36 
L 123.875023 27.36 
L 121.907451 27.36 
L 119.874294 27.36 
L 117.906723 27.36 
L 115.873565 27.36 
L 113.840408 27.36 
L 111.872837 27.36 
L 109.839679 27.36 
L 107.872108 27.36 
L 105.838951 27.36 
L 104.002551 27.36 
L 101.969393 27.36 
L 99.936236 27.36 
L 97.968665 27.36 
L 95.935507 27.36 
L 93.967936 27.36 
L 91.934779 27.36 
L 89.901621 27.36 
L 87.93405 27.36 
L 85.900893 27.36 
L 83.933321 27.36 
L 81.900164 27.36 
L 80.063764 27.36 
L 78.030607 27.36 
L 75.997449 27.36 
L 74.029878 27.36 
L 71.996721 27.36 
L 70.029149 27.36 
L 67.995992 27.36 
L 65.962835 27.36 
L 63.995263 27.36 
L 61.962106 27.36 
L 59.994535 27.36 
L 57.961377 27.36 
L 56.124977 27.36 
L 54.09182 27.36 
L 52.058663 27.36 
L 50.091091 27.36 
L 48.057934 27.36 
L 46.090363 27.36 
L 44.057205 27.36 
L 42.024048 27.36 
L 40.056477 27.36 
L 38.023319 27.36 
L 36.055748 27.36 
L 34.022591 27.36 
L 32.120605 27.36 
L 30.087448 27.36 
L 28.05429 27.36 
L 26.086719 27.36 
L 24.053562 27.36 
L 22.08599 27.36 
L 20.052833 27.36 
L 18.019676 27.36 
L 16.052104 27.36 
L 14.018947 27.36 
L 12.051375 27.36 
L 10.018218 27.36 
L 8.181818 27.36 
z
" style="fill:#1f77b4;fill-opacity:0.1;"/>
   </g>
   <g id="matplotlib.axis_1"/>
   <g id="matplotlib.axis_2"/>
   <g id="line2d_1">
    <path clip-path="url(#pc28a50e6e5)" d="M 8.181818 17.581616 
L 10.018218 17.419837 
L 12.051375 17.258058 
L 14.018947 17.09628 
L 16.052104 16.783032 
L 18.019676 16.628524 
L 20.052833 16.560873 
L 22.08599 16.376437 
L 24.053562 16.358743 
L 26.086719 16.15711 
L 28.05429 15.748736 
L 30.087448 15.471834 
L 32.120605 15.185045 
L 34.022591 14.964819 
L 36.055748 14.92937 
L 38.023319 14.820362 
L 40.056477 14.666163 
L 42.024048 14.580058 
L 44.057205 14.427826 
L 46.090363 14.32907 
L 48.057934 14.184469 
L 50.091091 14.060858 
L 52.058663 13.680572 
L 54.09182 13.352961 
L 56.124977 13.126201 
L 57.961377 13.253144 
L 59.994535 13.243788 
L 61.962106 13.146556 
L 63.995263 12.901528 
L 65.962835 12.872562 
L 67.995992 12.714308 
L 70.029149 12.583372 
L 71.996721 12.201462 
L 74.029878 11.893709 
L 75.997449 11.540024 
L 78.030607 11.290737 
L 80.063764 11.061812 
L 81.900164 11.140204 
L 83.933321 11.162296 
L 85.900893 11.186089 
L 87.93405 11.170517 
L 89.901621 11.230528 
L 91.934779 11.134556 
L 93.967936 11.076302 
L 95.935507 11.059131 
L 97.968665 11.058847 
L 99.936236 10.826248 
L 101.969393 10.721507 
L 104.002551 10.643806 
L 105.838951 10.758374 
L 107.872108 10.998845 
L 109.839679 11.008439 
L 111.872837 10.911088 
L 113.840408 11.012689 
L 115.873565 11.004061 
L 117.906723 10.99257 
L 119.874294 10.975066 
L 121.907451 10.987346 
L 123.875023 11.006562 
L 125.90818 11.058484 
L 127.941337 11.484106 
L 129.843323 11.798104 
L 131.87648 12.07022 
L 133.844052 12.301169 
L 135.877209 12.429464 
L 137.84478 12.537652 
L 139.877938 12.732349 
L 141.911095 12.392331 
L 143.878666 12.458772 
L 145.911824 12.394769 
L 147.879395 12.265268 
L 149.912552 12.173007 
L 151.94571 12.16989 
L 153.78211 12.232008 
L 155.815267 12.520184 
L 157.782838 12.587609 
L 159.815996 12.763892 
L 161.783567 12.964681 
L 163.816724 13.085491 
L 165.849882 13.369135 
L 167.817453 13.519209 
L 169.85061 13.669284 
L 171.818182 13.819359 
" style="fill:none;stroke:#1f77b4;stroke-linecap:square;stroke-width:1.5;"/>
   </g>
  </g>
 </g>
 <defs>
  <clipPath id="pc28a50e6e5">
   <rect height="25.92" width="180" x="0" y="1.44"/>
  </clipPath>
 </defs>
</svg>
