<?xml version="1.0" encoding="utf-8" standalone="no"?>
<!DOCTYPE svg PUBLIC "-//W3C//DTD SVG 1.1//EN"
  "http://www.w3.org/Graphics/SVG/1.1/DTD/svg11.dtd">
<!-- Created with matplotlib (http://matplotlib.org/) -->
<svg height="28pt" version="1.1" viewBox="0 0 180 28" width="180pt" xmlns="http://www.w3.org/2000/svg" xmlns:xlink="http://www.w3.org/1999/xlink">
 <defs>
  <style type="text/css">
*{stroke-linecap:butt;stroke-linejoin:round;}
  </style>
 </defs>
 <g id="figure_1">
  <g id="patch_1">
   <path d="M 0 28.8 
L 180 28.8 
L 180 0 
L 0 0 
z
" style="fill:none;"/>
  </g>
  <g id="axes_1">
   <g id="patch_2">
    <path d="M 0 27.36 
L 180 27.36 
L 180 1.44 
L 0 1.44 
z
" style="fill:none;"/>
   </g>
   <g id="PolyCollection_1">
    <path clip-path="url(#p9ac79a02c8)" d="M 8.181818 27.36 
L 8.181818 27.329203 
L 9.954282 27.32282 
L 11.916652 27.316438 
L 13.81572 27.310056 
L 15.77809 27.306962 
L 17.677158 27.299379 
L 19.639529 27.294465 
L 21.601899 27.289373 
L 23.500967 27.287866 
L 25.463337 27.276041 
L 27.362405 27.279237 
L 29.324776 27.287688 
L 31.287146 27.295978 
L 33.122912 27.300735 
L 44.770529 27.305623 
L 46.669597 27.310867 
L 48.631968 27.308441 
L 50.531036 27.309425 
L 52.493406 27.303177 
L 54.455776 27.300788 
L 56.22824 27.299598 
L 58.19061 27.296277 
L 60.089678 27.289396 
L 62.052049 27.290468 
L 63.951117 27.287127 
L 65.913487 27.284373 
L 67.875857 27.268851 
L 69.774925 27.248838 
L 71.737296 27.238044 
L 73.636364 27.22541 
L 75.598734 27.209516 
L 77.561104 27.196441 
L 79.333568 27.179141 
L 81.295938 27.138972 
L 83.195006 27.127704 
L 85.157376 27.118363 
L 87.056445 27.120677 
L 89.018815 27.132252 
L 90.981185 27.126318 
L 92.880253 26.890334 
L 94.842624 26.733064 
L 96.741692 26.511058 
L 98.704062 26.302448 
L 100.666432 26.078623 
L 102.438896 25.852541 
L 104.401266 25.59903 
L 106.300334 25.461242 
L 108.262704 25.291963 
L 110.161772 25.162241 
L 112.124143 24.817984 
L 114.086513 24.5336 
L 115.985581 24.196026 
L 117.947951 23.8028 
L 119.84702 23.556219 
L 121.80939 23.179561 
L 123.77176 22.910265 
L 125.607526 22.667264 
L 127.569896 22.4996 
L 129.468964 22.364981 
L 131.431335 22.271738 
L 133.330403 21.985575 
L 135.292773 21.884538 
L 137.255143 21.561397 
L 139.154211 21.380042 
L 141.116582 21.010617 
L 143.01565 20.583431 
L 144.97802 20.187017 
L 146.94039 19.935768 
L 148.712854 19.476581 
L 150.675224 19.066827 
L 152.574292 18.781261 
L 154.536663 18.379832 
L 156.435731 18.080538 
L 158.398101 17.634867 
L 160.360471 17.29102 
L 162.259539 17.083084 
L 164.22191 17.071362 
L 166.120978 16.87018 
L 168.083348 16.897465 
L 170.045718 16.924751 
L 171.818182 16.952036 
L 171.818182 27.36 
L 171.818182 27.36 
L 170.045718 27.36 
L 168.083348 27.36 
L 166.120978 27.36 
L 164.22191 27.36 
L 162.259539 27.36 
L 160.360471 27.36 
L 158.398101 27.36 
L 156.435731 27.36 
L 154.536663 27.36 
L 152.574292 27.36 
L 150.675224 27.36 
L 148.712854 27.36 
L 146.94039 27.36 
L 144.97802 27.36 
L 143.01565 27.36 
L 141.116582 27.36 
L 139.154211 27.36 
L 137.255143 27.36 
L 135.292773 27.36 
L 133.330403 27.36 
L 131.431335 27.36 
L 129.468964 27.36 
L 127.569896 27.36 
L 125.607526 27.36 
L 123.77176 27.36 
L 121.80939 27.36 
L 119.84702 27.36 
L 117.947951 27.36 
L 115.985581 27.36 
L 114.086513 27.36 
L 112.124143 27.36 
L 110.161772 27.36 
L 108.262704 27.36 
L 106.300334 27.36 
L 104.401266 27.36 
L 102.438896 27.36 
L 100.666432 27.36 
L 98.704062 27.36 
L 96.741692 27.36 
L 94.842624 27.36 
L 92.880253 27.36 
L 90.981185 27.36 
L 89.018815 27.36 
L 87.056445 27.36 
L 85.157376 27.36 
L 83.195006 27.36 
L 81.295938 27.36 
L 79.333568 27.36 
L 77.561104 27.36 
L 75.598734 27.36 
L 73.636364 27.36 
L 71.737296 27.36 
L 69.774925 27.36 
L 67.875857 27.36 
L 65.913487 27.36 
L 63.951117 27.36 
L 62.052049 27.36 
L 60.089678 27.36 
L 58.19061 27.36 
L 56.22824 27.36 
L 54.455776 27.36 
L 52.493406 27.36 
L 50.531036 27.36 
L 48.631968 27.36 
L 46.669597 27.36 
L 44.770529 27.36 
L 33.122912 27.36 
L 31.287146 27.36 
L 29.324776 27.36 
L 27.362405 27.36 
L 25.463337 27.36 
L 23.500967 27.36 
L 21.601899 27.36 
L 19.639529 27.36 
L 17.677158 27.36 
L 15.77809 27.36 
L 13.81572 27.36 
L 11.916652 27.36 
L 9.954282 27.36 
L 8.181818 27.36 
z
" style="fill:#1f77b4;fill-opacity:0.1;"/>
   </g>
   <g id="matplotlib.axis_1"/>
   <g id="matplotlib.axis_2"/>
   <g id="line2d_1">
    <path clip-path="url(#p9ac79a02c8)" d="M 8.181818 27.329203 
L 9.954282 27.32282 
L 11.916652 27.316438 
L 13.81572 27.310056 
L 15.77809 27.306962 
L 17.677158 27.299379 
L 19.639529 27.294465 
L 21.601899 27.289373 
L 23.500967 27.287866 
L 25.463337 27.276041 
L 27.362405 27.279237 
L 29.324776 27.287688 
L 31.287146 27.295978 
L 33.122912 27.300735 
L 44.770529 27.305623 
L 46.669597 27.310867 
L 48.631968 27.308441 
L 50.531036 27.309425 
L 52.493406 27.303177 
L 54.455776 27.300788 
L 56.22824 27.299598 
L 58.19061 27.296277 
L 60.089678 27.289396 
L 62.052049 27.290468 
L 63.951117 27.287127 
L 65.913487 27.284373 
L 67.875857 27.268851 
L 69.774925 27.248838 
L 71.737296 27.238044 
L 73.636364 27.22541 
L 75.598734 27.209516 
L 77.561104 27.196441 
L 79.333568 27.179141 
L 81.295938 27.138972 
L 83.195006 27.127704 
L 85.157376 27.118363 
L 87.056445 27.120677 
L 89.018815 27.132252 
L 90.981185 27.126318 
L 92.880253 26.890334 
L 94.842624 26.733064 
L 96.741692 26.511058 
L 98.704062 26.302448 
L 100.666432 26.078623 
L 102.438896 25.852541 
L 104.401266 25.59903 
L 106.300334 25.461242 
L 108.262704 25.291963 
L 110.161772 25.162241 
L 112.124143 24.817984 
L 114.086513 24.5336 
L 115.985581 24.196026 
L 117.947951 23.8028 
L 119.84702 23.556219 
L 121.80939 23.179561 
L 123.77176 22.910265 
L 125.607526 22.667264 
L 127.569896 22.4996 
L 129.468964 22.364981 
L 131.431335 22.271738 
L 133.330403 21.985575 
L 135.292773 21.884538 
L 137.255143 21.561397 
L 139.154211 21.380042 
L 141.116582 21.010617 
L 143.01565 20.583431 
L 144.97802 20.187017 
L 146.94039 19.935768 
L 148.712854 19.476581 
L 150.675224 19.066827 
L 152.574292 18.781261 
L 154.536663 18.379832 
L 156.435731 18.080538 
L 158.398101 17.634867 
L 160.360471 17.29102 
L 162.259539 17.083084 
L 164.22191 17.071362 
L 166.120978 16.87018 
L 168.083348 16.897465 
L 170.045718 16.924751 
L 171.818182 16.952036 
" style="fill:none;stroke:#1f77b4;stroke-linecap:square;stroke-width:1.5;"/>
   </g>
  </g>
 </g>
 <defs>
  <clipPath id="p9ac79a02c8">
   <rect height="25.92" width="180" x="0" y="1.44"/>
  </clipPath>
 </defs>
</svg>
