<?xml version="1.0" encoding="utf-8" standalone="no"?>
<!DOCTYPE svg PUBLIC "-//W3C//DTD SVG 1.1//EN"
  "http://www.w3.org/Graphics/SVG/1.1/DTD/svg11.dtd">
<!-- Created with matplotlib (http://matplotlib.org/) -->
<svg height="28pt" version="1.1" viewBox="0 0 180 28" width="180pt" xmlns="http://www.w3.org/2000/svg" xmlns:xlink="http://www.w3.org/1999/xlink">
 <defs>
  <style type="text/css">
*{stroke-linecap:butt;stroke-linejoin:round;}
  </style>
 </defs>
 <g id="figure_1">
  <g id="patch_1">
   <path d="M 0 28.8 
L 180 28.8 
L 180 0 
L 0 0 
z
" style="fill:none;"/>
  </g>
  <g id="axes_1">
   <g id="patch_2">
    <path d="M 0 27.36 
L 180 27.36 
L 180 1.44 
L 0 1.44 
z
" style="fill:none;"/>
   </g>
   <g id="PolyCollection_1">
    <path clip-path="url(#pbd9fadfeac)" d="M 8.181818 27.36 
L 8.181818 27.329676 
L 10.018218 27.323392 
L 12.051375 27.317108 
L 14.018947 27.310824 
L 16.052104 27.307778 
L 18.019676 27.300312 
L 20.052833 27.295473 
L 22.08599 27.290459 
L 24.053562 27.288975 
L 26.086719 27.277332 
L 28.05429 27.280478 
L 30.087448 27.288799 
L 32.120605 27.296963 
L 34.022591 27.301647 
L 46.090363 27.306614 
L 48.057934 27.311912 
L 50.091091 27.309522 
L 52.058663 27.310492 
L 54.09182 27.30434 
L 56.124977 27.302104 
L 57.961377 27.300932 
L 59.994535 27.297614 
L 61.962106 27.290705 
L 63.995263 27.29176 
L 65.962835 27.288567 
L 67.995992 27.285855 
L 70.029149 27.270455 
L 71.996721 27.250842 
L 74.029878 27.240108 
L 75.997449 27.227907 
L 78.030607 27.212335 
L 80.063764 27.199365 
L 81.900164 27.182331 
L 83.933321 27.142857 
L 85.900893 27.131901 
L 87.93405 27.122703 
L 89.901621 27.124806 
L 91.934779 27.136375 
L 93.967936 27.130663 
L 95.935507 26.898429 
L 97.968665 26.743559 
L 99.936236 26.524892 
L 101.969393 26.319751 
L 104.002551 26.099512 
L 105.838951 25.876863 
L 107.872108 25.627479 
L 109.839679 25.491945 
L 111.872837 25.325643 
L 113.840408 25.197981 
L 115.873565 24.858887 
L 117.906723 24.578712 
L 119.874294 24.246333 
L 121.907451 23.858996 
L 123.875023 23.61613 
L 125.90818 23.245122 
L 127.941337 22.980056 
L 129.843323 22.740847 
L 131.87648 22.576014 
L 133.844052 22.443572 
L 135.877209 22.351861 
L 137.84478 22.07039 
L 139.877938 21.971232 
L 141.911095 21.653513 
L 143.878666 21.475849 
L 145.911824 21.112662 
L 147.879395 20.693174 
L 149.912552 20.303802 
L 151.94571 20.057565 
L 153.78211 19.606201 
L 155.815267 19.221756 
L 157.782838 18.966711 
L 159.815996 18.574906 
L 161.783567 18.284888 
L 163.816724 17.870502 
L 165.849882 17.588938 
L 167.817453 17.331245 
L 169.85061 17.073552 
L 171.818182 16.815859 
L 171.818182 27.36 
L 171.818182 27.36 
L 169.85061 27.36 
L 167.817453 27.36 
L 165.849882 27.36 
L 163.816724 27.36 
L 161.783567 27.36 
L 159.815996 27.36 
L 157.782838 27.36 
L 155.815267 27.36 
L 153.78211 27.36 
L 151.94571 27.36 
L 149.912552 27.36 
L 147.879395 27.36 
L 145.911824 27.36 
L 143.878666 27.36 
L 141.911095 27.36 
L 139.877938 27.36 
L 137.84478 27.36 
L 135.877209 27.36 
L 133.844052 27.36 
L 131.87648 27.36 
L 129.843323 27.36 
L 127.941337 27.36 
L 125.90818 27.36 
L 123.875023 27.36 
L 121.907451 27.36 
L 119.874294 27.36 
L 117.906723 27.36 
L 115.873565 27.36 
L 113.840408 27.36 
L 111.872837 27.36 
L 109.839679 27.36 
L 107.872108 27.36 
L 105.838951 27.36 
L 104.002551 27.36 
L 101.969393 27.36 
L 99.936236 27.36 
L 97.968665 27.36 
L 95.935507 27.36 
L 93.967936 27.36 
L 91.934779 27.36 
L 89.901621 27.36 
L 87.93405 27.36 
L 85.900893 27.36 
L 83.933321 27.36 
L 81.900164 27.36 
L 80.063764 27.36 
L 78.030607 27.36 
L 75.997449 27.36 
L 74.029878 27.36 
L 71.996721 27.36 
L 70.029149 27.36 
L 67.995992 27.36 
L 65.962835 27.36 
L 63.995263 27.36 
L 61.962106 27.36 
L 59.994535 27.36 
L 57.961377 27.36 
L 56.124977 27.36 
L 54.09182 27.36 
L 52.058663 27.36 
L 50.091091 27.36 
L 48.057934 27.36 
L 46.090363 27.36 
L 34.022591 27.36 
L 32.120605 27.36 
L 30.087448 27.36 
L 28.05429 27.36 
L 26.086719 27.36 
L 24.053562 27.36 
L 22.08599 27.36 
L 20.052833 27.36 
L 18.019676 27.36 
L 16.052104 27.36 
L 14.018947 27.36 
L 12.051375 27.36 
L 10.018218 27.36 
L 8.181818 27.36 
z
" style="fill:#1f77b4;fill-opacity:0.1;"/>
   </g>
   <g id="matplotlib.axis_1"/>
   <g id="matplotlib.axis_2"/>
   <g id="line2d_1">
    <path clip-path="url(#pbd9fadfeac)" d="M 8.181818 27.329676 
L 10.018218 27.323392 
L 12.051375 27.317108 
L 14.018947 27.310824 
L 16.052104 27.307778 
L 18.019676 27.300312 
L 20.052833 27.295473 
L 22.08599 27.290459 
L 24.053562 27.288975 
L 26.086719 27.277332 
L 28.05429 27.280478 
L 30.087448 27.288799 
L 32.120605 27.296963 
L 34.022591 27.301647 
L 46.090363 27.306614 
L 48.057934 27.311912 
L 50.091091 27.309522 
L 52.058663 27.310492 
L 54.09182 27.30434 
L 56.124977 27.302104 
L 57.961377 27.300932 
L 59.994535 27.297614 
L 61.962106 27.290705 
L 63.995263 27.29176 
L 65.962835 27.288567 
L 67.995992 27.285855 
L 70.029149 27.270455 
L 71.996721 27.250842 
L 74.029878 27.240108 
L 75.997449 27.227907 
L 78.030607 27.212335 
L 80.063764 27.199365 
L 81.900164 27.182331 
L 83.933321 27.142857 
L 85.900893 27.131901 
L 87.93405 27.122703 
L 89.901621 27.124806 
L 91.934779 27.136375 
L 93.967936 27.130663 
L 95.935507 26.898429 
L 97.968665 26.743559 
L 99.936236 26.524892 
L 101.969393 26.319751 
L 104.002551 26.099512 
L 105.838951 25.876863 
L 107.872108 25.627479 
L 109.839679 25.491945 
L 111.872837 25.325643 
L 113.840408 25.197981 
L 115.873565 24.858887 
L 117.906723 24.578712 
L 119.874294 24.246333 
L 121.907451 23.858996 
L 123.875023 23.61613 
L 125.90818 23.245122 
L 127.941337 22.980056 
L 129.843323 22.740847 
L 131.87648 22.576014 
L 133.844052 22.443572 
L 135.877209 22.351861 
L 137.84478 22.07039 
L 139.877938 21.971232 
L 141.911095 21.653513 
L 143.878666 21.475849 
L 145.911824 21.112662 
L 147.879395 20.693174 
L 149.912552 20.303802 
L 151.94571 20.057565 
L 153.78211 19.606201 
L 155.815267 19.221756 
L 157.782838 18.966711 
L 159.815996 18.574906 
L 161.783567 18.284888 
L 163.816724 17.870502 
L 165.849882 17.588938 
L 167.817453 17.331245 
L 169.85061 17.073552 
L 171.818182 16.815859 
" style="fill:none;stroke:#1f77b4;stroke-linecap:square;stroke-width:1.5;"/>
   </g>
  </g>
 </g>
 <defs>
  <clipPath id="pbd9fadfeac">
   <rect height="25.92" width="180" x="0" y="1.44"/>
  </clipPath>
 </defs>
</svg>
