<?xml version="1.0" encoding="utf-8" standalone="no"?>
<!DOCTYPE svg PUBLIC "-//W3C//DTD SVG 1.1//EN"
  "http://www.w3.org/Graphics/SVG/1.1/DTD/svg11.dtd">
<!-- Created with matplotlib (http://matplotlib.org/) -->
<svg height="28pt" version="1.1" viewBox="0 0 180 28" width="180pt" xmlns="http://www.w3.org/2000/svg" xmlns:xlink="http://www.w3.org/1999/xlink">
 <defs>
  <style type="text/css">
*{stroke-linecap:butt;stroke-linejoin:round;}
  </style>
 </defs>
 <g id="figure_1">
  <g id="patch_1">
   <path d="M 0 28.8 
L 180 28.8 
L 180 0 
L 0 0 
z
" style="fill:none;"/>
  </g>
  <g id="axes_1">
   <g id="patch_2">
    <path d="M 0 27.36 
L 180 27.36 
L 180 1.44 
L 0 1.44 
z
" style="fill:none;"/>
   </g>
   <g id="PolyCollection_1">
    <path clip-path="url(#p6edea7a159)" d="M 8.181818 27.36 
L 8.181818 27.337638 
L 10.018218 27.33737 
L 12.051375 27.337102 
L 14.018947 27.336835 
L 16.052104 27.339566 
L 18.019676 27.338959 
L 20.052833 27.336959 
L 22.08599 27.339116 
L 24.053562 27.340447 
L 26.086719 27.261614 
L 28.05429 27.244366 
L 30.087448 27.239878 
L 32.120605 27.235111 
L 34.022591 27.230643 
L 36.055748 27.224426 
L 38.023319 27.219527 
L 40.056477 27.294687 
L 42.024048 27.306446 
L 44.057205 27.304234 
L 46.090363 27.293318 
L 48.057934 27.288831 
L 50.091091 27.285584 
L 52.058663 27.282347 
L 54.09182 27.279971 
L 56.124977 27.274361 
L 57.961377 27.272797 
L 59.994535 27.278954 
L 61.962106 27.279829 
L 63.995263 27.278087 
L 65.962835 27.275119 
L 67.995992 27.272164 
L 70.029149 27.27352 
L 71.996721 27.272776 
L 74.029878 27.265014 
L 75.997449 27.26448 
L 78.030607 27.265396 
L 80.063764 27.260399 
L 81.900164 27.254532 
L 83.933321 27.245762 
L 85.900893 27.235415 
L 87.93405 27.214451 
L 89.901621 27.159875 
L 91.934779 27.119335 
L 93.967936 27.080276 
L 95.935507 26.93602 
L 97.968665 26.832383 
L 99.936236 26.699147 
L 101.969393 26.569306 
L 104.002551 26.402621 
L 105.838951 26.131598 
L 107.872108 25.962643 
L 109.839679 25.862654 
L 111.872837 25.792232 
L 113.840408 25.719971 
L 115.873565 25.635878 
L 117.906723 25.607551 
L 119.874294 25.6469 
L 121.907451 25.486541 
L 123.875023 25.417476 
L 125.90818 25.312426 
L 127.941337 25.069582 
L 129.843323 25.025074 
L 131.87648 24.921233 
L 133.844052 24.817272 
L 135.877209 24.88062 
L 137.84478 24.850221 
L 139.877938 24.742056 
L 141.911095 24.767214 
L 143.878666 24.677882 
L 145.911824 24.596411 
L 147.879395 24.53965 
L 149.912552 24.402261 
L 151.94571 23.773604 
L 153.78211 23.345615 
L 155.815267 22.997259 
L 157.782838 22.607663 
L 159.815996 22.281111 
L 161.783567 21.690696 
L 163.816724 21.27409 
L 165.849882 20.670113 
L 167.817453 19.994059 
L 169.85061 19.318004 
L 171.818182 18.64195 
L 171.818182 27.36 
L 171.818182 27.36 
L 169.85061 27.36 
L 167.817453 27.36 
L 165.849882 27.36 
L 163.816724 27.36 
L 161.783567 27.36 
L 159.815996 27.36 
L 157.782838 27.36 
L 155.815267 27.36 
L 153.78211 27.36 
L 151.94571 27.36 
L 149.912552 27.36 
L 147.879395 27.36 
L 145.911824 27.36 
L 143.878666 27.36 
L 141.911095 27.36 
L 139.877938 27.36 
L 137.84478 27.36 
L 135.877209 27.36 
L 133.844052 27.36 
L 131.87648 27.36 
L 129.843323 27.36 
L 127.941337 27.36 
L 125.90818 27.36 
L 123.875023 27.36 
L 121.907451 27.36 
L 119.874294 27.36 
L 117.906723 27.36 
L 115.873565 27.36 
L 113.840408 27.36 
L 111.872837 27.36 
L 109.839679 27.36 
L 107.872108 27.36 
L 105.838951 27.36 
L 104.002551 27.36 
L 101.969393 27.36 
L 99.936236 27.36 
L 97.968665 27.36 
L 95.935507 27.36 
L 93.967936 27.36 
L 91.934779 27.36 
L 89.901621 27.36 
L 87.93405 27.36 
L 85.900893 27.36 
L 83.933321 27.36 
L 81.900164 27.36 
L 80.063764 27.36 
L 78.030607 27.36 
L 75.997449 27.36 
L 74.029878 27.36 
L 71.996721 27.36 
L 70.029149 27.36 
L 67.995992 27.36 
L 65.962835 27.36 
L 63.995263 27.36 
L 61.962106 27.36 
L 59.994535 27.36 
L 57.961377 27.36 
L 56.124977 27.36 
L 54.09182 27.36 
L 52.058663 27.36 
L 50.091091 27.36 
L 48.057934 27.36 
L 46.090363 27.36 
L 44.057205 27.36 
L 42.024048 27.36 
L 40.056477 27.36 
L 38.023319 27.36 
L 36.055748 27.36 
L 34.022591 27.36 
L 32.120605 27.36 
L 30.087448 27.36 
L 28.05429 27.36 
L 26.086719 27.36 
L 24.053562 27.36 
L 22.08599 27.36 
L 20.052833 27.36 
L 18.019676 27.36 
L 16.052104 27.36 
L 14.018947 27.36 
L 12.051375 27.36 
L 10.018218 27.36 
L 8.181818 27.36 
z
" style="fill:#1f77b4;fill-opacity:0.1;"/>
   </g>
   <g id="matplotlib.axis_1"/>
   <g id="matplotlib.axis_2"/>
   <g id="line2d_1">
    <path clip-path="url(#p6edea7a159)" d="M 8.181818 27.337638 
L 10.018218 27.33737 
L 12.051375 27.337102 
L 14.018947 27.336835 
L 16.052104 27.339566 
L 18.019676 27.338959 
L 20.052833 27.336959 
L 22.08599 27.339116 
L 24.053562 27.340447 
L 26.086719 27.261614 
L 28.05429 27.244366 
L 30.087448 27.239878 
L 32.120605 27.235111 
L 34.022591 27.230643 
L 36.055748 27.224426 
L 38.023319 27.219527 
L 40.056477 27.294687 
L 42.024048 27.306446 
L 44.057205 27.304234 
L 46.090363 27.293318 
L 48.057934 27.288831 
L 50.091091 27.285584 
L 52.058663 27.282347 
L 54.09182 27.279971 
L 56.124977 27.274361 
L 57.961377 27.272797 
L 59.994535 27.278954 
L 61.962106 27.279829 
L 63.995263 27.278087 
L 65.962835 27.275119 
L 67.995992 27.272164 
L 70.029149 27.27352 
L 71.996721 27.272776 
L 74.029878 27.265014 
L 75.997449 27.26448 
L 78.030607 27.265396 
L 80.063764 27.260399 
L 81.900164 27.254532 
L 83.933321 27.245762 
L 85.900893 27.235415 
L 87.93405 27.214451 
L 89.901621 27.159875 
L 91.934779 27.119335 
L 93.967936 27.080276 
L 95.935507 26.93602 
L 97.968665 26.832383 
L 99.936236 26.699147 
L 101.969393 26.569306 
L 104.002551 26.402621 
L 105.838951 26.131598 
L 107.872108 25.962643 
L 109.839679 25.862654 
L 111.872837 25.792232 
L 113.840408 25.719971 
L 115.873565 25.635878 
L 117.906723 25.607551 
L 119.874294 25.6469 
L 121.907451 25.486541 
L 123.875023 25.417476 
L 125.90818 25.312426 
L 127.941337 25.069582 
L 129.843323 25.025074 
L 131.87648 24.921233 
L 133.844052 24.817272 
L 135.877209 24.88062 
L 137.84478 24.850221 
L 139.877938 24.742056 
L 141.911095 24.767214 
L 143.878666 24.677882 
L 145.911824 24.596411 
L 147.879395 24.53965 
L 149.912552 24.402261 
L 151.94571 23.773604 
L 153.78211 23.345615 
L 155.815267 22.997259 
L 157.782838 22.607663 
L 159.815996 22.281111 
L 161.783567 21.690696 
L 163.816724 21.27409 
L 165.849882 20.670113 
L 167.817453 19.994059 
L 169.85061 19.318004 
L 171.818182 18.64195 
" style="fill:none;stroke:#1f77b4;stroke-linecap:square;stroke-width:1.5;"/>
   </g>
  </g>
 </g>
 <defs>
  <clipPath id="p6edea7a159">
   <rect height="25.92" width="180" x="0" y="1.44"/>
  </clipPath>
 </defs>
</svg>
