<?xml version="1.0" encoding="utf-8" standalone="no"?>
<!DOCTYPE svg PUBLIC "-//W3C//DTD SVG 1.1//EN"
  "http://www.w3.org/Graphics/SVG/1.1/DTD/svg11.dtd">
<!-- Created with matplotlib (http://matplotlib.org/) -->
<svg height="28pt" version="1.1" viewBox="0 0 180 28" width="180pt" xmlns="http://www.w3.org/2000/svg" xmlns:xlink="http://www.w3.org/1999/xlink">
 <defs>
  <style type="text/css">
*{stroke-linecap:butt;stroke-linejoin:round;}
  </style>
 </defs>
 <g id="figure_1">
  <g id="patch_1">
   <path d="M 0 28.8 
L 180 28.8 
L 180 0 
L 0 0 
z
" style="fill:none;"/>
  </g>
  <g id="axes_1">
   <g id="patch_2">
    <path d="M 0 27.36 
L 180 27.36 
L 180 1.44 
L 0 1.44 
z
" style="fill:none;"/>
   </g>
   <g id="PolyCollection_1">
    <path clip-path="url(#p371074a1cb)" d="M 8.181818 27.36 
L 8.181818 27.335045 
L 9.954282 27.334746 
L 11.916652 27.334448 
L 13.81572 27.334149 
L 15.77809 27.337196 
L 17.677158 27.336519 
L 19.639529 27.334287 
L 21.601899 27.336694 
L 23.500967 27.338179 
L 25.463337 27.250207 
L 27.362405 27.23096 
L 29.324776 27.225951 
L 31.287146 27.220632 
L 33.122912 27.215646 
L 35.085282 27.208707 
L 36.98435 27.203241 
L 38.946721 27.287114 
L 40.845789 27.300237 
L 42.808159 27.297769 
L 44.770529 27.285586 
L 46.669597 27.28058 
L 48.631968 27.276714 
L 50.531036 27.273102 
L 52.493406 27.27045 
L 54.455776 27.264189 
L 56.22824 27.262444 
L 58.19061 27.269315 
L 60.089678 27.270292 
L 62.052049 27.26859 
L 63.951117 27.265277 
L 65.913487 27.261791 
L 67.875857 27.263107 
L 69.774925 27.262276 
L 71.737296 27.253614 
L 73.636364 27.253018 
L 75.598734 27.254041 
L 77.561104 27.248465 
L 79.333568 27.242105 
L 81.295938 27.232517 
L 83.195006 27.220818 
L 85.157376 27.197423 
L 87.056445 27.13652 
L 89.018815 27.09128 
L 90.981185 27.047692 
L 92.880253 26.886711 
L 94.842624 26.771057 
L 96.741692 26.622526 
L 98.704062 26.477631 
L 100.666432 26.291621 
L 102.438896 25.989174 
L 104.401266 25.80053 
L 106.300334 25.688947 
L 108.262704 25.610265 
L 110.161772 25.529715 
L 112.124143 25.435957 
L 114.086513 25.404346 
L 115.985581 25.448174 
L 117.947951 25.269244 
L 119.84702 25.1921 
L 121.80939 25.074893 
L 123.77176 24.803806 
L 125.607526 24.753978 
L 127.569896 24.638023 
L 129.468964 24.521884 
L 131.431335 24.592129 
L 133.330403 24.558029 
L 135.292773 24.437211 
L 137.255143 24.464971 
L 139.154211 24.365171 
L 141.116582 24.274212 
L 143.01565 24.210819 
L 144.97802 24.057809 
L 146.94039 23.355658 
L 148.712854 22.877508 
L 150.675224 22.477796 
L 152.574292 22.030499 
L 154.536663 21.663264 
L 156.435731 21.001693 
L 158.398101 20.524989 
L 160.360471 19.826601 
L 162.259539 19.652797 
L 164.22191 19.453343 
L 166.120978 19.306476 
L 168.083348 19.18931 
L 170.045718 19.072145 
L 171.818182 18.954979 
L 171.818182 27.36 
L 171.818182 27.36 
L 170.045718 27.36 
L 168.083348 27.36 
L 166.120978 27.36 
L 164.22191 27.36 
L 162.259539 27.36 
L 160.360471 27.36 
L 158.398101 27.36 
L 156.435731 27.36 
L 154.536663 27.36 
L 152.574292 27.36 
L 150.675224 27.36 
L 148.712854 27.36 
L 146.94039 27.36 
L 144.97802 27.36 
L 143.01565 27.36 
L 141.116582 27.36 
L 139.154211 27.36 
L 137.255143 27.36 
L 135.292773 27.36 
L 133.330403 27.36 
L 131.431335 27.36 
L 129.468964 27.36 
L 127.569896 27.36 
L 125.607526 27.36 
L 123.77176 27.36 
L 121.80939 27.36 
L 119.84702 27.36 
L 117.947951 27.36 
L 115.985581 27.36 
L 114.086513 27.36 
L 112.124143 27.36 
L 110.161772 27.36 
L 108.262704 27.36 
L 106.300334 27.36 
L 104.401266 27.36 
L 102.438896 27.36 
L 100.666432 27.36 
L 98.704062 27.36 
L 96.741692 27.36 
L 94.842624 27.36 
L 92.880253 27.36 
L 90.981185 27.36 
L 89.018815 27.36 
L 87.056445 27.36 
L 85.157376 27.36 
L 83.195006 27.36 
L 81.295938 27.36 
L 79.333568 27.36 
L 77.561104 27.36 
L 75.598734 27.36 
L 73.636364 27.36 
L 71.737296 27.36 
L 69.774925 27.36 
L 67.875857 27.36 
L 65.913487 27.36 
L 63.951117 27.36 
L 62.052049 27.36 
L 60.089678 27.36 
L 58.19061 27.36 
L 56.22824 27.36 
L 54.455776 27.36 
L 52.493406 27.36 
L 50.531036 27.36 
L 48.631968 27.36 
L 46.669597 27.36 
L 44.770529 27.36 
L 42.808159 27.36 
L 40.845789 27.36 
L 38.946721 27.36 
L 36.98435 27.36 
L 35.085282 27.36 
L 33.122912 27.36 
L 31.287146 27.36 
L 29.324776 27.36 
L 27.362405 27.36 
L 25.463337 27.36 
L 23.500967 27.36 
L 21.601899 27.36 
L 19.639529 27.36 
L 17.677158 27.36 
L 15.77809 27.36 
L 13.81572 27.36 
L 11.916652 27.36 
L 9.954282 27.36 
L 8.181818 27.36 
z
" style="fill:#1f77b4;fill-opacity:0.1;"/>
   </g>
   <g id="matplotlib.axis_1"/>
   <g id="matplotlib.axis_2"/>
   <g id="line2d_1">
    <path clip-path="url(#p371074a1cb)" d="M 8.181818 27.335045 
L 9.954282 27.334746 
L 11.916652 27.334448 
L 13.81572 27.334149 
L 15.77809 27.337196 
L 17.677158 27.336519 
L 19.639529 27.334287 
L 21.601899 27.336694 
L 23.500967 27.338179 
L 25.463337 27.250207 
L 27.362405 27.23096 
L 29.324776 27.225951 
L 31.287146 27.220632 
L 33.122912 27.215646 
L 35.085282 27.208707 
L 36.98435 27.203241 
L 38.946721 27.287114 
L 40.845789 27.300237 
L 42.808159 27.297769 
L 44.770529 27.285586 
L 46.669597 27.28058 
L 48.631968 27.276714 
L 50.531036 27.273102 
L 52.493406 27.27045 
L 54.455776 27.264189 
L 56.22824 27.262444 
L 58.19061 27.269315 
L 60.089678 27.270292 
L 62.052049 27.26859 
L 63.951117 27.265277 
L 65.913487 27.261791 
L 67.875857 27.263107 
L 69.774925 27.262276 
L 71.737296 27.253614 
L 73.636364 27.253018 
L 75.598734 27.254041 
L 77.561104 27.248465 
L 79.333568 27.242105 
L 81.295938 27.232517 
L 83.195006 27.220818 
L 85.157376 27.197423 
L 87.056445 27.13652 
L 89.018815 27.09128 
L 90.981185 27.047692 
L 92.880253 26.886711 
L 94.842624 26.771057 
L 96.741692 26.622526 
L 98.704062 26.477631 
L 100.666432 26.291621 
L 102.438896 25.989174 
L 104.401266 25.80053 
L 106.300334 25.688947 
L 108.262704 25.610265 
L 110.161772 25.529715 
L 112.124143 25.435957 
L 114.086513 25.404346 
L 115.985581 25.448174 
L 117.947951 25.269244 
L 119.84702 25.1921 
L 121.80939 25.074893 
L 123.77176 24.803806 
L 125.607526 24.753978 
L 127.569896 24.638023 
L 129.468964 24.521884 
L 131.431335 24.592129 
L 133.330403 24.558029 
L 135.292773 24.437211 
L 137.255143 24.464971 
L 139.154211 24.365171 
L 141.116582 24.274212 
L 143.01565 24.210819 
L 144.97802 24.057809 
L 146.94039 23.355658 
L 148.712854 22.877508 
L 150.675224 22.477796 
L 152.574292 22.030499 
L 154.536663 21.663264 
L 156.435731 21.001693 
L 158.398101 20.524989 
L 160.360471 19.826601 
L 162.259539 19.652797 
L 164.22191 19.453343 
L 166.120978 19.306476 
L 168.083348 19.18931 
L 170.045718 19.072145 
L 171.818182 18.954979 
" style="fill:none;stroke:#1f77b4;stroke-linecap:square;stroke-width:1.5;"/>
   </g>
  </g>
 </g>
 <defs>
  <clipPath id="p371074a1cb">
   <rect height="25.92" width="180" x="0" y="1.44"/>
  </clipPath>
 </defs>
</svg>
