<?xml version="1.0" encoding="utf-8" standalone="no"?>
<!DOCTYPE svg PUBLIC "-//W3C//DTD SVG 1.1//EN"
  "http://www.w3.org/Graphics/SVG/1.1/DTD/svg11.dtd">
<!-- Created with matplotlib (http://matplotlib.org/) -->
<svg height="28pt" version="1.1" viewBox="0 0 180 28" width="180pt" xmlns="http://www.w3.org/2000/svg" xmlns:xlink="http://www.w3.org/1999/xlink">
 <defs>
  <style type="text/css">
*{stroke-linecap:butt;stroke-linejoin:round;}
  </style>
 </defs>
 <g id="figure_1">
  <g id="patch_1">
   <path d="M 0 28.8 
L 180 28.8 
L 180 0 
L 0 0 
z
" style="fill:none;"/>
  </g>
  <g id="axes_1">
   <g id="patch_2">
    <path d="M 0 27.36 
L 180 27.36 
L 180 1.44 
L 0 1.44 
z
" style="fill:none;"/>
   </g>
   <g id="PolyCollection_1">
    <path clip-path="url(#pc73abb6286)" d="M 8.181818 27.36 
L 8.181818 22.552965 
L 10.018218 22.528073 
L 12.051375 22.503181 
L 14.018947 22.478288 
L 16.052104 22.593616 
L 18.019676 22.646338 
L 20.052833 22.676276 
L 22.08599 22.610777 
L 24.053562 22.807712 
L 26.086719 22.8644 
L 28.05429 22.916572 
L 30.087448 22.902211 
L 32.120605 22.838991 
L 34.022591 22.750148 
L 36.055748 22.909334 
L 38.023319 22.878762 
L 40.056477 22.776485 
L 42.024048 22.708841 
L 44.057205 22.593274 
L 46.090363 22.406584 
L 48.057934 22.264746 
L 50.091091 22.181777 
L 52.058663 22.055564 
L 54.09182 21.904496 
L 56.124977 21.798374 
L 57.961377 21.822946 
L 59.994535 21.824257 
L 61.962106 21.746776 
L 63.995263 21.616584 
L 65.962835 21.643512 
L 67.995992 21.706455 
L 70.029149 21.679219 
L 71.996721 21.468863 
L 74.029878 21.475135 
L 75.997449 21.609826 
L 78.030607 21.604728 
L 80.063764 21.529265 
L 81.900164 21.481968 
L 83.933321 21.329346 
L 85.900893 21.281158 
L 87.93405 21.28172 
L 89.901621 21.202861 
L 91.934779 21.170569 
L 93.967936 21.103427 
L 95.935507 20.964532 
L 97.968665 21.113507 
L 99.936236 21.170965 
L 101.969393 21.043082 
L 104.002551 20.597316 
L 105.838951 20.452271 
L 107.872108 20.384633 
L 109.839679 20.438338 
L 111.872837 19.989381 
L 113.840408 19.722097 
L 115.873565 19.456236 
L 117.906723 19.713182 
L 119.874294 19.561751 
L 121.907451 19.369033 
L 123.875023 19.198973 
L 125.90818 19.404479 
L 127.941337 19.64918 
L 129.843323 19.826743 
L 131.87648 19.717052 
L 133.844052 19.627118 
L 135.877209 19.756643 
L 137.84478 19.859795 
L 139.877938 19.871444 
L 141.911095 19.601345 
L 143.878666 19.541546 
L 145.911824 19.601182 
L 147.879395 19.827852 
L 149.912552 19.721531 
L 151.94571 19.622556 
L 153.78211 19.701912 
L 155.815267 19.917348 
L 157.782838 20.058572 
L 159.815996 20.306368 
L 161.783567 20.508726 
L 163.816724 20.816897 
L 165.849882 21.05371 
L 167.817453 21.248458 
L 169.85061 21.443206 
L 171.818182 21.637954 
L 171.818182 27.36 
L 171.818182 27.36 
L 169.85061 27.36 
L 167.817453 27.36 
L 165.849882 27.36 
L 163.816724 27.36 
L 161.783567 27.36 
L 159.815996 27.36 
L 157.782838 27.36 
L 155.815267 27.36 
L 153.78211 27.36 
L 151.94571 27.36 
L 149.912552 27.36 
L 147.879395 27.36 
L 145.911824 27.36 
L 143.878666 27.36 
L 141.911095 27.36 
L 139.877938 27.36 
L 137.84478 27.36 
L 135.877209 27.36 
L 133.844052 27.36 
L 131.87648 27.36 
L 129.843323 27.36 
L 127.941337 27.36 
L 125.90818 27.36 
L 123.875023 27.36 
L 121.907451 27.36 
L 119.874294 27.36 
L 117.906723 27.36 
L 115.873565 27.36 
L 113.840408 27.36 
L 111.872837 27.36 
L 109.839679 27.36 
L 107.872108 27.36 
L 105.838951 27.36 
L 104.002551 27.36 
L 101.969393 27.36 
L 99.936236 27.36 
L 97.968665 27.36 
L 95.935507 27.36 
L 93.967936 27.36 
L 91.934779 27.36 
L 89.901621 27.36 
L 87.93405 27.36 
L 85.900893 27.36 
L 83.933321 27.36 
L 81.900164 27.36 
L 80.063764 27.36 
L 78.030607 27.36 
L 75.997449 27.36 
L 74.029878 27.36 
L 71.996721 27.36 
L 70.029149 27.36 
L 67.995992 27.36 
L 65.962835 27.36 
L 63.995263 27.36 
L 61.962106 27.36 
L 59.994535 27.36 
L 57.961377 27.36 
L 56.124977 27.36 
L 54.09182 27.36 
L 52.058663 27.36 
L 50.091091 27.36 
L 48.057934 27.36 
L 46.090363 27.36 
L 44.057205 27.36 
L 42.024048 27.36 
L 40.056477 27.36 
L 38.023319 27.36 
L 36.055748 27.36 
L 34.022591 27.36 
L 32.120605 27.36 
L 30.087448 27.36 
L 28.05429 27.36 
L 26.086719 27.36 
L 24.053562 27.36 
L 22.08599 27.36 
L 20.052833 27.36 
L 18.019676 27.36 
L 16.052104 27.36 
L 14.018947 27.36 
L 12.051375 27.36 
L 10.018218 27.36 
L 8.181818 27.36 
z
" style="fill:#1f77b4;fill-opacity:0.1;"/>
   </g>
   <g id="matplotlib.axis_1"/>
   <g id="matplotlib.axis_2"/>
   <g id="line2d_1">
    <path clip-path="url(#pc73abb6286)" d="M 8.181818 22.552965 
L 10.018218 22.528073 
L 12.051375 22.503181 
L 14.018947 22.478288 
L 16.052104 22.593616 
L 18.019676 22.646338 
L 20.052833 22.676276 
L 22.08599 22.610777 
L 24.053562 22.807712 
L 26.086719 22.8644 
L 28.05429 22.916572 
L 30.087448 22.902211 
L 32.120605 22.838991 
L 34.022591 22.750148 
L 36.055748 22.909334 
L 38.023319 22.878762 
L 40.056477 22.776485 
L 42.024048 22.708841 
L 44.057205 22.593274 
L 46.090363 22.406584 
L 48.057934 22.264746 
L 50.091091 22.181777 
L 52.058663 22.055564 
L 54.09182 21.904496 
L 56.124977 21.798374 
L 57.961377 21.822946 
L 59.994535 21.824257 
L 61.962106 21.746776 
L 63.995263 21.616584 
L 65.962835 21.643512 
L 67.995992 21.706455 
L 70.029149 21.679219 
L 71.996721 21.468863 
L 74.029878 21.475135 
L 75.997449 21.609826 
L 78.030607 21.604728 
L 80.063764 21.529265 
L 81.900164 21.481968 
L 83.933321 21.329346 
L 85.900893 21.281158 
L 87.93405 21.28172 
L 89.901621 21.202861 
L 91.934779 21.170569 
L 93.967936 21.103427 
L 95.935507 20.964532 
L 97.968665 21.113507 
L 99.936236 21.170965 
L 101.969393 21.043082 
L 104.002551 20.597316 
L 105.838951 20.452271 
L 107.872108 20.384633 
L 109.839679 20.438338 
L 111.872837 19.989381 
L 113.840408 19.722097 
L 115.873565 19.456236 
L 117.906723 19.713182 
L 119.874294 19.561751 
L 121.907451 19.369033 
L 123.875023 19.198973 
L 125.90818 19.404479 
L 127.941337 19.64918 
L 129.843323 19.826743 
L 131.87648 19.717052 
L 133.844052 19.627118 
L 135.877209 19.756643 
L 137.84478 19.859795 
L 139.877938 19.871444 
L 141.911095 19.601345 
L 143.878666 19.541546 
L 145.911824 19.601182 
L 147.879395 19.827852 
L 149.912552 19.721531 
L 151.94571 19.622556 
L 153.78211 19.701912 
L 155.815267 19.917348 
L 157.782838 20.058572 
L 159.815996 20.306368 
L 161.783567 20.508726 
L 163.816724 20.816897 
L 165.849882 21.05371 
L 167.817453 21.248458 
L 169.85061 21.443206 
L 171.818182 21.637954 
" style="fill:none;stroke:#1f77b4;stroke-linecap:square;stroke-width:1.5;"/>
   </g>
  </g>
 </g>
 <defs>
  <clipPath id="pc73abb6286">
   <rect height="25.92" width="180" x="0" y="1.44"/>
  </clipPath>
 </defs>
</svg>
