<?xml version="1.0" encoding="utf-8" standalone="no"?>
<!DOCTYPE svg PUBLIC "-//W3C//DTD SVG 1.1//EN"
  "http://www.w3.org/Graphics/SVG/1.1/DTD/svg11.dtd">
<!-- Created with matplotlib (http://matplotlib.org/) -->
<svg height="28pt" version="1.1" viewBox="0 0 180 28" width="180pt" xmlns="http://www.w3.org/2000/svg" xmlns:xlink="http://www.w3.org/1999/xlink">
 <defs>
  <style type="text/css">
*{stroke-linecap:butt;stroke-linejoin:round;}
  </style>
 </defs>
 <g id="figure_1">
  <g id="patch_1">
   <path d="M 0 28.8 
L 180 28.8 
L 180 0 
L 0 0 
z
" style="fill:none;"/>
  </g>
  <g id="axes_1">
   <g id="patch_2">
    <path d="M 0 27.36 
L 180 27.36 
L 180 1.44 
L 0 1.44 
z
" style="fill:none;"/>
   </g>
   <g id="PolyCollection_1">
    <path clip-path="url(#p3f03b7b093)" d="M 8.181818 27.36 
L 8.181818 22.55296 
L 9.954282 22.527891 
L 11.916652 22.502822 
L 13.81572 22.477754 
L 15.77809 22.593077 
L 17.677158 22.645798 
L 19.639529 22.675734 
L 21.601899 22.610237 
L 23.500967 22.807874 
L 25.463337 22.86456 
L 27.362405 22.916731 
L 29.324776 22.90237 
L 31.287146 22.839153 
L 33.122912 22.750313 
L 35.085282 22.909493 
L 36.98435 22.878922 
L 38.946721 22.776649 
L 40.845789 22.708664 
L 42.808159 22.593101 
L 44.770529 22.406417 
L 46.669597 22.264584 
L 48.631968 22.181618 
L 50.531036 22.055409 
L 52.493406 21.904347 
L 54.455776 21.798573 
L 56.22824 21.823143 
L 58.19061 21.824455 
L 60.089678 21.746977 
L 62.052049 21.616789 
L 63.951117 21.643716 
L 65.913487 21.706657 
L 67.875857 21.679422 
L 69.774925 21.468875 
L 71.737296 21.475147 
L 73.636364 21.609833 
L 75.598734 21.604735 
L 77.561104 21.529275 
L 79.333568 21.48198 
L 81.295938 21.329363 
L 83.195006 21.281375 
L 85.157376 21.281937 
L 87.056445 21.20308 
L 89.018815 21.170655 
L 90.981185 21.103515 
L 92.880253 20.964889 
L 94.842624 21.113985 
L 96.741692 21.171554 
L 98.704062 21.043787 
L 100.666432 20.598261 
L 102.438896 20.453469 
L 104.401266 20.386053 
L 106.300334 20.439494 
L 108.262704 19.990219 
L 110.161772 19.72264 
L 112.124143 19.456769 
L 114.086513 19.713482 
L 115.985581 19.561854 
L 117.947951 19.369008 
L 119.84702 19.198876 
L 121.80939 19.404503 
L 123.77176 19.649456 
L 125.607526 19.826918 
L 127.569896 19.71699 
L 129.468964 19.626616 
L 131.431335 19.755978 
L 133.330403 19.858797 
L 135.292773 19.870126 
L 137.255143 19.599969 
L 139.154211 19.539904 
L 141.116582 19.599651 
L 143.01565 19.826507 
L 144.97802 19.720022 
L 146.94039 19.620992 
L 148.712854 19.700501 
L 150.675224 19.90995 
L 152.574292 20.042475 
L 154.536663 20.289038 
L 156.435731 20.490245 
L 158.398101 20.794268 
L 160.360471 21.019894 
L 162.259539 21.112549 
L 164.22191 21.302261 
L 166.120978 21.509809 
L 168.083348 21.564331 
L 170.045718 21.618853 
L 171.818182 21.673374 
L 171.818182 27.36 
L 171.818182 27.36 
L 170.045718 27.36 
L 168.083348 27.36 
L 166.120978 27.36 
L 164.22191 27.36 
L 162.259539 27.36 
L 160.360471 27.36 
L 158.398101 27.36 
L 156.435731 27.36 
L 154.536663 27.36 
L 152.574292 27.36 
L 150.675224 27.36 
L 148.712854 27.36 
L 146.94039 27.36 
L 144.97802 27.36 
L 143.01565 27.36 
L 141.116582 27.36 
L 139.154211 27.36 
L 137.255143 27.36 
L 135.292773 27.36 
L 133.330403 27.36 
L 131.431335 27.36 
L 129.468964 27.36 
L 127.569896 27.36 
L 125.607526 27.36 
L 123.77176 27.36 
L 121.80939 27.36 
L 119.84702 27.36 
L 117.947951 27.36 
L 115.985581 27.36 
L 114.086513 27.36 
L 112.124143 27.36 
L 110.161772 27.36 
L 108.262704 27.36 
L 106.300334 27.36 
L 104.401266 27.36 
L 102.438896 27.36 
L 100.666432 27.36 
L 98.704062 27.36 
L 96.741692 27.36 
L 94.842624 27.36 
L 92.880253 27.36 
L 90.981185 27.36 
L 89.018815 27.36 
L 87.056445 27.36 
L 85.157376 27.36 
L 83.195006 27.36 
L 81.295938 27.36 
L 79.333568 27.36 
L 77.561104 27.36 
L 75.598734 27.36 
L 73.636364 27.36 
L 71.737296 27.36 
L 69.774925 27.36 
L 67.875857 27.36 
L 65.913487 27.36 
L 63.951117 27.36 
L 62.052049 27.36 
L 60.089678 27.36 
L 58.19061 27.36 
L 56.22824 27.36 
L 54.455776 27.36 
L 52.493406 27.36 
L 50.531036 27.36 
L 48.631968 27.36 
L 46.669597 27.36 
L 44.770529 27.36 
L 42.808159 27.36 
L 40.845789 27.36 
L 38.946721 27.36 
L 36.98435 27.36 
L 35.085282 27.36 
L 33.122912 27.36 
L 31.287146 27.36 
L 29.324776 27.36 
L 27.362405 27.36 
L 25.463337 27.36 
L 23.500967 27.36 
L 21.601899 27.36 
L 19.639529 27.36 
L 17.677158 27.36 
L 15.77809 27.36 
L 13.81572 27.36 
L 11.916652 27.36 
L 9.954282 27.36 
L 8.181818 27.36 
z
" style="fill:#1f77b4;fill-opacity:0.1;"/>
   </g>
   <g id="matplotlib.axis_1"/>
   <g id="matplotlib.axis_2"/>
   <g id="line2d_1">
    <path clip-path="url(#p3f03b7b093)" d="M 8.181818 22.55296 
L 9.954282 22.527891 
L 11.916652 22.502822 
L 13.81572 22.477754 
L 15.77809 22.593077 
L 17.677158 22.645798 
L 19.639529 22.675734 
L 21.601899 22.610237 
L 23.500967 22.807874 
L 25.463337 22.86456 
L 27.362405 22.916731 
L 29.324776 22.90237 
L 31.287146 22.839153 
L 33.122912 22.750313 
L 35.085282 22.909493 
L 36.98435 22.878922 
L 38.946721 22.776649 
L 40.845789 22.708664 
L 42.808159 22.593101 
L 44.770529 22.406417 
L 46.669597 22.264584 
L 48.631968 22.181618 
L 50.531036 22.055409 
L 52.493406 21.904347 
L 54.455776 21.798573 
L 56.22824 21.823143 
L 58.19061 21.824455 
L 60.089678 21.746977 
L 62.052049 21.616789 
L 63.951117 21.643716 
L 65.913487 21.706657 
L 67.875857 21.679422 
L 69.774925 21.468875 
L 71.737296 21.475147 
L 73.636364 21.609833 
L 75.598734 21.604735 
L 77.561104 21.529275 
L 79.333568 21.48198 
L 81.295938 21.329363 
L 83.195006 21.281375 
L 85.157376 21.281937 
L 87.056445 21.20308 
L 89.018815 21.170655 
L 90.981185 21.103515 
L 92.880253 20.964889 
L 94.842624 21.113985 
L 96.741692 21.171554 
L 98.704062 21.043787 
L 100.666432 20.598261 
L 102.438896 20.453469 
L 104.401266 20.386053 
L 106.300334 20.439494 
L 108.262704 19.990219 
L 110.161772 19.72264 
L 112.124143 19.456769 
L 114.086513 19.713482 
L 115.985581 19.561854 
L 117.947951 19.369008 
L 119.84702 19.198876 
L 121.80939 19.404503 
L 123.77176 19.649456 
L 125.607526 19.826918 
L 127.569896 19.71699 
L 129.468964 19.626616 
L 131.431335 19.755978 
L 133.330403 19.858797 
L 135.292773 19.870126 
L 137.255143 19.599969 
L 139.154211 19.539904 
L 141.116582 19.599651 
L 143.01565 19.826507 
L 144.97802 19.720022 
L 146.94039 19.620992 
L 148.712854 19.700501 
L 150.675224 19.90995 
L 152.574292 20.042475 
L 154.536663 20.289038 
L 156.435731 20.490245 
L 158.398101 20.794268 
L 160.360471 21.019894 
L 162.259539 21.112549 
L 164.22191 21.302261 
L 166.120978 21.509809 
L 168.083348 21.564331 
L 170.045718 21.618853 
L 171.818182 21.673374 
" style="fill:none;stroke:#1f77b4;stroke-linecap:square;stroke-width:1.5;"/>
   </g>
  </g>
 </g>
 <defs>
  <clipPath id="p3f03b7b093">
   <rect height="25.92" width="180" x="0" y="1.44"/>
  </clipPath>
 </defs>
</svg>
