<?xml version="1.0" encoding="utf-8" standalone="no"?>
<!DOCTYPE svg PUBLIC "-//W3C//DTD SVG 1.1//EN"
  "http://www.w3.org/Graphics/SVG/1.1/DTD/svg11.dtd">
<!-- Created with matplotlib (http://matplotlib.org/) -->
<svg height="28pt" version="1.1" viewBox="0 0 180 28" width="180pt" xmlns="http://www.w3.org/2000/svg" xmlns:xlink="http://www.w3.org/1999/xlink">
 <defs>
  <style type="text/css">
*{stroke-linecap:butt;stroke-linejoin:round;}
  </style>
 </defs>
 <g id="figure_1">
  <g id="patch_1">
   <path d="M 0 28.8 
L 180 28.8 
L 180 0 
L 0 0 
z
" style="fill:none;"/>
  </g>
  <g id="axes_1">
   <g id="patch_2">
    <path d="M 0 27.36 
L 180 27.36 
L 180 1.44 
L 0 1.44 
z
" style="fill:none;"/>
   </g>
   <g id="PolyCollection_1">
    <path clip-path="url(#p2c2101310d)" d="M 8.181818 27.36 
L 8.181818 24.856658 
L 10.018218 24.914323 
L 12.051375 24.971988 
L 14.018947 25.029653 
L 16.052104 24.909212 
L 18.019676 24.640558 
L 20.052833 25.196341 
L 22.08599 25.079702 
L 24.053562 25.005614 
L 26.086719 24.972079 
L 28.05429 24.787318 
L 30.087448 24.569765 
L 32.120605 24.513867 
L 34.022591 24.557716 
L 36.055748 24.732455 
L 38.023319 24.773916 
L 40.056477 24.789577 
L 42.024048 24.875969 
L 44.057205 24.977055 
L 46.090363 25.116603 
L 48.057934 25.236889 
L 50.091091 25.251541 
L 52.058663 25.006423 
L 54.09182 24.689778 
L 56.124977 24.307798 
L 57.961377 24.122218 
L 59.994535 23.896513 
L 61.962106 23.689895 
L 63.995263 23.394321 
L 65.962835 23.229282 
L 67.995992 23.075993 
L 70.029149 23.032071 
L 71.996721 22.932674 
L 74.029878 22.814366 
L 75.997449 22.600164 
L 78.030607 22.398254 
L 80.063764 22.313583 
L 81.900164 22.378027 
L 83.933321 22.413165 
L 85.900893 22.385014 
L 87.93405 22.322003 
L 89.901621 22.207198 
L 91.934779 22.086668 
L 93.967936 21.990101 
L 95.935507 21.970825 
L 97.968665 21.925592 
L 99.936236 21.785071 
L 101.969393 21.660074 
L 104.002551 21.662604 
L 105.838951 21.785588 
L 107.872108 21.905626 
L 109.839679 21.917243 
L 111.872837 21.864045 
L 113.840408 21.796124 
L 115.873565 21.724963 
L 117.906723 21.553287 
L 119.874294 21.459745 
L 121.907451 21.29538 
L 123.875023 21.158288 
L 125.90818 21.06766 
L 127.941337 21.2021 
L 129.843323 21.337875 
L 131.87648 21.569328 
L 133.844052 21.698329 
L 135.877209 21.778794 
L 137.84478 21.738368 
L 139.877938 21.748764 
L 141.911095 21.564604 
L 143.878666 21.496229 
L 145.911824 21.385371 
L 147.879395 20.59243 
L 149.912552 20.288424 
L 151.94571 20.209043 
L 153.78211 20.217758 
L 155.815267 20.264863 
L 157.782838 20.261119 
L 159.815996 20.252608 
L 161.783567 20.840703 
L 163.816724 20.982474 
L 165.849882 21.052187 
L 167.817453 20.991605 
L 169.85061 20.931023 
L 171.818182 20.870441 
L 171.818182 27.36 
L 171.818182 27.36 
L 169.85061 27.36 
L 167.817453 27.36 
L 165.849882 27.36 
L 163.816724 27.36 
L 161.783567 27.36 
L 159.815996 27.36 
L 157.782838 27.36 
L 155.815267 27.36 
L 153.78211 27.36 
L 151.94571 27.36 
L 149.912552 27.36 
L 147.879395 27.36 
L 145.911824 27.36 
L 143.878666 27.36 
L 141.911095 27.36 
L 139.877938 27.36 
L 137.84478 27.36 
L 135.877209 27.36 
L 133.844052 27.36 
L 131.87648 27.36 
L 129.843323 27.36 
L 127.941337 27.36 
L 125.90818 27.36 
L 123.875023 27.36 
L 121.907451 27.36 
L 119.874294 27.36 
L 117.906723 27.36 
L 115.873565 27.36 
L 113.840408 27.36 
L 111.872837 27.36 
L 109.839679 27.36 
L 107.872108 27.36 
L 105.838951 27.36 
L 104.002551 27.36 
L 101.969393 27.36 
L 99.936236 27.36 
L 97.968665 27.36 
L 95.935507 27.36 
L 93.967936 27.36 
L 91.934779 27.36 
L 89.901621 27.36 
L 87.93405 27.36 
L 85.900893 27.36 
L 83.933321 27.36 
L 81.900164 27.36 
L 80.063764 27.36 
L 78.030607 27.36 
L 75.997449 27.36 
L 74.029878 27.36 
L 71.996721 27.36 
L 70.029149 27.36 
L 67.995992 27.36 
L 65.962835 27.36 
L 63.995263 27.36 
L 61.962106 27.36 
L 59.994535 27.36 
L 57.961377 27.36 
L 56.124977 27.36 
L 54.09182 27.36 
L 52.058663 27.36 
L 50.091091 27.36 
L 48.057934 27.36 
L 46.090363 27.36 
L 44.057205 27.36 
L 42.024048 27.36 
L 40.056477 27.36 
L 38.023319 27.36 
L 36.055748 27.36 
L 34.022591 27.36 
L 32.120605 27.36 
L 30.087448 27.36 
L 28.05429 27.36 
L 26.086719 27.36 
L 24.053562 27.36 
L 22.08599 27.36 
L 20.052833 27.36 
L 18.019676 27.36 
L 16.052104 27.36 
L 14.018947 27.36 
L 12.051375 27.36 
L 10.018218 27.36 
L 8.181818 27.36 
z
" style="fill:#1f77b4;fill-opacity:0.1;"/>
   </g>
   <g id="matplotlib.axis_1"/>
   <g id="matplotlib.axis_2"/>
   <g id="line2d_1">
    <path clip-path="url(#p2c2101310d)" d="M 8.181818 24.856658 
L 10.018218 24.914323 
L 12.051375 24.971988 
L 14.018947 25.029653 
L 16.052104 24.909212 
L 18.019676 24.640558 
L 20.052833 25.196341 
L 22.08599 25.079702 
L 24.053562 25.005614 
L 26.086719 24.972079 
L 28.05429 24.787318 
L 30.087448 24.569765 
L 32.120605 24.513867 
L 34.022591 24.557716 
L 36.055748 24.732455 
L 38.023319 24.773916 
L 40.056477 24.789577 
L 42.024048 24.875969 
L 44.057205 24.977055 
L 46.090363 25.116603 
L 48.057934 25.236889 
L 50.091091 25.251541 
L 52.058663 25.006423 
L 54.09182 24.689778 
L 56.124977 24.307798 
L 57.961377 24.122218 
L 59.994535 23.896513 
L 61.962106 23.689895 
L 63.995263 23.394321 
L 65.962835 23.229282 
L 67.995992 23.075993 
L 70.029149 23.032071 
L 71.996721 22.932674 
L 74.029878 22.814366 
L 75.997449 22.600164 
L 78.030607 22.398254 
L 80.063764 22.313583 
L 81.900164 22.378027 
L 83.933321 22.413165 
L 85.900893 22.385014 
L 87.93405 22.322003 
L 89.901621 22.207198 
L 91.934779 22.086668 
L 93.967936 21.990101 
L 95.935507 21.970825 
L 97.968665 21.925592 
L 99.936236 21.785071 
L 101.969393 21.660074 
L 104.002551 21.662604 
L 105.838951 21.785588 
L 107.872108 21.905626 
L 109.839679 21.917243 
L 111.872837 21.864045 
L 113.840408 21.796124 
L 115.873565 21.724963 
L 117.906723 21.553287 
L 119.874294 21.459745 
L 121.907451 21.29538 
L 123.875023 21.158288 
L 125.90818 21.06766 
L 127.941337 21.2021 
L 129.843323 21.337875 
L 131.87648 21.569328 
L 133.844052 21.698329 
L 135.877209 21.778794 
L 137.84478 21.738368 
L 139.877938 21.748764 
L 141.911095 21.564604 
L 143.878666 21.496229 
L 145.911824 21.385371 
L 147.879395 20.59243 
L 149.912552 20.288424 
L 151.94571 20.209043 
L 153.78211 20.217758 
L 155.815267 20.264863 
L 157.782838 20.261119 
L 159.815996 20.252608 
L 161.783567 20.840703 
L 163.816724 20.982474 
L 165.849882 21.052187 
L 167.817453 20.991605 
L 169.85061 20.931023 
L 171.818182 20.870441 
" style="fill:none;stroke:#1f77b4;stroke-linecap:square;stroke-width:1.5;"/>
   </g>
  </g>
 </g>
 <defs>
  <clipPath id="p2c2101310d">
   <rect height="25.92" width="180" x="0" y="1.44"/>
  </clipPath>
 </defs>
</svg>
