<?xml version="1.0" encoding="utf-8" standalone="no"?>
<!DOCTYPE svg PUBLIC "-//W3C//DTD SVG 1.1//EN"
  "http://www.w3.org/Graphics/SVG/1.1/DTD/svg11.dtd">
<!-- Created with matplotlib (http://matplotlib.org/) -->
<svg height="28pt" version="1.1" viewBox="0 0 180 28" width="180pt" xmlns="http://www.w3.org/2000/svg" xmlns:xlink="http://www.w3.org/1999/xlink">
 <defs>
  <style type="text/css">
*{stroke-linecap:butt;stroke-linejoin:round;}
  </style>
 </defs>
 <g id="figure_1">
  <g id="patch_1">
   <path d="M 0 28.8 
L 180 28.8 
L 180 0 
L 0 0 
z
" style="fill:none;"/>
  </g>
  <g id="axes_1">
   <g id="patch_2">
    <path d="M 0 27.36 
L 180 27.36 
L 180 1.44 
L 0 1.44 
z
" style="fill:none;"/>
   </g>
   <g id="PolyCollection_1">
    <path clip-path="url(#p0726dce81d)" d="M 8.181818 27.36 
L 8.181818 24.86405 
L 9.954282 24.921544 
L 11.916652 24.979039 
L 13.81572 25.036534 
L 15.77809 24.915333 
L 17.677158 24.647472 
L 19.639529 25.201615 
L 21.601899 25.08532 
L 23.500967 25.01145 
L 25.463337 24.978015 
L 27.362405 24.793079 
L 29.324776 24.577283 
L 31.287146 24.521551 
L 33.122912 24.56527 
L 35.085282 24.739493 
L 36.98435 24.780832 
L 38.946721 24.796446 
L 40.845789 24.883304 
L 42.808159 24.984091 
L 44.770529 25.123227 
L 46.669597 25.243158 
L 48.631968 25.257767 
L 50.531036 25.013373 
L 52.493406 24.697294 
L 54.455776 24.315698 
L 56.22824 24.130667 
L 58.19061 23.905628 
L 60.089678 23.699621 
L 62.052049 23.404919 
L 63.951117 23.24006 
L 65.913487 23.087286 
L 67.875857 23.044237 
L 69.774925 22.94484 
L 71.737296 22.826882 
L 73.636364 22.613312 
L 75.598734 22.411999 
L 77.561104 22.327885 
L 79.333568 22.392194 
L 81.295938 22.427229 
L 83.195006 22.399455 
L 85.157376 22.33663 
L 87.056445 22.222163 
L 89.018815 22.10179 
L 90.981185 22.005299 
L 92.880253 21.986329 
L 94.842624 21.941418 
L 96.741692 21.801311 
L 98.704062 21.676017 
L 100.666432 21.678373 
L 102.438896 21.801359 
L 104.401266 21.921088 
L 106.300334 21.93267 
L 108.262704 21.879596 
L 110.161772 21.811875 
L 112.124143 21.741452 
L 114.086513 21.570449 
L 115.985581 21.477018 
L 117.947951 21.312658 
L 119.84702 21.17516 
L 121.80939 21.084762 
L 123.77176 21.217905 
L 125.607526 21.352585 
L 127.569896 21.582878 
L 129.468964 21.710707 
L 131.431335 21.790833 
L 133.330403 21.750631 
L 135.292773 21.759602 
L 137.255143 21.575354 
L 139.154211 21.506126 
L 141.116582 21.395128 
L 143.01565 20.603384 
L 144.97802 20.298453 
L 146.94039 20.217247 
L 148.712854 20.224519 
L 150.675224 20.247336 
L 152.574292 20.216461 
L 154.536663 20.201991 
L 156.435731 20.782506 
L 158.398101 20.901711 
L 160.360471 20.91795 
L 162.259539 20.928529 
L 164.22191 21.057597 
L 166.120978 21.117992 
L 168.083348 21.287343 
L 170.045718 21.456693 
L 171.818182 21.626044 
L 171.818182 27.36 
L 171.818182 27.36 
L 170.045718 27.36 
L 168.083348 27.36 
L 166.120978 27.36 
L 164.22191 27.36 
L 162.259539 27.36 
L 160.360471 27.36 
L 158.398101 27.36 
L 156.435731 27.36 
L 154.536663 27.36 
L 152.574292 27.36 
L 150.675224 27.36 
L 148.712854 27.36 
L 146.94039 27.36 
L 144.97802 27.36 
L 143.01565 27.36 
L 141.116582 27.36 
L 139.154211 27.36 
L 137.255143 27.36 
L 135.292773 27.36 
L 133.330403 27.36 
L 131.431335 27.36 
L 129.468964 27.36 
L 127.569896 27.36 
L 125.607526 27.36 
L 123.77176 27.36 
L 121.80939 27.36 
L 119.84702 27.36 
L 117.947951 27.36 
L 115.985581 27.36 
L 114.086513 27.36 
L 112.124143 27.36 
L 110.161772 27.36 
L 108.262704 27.36 
L 106.300334 27.36 
L 104.401266 27.36 
L 102.438896 27.36 
L 100.666432 27.36 
L 98.704062 27.36 
L 96.741692 27.36 
L 94.842624 27.36 
L 92.880253 27.36 
L 90.981185 27.36 
L 89.018815 27.36 
L 87.056445 27.36 
L 85.157376 27.36 
L 83.195006 27.36 
L 81.295938 27.36 
L 79.333568 27.36 
L 77.561104 27.36 
L 75.598734 27.36 
L 73.636364 27.36 
L 71.737296 27.36 
L 69.774925 27.36 
L 67.875857 27.36 
L 65.913487 27.36 
L 63.951117 27.36 
L 62.052049 27.36 
L 60.089678 27.36 
L 58.19061 27.36 
L 56.22824 27.36 
L 54.455776 27.36 
L 52.493406 27.36 
L 50.531036 27.36 
L 48.631968 27.36 
L 46.669597 27.36 
L 44.770529 27.36 
L 42.808159 27.36 
L 40.845789 27.36 
L 38.946721 27.36 
L 36.98435 27.36 
L 35.085282 27.36 
L 33.122912 27.36 
L 31.287146 27.36 
L 29.324776 27.36 
L 27.362405 27.36 
L 25.463337 27.36 
L 23.500967 27.36 
L 21.601899 27.36 
L 19.639529 27.36 
L 17.677158 27.36 
L 15.77809 27.36 
L 13.81572 27.36 
L 11.916652 27.36 
L 9.954282 27.36 
L 8.181818 27.36 
z
" style="fill:#1f77b4;fill-opacity:0.1;"/>
   </g>
   <g id="matplotlib.axis_1"/>
   <g id="matplotlib.axis_2"/>
   <g id="line2d_1">
    <path clip-path="url(#p0726dce81d)" d="M 8.181818 24.86405 
L 9.954282 24.921544 
L 11.916652 24.979039 
L 13.81572 25.036534 
L 15.77809 24.915333 
L 17.677158 24.647472 
L 19.639529 25.201615 
L 21.601899 25.08532 
L 23.500967 25.01145 
L 25.463337 24.978015 
L 27.362405 24.793079 
L 29.324776 24.577283 
L 31.287146 24.521551 
L 33.122912 24.56527 
L 35.085282 24.739493 
L 36.98435 24.780832 
L 38.946721 24.796446 
L 40.845789 24.883304 
L 42.808159 24.984091 
L 44.770529 25.123227 
L 46.669597 25.243158 
L 48.631968 25.257767 
L 50.531036 25.013373 
L 52.493406 24.697294 
L 54.455776 24.315698 
L 56.22824 24.130667 
L 58.19061 23.905628 
L 60.089678 23.699621 
L 62.052049 23.404919 
L 63.951117 23.24006 
L 65.913487 23.087286 
L 67.875857 23.044237 
L 69.774925 22.94484 
L 71.737296 22.826882 
L 73.636364 22.613312 
L 75.598734 22.411999 
L 77.561104 22.327885 
L 79.333568 22.392194 
L 81.295938 22.427229 
L 83.195006 22.399455 
L 85.157376 22.33663 
L 87.056445 22.222163 
L 89.018815 22.10179 
L 90.981185 22.005299 
L 92.880253 21.986329 
L 94.842624 21.941418 
L 96.741692 21.801311 
L 98.704062 21.676017 
L 100.666432 21.678373 
L 102.438896 21.801359 
L 104.401266 21.921088 
L 106.300334 21.93267 
L 108.262704 21.879596 
L 110.161772 21.811875 
L 112.124143 21.741452 
L 114.086513 21.570449 
L 115.985581 21.477018 
L 117.947951 21.312658 
L 119.84702 21.17516 
L 121.80939 21.084762 
L 123.77176 21.217905 
L 125.607526 21.352585 
L 127.569896 21.582878 
L 129.468964 21.710707 
L 131.431335 21.790833 
L 133.330403 21.750631 
L 135.292773 21.759602 
L 137.255143 21.575354 
L 139.154211 21.506126 
L 141.116582 21.395128 
L 143.01565 20.603384 
L 144.97802 20.298453 
L 146.94039 20.217247 
L 148.712854 20.224519 
L 150.675224 20.247336 
L 152.574292 20.216461 
L 154.536663 20.201991 
L 156.435731 20.782506 
L 158.398101 20.901711 
L 160.360471 20.91795 
L 162.259539 20.928529 
L 164.22191 21.057597 
L 166.120978 21.117992 
L 168.083348 21.287343 
L 170.045718 21.456693 
L 171.818182 21.626044 
" style="fill:none;stroke:#1f77b4;stroke-linecap:square;stroke-width:1.5;"/>
   </g>
  </g>
 </g>
 <defs>
  <clipPath id="p0726dce81d">
   <rect height="25.92" width="180" x="0" y="1.44"/>
  </clipPath>
 </defs>
</svg>
