<?xml version="1.0" encoding="utf-8" standalone="no"?>
<!DOCTYPE svg PUBLIC "-//W3C//DTD SVG 1.1//EN"
  "http://www.w3.org/Graphics/SVG/1.1/DTD/svg11.dtd">
<!-- Created with matplotlib (http://matplotlib.org/) -->
<svg height="28pt" version="1.1" viewBox="0 0 180 28" width="180pt" xmlns="http://www.w3.org/2000/svg" xmlns:xlink="http://www.w3.org/1999/xlink">
 <defs>
  <style type="text/css">
*{stroke-linecap:butt;stroke-linejoin:round;}
  </style>
 </defs>
 <g id="figure_1">
  <g id="patch_1">
   <path d="M 0 28.8 
L 180 28.8 
L 180 0 
L 0 0 
z
" style="fill:none;"/>
  </g>
  <g id="axes_1">
   <g id="patch_2">
    <path d="M 0 27.36 
L 180 27.36 
L 180 1.44 
L 0 1.44 
z
" style="fill:none;"/>
   </g>
   <g id="PolyCollection_1">
    <path clip-path="url(#p6ba15bbb28)" d="M 8.181818 27.36 
L 8.181818 16.404811 
L 10.018218 15.963937 
L 12.051375 15.523064 
L 14.018947 15.082191 
L 16.052104 14.670983 
L 18.019676 14.860955 
L 20.052833 15.221228 
L 22.08599 15.29919 
L 24.053562 15.637094 
L 26.086719 15.979156 
L 28.05429 16.03912 
L 30.087448 16.108908 
L 32.120605 15.93627 
L 34.022591 15.811203 
L 36.055748 15.653624 
L 38.023319 15.487916 
L 40.056477 15.444477 
L 42.024048 15.518418 
L 44.057205 15.544043 
L 46.090363 15.636945 
L 48.057934 15.546889 
L 50.091091 15.808683 
L 52.058663 15.970027 
L 54.09182 16.021713 
L 56.124977 16.045713 
L 57.961377 16.238693 
L 59.994535 16.276733 
L 61.962106 16.394442 
L 63.995263 16.403758 
L 65.962835 16.334616 
L 67.995992 16.28136 
L 70.029149 16.16191 
L 71.996721 15.907717 
L 74.029878 15.776861 
L 75.997449 15.658391 
L 78.030607 15.579967 
L 80.063764 15.597977 
L 81.900164 15.727362 
L 83.933321 15.836768 
L 85.900893 15.945462 
L 87.93405 16.208945 
L 89.901621 16.452886 
L 91.934779 16.602703 
L 93.967936 16.858749 
L 95.935507 17.030097 
L 97.968665 17.451991 
L 99.936236 17.724002 
L 101.969393 17.836069 
L 104.002551 17.989337 
L 105.838951 18.148954 
L 107.872108 18.167439 
L 109.839679 18.061045 
L 111.872837 17.764076 
L 113.840408 17.736008 
L 115.873565 17.77163 
L 117.906723 17.728361 
L 119.874294 17.658827 
L 121.907451 17.86861 
L 123.875023 18.141079 
L 125.90818 18.519324 
L 127.941337 18.909296 
L 129.843323 19.17171 
L 131.87648 19.387676 
L 133.844052 19.639059 
L 135.877209 19.767044 
L 137.84478 20.022593 
L 139.877938 20.143237 
L 141.911095 20.187381 
L 143.878666 20.419575 
L 145.911824 20.666578 
L 147.879395 20.929032 
L 149.912552 21.176146 
L 151.94571 21.303178 
L 153.78211 21.549154 
L 155.815267 21.712463 
L 157.782838 21.806102 
L 159.815996 21.972727 
L 161.783567 22.182278 
L 163.816724 22.296982 
L 165.849882 22.455303 
L 167.817453 22.623683 
L 169.85061 22.792063 
L 171.818182 22.960444 
L 171.818182 27.36 
L 171.818182 27.36 
L 169.85061 27.36 
L 167.817453 27.36 
L 165.849882 27.36 
L 163.816724 27.36 
L 161.783567 27.36 
L 159.815996 27.36 
L 157.782838 27.36 
L 155.815267 27.36 
L 153.78211 27.36 
L 151.94571 27.36 
L 149.912552 27.36 
L 147.879395 27.36 
L 145.911824 27.36 
L 143.878666 27.36 
L 141.911095 27.36 
L 139.877938 27.36 
L 137.84478 27.36 
L 135.877209 27.36 
L 133.844052 27.36 
L 131.87648 27.36 
L 129.843323 27.36 
L 127.941337 27.36 
L 125.90818 27.36 
L 123.875023 27.36 
L 121.907451 27.36 
L 119.874294 27.36 
L 117.906723 27.36 
L 115.873565 27.36 
L 113.840408 27.36 
L 111.872837 27.36 
L 109.839679 27.36 
L 107.872108 27.36 
L 105.838951 27.36 
L 104.002551 27.36 
L 101.969393 27.36 
L 99.936236 27.36 
L 97.968665 27.36 
L 95.935507 27.36 
L 93.967936 27.36 
L 91.934779 27.36 
L 89.901621 27.36 
L 87.93405 27.36 
L 85.900893 27.36 
L 83.933321 27.36 
L 81.900164 27.36 
L 80.063764 27.36 
L 78.030607 27.36 
L 75.997449 27.36 
L 74.029878 27.36 
L 71.996721 27.36 
L 70.029149 27.36 
L 67.995992 27.36 
L 65.962835 27.36 
L 63.995263 27.36 
L 61.962106 27.36 
L 59.994535 27.36 
L 57.961377 27.36 
L 56.124977 27.36 
L 54.09182 27.36 
L 52.058663 27.36 
L 50.091091 27.36 
L 48.057934 27.36 
L 46.090363 27.36 
L 44.057205 27.36 
L 42.024048 27.36 
L 40.056477 27.36 
L 38.023319 27.36 
L 36.055748 27.36 
L 34.022591 27.36 
L 32.120605 27.36 
L 30.087448 27.36 
L 28.05429 27.36 
L 26.086719 27.36 
L 24.053562 27.36 
L 22.08599 27.36 
L 20.052833 27.36 
L 18.019676 27.36 
L 16.052104 27.36 
L 14.018947 27.36 
L 12.051375 27.36 
L 10.018218 27.36 
L 8.181818 27.36 
z
" style="fill:#1f77b4;fill-opacity:0.1;"/>
   </g>
   <g id="matplotlib.axis_1"/>
   <g id="matplotlib.axis_2"/>
   <g id="line2d_1">
    <path clip-path="url(#p6ba15bbb28)" d="M 8.181818 16.404811 
L 10.018218 15.963937 
L 12.051375 15.523064 
L 14.018947 15.082191 
L 16.052104 14.670983 
L 18.019676 14.860955 
L 20.052833 15.221228 
L 22.08599 15.29919 
L 24.053562 15.637094 
L 26.086719 15.979156 
L 28.05429 16.03912 
L 30.087448 16.108908 
L 32.120605 15.93627 
L 34.022591 15.811203 
L 36.055748 15.653624 
L 38.023319 15.487916 
L 40.056477 15.444477 
L 42.024048 15.518418 
L 44.057205 15.544043 
L 46.090363 15.636945 
L 48.057934 15.546889 
L 50.091091 15.808683 
L 52.058663 15.970027 
L 54.09182 16.021713 
L 56.124977 16.045713 
L 57.961377 16.238693 
L 59.994535 16.276733 
L 61.962106 16.394442 
L 63.995263 16.403758 
L 65.962835 16.334616 
L 67.995992 16.28136 
L 70.029149 16.16191 
L 71.996721 15.907717 
L 74.029878 15.776861 
L 75.997449 15.658391 
L 78.030607 15.579967 
L 80.063764 15.597977 
L 81.900164 15.727362 
L 83.933321 15.836768 
L 85.900893 15.945462 
L 87.93405 16.208945 
L 89.901621 16.452886 
L 91.934779 16.602703 
L 93.967936 16.858749 
L 95.935507 17.030097 
L 97.968665 17.451991 
L 99.936236 17.724002 
L 101.969393 17.836069 
L 104.002551 17.989337 
L 105.838951 18.148954 
L 107.872108 18.167439 
L 109.839679 18.061045 
L 111.872837 17.764076 
L 113.840408 17.736008 
L 115.873565 17.77163 
L 117.906723 17.728361 
L 119.874294 17.658827 
L 121.907451 17.86861 
L 123.875023 18.141079 
L 125.90818 18.519324 
L 127.941337 18.909296 
L 129.843323 19.17171 
L 131.87648 19.387676 
L 133.844052 19.639059 
L 135.877209 19.767044 
L 137.84478 20.022593 
L 139.877938 20.143237 
L 141.911095 20.187381 
L 143.878666 20.419575 
L 145.911824 20.666578 
L 147.879395 20.929032 
L 149.912552 21.176146 
L 151.94571 21.303178 
L 153.78211 21.549154 
L 155.815267 21.712463 
L 157.782838 21.806102 
L 159.815996 21.972727 
L 161.783567 22.182278 
L 163.816724 22.296982 
L 165.849882 22.455303 
L 167.817453 22.623683 
L 169.85061 22.792063 
L 171.818182 22.960444 
" style="fill:none;stroke:#1f77b4;stroke-linecap:square;stroke-width:1.5;"/>
   </g>
  </g>
 </g>
 <defs>
  <clipPath id="p6ba15bbb28">
   <rect height="25.92" width="180" x="0" y="1.44"/>
  </clipPath>
 </defs>
</svg>
