<?xml version="1.0" encoding="utf-8" standalone="no"?>
<!DOCTYPE svg PUBLIC "-//W3C//DTD SVG 1.1//EN"
  "http://www.w3.org/Graphics/SVG/1.1/DTD/svg11.dtd">
<!-- Created with matplotlib (http://matplotlib.org/) -->
<svg height="28pt" version="1.1" viewBox="0 0 180 28" width="180pt" xmlns="http://www.w3.org/2000/svg" xmlns:xlink="http://www.w3.org/1999/xlink">
 <defs>
  <style type="text/css">
*{stroke-linecap:butt;stroke-linejoin:round;}
  </style>
 </defs>
 <g id="figure_1">
  <g id="patch_1">
   <path d="M 0 28.8 
L 180 28.8 
L 180 0 
L 0 0 
z
" style="fill:none;"/>
  </g>
  <g id="axes_1">
   <g id="patch_2">
    <path d="M 0 27.36 
L 180 27.36 
L 180 1.44 
L 0 1.44 
z
" style="fill:none;"/>
   </g>
   <g id="PolyCollection_1">
    <path clip-path="url(#p0800a59abd)" d="M 8.181818 27.36 
L 8.181818 16.40494 
L 9.954282 15.964072 
L 11.916652 15.523204 
L 13.81572 15.082336 
L 15.77809 14.670933 
L 17.677158 14.860902 
L 19.639529 15.221172 
L 21.601899 15.299132 
L 23.500967 15.637032 
L 25.463337 15.979091 
L 27.362405 16.039054 
L 29.324776 16.109041 
L 31.287146 15.936405 
L 33.122912 15.81134 
L 35.085282 15.653762 
L 36.98435 15.488056 
L 38.946721 15.444618 
L 40.845789 15.518558 
L 42.808159 15.544183 
L 44.770529 15.637084 
L 46.669597 15.547029 
L 48.631968 15.80882 
L 50.531036 15.970162 
L 52.493406 16.021847 
L 54.455776 16.044712 
L 56.22824 16.23769 
L 58.19061 16.275729 
L 60.089678 16.393437 
L 62.052049 16.402752 
L 63.951117 16.333612 
L 65.913487 16.280356 
L 67.875857 16.162043 
L 69.774925 15.907853 
L 71.737296 15.776998 
L 73.636364 15.65853 
L 75.598734 15.580106 
L 77.561104 15.598116 
L 79.333568 15.727499 
L 81.295938 15.836905 
L 83.195006 15.945598 
L 85.157376 16.209077 
L 87.056445 16.452979 
L 89.018815 16.602758 
L 90.981185 16.858763 
L 92.880253 17.030039 
L 94.842624 17.451929 
L 96.741692 17.723877 
L 98.704062 17.835972 
L 100.666432 17.989185 
L 102.438896 18.148807 
L 104.401266 18.16727 
L 106.300334 18.060947 
L 108.262704 17.763926 
L 110.161772 17.735919 
L 112.124143 17.77141 
L 114.086513 17.728205 
L 115.985581 17.658654 
L 117.947951 17.868378 
L 119.84702 18.140676 
L 121.80939 18.518889 
L 123.77176 18.908749 
L 125.607526 19.171131 
L 127.569896 19.386992 
L 129.468964 19.638319 
L 131.431335 19.766188 
L 133.330403 20.021702 
L 135.292773 20.142252 
L 137.255143 20.186319 
L 139.154211 20.4183 
L 141.116582 20.665259 
L 143.01565 20.927524 
L 144.97802 21.174499 
L 146.94039 21.301248 
L 148.712854 21.547091 
L 150.675224 21.70352 
L 152.574292 21.788038 
L 154.536663 21.953707 
L 156.435731 22.162724 
L 158.398101 22.274013 
L 160.360471 22.42604 
L 162.259539 22.551699 
L 164.22191 22.757226 
L 166.120978 22.943992 
L 168.083348 23.109142 
L 170.045718 23.274293 
L 171.818182 23.439443 
L 171.818182 27.36 
L 171.818182 27.36 
L 170.045718 27.36 
L 168.083348 27.36 
L 166.120978 27.36 
L 164.22191 27.36 
L 162.259539 27.36 
L 160.360471 27.36 
L 158.398101 27.36 
L 156.435731 27.36 
L 154.536663 27.36 
L 152.574292 27.36 
L 150.675224 27.36 
L 148.712854 27.36 
L 146.94039 27.36 
L 144.97802 27.36 
L 143.01565 27.36 
L 141.116582 27.36 
L 139.154211 27.36 
L 137.255143 27.36 
L 135.292773 27.36 
L 133.330403 27.36 
L 131.431335 27.36 
L 129.468964 27.36 
L 127.569896 27.36 
L 125.607526 27.36 
L 123.77176 27.36 
L 121.80939 27.36 
L 119.84702 27.36 
L 117.947951 27.36 
L 115.985581 27.36 
L 114.086513 27.36 
L 112.124143 27.36 
L 110.161772 27.36 
L 108.262704 27.36 
L 106.300334 27.36 
L 104.401266 27.36 
L 102.438896 27.36 
L 100.666432 27.36 
L 98.704062 27.36 
L 96.741692 27.36 
L 94.842624 27.36 
L 92.880253 27.36 
L 90.981185 27.36 
L 89.018815 27.36 
L 87.056445 27.36 
L 85.157376 27.36 
L 83.195006 27.36 
L 81.295938 27.36 
L 79.333568 27.36 
L 77.561104 27.36 
L 75.598734 27.36 
L 73.636364 27.36 
L 71.737296 27.36 
L 69.774925 27.36 
L 67.875857 27.36 
L 65.913487 27.36 
L 63.951117 27.36 
L 62.052049 27.36 
L 60.089678 27.36 
L 58.19061 27.36 
L 56.22824 27.36 
L 54.455776 27.36 
L 52.493406 27.36 
L 50.531036 27.36 
L 48.631968 27.36 
L 46.669597 27.36 
L 44.770529 27.36 
L 42.808159 27.36 
L 40.845789 27.36 
L 38.946721 27.36 
L 36.98435 27.36 
L 35.085282 27.36 
L 33.122912 27.36 
L 31.287146 27.36 
L 29.324776 27.36 
L 27.362405 27.36 
L 25.463337 27.36 
L 23.500967 27.36 
L 21.601899 27.36 
L 19.639529 27.36 
L 17.677158 27.36 
L 15.77809 27.36 
L 13.81572 27.36 
L 11.916652 27.36 
L 9.954282 27.36 
L 8.181818 27.36 
z
" style="fill:#1f77b4;fill-opacity:0.1;"/>
   </g>
   <g id="matplotlib.axis_1"/>
   <g id="matplotlib.axis_2"/>
   <g id="line2d_1">
    <path clip-path="url(#p0800a59abd)" d="M 8.181818 16.40494 
L 9.954282 15.964072 
L 11.916652 15.523204 
L 13.81572 15.082336 
L 15.77809 14.670933 
L 17.677158 14.860902 
L 19.639529 15.221172 
L 21.601899 15.299132 
L 23.500967 15.637032 
L 25.463337 15.979091 
L 27.362405 16.039054 
L 29.324776 16.109041 
L 31.287146 15.936405 
L 33.122912 15.81134 
L 35.085282 15.653762 
L 36.98435 15.488056 
L 38.946721 15.444618 
L 40.845789 15.518558 
L 42.808159 15.544183 
L 44.770529 15.637084 
L 46.669597 15.547029 
L 48.631968 15.80882 
L 50.531036 15.970162 
L 52.493406 16.021847 
L 54.455776 16.044712 
L 56.22824 16.23769 
L 58.19061 16.275729 
L 60.089678 16.393437 
L 62.052049 16.402752 
L 63.951117 16.333612 
L 65.913487 16.280356 
L 67.875857 16.162043 
L 69.774925 15.907853 
L 71.737296 15.776998 
L 73.636364 15.65853 
L 75.598734 15.580106 
L 77.561104 15.598116 
L 79.333568 15.727499 
L 81.295938 15.836905 
L 83.195006 15.945598 
L 85.157376 16.209077 
L 87.056445 16.452979 
L 89.018815 16.602758 
L 90.981185 16.858763 
L 92.880253 17.030039 
L 94.842624 17.451929 
L 96.741692 17.723877 
L 98.704062 17.835972 
L 100.666432 17.989185 
L 102.438896 18.148807 
L 104.401266 18.16727 
L 106.300334 18.060947 
L 108.262704 17.763926 
L 110.161772 17.735919 
L 112.124143 17.77141 
L 114.086513 17.728205 
L 115.985581 17.658654 
L 117.947951 17.868378 
L 119.84702 18.140676 
L 121.80939 18.518889 
L 123.77176 18.908749 
L 125.607526 19.171131 
L 127.569896 19.386992 
L 129.468964 19.638319 
L 131.431335 19.766188 
L 133.330403 20.021702 
L 135.292773 20.142252 
L 137.255143 20.186319 
L 139.154211 20.4183 
L 141.116582 20.665259 
L 143.01565 20.927524 
L 144.97802 21.174499 
L 146.94039 21.301248 
L 148.712854 21.547091 
L 150.675224 21.70352 
L 152.574292 21.788038 
L 154.536663 21.953707 
L 156.435731 22.162724 
L 158.398101 22.274013 
L 160.360471 22.42604 
L 162.259539 22.551699 
L 164.22191 22.757226 
L 166.120978 22.943992 
L 168.083348 23.109142 
L 170.045718 23.274293 
L 171.818182 23.439443 
" style="fill:none;stroke:#1f77b4;stroke-linecap:square;stroke-width:1.5;"/>
   </g>
  </g>
 </g>
 <defs>
  <clipPath id="p0800a59abd">
   <rect height="25.92" width="180" x="0" y="1.44"/>
  </clipPath>
 </defs>
</svg>
