<?xml version="1.0" encoding="utf-8" standalone="no"?>
<!DOCTYPE svg PUBLIC "-//W3C//DTD SVG 1.1//EN"
  "http://www.w3.org/Graphics/SVG/1.1/DTD/svg11.dtd">
<!-- Created with matplotlib (http://matplotlib.org/) -->
<svg height="28pt" version="1.1" viewBox="0 0 180 28" width="180pt" xmlns="http://www.w3.org/2000/svg" xmlns:xlink="http://www.w3.org/1999/xlink">
 <defs>
  <style type="text/css">
*{stroke-linecap:butt;stroke-linejoin:round;}
  </style>
 </defs>
 <g id="figure_1">
  <g id="patch_1">
   <path d="M 0 28.8 
L 180 28.8 
L 180 0 
L 0 0 
z
" style="fill:none;"/>
  </g>
  <g id="axes_1">
   <g id="patch_2">
    <path d="M 0 27.36 
L 180 27.36 
L 180 1.44 
L 0 1.44 
z
" style="fill:none;"/>
   </g>
   <g id="PolyCollection_1">
    <path clip-path="url(#p459def0ee9)" d="M 8.181818 27.36 
L 8.181818 17.730731 
L 9.954282 17.843068 
L 11.916652 17.955405 
L 13.81572 18.067742 
L 15.77809 18.211207 
L 17.677158 18.379493 
L 19.639529 18.615117 
L 21.601899 18.879546 
L 23.500967 19.278315 
L 25.463337 19.397955 
L 27.362405 19.459135 
L 29.324776 19.508189 
L 31.287146 19.502507 
L 33.122912 19.478112 
L 35.085282 19.462183 
L 36.98435 18.700116 
L 38.946721 18.011633 
L 40.845789 17.745714 
L 42.808159 17.493812 
L 44.770529 17.459115 
L 46.669597 17.294365 
L 48.631968 17.287187 
L 50.531036 17.966409 
L 52.493406 18.511151 
L 54.455776 18.763801 
L 56.22824 19.104902 
L 58.19061 19.291121 
L 60.089678 19.422919 
L 62.052049 19.412771 
L 63.951117 19.607634 
L 65.913487 19.862611 
L 67.875857 20.039894 
L 69.774925 20.075713 
L 71.737296 20.238869 
L 73.636364 20.452538 
L 75.598734 20.734091 
L 77.561104 20.829713 
L 79.333568 20.903913 
L 81.295938 20.922713 
L 83.195006 21.062342 
L 85.157376 21.195398 
L 87.056445 21.445316 
L 89.018815 21.604559 
L 90.981185 21.755777 
L 92.880253 22.001736 
L 94.842624 22.381577 
L 96.741692 22.642967 
L 98.704062 22.864686 
L 100.666432 23.026848 
L 102.438896 23.22133 
L 104.401266 23.420036 
L 106.300334 23.501001 
L 108.262704 23.540938 
L 110.161772 23.432018 
L 112.124143 23.457238 
L 114.086513 23.448096 
L 115.985581 23.459641 
L 117.947951 23.33486 
L 119.84702 23.437141 
L 121.80939 23.524104 
L 123.77176 23.824385 
L 125.607526 23.872385 
L 127.569896 23.927668 
L 129.468964 24.004434 
L 131.431335 24.25799 
L 133.330403 24.337097 
L 135.292773 24.422729 
L 137.255143 24.441561 
L 139.154211 24.495685 
L 141.116582 24.603389 
L 143.01565 24.67449 
L 144.97802 24.619793 
L 146.94039 24.649555 
L 148.712854 24.688173 
L 150.675224 24.699326 
L 152.574292 24.773993 
L 154.536663 24.824408 
L 156.435731 24.884915 
L 158.398101 25.055608 
L 160.360471 25.114434 
L 162.259539 25.166056 
L 164.22191 25.247802 
L 166.120978 25.306968 
L 168.083348 25.359733 
L 170.045718 25.412498 
L 171.818182 25.465264 
L 171.818182 27.36 
L 171.818182 27.36 
L 170.045718 27.36 
L 168.083348 27.36 
L 166.120978 27.36 
L 164.22191 27.36 
L 162.259539 27.36 
L 160.360471 27.36 
L 158.398101 27.36 
L 156.435731 27.36 
L 154.536663 27.36 
L 152.574292 27.36 
L 150.675224 27.36 
L 148.712854 27.36 
L 146.94039 27.36 
L 144.97802 27.36 
L 143.01565 27.36 
L 141.116582 27.36 
L 139.154211 27.36 
L 137.255143 27.36 
L 135.292773 27.36 
L 133.330403 27.36 
L 131.431335 27.36 
L 129.468964 27.36 
L 127.569896 27.36 
L 125.607526 27.36 
L 123.77176 27.36 
L 121.80939 27.36 
L 119.84702 27.36 
L 117.947951 27.36 
L 115.985581 27.36 
L 114.086513 27.36 
L 112.124143 27.36 
L 110.161772 27.36 
L 108.262704 27.36 
L 106.300334 27.36 
L 104.401266 27.36 
L 102.438896 27.36 
L 100.666432 27.36 
L 98.704062 27.36 
L 96.741692 27.36 
L 94.842624 27.36 
L 92.880253 27.36 
L 90.981185 27.36 
L 89.018815 27.36 
L 87.056445 27.36 
L 85.157376 27.36 
L 83.195006 27.36 
L 81.295938 27.36 
L 79.333568 27.36 
L 77.561104 27.36 
L 75.598734 27.36 
L 73.636364 27.36 
L 71.737296 27.36 
L 69.774925 27.36 
L 67.875857 27.36 
L 65.913487 27.36 
L 63.951117 27.36 
L 62.052049 27.36 
L 60.089678 27.36 
L 58.19061 27.36 
L 56.22824 27.36 
L 54.455776 27.36 
L 52.493406 27.36 
L 50.531036 27.36 
L 48.631968 27.36 
L 46.669597 27.36 
L 44.770529 27.36 
L 42.808159 27.36 
L 40.845789 27.36 
L 38.946721 27.36 
L 36.98435 27.36 
L 35.085282 27.36 
L 33.122912 27.36 
L 31.287146 27.36 
L 29.324776 27.36 
L 27.362405 27.36 
L 25.463337 27.36 
L 23.500967 27.36 
L 21.601899 27.36 
L 19.639529 27.36 
L 17.677158 27.36 
L 15.77809 27.36 
L 13.81572 27.36 
L 11.916652 27.36 
L 9.954282 27.36 
L 8.181818 27.36 
z
" style="fill:#1f77b4;fill-opacity:0.1;"/>
   </g>
   <g id="matplotlib.axis_1"/>
   <g id="matplotlib.axis_2"/>
   <g id="line2d_1">
    <path clip-path="url(#p459def0ee9)" d="M 8.181818 17.730731 
L 9.954282 17.843068 
L 11.916652 17.955405 
L 13.81572 18.067742 
L 15.77809 18.211207 
L 17.677158 18.379493 
L 19.639529 18.615117 
L 21.601899 18.879546 
L 23.500967 19.278315 
L 25.463337 19.397955 
L 27.362405 19.459135 
L 29.324776 19.508189 
L 31.287146 19.502507 
L 33.122912 19.478112 
L 35.085282 19.462183 
L 36.98435 18.700116 
L 38.946721 18.011633 
L 40.845789 17.745714 
L 42.808159 17.493812 
L 44.770529 17.459115 
L 46.669597 17.294365 
L 48.631968 17.287187 
L 50.531036 17.966409 
L 52.493406 18.511151 
L 54.455776 18.763801 
L 56.22824 19.104902 
L 58.19061 19.291121 
L 60.089678 19.422919 
L 62.052049 19.412771 
L 63.951117 19.607634 
L 65.913487 19.862611 
L 67.875857 20.039894 
L 69.774925 20.075713 
L 71.737296 20.238869 
L 73.636364 20.452538 
L 75.598734 20.734091 
L 77.561104 20.829713 
L 79.333568 20.903913 
L 81.295938 20.922713 
L 83.195006 21.062342 
L 85.157376 21.195398 
L 87.056445 21.445316 
L 89.018815 21.604559 
L 90.981185 21.755777 
L 92.880253 22.001736 
L 94.842624 22.381577 
L 96.741692 22.642967 
L 98.704062 22.864686 
L 100.666432 23.026848 
L 102.438896 23.22133 
L 104.401266 23.420036 
L 106.300334 23.501001 
L 108.262704 23.540938 
L 110.161772 23.432018 
L 112.124143 23.457238 
L 114.086513 23.448096 
L 115.985581 23.459641 
L 117.947951 23.33486 
L 119.84702 23.437141 
L 121.80939 23.524104 
L 123.77176 23.824385 
L 125.607526 23.872385 
L 127.569896 23.927668 
L 129.468964 24.004434 
L 131.431335 24.25799 
L 133.330403 24.337097 
L 135.292773 24.422729 
L 137.255143 24.441561 
L 139.154211 24.495685 
L 141.116582 24.603389 
L 143.01565 24.67449 
L 144.97802 24.619793 
L 146.94039 24.649555 
L 148.712854 24.688173 
L 150.675224 24.699326 
L 152.574292 24.773993 
L 154.536663 24.824408 
L 156.435731 24.884915 
L 158.398101 25.055608 
L 160.360471 25.114434 
L 162.259539 25.166056 
L 164.22191 25.247802 
L 166.120978 25.306968 
L 168.083348 25.359733 
L 170.045718 25.412498 
L 171.818182 25.465264 
" style="fill:none;stroke:#1f77b4;stroke-linecap:square;stroke-width:1.5;"/>
   </g>
  </g>
 </g>
 <defs>
  <clipPath id="p459def0ee9">
   <rect height="25.92" width="180" x="0" y="1.44"/>
  </clipPath>
 </defs>
</svg>
