<?xml version="1.0" encoding="utf-8" standalone="no"?>
<!DOCTYPE svg PUBLIC "-//W3C//DTD SVG 1.1//EN"
  "http://www.w3.org/Graphics/SVG/1.1/DTD/svg11.dtd">
<!-- Created with matplotlib (http://matplotlib.org/) -->
<svg height="28pt" version="1.1" viewBox="0 0 180 28" width="180pt" xmlns="http://www.w3.org/2000/svg" xmlns:xlink="http://www.w3.org/1999/xlink">
 <defs>
  <style type="text/css">
*{stroke-linecap:butt;stroke-linejoin:round;}
  </style>
 </defs>
 <g id="figure_1">
  <g id="patch_1">
   <path d="M 0 28.8 
L 180 28.8 
L 180 0 
L 0 0 
z
" style="fill:none;"/>
  </g>
  <g id="axes_1">
   <g id="patch_2">
    <path d="M 0 27.36 
L 180 27.36 
L 180 1.44 
L 0 1.44 
z
" style="fill:none;"/>
   </g>
   <g id="PolyCollection_1">
    <path clip-path="url(#p686404202c)" d="M 8.181818 27.36 
L 8.181818 17.730365 
L 10.018218 17.842939 
L 12.051375 17.955512 
L 14.018947 18.068085 
L 16.052104 18.212352 
L 18.019676 18.381029 
L 20.052833 18.617761 
L 22.08599 18.882193 
L 24.053562 19.280968 
L 26.086719 19.40014 
L 28.05429 19.461322 
L 30.087448 19.509575 
L 32.120605 19.503505 
L 34.022591 19.478004 
L 36.055748 19.462075 
L 38.023319 18.699998 
L 40.056477 18.011506 
L 42.024048 17.745766 
L 44.057205 17.493861 
L 46.090363 17.459164 
L 48.057934 17.294411 
L 50.091091 17.287232 
L 52.058663 17.966464 
L 54.09182 18.511214 
L 56.124977 18.764484 
L 57.961377 19.10559 
L 59.994535 19.291812 
L 61.962106 19.423611 
L 63.995263 19.413463 
L 65.962835 19.608329 
L 67.995992 19.863309 
L 70.029149 20.039794 
L 71.996721 20.075614 
L 74.029878 20.238772 
L 75.997449 20.452444 
L 78.030607 20.734001 
L 80.063764 20.829712 
L 81.900164 20.903913 
L 83.933321 20.922801 
L 85.900893 21.062431 
L 87.93405 21.19549 
L 89.901621 21.445411 
L 91.934779 21.604656 
L 93.967936 21.755788 
L 95.935507 22.001821 
L 97.968665 22.381579 
L 99.936236 22.642972 
L 101.969393 22.864695 
L 104.002551 23.026859 
L 105.838951 23.221403 
L 107.872108 23.42023 
L 109.839679 23.501244 
L 111.872837 23.541236 
L 113.840408 23.432315 
L 115.873565 23.457635 
L 117.906723 23.448493 
L 119.874294 23.460124 
L 121.907451 23.335363 
L 123.875023 23.437734 
L 125.90818 23.524686 
L 127.941337 23.825007 
L 129.843323 23.873035 
L 131.87648 23.928619 
L 133.844052 24.005402 
L 135.877209 24.258938 
L 137.84478 24.337982 
L 139.877938 24.423786 
L 141.911095 24.442729 
L 143.878666 24.496761 
L 145.911824 24.604201 
L 147.879395 24.675171 
L 149.912552 24.62055 
L 151.94571 24.650447 
L 153.78211 24.68895 
L 155.815267 24.702455 
L 157.782838 24.780086 
L 159.815996 24.831187 
L 161.783567 24.892116 
L 163.816724 25.064071 
L 165.849882 25.126018 
L 167.817453 25.188951 
L 169.85061 25.251884 
L 171.818182 25.314817 
L 171.818182 27.36 
L 171.818182 27.36 
L 169.85061 27.36 
L 167.817453 27.36 
L 165.849882 27.36 
L 163.816724 27.36 
L 161.783567 27.36 
L 159.815996 27.36 
L 157.782838 27.36 
L 155.815267 27.36 
L 153.78211 27.36 
L 151.94571 27.36 
L 149.912552 27.36 
L 147.879395 27.36 
L 145.911824 27.36 
L 143.878666 27.36 
L 141.911095 27.36 
L 139.877938 27.36 
L 137.84478 27.36 
L 135.877209 27.36 
L 133.844052 27.36 
L 131.87648 27.36 
L 129.843323 27.36 
L 127.941337 27.36 
L 125.90818 27.36 
L 123.875023 27.36 
L 121.907451 27.36 
L 119.874294 27.36 
L 117.906723 27.36 
L 115.873565 27.36 
L 113.840408 27.36 
L 111.872837 27.36 
L 109.839679 27.36 
L 107.872108 27.36 
L 105.838951 27.36 
L 104.002551 27.36 
L 101.969393 27.36 
L 99.936236 27.36 
L 97.968665 27.36 
L 95.935507 27.36 
L 93.967936 27.36 
L 91.934779 27.36 
L 89.901621 27.36 
L 87.93405 27.36 
L 85.900893 27.36 
L 83.933321 27.36 
L 81.900164 27.36 
L 80.063764 27.36 
L 78.030607 27.36 
L 75.997449 27.36 
L 74.029878 27.36 
L 71.996721 27.36 
L 70.029149 27.36 
L 67.995992 27.36 
L 65.962835 27.36 
L 63.995263 27.36 
L 61.962106 27.36 
L 59.994535 27.36 
L 57.961377 27.36 
L 56.124977 27.36 
L 54.09182 27.36 
L 52.058663 27.36 
L 50.091091 27.36 
L 48.057934 27.36 
L 46.090363 27.36 
L 44.057205 27.36 
L 42.024048 27.36 
L 40.056477 27.36 
L 38.023319 27.36 
L 36.055748 27.36 
L 34.022591 27.36 
L 32.120605 27.36 
L 30.087448 27.36 
L 28.05429 27.36 
L 26.086719 27.36 
L 24.053562 27.36 
L 22.08599 27.36 
L 20.052833 27.36 
L 18.019676 27.36 
L 16.052104 27.36 
L 14.018947 27.36 
L 12.051375 27.36 
L 10.018218 27.36 
L 8.181818 27.36 
z
" style="fill:#1f77b4;fill-opacity:0.1;"/>
   </g>
   <g id="matplotlib.axis_1"/>
   <g id="matplotlib.axis_2"/>
   <g id="line2d_1">
    <path clip-path="url(#p686404202c)" d="M 8.181818 17.730365 
L 10.018218 17.842939 
L 12.051375 17.955512 
L 14.018947 18.068085 
L 16.052104 18.212352 
L 18.019676 18.381029 
L 20.052833 18.617761 
L 22.08599 18.882193 
L 24.053562 19.280968 
L 26.086719 19.40014 
L 28.05429 19.461322 
L 30.087448 19.509575 
L 32.120605 19.503505 
L 34.022591 19.478004 
L 36.055748 19.462075 
L 38.023319 18.699998 
L 40.056477 18.011506 
L 42.024048 17.745766 
L 44.057205 17.493861 
L 46.090363 17.459164 
L 48.057934 17.294411 
L 50.091091 17.287232 
L 52.058663 17.966464 
L 54.09182 18.511214 
L 56.124977 18.764484 
L 57.961377 19.10559 
L 59.994535 19.291812 
L 61.962106 19.423611 
L 63.995263 19.413463 
L 65.962835 19.608329 
L 67.995992 19.863309 
L 70.029149 20.039794 
L 71.996721 20.075614 
L 74.029878 20.238772 
L 75.997449 20.452444 
L 78.030607 20.734001 
L 80.063764 20.829712 
L 81.900164 20.903913 
L 83.933321 20.922801 
L 85.900893 21.062431 
L 87.93405 21.19549 
L 89.901621 21.445411 
L 91.934779 21.604656 
L 93.967936 21.755788 
L 95.935507 22.001821 
L 97.968665 22.381579 
L 99.936236 22.642972 
L 101.969393 22.864695 
L 104.002551 23.026859 
L 105.838951 23.221403 
L 107.872108 23.42023 
L 109.839679 23.501244 
L 111.872837 23.541236 
L 113.840408 23.432315 
L 115.873565 23.457635 
L 117.906723 23.448493 
L 119.874294 23.460124 
L 121.907451 23.335363 
L 123.875023 23.437734 
L 125.90818 23.524686 
L 127.941337 23.825007 
L 129.843323 23.873035 
L 131.87648 23.928619 
L 133.844052 24.005402 
L 135.877209 24.258938 
L 137.84478 24.337982 
L 139.877938 24.423786 
L 141.911095 24.442729 
L 143.878666 24.496761 
L 145.911824 24.604201 
L 147.879395 24.675171 
L 149.912552 24.62055 
L 151.94571 24.650447 
L 153.78211 24.68895 
L 155.815267 24.702455 
L 157.782838 24.780086 
L 159.815996 24.831187 
L 161.783567 24.892116 
L 163.816724 25.064071 
L 165.849882 25.126018 
L 167.817453 25.188951 
L 169.85061 25.251884 
L 171.818182 25.314817 
" style="fill:none;stroke:#1f77b4;stroke-linecap:square;stroke-width:1.5;"/>
   </g>
  </g>
 </g>
 <defs>
  <clipPath id="p686404202c">
   <rect height="25.92" width="180" x="0" y="1.44"/>
  </clipPath>
 </defs>
</svg>
