<?xml version="1.0" encoding="utf-8" standalone="no"?>
<!DOCTYPE svg PUBLIC "-//W3C//DTD SVG 1.1//EN"
  "http://www.w3.org/Graphics/SVG/1.1/DTD/svg11.dtd">
<!-- Created with matplotlib (http://matplotlib.org/) -->
<svg height="28pt" version="1.1" viewBox="0 0 180 28" width="180pt" xmlns="http://www.w3.org/2000/svg" xmlns:xlink="http://www.w3.org/1999/xlink">
 <defs>
  <style type="text/css">
*{stroke-linecap:butt;stroke-linejoin:round;}
  </style>
 </defs>
 <g id="figure_1">
  <g id="patch_1">
   <path d="M 0 28.8 
L 180 28.8 
L 180 0 
L 0 0 
z
" style="fill:none;"/>
  </g>
  <g id="axes_1">
   <g id="patch_2">
    <path d="M 0 27.36 
L 180 27.36 
L 180 1.44 
L 0 1.44 
z
" style="fill:none;"/>
   </g>
   <g id="PolyCollection_1">
    <path clip-path="url(#p689ca0af03)" d="M 8.181818 27.36 
L 8.181818 15.364163 
L 10.018218 15.079743 
L 12.051375 14.795324 
L 14.018947 14.510905 
L 16.052104 14.2696 
L 18.019676 14.11333 
L 20.052833 14.076756 
L 22.08599 13.999778 
L 24.053562 13.990213 
L 26.086719 13.773946 
L 28.05429 13.578961 
L 30.087448 13.375633 
L 32.120605 13.204135 
L 34.022591 12.937432 
L 36.055748 12.760624 
L 38.023319 12.698527 
L 40.056477 12.642142 
L 42.024048 12.586112 
L 44.057205 12.492477 
L 46.090363 12.472374 
L 48.057934 12.441852 
L 50.091091 12.47956 
L 52.058663 12.332087 
L 54.09182 12.255531 
L 56.124977 12.203075 
L 57.961377 12.363073 
L 59.994535 12.247645 
L 61.962106 12.263971 
L 63.995263 12.207248 
L 65.962835 12.308288 
L 67.995992 12.414227 
L 70.029149 12.52027 
L 71.996721 12.321791 
L 74.029878 12.476074 
L 75.997449 12.540018 
L 78.030607 12.65325 
L 80.063764 12.741261 
L 81.900164 12.872746 
L 83.933321 12.944337 
L 85.900893 13.039264 
L 87.93405 13.173634 
L 89.901621 13.403615 
L 91.934779 13.481854 
L 93.967936 13.54035 
L 95.935507 13.657259 
L 97.968665 13.942084 
L 99.936236 14.249689 
L 101.969393 14.513396 
L 104.002551 14.694593 
L 105.838951 14.904147 
L 107.872108 15.177503 
L 109.839679 15.339991 
L 111.872837 15.422473 
L 113.840408 15.565376 
L 115.873565 15.694938 
L 117.906723 15.74292 
L 119.874294 15.833812 
L 121.907451 15.984743 
L 123.875023 16.215505 
L 125.90818 16.428367 
L 127.941337 16.834915 
L 129.843323 17.028085 
L 131.87648 17.296076 
L 133.844052 17.504654 
L 135.877209 17.731634 
L 137.84478 17.879438 
L 139.877938 18.074916 
L 141.911095 17.965828 
L 143.878666 18.043438 
L 145.911824 18.102701 
L 147.879395 18.198903 
L 149.912552 18.273339 
L 151.94571 18.355342 
L 153.78211 18.393032 
L 155.815267 18.530831 
L 157.782838 18.638988 
L 159.815996 18.797299 
L 161.783567 18.91702 
L 163.816724 19.017821 
L 165.849882 19.204164 
L 167.817453 19.393119 
L 169.85061 19.582074 
L 171.818182 19.771029 
L 171.818182 27.36 
L 171.818182 27.36 
L 169.85061 27.36 
L 167.817453 27.36 
L 165.849882 27.36 
L 163.816724 27.36 
L 161.783567 27.36 
L 159.815996 27.36 
L 157.782838 27.36 
L 155.815267 27.36 
L 153.78211 27.36 
L 151.94571 27.36 
L 149.912552 27.36 
L 147.879395 27.36 
L 145.911824 27.36 
L 143.878666 27.36 
L 141.911095 27.36 
L 139.877938 27.36 
L 137.84478 27.36 
L 135.877209 27.36 
L 133.844052 27.36 
L 131.87648 27.36 
L 129.843323 27.36 
L 127.941337 27.36 
L 125.90818 27.36 
L 123.875023 27.36 
L 121.907451 27.36 
L 119.874294 27.36 
L 117.906723 27.36 
L 115.873565 27.36 
L 113.840408 27.36 
L 111.872837 27.36 
L 109.839679 27.36 
L 107.872108 27.36 
L 105.838951 27.36 
L 104.002551 27.36 
L 101.969393 27.36 
L 99.936236 27.36 
L 97.968665 27.36 
L 95.935507 27.36 
L 93.967936 27.36 
L 91.934779 27.36 
L 89.901621 27.36 
L 87.93405 27.36 
L 85.900893 27.36 
L 83.933321 27.36 
L 81.900164 27.36 
L 80.063764 27.36 
L 78.030607 27.36 
L 75.997449 27.36 
L 74.029878 27.36 
L 71.996721 27.36 
L 70.029149 27.36 
L 67.995992 27.36 
L 65.962835 27.36 
L 63.995263 27.36 
L 61.962106 27.36 
L 59.994535 27.36 
L 57.961377 27.36 
L 56.124977 27.36 
L 54.09182 27.36 
L 52.058663 27.36 
L 50.091091 27.36 
L 48.057934 27.36 
L 46.090363 27.36 
L 44.057205 27.36 
L 42.024048 27.36 
L 40.056477 27.36 
L 38.023319 27.36 
L 36.055748 27.36 
L 34.022591 27.36 
L 32.120605 27.36 
L 30.087448 27.36 
L 28.05429 27.36 
L 26.086719 27.36 
L 24.053562 27.36 
L 22.08599 27.36 
L 20.052833 27.36 
L 18.019676 27.36 
L 16.052104 27.36 
L 14.018947 27.36 
L 12.051375 27.36 
L 10.018218 27.36 
L 8.181818 27.36 
z
" style="fill:#1f77b4;fill-opacity:0.1;"/>
   </g>
   <g id="matplotlib.axis_1"/>
   <g id="matplotlib.axis_2"/>
   <g id="line2d_1">
    <path clip-path="url(#p689ca0af03)" d="M 8.181818 15.364163 
L 10.018218 15.079743 
L 12.051375 14.795324 
L 14.018947 14.510905 
L 16.052104 14.2696 
L 18.019676 14.11333 
L 20.052833 14.076756 
L 22.08599 13.999778 
L 24.053562 13.990213 
L 26.086719 13.773946 
L 28.05429 13.578961 
L 30.087448 13.375633 
L 32.120605 13.204135 
L 34.022591 12.937432 
L 36.055748 12.760624 
L 38.023319 12.698527 
L 40.056477 12.642142 
L 42.024048 12.586112 
L 44.057205 12.492477 
L 46.090363 12.472374 
L 48.057934 12.441852 
L 50.091091 12.47956 
L 52.058663 12.332087 
L 54.09182 12.255531 
L 56.124977 12.203075 
L 57.961377 12.363073 
L 59.994535 12.247645 
L 61.962106 12.263971 
L 63.995263 12.207248 
L 65.962835 12.308288 
L 67.995992 12.414227 
L 70.029149 12.52027 
L 71.996721 12.321791 
L 74.029878 12.476074 
L 75.997449 12.540018 
L 78.030607 12.65325 
L 80.063764 12.741261 
L 81.900164 12.872746 
L 83.933321 12.944337 
L 85.900893 13.039264 
L 87.93405 13.173634 
L 89.901621 13.403615 
L 91.934779 13.481854 
L 93.967936 13.54035 
L 95.935507 13.657259 
L 97.968665 13.942084 
L 99.936236 14.249689 
L 101.969393 14.513396 
L 104.002551 14.694593 
L 105.838951 14.904147 
L 107.872108 15.177503 
L 109.839679 15.339991 
L 111.872837 15.422473 
L 113.840408 15.565376 
L 115.873565 15.694938 
L 117.906723 15.74292 
L 119.874294 15.833812 
L 121.907451 15.984743 
L 123.875023 16.215505 
L 125.90818 16.428367 
L 127.941337 16.834915 
L 129.843323 17.028085 
L 131.87648 17.296076 
L 133.844052 17.504654 
L 135.877209 17.731634 
L 137.84478 17.879438 
L 139.877938 18.074916 
L 141.911095 17.965828 
L 143.878666 18.043438 
L 145.911824 18.102701 
L 147.879395 18.198903 
L 149.912552 18.273339 
L 151.94571 18.355342 
L 153.78211 18.393032 
L 155.815267 18.530831 
L 157.782838 18.638988 
L 159.815996 18.797299 
L 161.783567 18.91702 
L 163.816724 19.017821 
L 165.849882 19.204164 
L 167.817453 19.393119 
L 169.85061 19.582074 
L 171.818182 19.771029 
" style="fill:none;stroke:#1f77b4;stroke-linecap:square;stroke-width:1.5;"/>
   </g>
  </g>
 </g>
 <defs>
  <clipPath id="p689ca0af03">
   <rect height="25.92" width="180" x="0" y="1.44"/>
  </clipPath>
 </defs>
</svg>
