<?xml version="1.0" encoding="utf-8" standalone="no"?>
<!DOCTYPE svg PUBLIC "-//W3C//DTD SVG 1.1//EN"
  "http://www.w3.org/Graphics/SVG/1.1/DTD/svg11.dtd">
<!-- Created with matplotlib (http://matplotlib.org/) -->
<svg height="28pt" version="1.1" viewBox="0 0 180 28" width="180pt" xmlns="http://www.w3.org/2000/svg" xmlns:xlink="http://www.w3.org/1999/xlink">
 <defs>
  <style type="text/css">
*{stroke-linecap:butt;stroke-linejoin:round;}
  </style>
 </defs>
 <g id="figure_1">
  <g id="patch_1">
   <path d="M 0 28.8 
L 180 28.8 
L 180 0 
L 0 0 
z
" style="fill:none;"/>
  </g>
  <g id="axes_1">
   <g id="patch_2">
    <path d="M 0 27.36 
L 180 27.36 
L 180 1.44 
L 0 1.44 
z
" style="fill:none;"/>
   </g>
   <g id="PolyCollection_1">
    <path clip-path="url(#pb7d063c91e)" d="M 8.181818 27.36 
L 8.181818 15.364133 
L 9.954282 15.079762 
L 11.916652 14.795392 
L 13.81572 14.511021 
L 15.77809 14.270244 
L 17.677158 14.113647 
L 19.639529 14.076861 
L 21.601899 13.999828 
L 23.500967 13.990075 
L 25.463337 13.773793 
L 27.362405 13.578909 
L 29.324776 13.375601 
L 31.287146 13.204462 
L 33.122912 12.938002 
L 35.085282 12.761424 
L 36.98435 12.699523 
L 38.946721 12.643317 
L 40.845789 12.587596 
L 42.808159 12.493815 
L 44.770529 12.473558 
L 46.669597 12.442813 
L 48.631968 12.480435 
L 50.531036 12.332898 
L 52.493406 12.256311 
L 54.455776 12.202567 
L 56.22824 12.362634 
L 58.19061 12.247337 
L 60.089678 12.263887 
L 62.052049 12.207217 
L 63.951117 12.308195 
L 65.913487 12.414066 
L 67.875857 12.521324 
L 69.774925 12.322906 
L 71.737296 12.477179 
L 73.636364 12.541063 
L 75.598734 12.654267 
L 77.561104 12.742399 
L 79.333568 12.873967 
L 81.295938 12.945567 
L 83.195006 13.040489 
L 85.157376 13.174804 
L 87.056445 13.404773 
L 89.018815 13.482994 
L 90.981185 13.541462 
L 92.880253 13.658318 
L 94.842624 13.943087 
L 96.741692 14.250564 
L 98.704062 14.514264 
L 100.666432 14.69538 
L 102.438896 14.904958 
L 104.401266 15.178188 
L 106.300334 15.340683 
L 108.262704 15.423171 
L 110.161772 15.566153 
L 112.124143 15.695696 
L 114.086513 15.743749 
L 115.985581 15.834563 
L 117.947951 15.985437 
L 119.84702 16.215949 
L 121.80939 16.428561 
L 123.77176 16.834835 
L 125.607526 17.02768 
L 127.569896 17.295411 
L 129.468964 17.503744 
L 131.431335 17.730494 
L 133.330403 17.878155 
L 135.292773 18.073545 
L 137.255143 17.964516 
L 139.154211 18.042031 
L 141.116582 18.101225 
L 143.01565 18.197185 
L 144.97802 18.271257 
L 146.94039 18.35264 
L 148.712854 18.389828 
L 150.675224 18.501533 
L 152.574292 18.578787 
L 154.536663 18.734589 
L 156.435731 18.851752 
L 158.398101 18.936703 
L 160.360471 19.090776 
L 162.259539 19.292978 
L 164.22191 19.477754 
L 166.120978 19.737913 
L 168.083348 19.983507 
L 170.045718 20.2291 
L 171.818182 20.474694 
L 171.818182 27.36 
L 171.818182 27.36 
L 170.045718 27.36 
L 168.083348 27.36 
L 166.120978 27.36 
L 164.22191 27.36 
L 162.259539 27.36 
L 160.360471 27.36 
L 158.398101 27.36 
L 156.435731 27.36 
L 154.536663 27.36 
L 152.574292 27.36 
L 150.675224 27.36 
L 148.712854 27.36 
L 146.94039 27.36 
L 144.97802 27.36 
L 143.01565 27.36 
L 141.116582 27.36 
L 139.154211 27.36 
L 137.255143 27.36 
L 135.292773 27.36 
L 133.330403 27.36 
L 131.431335 27.36 
L 129.468964 27.36 
L 127.569896 27.36 
L 125.607526 27.36 
L 123.77176 27.36 
L 121.80939 27.36 
L 119.84702 27.36 
L 117.947951 27.36 
L 115.985581 27.36 
L 114.086513 27.36 
L 112.124143 27.36 
L 110.161772 27.36 
L 108.262704 27.36 
L 106.300334 27.36 
L 104.401266 27.36 
L 102.438896 27.36 
L 100.666432 27.36 
L 98.704062 27.36 
L 96.741692 27.36 
L 94.842624 27.36 
L 92.880253 27.36 
L 90.981185 27.36 
L 89.018815 27.36 
L 87.056445 27.36 
L 85.157376 27.36 
L 83.195006 27.36 
L 81.295938 27.36 
L 79.333568 27.36 
L 77.561104 27.36 
L 75.598734 27.36 
L 73.636364 27.36 
L 71.737296 27.36 
L 69.774925 27.36 
L 67.875857 27.36 
L 65.913487 27.36 
L 63.951117 27.36 
L 62.052049 27.36 
L 60.089678 27.36 
L 58.19061 27.36 
L 56.22824 27.36 
L 54.455776 27.36 
L 52.493406 27.36 
L 50.531036 27.36 
L 48.631968 27.36 
L 46.669597 27.36 
L 44.770529 27.36 
L 42.808159 27.36 
L 40.845789 27.36 
L 38.946721 27.36 
L 36.98435 27.36 
L 35.085282 27.36 
L 33.122912 27.36 
L 31.287146 27.36 
L 29.324776 27.36 
L 27.362405 27.36 
L 25.463337 27.36 
L 23.500967 27.36 
L 21.601899 27.36 
L 19.639529 27.36 
L 17.677158 27.36 
L 15.77809 27.36 
L 13.81572 27.36 
L 11.916652 27.36 
L 9.954282 27.36 
L 8.181818 27.36 
z
" style="fill:#1f77b4;fill-opacity:0.1;"/>
   </g>
   <g id="matplotlib.axis_1"/>
   <g id="matplotlib.axis_2"/>
   <g id="line2d_1">
    <path clip-path="url(#pb7d063c91e)" d="M 8.181818 15.364133 
L 9.954282 15.079762 
L 11.916652 14.795392 
L 13.81572 14.511021 
L 15.77809 14.270244 
L 17.677158 14.113647 
L 19.639529 14.076861 
L 21.601899 13.999828 
L 23.500967 13.990075 
L 25.463337 13.773793 
L 27.362405 13.578909 
L 29.324776 13.375601 
L 31.287146 13.204462 
L 33.122912 12.938002 
L 35.085282 12.761424 
L 36.98435 12.699523 
L 38.946721 12.643317 
L 40.845789 12.587596 
L 42.808159 12.493815 
L 44.770529 12.473558 
L 46.669597 12.442813 
L 48.631968 12.480435 
L 50.531036 12.332898 
L 52.493406 12.256311 
L 54.455776 12.202567 
L 56.22824 12.362634 
L 58.19061 12.247337 
L 60.089678 12.263887 
L 62.052049 12.207217 
L 63.951117 12.308195 
L 65.913487 12.414066 
L 67.875857 12.521324 
L 69.774925 12.322906 
L 71.737296 12.477179 
L 73.636364 12.541063 
L 75.598734 12.654267 
L 77.561104 12.742399 
L 79.333568 12.873967 
L 81.295938 12.945567 
L 83.195006 13.040489 
L 85.157376 13.174804 
L 87.056445 13.404773 
L 89.018815 13.482994 
L 90.981185 13.541462 
L 92.880253 13.658318 
L 94.842624 13.943087 
L 96.741692 14.250564 
L 98.704062 14.514264 
L 100.666432 14.69538 
L 102.438896 14.904958 
L 104.401266 15.178188 
L 106.300334 15.340683 
L 108.262704 15.423171 
L 110.161772 15.566153 
L 112.124143 15.695696 
L 114.086513 15.743749 
L 115.985581 15.834563 
L 117.947951 15.985437 
L 119.84702 16.215949 
L 121.80939 16.428561 
L 123.77176 16.834835 
L 125.607526 17.02768 
L 127.569896 17.295411 
L 129.468964 17.503744 
L 131.431335 17.730494 
L 133.330403 17.878155 
L 135.292773 18.073545 
L 137.255143 17.964516 
L 139.154211 18.042031 
L 141.116582 18.101225 
L 143.01565 18.197185 
L 144.97802 18.271257 
L 146.94039 18.35264 
L 148.712854 18.389828 
L 150.675224 18.501533 
L 152.574292 18.578787 
L 154.536663 18.734589 
L 156.435731 18.851752 
L 158.398101 18.936703 
L 160.360471 19.090776 
L 162.259539 19.292978 
L 164.22191 19.477754 
L 166.120978 19.737913 
L 168.083348 19.983507 
L 170.045718 20.2291 
L 171.818182 20.474694 
" style="fill:none;stroke:#1f77b4;stroke-linecap:square;stroke-width:1.5;"/>
   </g>
  </g>
 </g>
 <defs>
  <clipPath id="pb7d063c91e">
   <rect height="25.92" width="180" x="0" y="1.44"/>
  </clipPath>
 </defs>
</svg>
