<?xml version="1.0" encoding="utf-8" standalone="no"?>
<!DOCTYPE svg PUBLIC "-//W3C//DTD SVG 1.1//EN"
  "http://www.w3.org/Graphics/SVG/1.1/DTD/svg11.dtd">
<!-- Created with matplotlib (http://matplotlib.org/) -->
<svg height="28pt" version="1.1" viewBox="0 0 180 28" width="180pt" xmlns="http://www.w3.org/2000/svg" xmlns:xlink="http://www.w3.org/1999/xlink">
 <defs>
  <style type="text/css">
*{stroke-linecap:butt;stroke-linejoin:round;}
  </style>
 </defs>
 <g id="figure_1">
  <g id="patch_1">
   <path d="M 0 28.8 
L 180 28.8 
L 180 0 
L 0 0 
z
" style="fill:none;"/>
  </g>
  <g id="axes_1">
   <g id="patch_2">
    <path d="M 0 27.36 
L 180 27.36 
L 180 1.44 
L 0 1.44 
z
" style="fill:none;"/>
   </g>
   <g id="PolyCollection_1">
    <path clip-path="url(#p3ce3bea99d)" d="M 8.181818 27.36 
L 8.181818 26.634167 
L 9.954282 26.602376 
L 11.916652 26.570585 
L 13.81572 26.538795 
L 15.77809 26.496518 
L 17.677158 26.485034 
L 19.639529 26.544846 
L 21.601899 26.512271 
L 23.500967 26.503762 
L 25.463337 26.438913 
L 27.362405 26.47283 
L 29.324776 26.429374 
L 31.287146 26.31758 
L 33.122912 26.17362 
L 35.085282 26.146839 
L 36.98435 26.065971 
L 38.946721 26.005524 
L 40.845789 25.833088 
L 42.808159 25.748362 
L 44.770529 25.756551 
L 46.669597 25.756238 
L 48.631968 25.693477 
L 50.531036 25.631175 
L 52.493406 25.607976 
L 54.455776 25.582357 
L 56.22824 25.57639 
L 58.19061 25.522912 
L 60.089678 25.468467 
L 62.052049 25.425753 
L 63.951117 25.400443 
L 65.913487 25.283264 
L 67.875857 25.241089 
L 69.774925 25.130523 
L 71.737296 25.086339 
L 73.636364 25.021899 
L 75.598734 24.935133 
L 77.561104 24.794247 
L 79.333568 24.730768 
L 81.295938 24.509024 
L 83.195006 24.335332 
L 85.157376 24.11238 
L 87.056445 23.936809 
L 89.018815 23.653505 
L 90.981185 23.512767 
L 92.880253 23.399048 
L 94.842624 23.354123 
L 96.741692 23.228502 
L 98.704062 23.15094 
L 100.666432 22.949776 
L 102.438896 22.972701 
L 104.401266 22.865792 
L 106.300334 22.543364 
L 108.262704 22.391899 
L 110.161772 22.313506 
L 112.124143 22.180537 
L 114.086513 22.194009 
L 115.985581 22.12575 
L 117.947951 22.114658 
L 119.84702 22.341214 
L 121.80939 22.351857 
L 123.77176 22.471093 
L 125.607526 22.520013 
L 127.569896 22.443669 
L 129.468964 22.309143 
L 131.431335 22.194162 
L 133.330403 22.100084 
L 135.292773 22.043198 
L 137.255143 21.844263 
L 139.154211 21.66845 
L 141.116582 21.608246 
L 143.01565 21.533108 
L 144.97802 21.397376 
L 146.94039 21.190144 
L 148.712854 21.004163 
L 150.675224 20.850393 
L 152.574292 20.708198 
L 154.536663 20.623416 
L 156.435731 20.562453 
L 158.398101 20.523627 
L 160.360471 20.469417 
L 162.259539 20.492737 
L 164.22191 20.481698 
L 166.120978 20.482975 
L 168.083348 20.444553 
L 170.045718 20.406131 
L 171.818182 20.36771 
L 171.818182 27.36 
L 171.818182 27.36 
L 170.045718 27.36 
L 168.083348 27.36 
L 166.120978 27.36 
L 164.22191 27.36 
L 162.259539 27.36 
L 160.360471 27.36 
L 158.398101 27.36 
L 156.435731 27.36 
L 154.536663 27.36 
L 152.574292 27.36 
L 150.675224 27.36 
L 148.712854 27.36 
L 146.94039 27.36 
L 144.97802 27.36 
L 143.01565 27.36 
L 141.116582 27.36 
L 139.154211 27.36 
L 137.255143 27.36 
L 135.292773 27.36 
L 133.330403 27.36 
L 131.431335 27.36 
L 129.468964 27.36 
L 127.569896 27.36 
L 125.607526 27.36 
L 123.77176 27.36 
L 121.80939 27.36 
L 119.84702 27.36 
L 117.947951 27.36 
L 115.985581 27.36 
L 114.086513 27.36 
L 112.124143 27.36 
L 110.161772 27.36 
L 108.262704 27.36 
L 106.300334 27.36 
L 104.401266 27.36 
L 102.438896 27.36 
L 100.666432 27.36 
L 98.704062 27.36 
L 96.741692 27.36 
L 94.842624 27.36 
L 92.880253 27.36 
L 90.981185 27.36 
L 89.018815 27.36 
L 87.056445 27.36 
L 85.157376 27.36 
L 83.195006 27.36 
L 81.295938 27.36 
L 79.333568 27.36 
L 77.561104 27.36 
L 75.598734 27.36 
L 73.636364 27.36 
L 71.737296 27.36 
L 69.774925 27.36 
L 67.875857 27.36 
L 65.913487 27.36 
L 63.951117 27.36 
L 62.052049 27.36 
L 60.089678 27.36 
L 58.19061 27.36 
L 56.22824 27.36 
L 54.455776 27.36 
L 52.493406 27.36 
L 50.531036 27.36 
L 48.631968 27.36 
L 46.669597 27.36 
L 44.770529 27.36 
L 42.808159 27.36 
L 40.845789 27.36 
L 38.946721 27.36 
L 36.98435 27.36 
L 35.085282 27.36 
L 33.122912 27.36 
L 31.287146 27.36 
L 29.324776 27.36 
L 27.362405 27.36 
L 25.463337 27.36 
L 23.500967 27.36 
L 21.601899 27.36 
L 19.639529 27.36 
L 17.677158 27.36 
L 15.77809 27.36 
L 13.81572 27.36 
L 11.916652 27.36 
L 9.954282 27.36 
L 8.181818 27.36 
z
" style="fill:#1f77b4;fill-opacity:0.1;"/>
   </g>
   <g id="matplotlib.axis_1"/>
   <g id="matplotlib.axis_2"/>
   <g id="line2d_1">
    <path clip-path="url(#p3ce3bea99d)" d="M 8.181818 26.634167 
L 9.954282 26.602376 
L 11.916652 26.570585 
L 13.81572 26.538795 
L 15.77809 26.496518 
L 17.677158 26.485034 
L 19.639529 26.544846 
L 21.601899 26.512271 
L 23.500967 26.503762 
L 25.463337 26.438913 
L 27.362405 26.47283 
L 29.324776 26.429374 
L 31.287146 26.31758 
L 33.122912 26.17362 
L 35.085282 26.146839 
L 36.98435 26.065971 
L 38.946721 26.005524 
L 40.845789 25.833088 
L 42.808159 25.748362 
L 44.770529 25.756551 
L 46.669597 25.756238 
L 48.631968 25.693477 
L 50.531036 25.631175 
L 52.493406 25.607976 
L 54.455776 25.582357 
L 56.22824 25.57639 
L 58.19061 25.522912 
L 60.089678 25.468467 
L 62.052049 25.425753 
L 63.951117 25.400443 
L 65.913487 25.283264 
L 67.875857 25.241089 
L 69.774925 25.130523 
L 71.737296 25.086339 
L 73.636364 25.021899 
L 75.598734 24.935133 
L 77.561104 24.794247 
L 79.333568 24.730768 
L 81.295938 24.509024 
L 83.195006 24.335332 
L 85.157376 24.11238 
L 87.056445 23.936809 
L 89.018815 23.653505 
L 90.981185 23.512767 
L 92.880253 23.399048 
L 94.842624 23.354123 
L 96.741692 23.228502 
L 98.704062 23.15094 
L 100.666432 22.949776 
L 102.438896 22.972701 
L 104.401266 22.865792 
L 106.300334 22.543364 
L 108.262704 22.391899 
L 110.161772 22.313506 
L 112.124143 22.180537 
L 114.086513 22.194009 
L 115.985581 22.12575 
L 117.947951 22.114658 
L 119.84702 22.341214 
L 121.80939 22.351857 
L 123.77176 22.471093 
L 125.607526 22.520013 
L 127.569896 22.443669 
L 129.468964 22.309143 
L 131.431335 22.194162 
L 133.330403 22.100084 
L 135.292773 22.043198 
L 137.255143 21.844263 
L 139.154211 21.66845 
L 141.116582 21.608246 
L 143.01565 21.533108 
L 144.97802 21.397376 
L 146.94039 21.190144 
L 148.712854 21.004163 
L 150.675224 20.850393 
L 152.574292 20.708198 
L 154.536663 20.623416 
L 156.435731 20.562453 
L 158.398101 20.523627 
L 160.360471 20.469417 
L 162.259539 20.492737 
L 164.22191 20.481698 
L 166.120978 20.482975 
L 168.083348 20.444553 
L 170.045718 20.406131 
L 171.818182 20.36771 
" style="fill:none;stroke:#1f77b4;stroke-linecap:square;stroke-width:1.5;"/>
   </g>
  </g>
 </g>
 <defs>
  <clipPath id="p3ce3bea99d">
   <rect height="25.92" width="180" x="0" y="1.44"/>
  </clipPath>
 </defs>
</svg>
