<?xml version="1.0" encoding="utf-8" standalone="no"?>
<!DOCTYPE svg PUBLIC "-//W3C//DTD SVG 1.1//EN"
  "http://www.w3.org/Graphics/SVG/1.1/DTD/svg11.dtd">
<!-- Created with matplotlib (http://matplotlib.org/) -->
<svg height="28pt" version="1.1" viewBox="0 0 180 28" width="180pt" xmlns="http://www.w3.org/2000/svg" xmlns:xlink="http://www.w3.org/1999/xlink">
 <defs>
  <style type="text/css">
*{stroke-linecap:butt;stroke-linejoin:round;}
  </style>
 </defs>
 <g id="figure_1">
  <g id="patch_1">
   <path d="M 0 28.8 
L 180 28.8 
L 180 0 
L 0 0 
z
" style="fill:none;"/>
  </g>
  <g id="axes_1">
   <g id="patch_2">
    <path d="M 0 27.36 
L 180 27.36 
L 180 1.44 
L 0 1.44 
z
" style="fill:none;"/>
   </g>
   <g id="PolyCollection_1">
    <path clip-path="url(#pbbef0932c1)" d="M 8.181818 27.36 
L 8.181818 26.627034 
L 10.018218 26.594931 
L 12.051375 26.562827 
L 14.018947 26.530724 
L 16.052104 26.488032 
L 18.019676 26.476436 
L 20.052833 26.536835 
L 22.08599 26.50394 
L 24.053562 26.495348 
L 26.086719 26.429861 
L 28.05429 26.464112 
L 30.087448 26.420229 
L 32.120605 26.307335 
L 34.022591 26.161961 
L 36.055748 26.134917 
L 38.023319 26.053254 
L 40.056477 25.992213 
L 42.024048 25.818082 
L 44.057205 25.732524 
L 46.090363 25.740793 
L 48.057934 25.740477 
L 50.091091 25.677099 
L 52.058663 25.614185 
L 54.09182 25.590758 
L 56.124977 25.564887 
L 57.961377 25.558862 
L 59.994535 25.504858 
L 61.962106 25.449877 
L 63.995263 25.406744 
L 65.962835 25.381185 
L 67.995992 25.262855 
L 70.029149 25.220265 
L 71.996721 25.108612 
L 74.029878 25.064301 
L 75.997449 24.999781 
L 78.030607 24.912162 
L 80.063764 24.769892 
L 81.900164 24.705789 
L 83.933321 24.481866 
L 85.900893 24.306467 
L 87.93405 24.081018 
L 89.901621 23.903385 
L 91.934779 23.617298 
L 93.967936 23.475403 
L 95.935507 23.360778 
L 97.968665 23.315614 
L 99.936236 23.188759 
L 101.969393 23.110615 
L 104.002551 22.907256 
L 105.838951 22.930227 
L 107.872108 22.821863 
L 109.839679 22.496055 
L 111.872837 22.342899 
L 113.840408 22.264044 
L 115.873565 22.13004 
L 117.906723 22.143489 
L 119.874294 22.074445 
L 121.907451 22.063282 
L 123.875023 22.292065 
L 125.90818 22.302813 
L 127.941337 22.422803 
L 129.843323 22.472139 
L 131.87648 22.395458 
L 133.844052 22.26027 
L 135.877209 22.144645 
L 137.84478 22.049642 
L 139.877938 21.992197 
L 141.911095 21.791194 
L 143.878666 21.613159 
L 145.911824 21.552105 
L 147.879395 21.476135 
L 149.912552 21.338819 
L 151.94571 21.130299 
L 153.78211 20.942977 
L 155.815267 20.804767 
L 157.782838 20.679199 
L 159.815996 20.596116 
L 161.783567 20.536918 
L 163.816724 20.506623 
L 165.849882 20.47209 
L 167.817453 20.444882 
L 169.85061 20.417674 
L 171.818182 20.390466 
L 171.818182 27.36 
L 171.818182 27.36 
L 169.85061 27.36 
L 167.817453 27.36 
L 165.849882 27.36 
L 163.816724 27.36 
L 161.783567 27.36 
L 159.815996 27.36 
L 157.782838 27.36 
L 155.815267 27.36 
L 153.78211 27.36 
L 151.94571 27.36 
L 149.912552 27.36 
L 147.879395 27.36 
L 145.911824 27.36 
L 143.878666 27.36 
L 141.911095 27.36 
L 139.877938 27.36 
L 137.84478 27.36 
L 135.877209 27.36 
L 133.844052 27.36 
L 131.87648 27.36 
L 129.843323 27.36 
L 127.941337 27.36 
L 125.90818 27.36 
L 123.875023 27.36 
L 121.907451 27.36 
L 119.874294 27.36 
L 117.906723 27.36 
L 115.873565 27.36 
L 113.840408 27.36 
L 111.872837 27.36 
L 109.839679 27.36 
L 107.872108 27.36 
L 105.838951 27.36 
L 104.002551 27.36 
L 101.969393 27.36 
L 99.936236 27.36 
L 97.968665 27.36 
L 95.935507 27.36 
L 93.967936 27.36 
L 91.934779 27.36 
L 89.901621 27.36 
L 87.93405 27.36 
L 85.900893 27.36 
L 83.933321 27.36 
L 81.900164 27.36 
L 80.063764 27.36 
L 78.030607 27.36 
L 75.997449 27.36 
L 74.029878 27.36 
L 71.996721 27.36 
L 70.029149 27.36 
L 67.995992 27.36 
L 65.962835 27.36 
L 63.995263 27.36 
L 61.962106 27.36 
L 59.994535 27.36 
L 57.961377 27.36 
L 56.124977 27.36 
L 54.09182 27.36 
L 52.058663 27.36 
L 50.091091 27.36 
L 48.057934 27.36 
L 46.090363 27.36 
L 44.057205 27.36 
L 42.024048 27.36 
L 40.056477 27.36 
L 38.023319 27.36 
L 36.055748 27.36 
L 34.022591 27.36 
L 32.120605 27.36 
L 30.087448 27.36 
L 28.05429 27.36 
L 26.086719 27.36 
L 24.053562 27.36 
L 22.08599 27.36 
L 20.052833 27.36 
L 18.019676 27.36 
L 16.052104 27.36 
L 14.018947 27.36 
L 12.051375 27.36 
L 10.018218 27.36 
L 8.181818 27.36 
z
" style="fill:#1f77b4;fill-opacity:0.1;"/>
   </g>
   <g id="matplotlib.axis_1"/>
   <g id="matplotlib.axis_2"/>
   <g id="line2d_1">
    <path clip-path="url(#pbbef0932c1)" d="M 8.181818 26.627034 
L 10.018218 26.594931 
L 12.051375 26.562827 
L 14.018947 26.530724 
L 16.052104 26.488032 
L 18.019676 26.476436 
L 20.052833 26.536835 
L 22.08599 26.50394 
L 24.053562 26.495348 
L 26.086719 26.429861 
L 28.05429 26.464112 
L 30.087448 26.420229 
L 32.120605 26.307335 
L 34.022591 26.161961 
L 36.055748 26.134917 
L 38.023319 26.053254 
L 40.056477 25.992213 
L 42.024048 25.818082 
L 44.057205 25.732524 
L 46.090363 25.740793 
L 48.057934 25.740477 
L 50.091091 25.677099 
L 52.058663 25.614185 
L 54.09182 25.590758 
L 56.124977 25.564887 
L 57.961377 25.558862 
L 59.994535 25.504858 
L 61.962106 25.449877 
L 63.995263 25.406744 
L 65.962835 25.381185 
L 67.995992 25.262855 
L 70.029149 25.220265 
L 71.996721 25.108612 
L 74.029878 25.064301 
L 75.997449 24.999781 
L 78.030607 24.912162 
L 80.063764 24.769892 
L 81.900164 24.705789 
L 83.933321 24.481866 
L 85.900893 24.306467 
L 87.93405 24.081018 
L 89.901621 23.903385 
L 91.934779 23.617298 
L 93.967936 23.475403 
L 95.935507 23.360778 
L 97.968665 23.315614 
L 99.936236 23.188759 
L 101.969393 23.110615 
L 104.002551 22.907256 
L 105.838951 22.930227 
L 107.872108 22.821863 
L 109.839679 22.496055 
L 111.872837 22.342899 
L 113.840408 22.264044 
L 115.873565 22.13004 
L 117.906723 22.143489 
L 119.874294 22.074445 
L 121.907451 22.063282 
L 123.875023 22.292065 
L 125.90818 22.302813 
L 127.941337 22.422803 
L 129.843323 22.472139 
L 131.87648 22.395458 
L 133.844052 22.26027 
L 135.877209 22.144645 
L 137.84478 22.049642 
L 139.877938 21.992197 
L 141.911095 21.791194 
L 143.878666 21.613159 
L 145.911824 21.552105 
L 147.879395 21.476135 
L 149.912552 21.338819 
L 151.94571 21.130299 
L 153.78211 20.942977 
L 155.815267 20.804767 
L 157.782838 20.679199 
L 159.815996 20.596116 
L 161.783567 20.536918 
L 163.816724 20.506623 
L 165.849882 20.47209 
L 167.817453 20.444882 
L 169.85061 20.417674 
L 171.818182 20.390466 
" style="fill:none;stroke:#1f77b4;stroke-linecap:square;stroke-width:1.5;"/>
   </g>
  </g>
 </g>
 <defs>
  <clipPath id="pbbef0932c1">
   <rect height="25.92" width="180" x="0" y="1.44"/>
  </clipPath>
 </defs>
</svg>
