<?xml version="1.0" encoding="utf-8" standalone="no"?>
<!DOCTYPE svg PUBLIC "-//W3C//DTD SVG 1.1//EN"
  "http://www.w3.org/Graphics/SVG/1.1/DTD/svg11.dtd">
<!-- Created with matplotlib (http://matplotlib.org/) -->
<svg height="28pt" version="1.1" viewBox="0 0 180 28" width="180pt" xmlns="http://www.w3.org/2000/svg" xmlns:xlink="http://www.w3.org/1999/xlink">
 <defs>
  <style type="text/css">
*{stroke-linecap:butt;stroke-linejoin:round;}
  </style>
 </defs>
 <g id="figure_1">
  <g id="patch_1">
   <path d="M 0 28.8 
L 180 28.8 
L 180 0 
L 0 0 
z
" style="fill:none;"/>
  </g>
  <g id="axes_1">
   <g id="patch_2">
    <path d="M 0 27.36 
L 180 27.36 
L 180 1.44 
L 0 1.44 
z
" style="fill:none;"/>
   </g>
   <g id="PolyCollection_1">
    <path clip-path="url(#p5bff51bd91)" d="M 8.181818 27.36 
L 8.181818 14.065043 
L 10.018218 14.020732 
L 12.051375 13.976421 
L 14.018947 13.932109 
L 16.052104 13.875684 
L 18.019676 13.965746 
L 20.052833 14.134285 
L 22.08599 14.146476 
L 24.053562 14.236406 
L 26.086719 14.172447 
L 28.05429 14.000613 
L 30.087448 13.796961 
L 32.120605 13.628239 
L 34.022591 13.479505 
L 36.055748 13.433098 
L 38.023319 13.418562 
L 40.056477 13.368424 
L 42.024048 13.415007 
L 44.057205 13.450558 
L 46.090363 13.484337 
L 48.057934 13.401724 
L 50.091091 13.463922 
L 52.058663 13.277193 
L 54.09182 13.132308 
L 56.124977 13.022875 
L 57.961377 13.076846 
L 59.994535 12.907108 
L 61.962106 12.640575 
L 63.995263 12.387378 
L 65.962835 12.433556 
L 67.995992 12.481385 
L 70.029149 12.443844 
L 71.996721 12.127021 
L 74.029878 12.091618 
L 75.997449 12.173647 
L 78.030607 12.115808 
L 80.063764 11.991157 
L 81.900164 11.871531 
L 83.933321 11.661134 
L 85.900893 11.625968 
L 87.93405 11.660896 
L 89.901621 11.760585 
L 91.934779 11.707182 
L 93.967936 11.666981 
L 95.935507 11.697299 
L 97.968665 11.964237 
L 99.936236 12.118019 
L 101.969393 12.08281 
L 104.002551 12.076663 
L 105.838951 12.16478 
L 107.872108 12.215095 
L 109.839679 12.072455 
L 111.872837 11.902389 
L 113.840408 11.830966 
L 115.873565 11.872168 
L 117.906723 11.757131 
L 119.874294 11.586722 
L 121.907451 11.577662 
L 123.875023 11.675236 
L 125.90818 11.753014 
L 127.941337 12.104532 
L 129.843323 12.154316 
L 131.87648 12.241942 
L 133.844052 12.335882 
L 135.877209 12.471561 
L 137.84478 12.569923 
L 139.877938 12.657383 
L 141.911095 12.33237 
L 143.878666 12.193648 
L 145.911824 12.081663 
L 147.879395 11.985063 
L 149.912552 11.74401 
L 151.94571 11.614494 
L 153.78211 11.458498 
L 155.815267 11.331362 
L 157.782838 11.264815 
L 159.815996 11.296499 
L 161.783567 11.265542 
L 163.816724 11.263809 
L 165.849882 11.301684 
L 167.817453 11.333297 
L 169.85061 11.364911 
L 171.818182 11.396525 
L 171.818182 27.36 
L 171.818182 27.36 
L 169.85061 27.36 
L 167.817453 27.36 
L 165.849882 27.36 
L 163.816724 27.36 
L 161.783567 27.36 
L 159.815996 27.36 
L 157.782838 27.36 
L 155.815267 27.36 
L 153.78211 27.36 
L 151.94571 27.36 
L 149.912552 27.36 
L 147.879395 27.36 
L 145.911824 27.36 
L 143.878666 27.36 
L 141.911095 27.36 
L 139.877938 27.36 
L 137.84478 27.36 
L 135.877209 27.36 
L 133.844052 27.36 
L 131.87648 27.36 
L 129.843323 27.36 
L 127.941337 27.36 
L 125.90818 27.36 
L 123.875023 27.36 
L 121.907451 27.36 
L 119.874294 27.36 
L 117.906723 27.36 
L 115.873565 27.36 
L 113.840408 27.36 
L 111.872837 27.36 
L 109.839679 27.36 
L 107.872108 27.36 
L 105.838951 27.36 
L 104.002551 27.36 
L 101.969393 27.36 
L 99.936236 27.36 
L 97.968665 27.36 
L 95.935507 27.36 
L 93.967936 27.36 
L 91.934779 27.36 
L 89.901621 27.36 
L 87.93405 27.36 
L 85.900893 27.36 
L 83.933321 27.36 
L 81.900164 27.36 
L 80.063764 27.36 
L 78.030607 27.36 
L 75.997449 27.36 
L 74.029878 27.36 
L 71.996721 27.36 
L 70.029149 27.36 
L 67.995992 27.36 
L 65.962835 27.36 
L 63.995263 27.36 
L 61.962106 27.36 
L 59.994535 27.36 
L 57.961377 27.36 
L 56.124977 27.36 
L 54.09182 27.36 
L 52.058663 27.36 
L 50.091091 27.36 
L 48.057934 27.36 
L 46.090363 27.36 
L 44.057205 27.36 
L 42.024048 27.36 
L 40.056477 27.36 
L 38.023319 27.36 
L 36.055748 27.36 
L 34.022591 27.36 
L 32.120605 27.36 
L 30.087448 27.36 
L 28.05429 27.36 
L 26.086719 27.36 
L 24.053562 27.36 
L 22.08599 27.36 
L 20.052833 27.36 
L 18.019676 27.36 
L 16.052104 27.36 
L 14.018947 27.36 
L 12.051375 27.36 
L 10.018218 27.36 
L 8.181818 27.36 
z
" style="fill:#1f77b4;fill-opacity:0.1;"/>
   </g>
   <g id="matplotlib.axis_1"/>
   <g id="matplotlib.axis_2"/>
   <g id="line2d_1">
    <path clip-path="url(#p5bff51bd91)" d="M 8.181818 14.065043 
L 10.018218 14.020732 
L 12.051375 13.976421 
L 14.018947 13.932109 
L 16.052104 13.875684 
L 18.019676 13.965746 
L 20.052833 14.134285 
L 22.08599 14.146476 
L 24.053562 14.236406 
L 26.086719 14.172447 
L 28.05429 14.000613 
L 30.087448 13.796961 
L 32.120605 13.628239 
L 34.022591 13.479505 
L 36.055748 13.433098 
L 38.023319 13.418562 
L 40.056477 13.368424 
L 42.024048 13.415007 
L 44.057205 13.450558 
L 46.090363 13.484337 
L 48.057934 13.401724 
L 50.091091 13.463922 
L 52.058663 13.277193 
L 54.09182 13.132308 
L 56.124977 13.022875 
L 57.961377 13.076846 
L 59.994535 12.907108 
L 61.962106 12.640575 
L 63.995263 12.387378 
L 65.962835 12.433556 
L 67.995992 12.481385 
L 70.029149 12.443844 
L 71.996721 12.127021 
L 74.029878 12.091618 
L 75.997449 12.173647 
L 78.030607 12.115808 
L 80.063764 11.991157 
L 81.900164 11.871531 
L 83.933321 11.661134 
L 85.900893 11.625968 
L 87.93405 11.660896 
L 89.901621 11.760585 
L 91.934779 11.707182 
L 93.967936 11.666981 
L 95.935507 11.697299 
L 97.968665 11.964237 
L 99.936236 12.118019 
L 101.969393 12.08281 
L 104.002551 12.076663 
L 105.838951 12.16478 
L 107.872108 12.215095 
L 109.839679 12.072455 
L 111.872837 11.902389 
L 113.840408 11.830966 
L 115.873565 11.872168 
L 117.906723 11.757131 
L 119.874294 11.586722 
L 121.907451 11.577662 
L 123.875023 11.675236 
L 125.90818 11.753014 
L 127.941337 12.104532 
L 129.843323 12.154316 
L 131.87648 12.241942 
L 133.844052 12.335882 
L 135.877209 12.471561 
L 137.84478 12.569923 
L 139.877938 12.657383 
L 141.911095 12.33237 
L 143.878666 12.193648 
L 145.911824 12.081663 
L 147.879395 11.985063 
L 149.912552 11.74401 
L 151.94571 11.614494 
L 153.78211 11.458498 
L 155.815267 11.331362 
L 157.782838 11.264815 
L 159.815996 11.296499 
L 161.783567 11.265542 
L 163.816724 11.263809 
L 165.849882 11.301684 
L 167.817453 11.333297 
L 169.85061 11.364911 
L 171.818182 11.396525 
" style="fill:none;stroke:#1f77b4;stroke-linecap:square;stroke-width:1.5;"/>
   </g>
  </g>
 </g>
 <defs>
  <clipPath id="p5bff51bd91">
   <rect height="25.92" width="180" x="0" y="1.44"/>
  </clipPath>
 </defs>
</svg>
