<?xml version="1.0" encoding="utf-8" standalone="no"?>
<!DOCTYPE svg PUBLIC "-//W3C//DTD SVG 1.1//EN"
  "http://www.w3.org/Graphics/SVG/1.1/DTD/svg11.dtd">
<!-- Created with matplotlib (http://matplotlib.org/) -->
<svg height="28pt" version="1.1" viewBox="0 0 180 28" width="180pt" xmlns="http://www.w3.org/2000/svg" xmlns:xlink="http://www.w3.org/1999/xlink">
 <defs>
  <style type="text/css">
*{stroke-linecap:butt;stroke-linejoin:round;}
  </style>
 </defs>
 <g id="figure_1">
  <g id="patch_1">
   <path d="M 0 28.8 
L 180 28.8 
L 180 0 
L 0 0 
z
" style="fill:none;"/>
  </g>
  <g id="axes_1">
   <g id="patch_2">
    <path d="M 0 27.36 
L 180 27.36 
L 180 1.44 
L 0 1.44 
z
" style="fill:none;"/>
   </g>
   <g id="PolyCollection_1">
    <path clip-path="url(#pcb14a5cd74)" d="M 8.181818 27.36 
L 8.181818 14.198861 
L 9.954282 14.15489 
L 11.916652 14.11092 
L 13.81572 14.066949 
L 15.77809 14.011414 
L 17.677158 14.100281 
L 19.639529 14.266935 
L 21.601899 14.27895 
L 23.500967 14.368061 
L 25.463337 14.304534 
L 27.362405 14.13497 
L 29.324776 13.933478 
L 31.287146 13.766748 
L 33.122912 13.619699 
L 35.085282 13.573937 
L 36.98435 13.559548 
L 38.946721 13.510134 
L 40.845789 13.5562 
L 42.808159 13.591348 
L 44.770529 13.624785 
L 46.669597 13.54286 
L 48.631968 13.60436 
L 50.531036 13.419424 
L 52.493406 13.275942 
L 54.455776 13.167273 
L 56.22824 13.220681 
L 58.19061 13.052573 
L 60.089678 12.788828 
L 62.052049 12.538146 
L 63.951117 12.583874 
L 65.913487 12.631282 
L 67.875857 12.594426 
L 69.774925 12.28082 
L 71.737296 12.245669 
L 73.636364 12.326951 
L 75.598734 12.269685 
L 77.561104 12.146227 
L 79.333568 12.027769 
L 81.295938 11.819481 
L 83.195006 11.784701 
L 85.157376 11.819412 
L 87.056445 11.918017 
L 89.018815 11.865267 
L 90.981185 11.825586 
L 92.880253 11.855522 
L 94.842624 12.119699 
L 96.741692 12.271858 
L 98.704062 12.237021 
L 100.666432 12.230874 
L 102.438896 12.318029 
L 104.401266 12.367728 
L 106.300334 12.226523 
L 108.262704 12.058342 
L 110.161772 11.987556 
L 112.124143 12.028299 
L 114.086513 11.914506 
L 115.985581 11.745839 
L 117.947951 11.736621 
L 119.84702 11.832781 
L 121.80939 11.909367 
L 123.77176 12.257124 
L 125.607526 12.306023 
L 127.569896 12.392248 
L 129.468964 12.484865 
L 131.431335 12.618625 
L 133.330403 12.716063 
L 135.292773 12.802279 
L 137.255143 12.480247 
L 139.154211 12.342523 
L 141.116582 12.231507 
L 143.01565 12.135039 
L 144.97802 11.895915 
L 146.94039 11.766426 
L 148.712854 11.610824 
L 150.675224 11.449394 
L 152.574292 11.339465 
L 154.536663 11.365222 
L 156.435731 11.329307 
L 158.398101 11.301383 
L 160.360471 11.280828 
L 162.259539 11.209097 
L 164.22191 11.291536 
L 166.120978 11.432524 
L 168.083348 11.494394 
L 170.045718 11.556263 
L 171.818182 11.618133 
L 171.818182 27.36 
L 171.818182 27.36 
L 170.045718 27.36 
L 168.083348 27.36 
L 166.120978 27.36 
L 164.22191 27.36 
L 162.259539 27.36 
L 160.360471 27.36 
L 158.398101 27.36 
L 156.435731 27.36 
L 154.536663 27.36 
L 152.574292 27.36 
L 150.675224 27.36 
L 148.712854 27.36 
L 146.94039 27.36 
L 144.97802 27.36 
L 143.01565 27.36 
L 141.116582 27.36 
L 139.154211 27.36 
L 137.255143 27.36 
L 135.292773 27.36 
L 133.330403 27.36 
L 131.431335 27.36 
L 129.468964 27.36 
L 127.569896 27.36 
L 125.607526 27.36 
L 123.77176 27.36 
L 121.80939 27.36 
L 119.84702 27.36 
L 117.947951 27.36 
L 115.985581 27.36 
L 114.086513 27.36 
L 112.124143 27.36 
L 110.161772 27.36 
L 108.262704 27.36 
L 106.300334 27.36 
L 104.401266 27.36 
L 102.438896 27.36 
L 100.666432 27.36 
L 98.704062 27.36 
L 96.741692 27.36 
L 94.842624 27.36 
L 92.880253 27.36 
L 90.981185 27.36 
L 89.018815 27.36 
L 87.056445 27.36 
L 85.157376 27.36 
L 83.195006 27.36 
L 81.295938 27.36 
L 79.333568 27.36 
L 77.561104 27.36 
L 75.598734 27.36 
L 73.636364 27.36 
L 71.737296 27.36 
L 69.774925 27.36 
L 67.875857 27.36 
L 65.913487 27.36 
L 63.951117 27.36 
L 62.052049 27.36 
L 60.089678 27.36 
L 58.19061 27.36 
L 56.22824 27.36 
L 54.455776 27.36 
L 52.493406 27.36 
L 50.531036 27.36 
L 48.631968 27.36 
L 46.669597 27.36 
L 44.770529 27.36 
L 42.808159 27.36 
L 40.845789 27.36 
L 38.946721 27.36 
L 36.98435 27.36 
L 35.085282 27.36 
L 33.122912 27.36 
L 31.287146 27.36 
L 29.324776 27.36 
L 27.362405 27.36 
L 25.463337 27.36 
L 23.500967 27.36 
L 21.601899 27.36 
L 19.639529 27.36 
L 17.677158 27.36 
L 15.77809 27.36 
L 13.81572 27.36 
L 11.916652 27.36 
L 9.954282 27.36 
L 8.181818 27.36 
z
" style="fill:#1f77b4;fill-opacity:0.1;"/>
   </g>
   <g id="matplotlib.axis_1"/>
   <g id="matplotlib.axis_2"/>
   <g id="line2d_1">
    <path clip-path="url(#pcb14a5cd74)" d="M 8.181818 14.198861 
L 9.954282 14.15489 
L 11.916652 14.11092 
L 13.81572 14.066949 
L 15.77809 14.011414 
L 17.677158 14.100281 
L 19.639529 14.266935 
L 21.601899 14.27895 
L 23.500967 14.368061 
L 25.463337 14.304534 
L 27.362405 14.13497 
L 29.324776 13.933478 
L 31.287146 13.766748 
L 33.122912 13.619699 
L 35.085282 13.573937 
L 36.98435 13.559548 
L 38.946721 13.510134 
L 40.845789 13.5562 
L 42.808159 13.591348 
L 44.770529 13.624785 
L 46.669597 13.54286 
L 48.631968 13.60436 
L 50.531036 13.419424 
L 52.493406 13.275942 
L 54.455776 13.167273 
L 56.22824 13.220681 
L 58.19061 13.052573 
L 60.089678 12.788828 
L 62.052049 12.538146 
L 63.951117 12.583874 
L 65.913487 12.631282 
L 67.875857 12.594426 
L 69.774925 12.28082 
L 71.737296 12.245669 
L 73.636364 12.326951 
L 75.598734 12.269685 
L 77.561104 12.146227 
L 79.333568 12.027769 
L 81.295938 11.819481 
L 83.195006 11.784701 
L 85.157376 11.819412 
L 87.056445 11.918017 
L 89.018815 11.865267 
L 90.981185 11.825586 
L 92.880253 11.855522 
L 94.842624 12.119699 
L 96.741692 12.271858 
L 98.704062 12.237021 
L 100.666432 12.230874 
L 102.438896 12.318029 
L 104.401266 12.367728 
L 106.300334 12.226523 
L 108.262704 12.058342 
L 110.161772 11.987556 
L 112.124143 12.028299 
L 114.086513 11.914506 
L 115.985581 11.745839 
L 117.947951 11.736621 
L 119.84702 11.832781 
L 121.80939 11.909367 
L 123.77176 12.257124 
L 125.607526 12.306023 
L 127.569896 12.392248 
L 129.468964 12.484865 
L 131.431335 12.618625 
L 133.330403 12.716063 
L 135.292773 12.802279 
L 137.255143 12.480247 
L 139.154211 12.342523 
L 141.116582 12.231507 
L 143.01565 12.135039 
L 144.97802 11.895915 
L 146.94039 11.766426 
L 148.712854 11.610824 
L 150.675224 11.449394 
L 152.574292 11.339465 
L 154.536663 11.365222 
L 156.435731 11.329307 
L 158.398101 11.301383 
L 160.360471 11.280828 
L 162.259539 11.209097 
L 164.22191 11.291536 
L 166.120978 11.432524 
L 168.083348 11.494394 
L 170.045718 11.556263 
L 171.818182 11.618133 
" style="fill:none;stroke:#1f77b4;stroke-linecap:square;stroke-width:1.5;"/>
   </g>
  </g>
 </g>
 <defs>
  <clipPath id="pcb14a5cd74">
   <rect height="25.92" width="180" x="0" y="1.44"/>
  </clipPath>
 </defs>
</svg>
