<?xml version="1.0" encoding="utf-8" standalone="no"?>
<!DOCTYPE svg PUBLIC "-//W3C//DTD SVG 1.1//EN"
  "http://www.w3.org/Graphics/SVG/1.1/DTD/svg11.dtd">
<!-- Created with matplotlib (http://matplotlib.org/) -->
<svg height="28pt" version="1.1" viewBox="0 0 180 28" width="180pt" xmlns="http://www.w3.org/2000/svg" xmlns:xlink="http://www.w3.org/1999/xlink">
 <defs>
  <style type="text/css">
*{stroke-linecap:butt;stroke-linejoin:round;}
  </style>
 </defs>
 <g id="figure_1">
  <g id="patch_1">
   <path d="M 0 28.8 
L 180 28.8 
L 180 0 
L 0 0 
z
" style="fill:none;"/>
  </g>
  <g id="axes_1">
   <g id="patch_2">
    <path d="M 0 27.36 
L 180 27.36 
L 180 1.44 
L 0 1.44 
z
" style="fill:none;"/>
   </g>
   <g id="PolyCollection_1">
    <path clip-path="url(#p1a903c357a)" d="M 8.181818 27.36 
L 8.181818 26.285737 
L 10.018218 26.293428 
L 12.051375 26.30112 
L 14.018947 26.308811 
L 16.052104 26.317442 
L 18.019676 26.316024 
L 20.052833 26.24081 
L 22.08599 26.2235 
L 24.053562 26.206087 
L 26.086719 26.143385 
L 28.05429 26.060365 
L 30.087448 25.983811 
L 32.120605 25.92071 
L 34.022591 25.904081 
L 36.055748 25.86333 
L 38.023319 25.820427 
L 40.056477 25.753475 
L 42.024048 25.700147 
L 44.057205 25.613007 
L 46.090363 25.55213 
L 48.057934 25.483218 
L 50.091091 25.414031 
L 52.058663 25.30351 
L 54.09182 25.209007 
L 56.124977 25.148392 
L 57.961377 25.129947 
L 59.994535 25.092343 
L 61.962106 25.03038 
L 63.995263 24.972105 
L 65.962835 24.915646 
L 67.995992 24.899399 
L 70.029149 24.847249 
L 71.996721 24.745364 
L 74.029878 24.602109 
L 75.997449 24.50039 
L 78.030607 23.711456 
L 80.063764 22.643601 
L 81.900164 21.593968 
L 83.933321 20.505804 
L 85.900893 19.521214 
L 87.93405 18.642454 
L 89.901621 17.962818 
L 91.934779 17.945162 
L 93.967936 18.139255 
L 95.935507 18.085359 
L 97.968665 18.202664 
L 99.936236 18.375559 
L 101.969393 18.496251 
L 104.002551 18.404506 
L 105.838951 18.337123 
L 107.872108 18.363609 
L 109.839679 18.678876 
L 111.872837 18.946197 
L 113.840408 19.222052 
L 115.873565 19.536478 
L 117.906723 19.864975 
L 119.874294 20.140995 
L 121.907451 20.452838 
L 123.875023 20.836713 
L 125.90818 21.138112 
L 127.941337 21.429222 
L 129.843323 21.55765 
L 131.87648 21.671717 
L 133.844052 21.901028 
L 135.877209 22.122712 
L 137.84478 22.193408 
L 139.877938 22.306928 
L 141.911095 22.275938 
L 143.878666 22.339788 
L 145.911824 22.373374 
L 147.879395 22.374799 
L 149.912552 22.374688 
L 151.94571 22.402363 
L 153.78211 22.374216 
L 155.815267 22.37725 
L 157.782838 22.421177 
L 159.815996 22.494164 
L 161.783567 22.517738 
L 163.816724 22.551778 
L 165.849882 22.663316 
L 167.817453 22.760699 
L 169.85061 22.858083 
L 171.818182 22.955466 
L 171.818182 27.36 
L 171.818182 27.36 
L 169.85061 27.36 
L 167.817453 27.36 
L 165.849882 27.36 
L 163.816724 27.36 
L 161.783567 27.36 
L 159.815996 27.36 
L 157.782838 27.36 
L 155.815267 27.36 
L 153.78211 27.36 
L 151.94571 27.36 
L 149.912552 27.36 
L 147.879395 27.36 
L 145.911824 27.36 
L 143.878666 27.36 
L 141.911095 27.36 
L 139.877938 27.36 
L 137.84478 27.36 
L 135.877209 27.36 
L 133.844052 27.36 
L 131.87648 27.36 
L 129.843323 27.36 
L 127.941337 27.36 
L 125.90818 27.36 
L 123.875023 27.36 
L 121.907451 27.36 
L 119.874294 27.36 
L 117.906723 27.36 
L 115.873565 27.36 
L 113.840408 27.36 
L 111.872837 27.36 
L 109.839679 27.36 
L 107.872108 27.36 
L 105.838951 27.36 
L 104.002551 27.36 
L 101.969393 27.36 
L 99.936236 27.36 
L 97.968665 27.36 
L 95.935507 27.36 
L 93.967936 27.36 
L 91.934779 27.36 
L 89.901621 27.36 
L 87.93405 27.36 
L 85.900893 27.36 
L 83.933321 27.36 
L 81.900164 27.36 
L 80.063764 27.36 
L 78.030607 27.36 
L 75.997449 27.36 
L 74.029878 27.36 
L 71.996721 27.36 
L 70.029149 27.36 
L 67.995992 27.36 
L 65.962835 27.36 
L 63.995263 27.36 
L 61.962106 27.36 
L 59.994535 27.36 
L 57.961377 27.36 
L 56.124977 27.36 
L 54.09182 27.36 
L 52.058663 27.36 
L 50.091091 27.36 
L 48.057934 27.36 
L 46.090363 27.36 
L 44.057205 27.36 
L 42.024048 27.36 
L 40.056477 27.36 
L 38.023319 27.36 
L 36.055748 27.36 
L 34.022591 27.36 
L 32.120605 27.36 
L 30.087448 27.36 
L 28.05429 27.36 
L 26.086719 27.36 
L 24.053562 27.36 
L 22.08599 27.36 
L 20.052833 27.36 
L 18.019676 27.36 
L 16.052104 27.36 
L 14.018947 27.36 
L 12.051375 27.36 
L 10.018218 27.36 
L 8.181818 27.36 
z
" style="fill:#1f77b4;fill-opacity:0.1;"/>
   </g>
   <g id="matplotlib.axis_1"/>
   <g id="matplotlib.axis_2"/>
   <g id="line2d_1">
    <path clip-path="url(#p1a903c357a)" d="M 8.181818 26.285737 
L 10.018218 26.293428 
L 12.051375 26.30112 
L 14.018947 26.308811 
L 16.052104 26.317442 
L 18.019676 26.316024 
L 20.052833 26.24081 
L 22.08599 26.2235 
L 24.053562 26.206087 
L 26.086719 26.143385 
L 28.05429 26.060365 
L 30.087448 25.983811 
L 32.120605 25.92071 
L 34.022591 25.904081 
L 36.055748 25.86333 
L 38.023319 25.820427 
L 40.056477 25.753475 
L 42.024048 25.700147 
L 44.057205 25.613007 
L 46.090363 25.55213 
L 48.057934 25.483218 
L 50.091091 25.414031 
L 52.058663 25.30351 
L 54.09182 25.209007 
L 56.124977 25.148392 
L 57.961377 25.129947 
L 59.994535 25.092343 
L 61.962106 25.03038 
L 63.995263 24.972105 
L 65.962835 24.915646 
L 67.995992 24.899399 
L 70.029149 24.847249 
L 71.996721 24.745364 
L 74.029878 24.602109 
L 75.997449 24.50039 
L 78.030607 23.711456 
L 80.063764 22.643601 
L 81.900164 21.593968 
L 83.933321 20.505804 
L 85.900893 19.521214 
L 87.93405 18.642454 
L 89.901621 17.962818 
L 91.934779 17.945162 
L 93.967936 18.139255 
L 95.935507 18.085359 
L 97.968665 18.202664 
L 99.936236 18.375559 
L 101.969393 18.496251 
L 104.002551 18.404506 
L 105.838951 18.337123 
L 107.872108 18.363609 
L 109.839679 18.678876 
L 111.872837 18.946197 
L 113.840408 19.222052 
L 115.873565 19.536478 
L 117.906723 19.864975 
L 119.874294 20.140995 
L 121.907451 20.452838 
L 123.875023 20.836713 
L 125.90818 21.138112 
L 127.941337 21.429222 
L 129.843323 21.55765 
L 131.87648 21.671717 
L 133.844052 21.901028 
L 135.877209 22.122712 
L 137.84478 22.193408 
L 139.877938 22.306928 
L 141.911095 22.275938 
L 143.878666 22.339788 
L 145.911824 22.373374 
L 147.879395 22.374799 
L 149.912552 22.374688 
L 151.94571 22.402363 
L 153.78211 22.374216 
L 155.815267 22.37725 
L 157.782838 22.421177 
L 159.815996 22.494164 
L 161.783567 22.517738 
L 163.816724 22.551778 
L 165.849882 22.663316 
L 167.817453 22.760699 
L 169.85061 22.858083 
L 171.818182 22.955466 
" style="fill:none;stroke:#1f77b4;stroke-linecap:square;stroke-width:1.5;"/>
   </g>
  </g>
 </g>
 <defs>
  <clipPath id="p1a903c357a">
   <rect height="25.92" width="180" x="0" y="1.44"/>
  </clipPath>
 </defs>
</svg>
