<?xml version="1.0" encoding="utf-8" standalone="no"?>
<!DOCTYPE svg PUBLIC "-//W3C//DTD SVG 1.1//EN"
  "http://www.w3.org/Graphics/SVG/1.1/DTD/svg11.dtd">
<!-- Created with matplotlib (http://matplotlib.org/) -->
<svg height="28pt" version="1.1" viewBox="0 0 180 28" width="180pt" xmlns="http://www.w3.org/2000/svg" xmlns:xlink="http://www.w3.org/1999/xlink">
 <defs>
  <style type="text/css">
*{stroke-linecap:butt;stroke-linejoin:round;}
  </style>
 </defs>
 <g id="figure_1">
  <g id="patch_1">
   <path d="M 0 28.8 
L 180 28.8 
L 180 0 
L 0 0 
z
" style="fill:none;"/>
  </g>
  <g id="axes_1">
   <g id="patch_2">
    <path d="M 0 27.36 
L 180 27.36 
L 180 1.44 
L 0 1.44 
z
" style="fill:none;"/>
   </g>
   <g id="PolyCollection_1">
    <path clip-path="url(#pb61b8319a0)" d="M 8.181818 27.36 
L 8.181818 26.285781 
L 9.954282 26.293473 
L 11.916652 26.301164 
L 13.81572 26.308855 
L 15.77809 26.317486 
L 17.677158 26.316067 
L 19.639529 26.240856 
L 21.601899 26.223547 
L 23.500967 26.206135 
L 25.463337 26.143436 
L 27.362405 26.060419 
L 29.324776 25.983869 
L 31.287146 25.92077 
L 33.122912 25.904142 
L 35.085282 25.863393 
L 36.98435 25.820491 
L 38.946721 25.753542 
L 40.845789 25.700216 
L 42.808159 25.61308 
L 44.770529 25.552205 
L 46.669597 25.483296 
L 48.631968 25.41394 
L 50.531036 25.303423 
L 52.493406 25.208925 
L 54.455776 25.147985 
L 56.22824 25.129541 
L 58.19061 25.091939 
L 60.089678 25.029977 
L 62.052049 24.971877 
L 63.951117 24.915286 
L 65.913487 24.899039 
L 67.875857 24.847218 
L 69.774925 24.745337 
L 71.737296 24.602089 
L 73.636364 24.500374 
L 75.598734 23.711472 
L 77.561104 22.64369 
L 79.333568 21.594101 
L 81.295938 20.505874 
L 83.195006 19.521218 
L 85.157376 18.642295 
L 87.056445 17.962686 
L 89.018815 17.945031 
L 90.981185 18.139224 
L 92.880253 18.085244 
L 94.842624 18.202569 
L 96.741692 18.375492 
L 98.704062 18.496452 
L 100.666432 18.404784 
L 102.438896 18.337549 
L 104.401266 18.36389 
L 106.300334 18.679229 
L 108.262704 18.946622 
L 110.161772 19.222476 
L 112.124143 19.536877 
L 114.086513 19.865413 
L 115.985581 20.141276 
L 117.947951 20.453137 
L 119.84702 20.836588 
L 121.80939 21.13772 
L 123.77176 21.428705 
L 125.607526 21.556753 
L 127.569896 21.670375 
L 129.468964 21.899577 
L 131.431335 22.120849 
L 133.330403 22.191906 
L 135.292773 22.305374 
L 137.255143 22.274246 
L 139.154211 22.33797 
L 141.116582 22.371703 
L 143.01565 22.372599 
L 144.97802 22.372303 
L 146.94039 22.399375 
L 148.712854 22.370663 
L 150.675224 22.356764 
L 152.574292 22.377583 
L 154.536663 22.448129 
L 156.435731 22.468946 
L 158.398101 22.493394 
L 160.360471 22.580101 
L 162.259539 22.70074 
L 164.22191 22.774408 
L 166.120978 22.867161 
L 168.083348 22.961991 
L 170.045718 23.056821 
L 171.818182 23.151651 
L 171.818182 27.36 
L 171.818182 27.36 
L 170.045718 27.36 
L 168.083348 27.36 
L 166.120978 27.36 
L 164.22191 27.36 
L 162.259539 27.36 
L 160.360471 27.36 
L 158.398101 27.36 
L 156.435731 27.36 
L 154.536663 27.36 
L 152.574292 27.36 
L 150.675224 27.36 
L 148.712854 27.36 
L 146.94039 27.36 
L 144.97802 27.36 
L 143.01565 27.36 
L 141.116582 27.36 
L 139.154211 27.36 
L 137.255143 27.36 
L 135.292773 27.36 
L 133.330403 27.36 
L 131.431335 27.36 
L 129.468964 27.36 
L 127.569896 27.36 
L 125.607526 27.36 
L 123.77176 27.36 
L 121.80939 27.36 
L 119.84702 27.36 
L 117.947951 27.36 
L 115.985581 27.36 
L 114.086513 27.36 
L 112.124143 27.36 
L 110.161772 27.36 
L 108.262704 27.36 
L 106.300334 27.36 
L 104.401266 27.36 
L 102.438896 27.36 
L 100.666432 27.36 
L 98.704062 27.36 
L 96.741692 27.36 
L 94.842624 27.36 
L 92.880253 27.36 
L 90.981185 27.36 
L 89.018815 27.36 
L 87.056445 27.36 
L 85.157376 27.36 
L 83.195006 27.36 
L 81.295938 27.36 
L 79.333568 27.36 
L 77.561104 27.36 
L 75.598734 27.36 
L 73.636364 27.36 
L 71.737296 27.36 
L 69.774925 27.36 
L 67.875857 27.36 
L 65.913487 27.36 
L 63.951117 27.36 
L 62.052049 27.36 
L 60.089678 27.36 
L 58.19061 27.36 
L 56.22824 27.36 
L 54.455776 27.36 
L 52.493406 27.36 
L 50.531036 27.36 
L 48.631968 27.36 
L 46.669597 27.36 
L 44.770529 27.36 
L 42.808159 27.36 
L 40.845789 27.36 
L 38.946721 27.36 
L 36.98435 27.36 
L 35.085282 27.36 
L 33.122912 27.36 
L 31.287146 27.36 
L 29.324776 27.36 
L 27.362405 27.36 
L 25.463337 27.36 
L 23.500967 27.36 
L 21.601899 27.36 
L 19.639529 27.36 
L 17.677158 27.36 
L 15.77809 27.36 
L 13.81572 27.36 
L 11.916652 27.36 
L 9.954282 27.36 
L 8.181818 27.36 
z
" style="fill:#1f77b4;fill-opacity:0.1;"/>
   </g>
   <g id="matplotlib.axis_1"/>
   <g id="matplotlib.axis_2"/>
   <g id="line2d_1">
    <path clip-path="url(#pb61b8319a0)" d="M 8.181818 26.285781 
L 9.954282 26.293473 
L 11.916652 26.301164 
L 13.81572 26.308855 
L 15.77809 26.317486 
L 17.677158 26.316067 
L 19.639529 26.240856 
L 21.601899 26.223547 
L 23.500967 26.206135 
L 25.463337 26.143436 
L 27.362405 26.060419 
L 29.324776 25.983869 
L 31.287146 25.92077 
L 33.122912 25.904142 
L 35.085282 25.863393 
L 36.98435 25.820491 
L 38.946721 25.753542 
L 40.845789 25.700216 
L 42.808159 25.61308 
L 44.770529 25.552205 
L 46.669597 25.483296 
L 48.631968 25.41394 
L 50.531036 25.303423 
L 52.493406 25.208925 
L 54.455776 25.147985 
L 56.22824 25.129541 
L 58.19061 25.091939 
L 60.089678 25.029977 
L 62.052049 24.971877 
L 63.951117 24.915286 
L 65.913487 24.899039 
L 67.875857 24.847218 
L 69.774925 24.745337 
L 71.737296 24.602089 
L 73.636364 24.500374 
L 75.598734 23.711472 
L 77.561104 22.64369 
L 79.333568 21.594101 
L 81.295938 20.505874 
L 83.195006 19.521218 
L 85.157376 18.642295 
L 87.056445 17.962686 
L 89.018815 17.945031 
L 90.981185 18.139224 
L 92.880253 18.085244 
L 94.842624 18.202569 
L 96.741692 18.375492 
L 98.704062 18.496452 
L 100.666432 18.404784 
L 102.438896 18.337549 
L 104.401266 18.36389 
L 106.300334 18.679229 
L 108.262704 18.946622 
L 110.161772 19.222476 
L 112.124143 19.536877 
L 114.086513 19.865413 
L 115.985581 20.141276 
L 117.947951 20.453137 
L 119.84702 20.836588 
L 121.80939 21.13772 
L 123.77176 21.428705 
L 125.607526 21.556753 
L 127.569896 21.670375 
L 129.468964 21.899577 
L 131.431335 22.120849 
L 133.330403 22.191906 
L 135.292773 22.305374 
L 137.255143 22.274246 
L 139.154211 22.33797 
L 141.116582 22.371703 
L 143.01565 22.372599 
L 144.97802 22.372303 
L 146.94039 22.399375 
L 148.712854 22.370663 
L 150.675224 22.356764 
L 152.574292 22.377583 
L 154.536663 22.448129 
L 156.435731 22.468946 
L 158.398101 22.493394 
L 160.360471 22.580101 
L 162.259539 22.70074 
L 164.22191 22.774408 
L 166.120978 22.867161 
L 168.083348 22.961991 
L 170.045718 23.056821 
L 171.818182 23.151651 
" style="fill:none;stroke:#1f77b4;stroke-linecap:square;stroke-width:1.5;"/>
   </g>
  </g>
 </g>
 <defs>
  <clipPath id="pb61b8319a0">
   <rect height="25.92" width="180" x="0" y="1.44"/>
  </clipPath>
 </defs>
</svg>
