<?xml version="1.0" encoding="utf-8" standalone="no"?>
<!DOCTYPE svg PUBLIC "-//W3C//DTD SVG 1.1//EN"
  "http://www.w3.org/Graphics/SVG/1.1/DTD/svg11.dtd">
<!-- Created with matplotlib (http://matplotlib.org/) -->
<svg height="28pt" version="1.1" viewBox="0 0 180 28" width="180pt" xmlns="http://www.w3.org/2000/svg" xmlns:xlink="http://www.w3.org/1999/xlink">
 <defs>
  <style type="text/css">
*{stroke-linecap:butt;stroke-linejoin:round;}
  </style>
 </defs>
 <g id="figure_1">
  <g id="patch_1">
   <path d="M 0 28.8 
L 180 28.8 
L 180 0 
L 0 0 
z
" style="fill:none;"/>
  </g>
  <g id="axes_1">
   <g id="patch_2">
    <path d="M 0 27.36 
L 180 27.36 
L 180 1.44 
L 0 1.44 
z
" style="fill:none;"/>
   </g>
   <g id="PolyCollection_1">
    <path clip-path="url(#pf0adad5a66)" d="M 8.181818 27.36 
L 8.181818 10.219147 
L 9.954282 10.48595 
L 11.916652 10.752752 
L 13.81572 11.019554 
L 15.77809 11.30529 
L 17.677158 11.640835 
L 19.639529 11.961833 
L 21.601899 12.292688 
L 23.500967 12.666999 
L 25.463337 12.892951 
L 27.362405 12.794547 
L 29.324776 12.799153 
L 31.287146 12.812749 
L 33.122912 12.792235 
L 35.085282 12.927939 
L 36.98435 13.01767 
L 38.946721 13.047876 
L 40.845789 13.350703 
L 42.808159 13.563053 
L 44.770529 13.804902 
L 46.669597 14.04078 
L 48.631968 14.22843 
L 50.531036 14.360673 
L 52.493406 14.515253 
L 54.455776 14.704742 
L 56.22824 14.983204 
L 58.19061 15.081675 
L 60.089678 15.132308 
L 62.052049 15.18986 
L 63.951117 15.409361 
L 65.913487 15.635025 
L 67.875857 15.846797 
L 69.774925 15.905536 
L 71.737296 16.150025 
L 73.636364 16.473793 
L 75.598734 16.677474 
L 77.561104 16.866613 
L 79.333568 17.061933 
L 81.295938 17.144019 
L 83.195006 17.315931 
L 85.157376 17.535004 
L 87.056445 17.801882 
L 89.018815 18.103861 
L 90.981185 18.3619 
L 92.880253 18.633428 
L 94.842624 19.076533 
L 96.741692 19.444659 
L 98.704062 19.747148 
L 100.666432 19.98004 
L 102.438896 20.114114 
L 104.401266 20.284908 
L 106.300334 20.424771 
L 108.262704 20.548924 
L 110.161772 20.647898 
L 112.124143 20.757113 
L 114.086513 20.860752 
L 115.985581 21.01945 
L 117.947951 21.175165 
L 119.84702 21.388978 
L 121.80939 21.57977 
L 123.77176 21.876964 
L 125.607526 22.059863 
L 127.569896 22.218825 
L 129.468964 22.378504 
L 131.431335 22.567409 
L 133.330403 22.707542 
L 135.292773 22.850212 
L 137.255143 22.872078 
L 139.154211 22.9561 
L 141.116582 23.065062 
L 143.01565 23.205233 
L 144.97802 23.255057 
L 146.94039 23.335477 
L 148.712854 23.397614 
L 150.675224 23.47023 
L 152.574292 23.562796 
L 154.536663 23.673172 
L 156.435731 23.734252 
L 158.398101 23.874472 
L 160.360471 24.001405 
L 162.259539 24.126971 
L 164.22191 24.235621 
L 166.120978 24.373929 
L 168.083348 24.492129 
L 170.045718 24.610329 
L 171.818182 24.728528 
L 171.818182 27.36 
L 171.818182 27.36 
L 170.045718 27.36 
L 168.083348 27.36 
L 166.120978 27.36 
L 164.22191 27.36 
L 162.259539 27.36 
L 160.360471 27.36 
L 158.398101 27.36 
L 156.435731 27.36 
L 154.536663 27.36 
L 152.574292 27.36 
L 150.675224 27.36 
L 148.712854 27.36 
L 146.94039 27.36 
L 144.97802 27.36 
L 143.01565 27.36 
L 141.116582 27.36 
L 139.154211 27.36 
L 137.255143 27.36 
L 135.292773 27.36 
L 133.330403 27.36 
L 131.431335 27.36 
L 129.468964 27.36 
L 127.569896 27.36 
L 125.607526 27.36 
L 123.77176 27.36 
L 121.80939 27.36 
L 119.84702 27.36 
L 117.947951 27.36 
L 115.985581 27.36 
L 114.086513 27.36 
L 112.124143 27.36 
L 110.161772 27.36 
L 108.262704 27.36 
L 106.300334 27.36 
L 104.401266 27.36 
L 102.438896 27.36 
L 100.666432 27.36 
L 98.704062 27.36 
L 96.741692 27.36 
L 94.842624 27.36 
L 92.880253 27.36 
L 90.981185 27.36 
L 89.018815 27.36 
L 87.056445 27.36 
L 85.157376 27.36 
L 83.195006 27.36 
L 81.295938 27.36 
L 79.333568 27.36 
L 77.561104 27.36 
L 75.598734 27.36 
L 73.636364 27.36 
L 71.737296 27.36 
L 69.774925 27.36 
L 67.875857 27.36 
L 65.913487 27.36 
L 63.951117 27.36 
L 62.052049 27.36 
L 60.089678 27.36 
L 58.19061 27.36 
L 56.22824 27.36 
L 54.455776 27.36 
L 52.493406 27.36 
L 50.531036 27.36 
L 48.631968 27.36 
L 46.669597 27.36 
L 44.770529 27.36 
L 42.808159 27.36 
L 40.845789 27.36 
L 38.946721 27.36 
L 36.98435 27.36 
L 35.085282 27.36 
L 33.122912 27.36 
L 31.287146 27.36 
L 29.324776 27.36 
L 27.362405 27.36 
L 25.463337 27.36 
L 23.500967 27.36 
L 21.601899 27.36 
L 19.639529 27.36 
L 17.677158 27.36 
L 15.77809 27.36 
L 13.81572 27.36 
L 11.916652 27.36 
L 9.954282 27.36 
L 8.181818 27.36 
z
" style="fill:#1f77b4;fill-opacity:0.1;"/>
   </g>
   <g id="matplotlib.axis_1"/>
   <g id="matplotlib.axis_2"/>
   <g id="line2d_1">
    <path clip-path="url(#pf0adad5a66)" d="M 8.181818 10.219147 
L 9.954282 10.48595 
L 11.916652 10.752752 
L 13.81572 11.019554 
L 15.77809 11.30529 
L 17.677158 11.640835 
L 19.639529 11.961833 
L 21.601899 12.292688 
L 23.500967 12.666999 
L 25.463337 12.892951 
L 27.362405 12.794547 
L 29.324776 12.799153 
L 31.287146 12.812749 
L 33.122912 12.792235 
L 35.085282 12.927939 
L 36.98435 13.01767 
L 38.946721 13.047876 
L 40.845789 13.350703 
L 42.808159 13.563053 
L 44.770529 13.804902 
L 46.669597 14.04078 
L 48.631968 14.22843 
L 50.531036 14.360673 
L 52.493406 14.515253 
L 54.455776 14.704742 
L 56.22824 14.983204 
L 58.19061 15.081675 
L 60.089678 15.132308 
L 62.052049 15.18986 
L 63.951117 15.409361 
L 65.913487 15.635025 
L 67.875857 15.846797 
L 69.774925 15.905536 
L 71.737296 16.150025 
L 73.636364 16.473793 
L 75.598734 16.677474 
L 77.561104 16.866613 
L 79.333568 17.061933 
L 81.295938 17.144019 
L 83.195006 17.315931 
L 85.157376 17.535004 
L 87.056445 17.801882 
L 89.018815 18.103861 
L 90.981185 18.3619 
L 92.880253 18.633428 
L 94.842624 19.076533 
L 96.741692 19.444659 
L 98.704062 19.747148 
L 100.666432 19.98004 
L 102.438896 20.114114 
L 104.401266 20.284908 
L 106.300334 20.424771 
L 108.262704 20.548924 
L 110.161772 20.647898 
L 112.124143 20.757113 
L 114.086513 20.860752 
L 115.985581 21.01945 
L 117.947951 21.175165 
L 119.84702 21.388978 
L 121.80939 21.57977 
L 123.77176 21.876964 
L 125.607526 22.059863 
L 127.569896 22.218825 
L 129.468964 22.378504 
L 131.431335 22.567409 
L 133.330403 22.707542 
L 135.292773 22.850212 
L 137.255143 22.872078 
L 139.154211 22.9561 
L 141.116582 23.065062 
L 143.01565 23.205233 
L 144.97802 23.255057 
L 146.94039 23.335477 
L 148.712854 23.397614 
L 150.675224 23.47023 
L 152.574292 23.562796 
L 154.536663 23.673172 
L 156.435731 23.734252 
L 158.398101 23.874472 
L 160.360471 24.001405 
L 162.259539 24.126971 
L 164.22191 24.235621 
L 166.120978 24.373929 
L 168.083348 24.492129 
L 170.045718 24.610329 
L 171.818182 24.728528 
" style="fill:none;stroke:#1f77b4;stroke-linecap:square;stroke-width:1.5;"/>
   </g>
  </g>
 </g>
 <defs>
  <clipPath id="pf0adad5a66">
   <rect height="25.92" width="180" x="0" y="1.44"/>
  </clipPath>
 </defs>
</svg>
