<?xml version="1.0" encoding="utf-8" standalone="no"?>
<!DOCTYPE svg PUBLIC "-//W3C//DTD SVG 1.1//EN"
  "http://www.w3.org/Graphics/SVG/1.1/DTD/svg11.dtd">
<!-- Created with matplotlib (http://matplotlib.org/) -->
<svg height="28pt" version="1.1" viewBox="0 0 180 28" width="180pt" xmlns="http://www.w3.org/2000/svg" xmlns:xlink="http://www.w3.org/1999/xlink">
 <defs>
  <style type="text/css">
*{stroke-linecap:butt;stroke-linejoin:round;}
  </style>
 </defs>
 <g id="figure_1">
  <g id="patch_1">
   <path d="M 0 28.8 
L 180 28.8 
L 180 0 
L 0 0 
z
" style="fill:none;"/>
  </g>
  <g id="axes_1">
   <g id="patch_2">
    <path d="M 0 27.36 
L 180 27.36 
L 180 1.44 
L 0 1.44 
z
" style="fill:none;"/>
   </g>
   <g id="PolyCollection_1">
    <path clip-path="url(#p3095df58c5)" d="M 8.181818 27.36 
L 8.181818 10.21928 
L 10.018218 10.486091 
L 12.051375 10.752902 
L 14.018947 11.019713 
L 16.052104 11.305445 
L 18.019676 11.641076 
L 20.052833 11.962381 
L 22.08599 12.293213 
L 24.053562 12.667718 
L 26.086719 12.893701 
L 28.05429 12.795257 
L 30.087448 12.799701 
L 32.120605 12.813219 
L 34.022591 12.792406 
L 36.055748 12.928039 
L 38.023319 13.017511 
L 40.056477 13.047596 
L 42.024048 13.350415 
L 44.057205 13.56277 
L 46.090363 13.804625 
L 48.057934 14.040508 
L 50.091091 14.228163 
L 52.058663 14.360408 
L 54.09182 14.514992 
L 56.124977 14.704882 
L 57.961377 14.983375 
L 59.994535 15.081849 
L 61.962106 15.132483 
L 63.995263 15.190037 
L 65.962835 15.409542 
L 67.995992 15.635234 
L 70.029149 15.846578 
L 71.996721 15.905292 
L 74.029878 16.149808 
L 75.997449 16.473583 
L 78.030607 16.677305 
L 80.063764 16.866467 
L 81.900164 17.061769 
L 83.933321 17.143892 
L 85.900893 17.315808 
L 87.93405 17.534899 
L 89.901621 17.801828 
L 91.934779 18.103792 
L 93.967936 18.361834 
L 95.935507 18.633425 
L 97.968665 19.076586 
L 99.936236 19.444733 
L 101.969393 19.747172 
L 104.002551 19.980013 
L 105.838951 20.114051 
L 107.872108 20.284894 
L 109.839679 20.424703 
L 111.872837 20.548811 
L 113.840408 20.647848 
L 115.873565 20.757141 
L 117.906723 20.860815 
L 119.874294 21.01955 
L 121.907451 21.175312 
L 123.875023 21.389257 
L 125.90818 21.580053 
L 127.941337 21.877226 
L 129.843323 22.060183 
L 131.87648 22.219222 
L 133.844052 22.378953 
L 135.877209 22.567853 
L 137.84478 22.70795 
L 139.877938 22.850654 
L 141.911095 22.872559 
L 143.878666 22.956572 
L 145.911824 23.065503 
L 147.879395 23.205725 
L 149.912552 23.255599 
L 151.94571 23.336052 
L 153.78211 23.398217 
L 155.815267 23.479269 
L 157.782838 23.581422 
L 159.815996 23.692377 
L 161.783567 23.753881 
L 163.816724 23.896318 
L 165.849882 24.028449 
L 167.817453 24.160755 
L 169.85061 24.293062 
L 171.818182 24.425368 
L 171.818182 27.36 
L 171.818182 27.36 
L 169.85061 27.36 
L 167.817453 27.36 
L 165.849882 27.36 
L 163.816724 27.36 
L 161.783567 27.36 
L 159.815996 27.36 
L 157.782838 27.36 
L 155.815267 27.36 
L 153.78211 27.36 
L 151.94571 27.36 
L 149.912552 27.36 
L 147.879395 27.36 
L 145.911824 27.36 
L 143.878666 27.36 
L 141.911095 27.36 
L 139.877938 27.36 
L 137.84478 27.36 
L 135.877209 27.36 
L 133.844052 27.36 
L 131.87648 27.36 
L 129.843323 27.36 
L 127.941337 27.36 
L 125.90818 27.36 
L 123.875023 27.36 
L 121.907451 27.36 
L 119.874294 27.36 
L 117.906723 27.36 
L 115.873565 27.36 
L 113.840408 27.36 
L 111.872837 27.36 
L 109.839679 27.36 
L 107.872108 27.36 
L 105.838951 27.36 
L 104.002551 27.36 
L 101.969393 27.36 
L 99.936236 27.36 
L 97.968665 27.36 
L 95.935507 27.36 
L 93.967936 27.36 
L 91.934779 27.36 
L 89.901621 27.36 
L 87.93405 27.36 
L 85.900893 27.36 
L 83.933321 27.36 
L 81.900164 27.36 
L 80.063764 27.36 
L 78.030607 27.36 
L 75.997449 27.36 
L 74.029878 27.36 
L 71.996721 27.36 
L 70.029149 27.36 
L 67.995992 27.36 
L 65.962835 27.36 
L 63.995263 27.36 
L 61.962106 27.36 
L 59.994535 27.36 
L 57.961377 27.36 
L 56.124977 27.36 
L 54.09182 27.36 
L 52.058663 27.36 
L 50.091091 27.36 
L 48.057934 27.36 
L 46.090363 27.36 
L 44.057205 27.36 
L 42.024048 27.36 
L 40.056477 27.36 
L 38.023319 27.36 
L 36.055748 27.36 
L 34.022591 27.36 
L 32.120605 27.36 
L 30.087448 27.36 
L 28.05429 27.36 
L 26.086719 27.36 
L 24.053562 27.36 
L 22.08599 27.36 
L 20.052833 27.36 
L 18.019676 27.36 
L 16.052104 27.36 
L 14.018947 27.36 
L 12.051375 27.36 
L 10.018218 27.36 
L 8.181818 27.36 
z
" style="fill:#1f77b4;fill-opacity:0.1;"/>
   </g>
   <g id="matplotlib.axis_1"/>
   <g id="matplotlib.axis_2"/>
   <g id="line2d_1">
    <path clip-path="url(#p3095df58c5)" d="M 8.181818 10.21928 
L 10.018218 10.486091 
L 12.051375 10.752902 
L 14.018947 11.019713 
L 16.052104 11.305445 
L 18.019676 11.641076 
L 20.052833 11.962381 
L 22.08599 12.293213 
L 24.053562 12.667718 
L 26.086719 12.893701 
L 28.05429 12.795257 
L 30.087448 12.799701 
L 32.120605 12.813219 
L 34.022591 12.792406 
L 36.055748 12.928039 
L 38.023319 13.017511 
L 40.056477 13.047596 
L 42.024048 13.350415 
L 44.057205 13.56277 
L 46.090363 13.804625 
L 48.057934 14.040508 
L 50.091091 14.228163 
L 52.058663 14.360408 
L 54.09182 14.514992 
L 56.124977 14.704882 
L 57.961377 14.983375 
L 59.994535 15.081849 
L 61.962106 15.132483 
L 63.995263 15.190037 
L 65.962835 15.409542 
L 67.995992 15.635234 
L 70.029149 15.846578 
L 71.996721 15.905292 
L 74.029878 16.149808 
L 75.997449 16.473583 
L 78.030607 16.677305 
L 80.063764 16.866467 
L 81.900164 17.061769 
L 83.933321 17.143892 
L 85.900893 17.315808 
L 87.93405 17.534899 
L 89.901621 17.801828 
L 91.934779 18.103792 
L 93.967936 18.361834 
L 95.935507 18.633425 
L 97.968665 19.076586 
L 99.936236 19.444733 
L 101.969393 19.747172 
L 104.002551 19.980013 
L 105.838951 20.114051 
L 107.872108 20.284894 
L 109.839679 20.424703 
L 111.872837 20.548811 
L 113.840408 20.647848 
L 115.873565 20.757141 
L 117.906723 20.860815 
L 119.874294 21.01955 
L 121.907451 21.175312 
L 123.875023 21.389257 
L 125.90818 21.580053 
L 127.941337 21.877226 
L 129.843323 22.060183 
L 131.87648 22.219222 
L 133.844052 22.378953 
L 135.877209 22.567853 
L 137.84478 22.70795 
L 139.877938 22.850654 
L 141.911095 22.872559 
L 143.878666 22.956572 
L 145.911824 23.065503 
L 147.879395 23.205725 
L 149.912552 23.255599 
L 151.94571 23.336052 
L 153.78211 23.398217 
L 155.815267 23.479269 
L 157.782838 23.581422 
L 159.815996 23.692377 
L 161.783567 23.753881 
L 163.816724 23.896318 
L 165.849882 24.028449 
L 167.817453 24.160755 
L 169.85061 24.293062 
L 171.818182 24.425368 
" style="fill:none;stroke:#1f77b4;stroke-linecap:square;stroke-width:1.5;"/>
   </g>
  </g>
 </g>
 <defs>
  <clipPath id="p3095df58c5">
   <rect height="25.92" width="180" x="0" y="1.44"/>
  </clipPath>
 </defs>
</svg>
