<?xml version="1.0" encoding="utf-8" standalone="no"?>
<!DOCTYPE svg PUBLIC "-//W3C//DTD SVG 1.1//EN"
  "http://www.w3.org/Graphics/SVG/1.1/DTD/svg11.dtd">
<!-- Created with matplotlib (http://matplotlib.org/) -->
<svg height="28pt" version="1.1" viewBox="0 0 180 28" width="180pt" xmlns="http://www.w3.org/2000/svg" xmlns:xlink="http://www.w3.org/1999/xlink">
 <defs>
  <style type="text/css">
*{stroke-linecap:butt;stroke-linejoin:round;}
  </style>
 </defs>
 <g id="figure_1">
  <g id="patch_1">
   <path d="M 0 28.8 
L 180 28.8 
L 180 0 
L 0 0 
z
" style="fill:none;"/>
  </g>
  <g id="axes_1">
   <g id="patch_2">
    <path d="M 0 27.36 
L 180 27.36 
L 180 1.44 
L 0 1.44 
z
" style="fill:none;"/>
   </g>
   <g id="PolyCollection_1">
    <path clip-path="url(#p7365ec3b6d)" d="M 8.181818 27.36 
L 8.181818 26.993395 
L 9.954282 26.932492 
L 11.916652 26.871589 
L 13.81572 26.810686 
L 15.77809 26.735186 
L 17.677158 26.708685 
L 19.639529 26.685757 
L 21.601899 26.639254 
L 23.500967 26.513433 
L 25.463337 26.48071 
L 27.362405 26.463675 
L 29.324776 26.455982 
L 31.287146 26.486047 
L 33.122912 26.491534 
L 35.085282 26.468009 
L 36.98435 26.644179 
L 38.946721 26.664988 
L 40.845789 26.641949 
L 42.808159 26.678551 
L 44.770529 26.619955 
L 46.669597 26.59638 
L 48.631968 26.586336 
L 50.531036 26.58537 
L 52.493406 26.42098 
L 54.455776 26.374396 
L 56.22824 26.344896 
L 58.19061 26.328364 
L 60.089678 26.289168 
L 62.052049 26.253773 
L 63.951117 26.169408 
L 65.913487 26.267892 
L 67.875857 26.234165 
L 69.774925 26.087727 
L 71.737296 26.028311 
L 73.636364 25.988889 
L 75.598734 25.825336 
L 77.561104 25.754531 
L 79.333568 25.5019 
L 81.295938 25.266769 
L 83.195006 25.151739 
L 85.157376 24.97173 
L 87.056445 24.670362 
L 89.018815 24.568858 
L 90.981185 24.148991 
L 92.880253 23.925894 
L 94.842624 23.728224 
L 96.741692 23.610567 
L 98.704062 23.443642 
L 100.666432 23.145643 
L 102.438896 22.955376 
L 104.401266 23.065446 
L 106.300334 23.08057 
L 108.262704 23.180554 
L 110.161772 23.073239 
L 112.124143 23.059389 
L 114.086513 23.232267 
L 115.985581 23.278585 
L 117.947951 23.206923 
L 119.84702 22.9509 
L 121.80939 22.614401 
L 123.77176 22.437037 
L 125.607526 22.279433 
L 127.569896 22.152638 
L 129.468964 22.003439 
L 131.431335 21.930307 
L 133.330403 22.147497 
L 135.292773 22.413821 
L 137.255143 22.297248 
L 139.154211 21.852332 
L 141.116582 21.823461 
L 143.01565 21.847323 
L 144.97802 21.694927 
L 146.94039 21.553934 
L 148.712854 21.310723 
L 150.675224 21.354085 
L 152.574292 21.571823 
L 154.536663 21.624031 
L 156.435731 21.335535 
L 158.398101 21.328414 
L 160.360471 21.092854 
L 162.259539 20.881919 
L 164.22191 20.776733 
L 166.120978 20.540456 
L 168.083348 20.181389 
L 170.045718 19.822322 
L 171.818182 19.463255 
L 171.818182 27.36 
L 171.818182 27.36 
L 170.045718 27.36 
L 168.083348 27.36 
L 166.120978 27.36 
L 164.22191 27.36 
L 162.259539 27.36 
L 160.360471 27.36 
L 158.398101 27.36 
L 156.435731 27.36 
L 154.536663 27.36 
L 152.574292 27.36 
L 150.675224 27.36 
L 148.712854 27.36 
L 146.94039 27.36 
L 144.97802 27.36 
L 143.01565 27.36 
L 141.116582 27.36 
L 139.154211 27.36 
L 137.255143 27.36 
L 135.292773 27.36 
L 133.330403 27.36 
L 131.431335 27.36 
L 129.468964 27.36 
L 127.569896 27.36 
L 125.607526 27.36 
L 123.77176 27.36 
L 121.80939 27.36 
L 119.84702 27.36 
L 117.947951 27.36 
L 115.985581 27.36 
L 114.086513 27.36 
L 112.124143 27.36 
L 110.161772 27.36 
L 108.262704 27.36 
L 106.300334 27.36 
L 104.401266 27.36 
L 102.438896 27.36 
L 100.666432 27.36 
L 98.704062 27.36 
L 96.741692 27.36 
L 94.842624 27.36 
L 92.880253 27.36 
L 90.981185 27.36 
L 89.018815 27.36 
L 87.056445 27.36 
L 85.157376 27.36 
L 83.195006 27.36 
L 81.295938 27.36 
L 79.333568 27.36 
L 77.561104 27.36 
L 75.598734 27.36 
L 73.636364 27.36 
L 71.737296 27.36 
L 69.774925 27.36 
L 67.875857 27.36 
L 65.913487 27.36 
L 63.951117 27.36 
L 62.052049 27.36 
L 60.089678 27.36 
L 58.19061 27.36 
L 56.22824 27.36 
L 54.455776 27.36 
L 52.493406 27.36 
L 50.531036 27.36 
L 48.631968 27.36 
L 46.669597 27.36 
L 44.770529 27.36 
L 42.808159 27.36 
L 40.845789 27.36 
L 38.946721 27.36 
L 36.98435 27.36 
L 35.085282 27.36 
L 33.122912 27.36 
L 31.287146 27.36 
L 29.324776 27.36 
L 27.362405 27.36 
L 25.463337 27.36 
L 23.500967 27.36 
L 21.601899 27.36 
L 19.639529 27.36 
L 17.677158 27.36 
L 15.77809 27.36 
L 13.81572 27.36 
L 11.916652 27.36 
L 9.954282 27.36 
L 8.181818 27.36 
z
" style="fill:#1f77b4;fill-opacity:0.1;"/>
   </g>
   <g id="matplotlib.axis_1"/>
   <g id="matplotlib.axis_2"/>
   <g id="line2d_1">
    <path clip-path="url(#p7365ec3b6d)" d="M 8.181818 26.993395 
L 9.954282 26.932492 
L 11.916652 26.871589 
L 13.81572 26.810686 
L 15.77809 26.735186 
L 17.677158 26.708685 
L 19.639529 26.685757 
L 21.601899 26.639254 
L 23.500967 26.513433 
L 25.463337 26.48071 
L 27.362405 26.463675 
L 29.324776 26.455982 
L 31.287146 26.486047 
L 33.122912 26.491534 
L 35.085282 26.468009 
L 36.98435 26.644179 
L 38.946721 26.664988 
L 40.845789 26.641949 
L 42.808159 26.678551 
L 44.770529 26.619955 
L 46.669597 26.59638 
L 48.631968 26.586336 
L 50.531036 26.58537 
L 52.493406 26.42098 
L 54.455776 26.374396 
L 56.22824 26.344896 
L 58.19061 26.328364 
L 60.089678 26.289168 
L 62.052049 26.253773 
L 63.951117 26.169408 
L 65.913487 26.267892 
L 67.875857 26.234165 
L 69.774925 26.087727 
L 71.737296 26.028311 
L 73.636364 25.988889 
L 75.598734 25.825336 
L 77.561104 25.754531 
L 79.333568 25.5019 
L 81.295938 25.266769 
L 83.195006 25.151739 
L 85.157376 24.97173 
L 87.056445 24.670362 
L 89.018815 24.568858 
L 90.981185 24.148991 
L 92.880253 23.925894 
L 94.842624 23.728224 
L 96.741692 23.610567 
L 98.704062 23.443642 
L 100.666432 23.145643 
L 102.438896 22.955376 
L 104.401266 23.065446 
L 106.300334 23.08057 
L 108.262704 23.180554 
L 110.161772 23.073239 
L 112.124143 23.059389 
L 114.086513 23.232267 
L 115.985581 23.278585 
L 117.947951 23.206923 
L 119.84702 22.9509 
L 121.80939 22.614401 
L 123.77176 22.437037 
L 125.607526 22.279433 
L 127.569896 22.152638 
L 129.468964 22.003439 
L 131.431335 21.930307 
L 133.330403 22.147497 
L 135.292773 22.413821 
L 137.255143 22.297248 
L 139.154211 21.852332 
L 141.116582 21.823461 
L 143.01565 21.847323 
L 144.97802 21.694927 
L 146.94039 21.553934 
L 148.712854 21.310723 
L 150.675224 21.354085 
L 152.574292 21.571823 
L 154.536663 21.624031 
L 156.435731 21.335535 
L 158.398101 21.328414 
L 160.360471 21.092854 
L 162.259539 20.881919 
L 164.22191 20.776733 
L 166.120978 20.540456 
L 168.083348 20.181389 
L 170.045718 19.822322 
L 171.818182 19.463255 
" style="fill:none;stroke:#1f77b4;stroke-linecap:square;stroke-width:1.5;"/>
   </g>
  </g>
 </g>
 <defs>
  <clipPath id="p7365ec3b6d">
   <rect height="25.92" width="180" x="0" y="1.44"/>
  </clipPath>
 </defs>
</svg>
