<?xml version="1.0" encoding="utf-8" standalone="no"?>
<!DOCTYPE svg PUBLIC "-//W3C//DTD SVG 1.1//EN"
  "http://www.w3.org/Graphics/SVG/1.1/DTD/svg11.dtd">
<!-- Created with matplotlib (http://matplotlib.org/) -->
<svg height="28pt" version="1.1" viewBox="0 0 180 28" width="180pt" xmlns="http://www.w3.org/2000/svg" xmlns:xlink="http://www.w3.org/1999/xlink">
 <defs>
  <style type="text/css">
*{stroke-linecap:butt;stroke-linejoin:round;}
  </style>
 </defs>
 <g id="figure_1">
  <g id="patch_1">
   <path d="M 0 28.8 
L 180 28.8 
L 180 0 
L 0 0 
z
" style="fill:none;"/>
  </g>
  <g id="axes_1">
   <g id="patch_2">
    <path d="M 0 27.36 
L 180 27.36 
L 180 1.44 
L 0 1.44 
z
" style="fill:none;"/>
   </g>
   <g id="PolyCollection_1">
    <path clip-path="url(#p99ce9c45b3)" d="M 8.181818 27.36 
L 8.181818 26.945611 
L 10.018218 26.87677 
L 12.051375 26.807929 
L 14.018947 26.739087 
L 16.052104 26.653746 
L 18.019676 26.623792 
L 20.052833 26.597875 
L 22.08599 26.54531 
L 24.053562 26.403089 
L 26.086719 26.366101 
L 28.05429 26.346846 
L 30.087448 26.33815 
L 32.120605 26.372134 
L 34.022591 26.378337 
L 36.055748 26.351745 
L 38.023319 26.550878 
L 40.056477 26.574399 
L 42.024048 26.548357 
L 44.057205 26.590146 
L 46.090363 26.523912 
L 48.057934 26.497264 
L 50.091091 26.485911 
L 52.058663 26.484819 
L 54.09182 26.299002 
L 56.124977 26.246346 
L 57.961377 26.212875 
L 59.994535 26.194475 
L 61.962106 26.15017 
L 63.995263 26.110161 
L 65.962835 26.0148 
L 67.995992 26.126121 
L 70.029149 26.088268 
L 71.996721 25.922454 
L 74.029878 25.855006 
L 75.997449 25.810446 
L 78.030607 25.625575 
L 80.063764 25.54554 
L 81.900164 25.259982 
L 83.933321 24.993933 
L 85.900893 24.864116 
L 87.93405 24.660645 
L 89.901621 24.319997 
L 91.934779 24.205262 
L 93.967936 23.730668 
L 95.935507 23.478493 
L 97.968665 23.255057 
L 99.936236 23.121857 
L 101.969393 22.933176 
L 104.002551 22.596475 
L 105.838951 22.381408 
L 107.872108 22.506101 
L 109.839679 22.523334 
L 111.872837 22.636351 
L 113.840408 22.515168 
L 115.873565 22.49963 
L 117.906723 22.694902 
L 119.874294 22.747256 
L 121.907451 22.666086 
L 123.875023 22.376749 
L 125.90818 21.996488 
L 127.941337 21.796139 
L 129.843323 21.618276 
L 131.87648 21.475054 
L 133.844052 21.306503 
L 135.877209 21.22391 
L 137.84478 21.469299 
L 139.877938 21.770487 
L 141.911095 21.638553 
L 143.878666 21.135245 
L 145.911824 21.102907 
L 147.879395 21.13014 
L 149.912552 20.957848 
L 151.94571 20.798394 
L 153.78211 20.52331 
L 155.815267 20.576576 
L 157.782838 20.829138 
L 159.815996 20.888737 
L 161.783567 20.563143 
L 163.816724 20.560725 
L 165.849882 20.310209 
L 167.817453 20.133226 
L 169.85061 19.956244 
L 171.818182 19.779262 
L 171.818182 27.36 
L 171.818182 27.36 
L 169.85061 27.36 
L 167.817453 27.36 
L 165.849882 27.36 
L 163.816724 27.36 
L 161.783567 27.36 
L 159.815996 27.36 
L 157.782838 27.36 
L 155.815267 27.36 
L 153.78211 27.36 
L 151.94571 27.36 
L 149.912552 27.36 
L 147.879395 27.36 
L 145.911824 27.36 
L 143.878666 27.36 
L 141.911095 27.36 
L 139.877938 27.36 
L 137.84478 27.36 
L 135.877209 27.36 
L 133.844052 27.36 
L 131.87648 27.36 
L 129.843323 27.36 
L 127.941337 27.36 
L 125.90818 27.36 
L 123.875023 27.36 
L 121.907451 27.36 
L 119.874294 27.36 
L 117.906723 27.36 
L 115.873565 27.36 
L 113.840408 27.36 
L 111.872837 27.36 
L 109.839679 27.36 
L 107.872108 27.36 
L 105.838951 27.36 
L 104.002551 27.36 
L 101.969393 27.36 
L 99.936236 27.36 
L 97.968665 27.36 
L 95.935507 27.36 
L 93.967936 27.36 
L 91.934779 27.36 
L 89.901621 27.36 
L 87.93405 27.36 
L 85.900893 27.36 
L 83.933321 27.36 
L 81.900164 27.36 
L 80.063764 27.36 
L 78.030607 27.36 
L 75.997449 27.36 
L 74.029878 27.36 
L 71.996721 27.36 
L 70.029149 27.36 
L 67.995992 27.36 
L 65.962835 27.36 
L 63.995263 27.36 
L 61.962106 27.36 
L 59.994535 27.36 
L 57.961377 27.36 
L 56.124977 27.36 
L 54.09182 27.36 
L 52.058663 27.36 
L 50.091091 27.36 
L 48.057934 27.36 
L 46.090363 27.36 
L 44.057205 27.36 
L 42.024048 27.36 
L 40.056477 27.36 
L 38.023319 27.36 
L 36.055748 27.36 
L 34.022591 27.36 
L 32.120605 27.36 
L 30.087448 27.36 
L 28.05429 27.36 
L 26.086719 27.36 
L 24.053562 27.36 
L 22.08599 27.36 
L 20.052833 27.36 
L 18.019676 27.36 
L 16.052104 27.36 
L 14.018947 27.36 
L 12.051375 27.36 
L 10.018218 27.36 
L 8.181818 27.36 
z
" style="fill:#1f77b4;fill-opacity:0.1;"/>
   </g>
   <g id="matplotlib.axis_1"/>
   <g id="matplotlib.axis_2"/>
   <g id="line2d_1">
    <path clip-path="url(#p99ce9c45b3)" d="M 8.181818 26.945611 
L 10.018218 26.87677 
L 12.051375 26.807929 
L 14.018947 26.739087 
L 16.052104 26.653746 
L 18.019676 26.623792 
L 20.052833 26.597875 
L 22.08599 26.54531 
L 24.053562 26.403089 
L 26.086719 26.366101 
L 28.05429 26.346846 
L 30.087448 26.33815 
L 32.120605 26.372134 
L 34.022591 26.378337 
L 36.055748 26.351745 
L 38.023319 26.550878 
L 40.056477 26.574399 
L 42.024048 26.548357 
L 44.057205 26.590146 
L 46.090363 26.523912 
L 48.057934 26.497264 
L 50.091091 26.485911 
L 52.058663 26.484819 
L 54.09182 26.299002 
L 56.124977 26.246346 
L 57.961377 26.212875 
L 59.994535 26.194475 
L 61.962106 26.15017 
L 63.995263 26.110161 
L 65.962835 26.0148 
L 67.995992 26.126121 
L 70.029149 26.088268 
L 71.996721 25.922454 
L 74.029878 25.855006 
L 75.997449 25.810446 
L 78.030607 25.625575 
L 80.063764 25.54554 
L 81.900164 25.259982 
L 83.933321 24.993933 
L 85.900893 24.864116 
L 87.93405 24.660645 
L 89.901621 24.319997 
L 91.934779 24.205262 
L 93.967936 23.730668 
L 95.935507 23.478493 
L 97.968665 23.255057 
L 99.936236 23.121857 
L 101.969393 22.933176 
L 104.002551 22.596475 
L 105.838951 22.381408 
L 107.872108 22.506101 
L 109.839679 22.523334 
L 111.872837 22.636351 
L 113.840408 22.515168 
L 115.873565 22.49963 
L 117.906723 22.694902 
L 119.874294 22.747256 
L 121.907451 22.666086 
L 123.875023 22.376749 
L 125.90818 21.996488 
L 127.941337 21.796139 
L 129.843323 21.618276 
L 131.87648 21.475054 
L 133.844052 21.306503 
L 135.877209 21.22391 
L 137.84478 21.469299 
L 139.877938 21.770487 
L 141.911095 21.638553 
L 143.878666 21.135245 
L 145.911824 21.102907 
L 147.879395 21.13014 
L 149.912552 20.957848 
L 151.94571 20.798394 
L 153.78211 20.52331 
L 155.815267 20.576576 
L 157.782838 20.829138 
L 159.815996 20.888737 
L 161.783567 20.563143 
L 163.816724 20.560725 
L 165.849882 20.310209 
L 167.817453 20.133226 
L 169.85061 19.956244 
L 171.818182 19.779262 
" style="fill:none;stroke:#1f77b4;stroke-linecap:square;stroke-width:1.5;"/>
   </g>
  </g>
 </g>
 <defs>
  <clipPath id="p99ce9c45b3">
   <rect height="25.92" width="180" x="0" y="1.44"/>
  </clipPath>
 </defs>
</svg>
