<?xml version="1.0" encoding="utf-8" standalone="no"?>
<!DOCTYPE svg PUBLIC "-//W3C//DTD SVG 1.1//EN"
  "http://www.w3.org/Graphics/SVG/1.1/DTD/svg11.dtd">
<!-- Created with matplotlib (http://matplotlib.org/) -->
<svg height="28pt" version="1.1" viewBox="0 0 180 28" width="180pt" xmlns="http://www.w3.org/2000/svg" xmlns:xlink="http://www.w3.org/1999/xlink">
 <defs>
  <style type="text/css">
*{stroke-linecap:butt;stroke-linejoin:round;}
  </style>
 </defs>
 <g id="figure_1">
  <g id="patch_1">
   <path d="M 0 28.8 
L 180 28.8 
L 180 0 
L 0 0 
z
" style="fill:none;"/>
  </g>
  <g id="axes_1">
   <g id="patch_2">
    <path d="M 0 27.36 
L 180 27.36 
L 180 1.44 
L 0 1.44 
z
" style="fill:none;"/>
   </g>
   <g id="PolyCollection_1">
    <path clip-path="url(#p6594abcf05)" d="M 8.181818 27.36 
L 8.181818 20.437949 
L 9.954282 20.161326 
L 11.916652 19.884703 
L 13.81572 19.608079 
L 15.77809 19.355219 
L 17.677158 19.166957 
L 19.639529 19.018227 
L 21.601899 19.114425 
L 23.500967 19.438499 
L 25.463337 19.508005 
L 27.362405 19.382269 
L 29.324776 19.458955 
L 31.287146 19.558183 
L 33.122912 19.443051 
L 35.085282 19.613486 
L 36.98435 19.657288 
L 38.946721 19.759724 
L 40.845789 19.919456 
L 42.808159 19.947721 
L 44.770529 20.006716 
L 46.669597 20.207273 
L 48.631968 20.209006 
L 50.531036 20.162449 
L 52.493406 20.117786 
L 54.455776 20.115234 
L 56.22824 20.169056 
L 58.19061 20.13386 
L 60.089678 20.067813 
L 62.052049 19.821049 
L 63.951117 19.04609 
L 65.913487 18.825778 
L 67.875857 18.761737 
L 69.774925 18.665917 
L 71.737296 18.399396 
L 73.636364 18.38015 
L 75.598734 18.493357 
L 77.561104 19.162492 
L 79.333568 19.222902 
L 81.295938 19.067227 
L 83.195006 19.046977 
L 85.157376 19.223469 
L 87.056445 19.294798 
L 89.018815 19.226285 
L 90.981185 19.157301 
L 92.880253 19.230582 
L 94.842624 19.298182 
L 96.741692 19.269693 
L 98.704062 19.327263 
L 100.666432 19.28738 
L 102.438896 19.210614 
L 104.401266 19.193387 
L 106.300334 19.181725 
L 108.262704 19.175808 
L 110.161772 19.227569 
L 112.124143 19.293661 
L 114.086513 19.320623 
L 115.985581 19.524502 
L 117.947951 19.722764 
L 119.84702 19.918913 
L 121.80939 20.171466 
L 123.77176 20.393061 
L 125.607526 20.470713 
L 127.569896 20.611213 
L 129.468964 20.669305 
L 131.431335 20.775438 
L 133.330403 20.866741 
L 135.292773 20.946245 
L 137.255143 20.906812 
L 139.154211 20.96056 
L 141.116582 21.066152 
L 143.01565 21.212563 
L 144.97802 21.303825 
L 146.94039 21.405628 
L 148.712854 21.473033 
L 150.675224 21.583756 
L 152.574292 21.722319 
L 154.536663 21.895141 
L 156.435731 21.9294 
L 158.398101 21.987933 
L 160.360471 22.080778 
L 162.259539 22.167571 
L 164.22191 22.317974 
L 166.120978 22.451963 
L 168.083348 22.551316 
L 170.045718 22.650669 
L 171.818182 22.750022 
L 171.818182 27.36 
L 171.818182 27.36 
L 170.045718 27.36 
L 168.083348 27.36 
L 166.120978 27.36 
L 164.22191 27.36 
L 162.259539 27.36 
L 160.360471 27.36 
L 158.398101 27.36 
L 156.435731 27.36 
L 154.536663 27.36 
L 152.574292 27.36 
L 150.675224 27.36 
L 148.712854 27.36 
L 146.94039 27.36 
L 144.97802 27.36 
L 143.01565 27.36 
L 141.116582 27.36 
L 139.154211 27.36 
L 137.255143 27.36 
L 135.292773 27.36 
L 133.330403 27.36 
L 131.431335 27.36 
L 129.468964 27.36 
L 127.569896 27.36 
L 125.607526 27.36 
L 123.77176 27.36 
L 121.80939 27.36 
L 119.84702 27.36 
L 117.947951 27.36 
L 115.985581 27.36 
L 114.086513 27.36 
L 112.124143 27.36 
L 110.161772 27.36 
L 108.262704 27.36 
L 106.300334 27.36 
L 104.401266 27.36 
L 102.438896 27.36 
L 100.666432 27.36 
L 98.704062 27.36 
L 96.741692 27.36 
L 94.842624 27.36 
L 92.880253 27.36 
L 90.981185 27.36 
L 89.018815 27.36 
L 87.056445 27.36 
L 85.157376 27.36 
L 83.195006 27.36 
L 81.295938 27.36 
L 79.333568 27.36 
L 77.561104 27.36 
L 75.598734 27.36 
L 73.636364 27.36 
L 71.737296 27.36 
L 69.774925 27.36 
L 67.875857 27.36 
L 65.913487 27.36 
L 63.951117 27.36 
L 62.052049 27.36 
L 60.089678 27.36 
L 58.19061 27.36 
L 56.22824 27.36 
L 54.455776 27.36 
L 52.493406 27.36 
L 50.531036 27.36 
L 48.631968 27.36 
L 46.669597 27.36 
L 44.770529 27.36 
L 42.808159 27.36 
L 40.845789 27.36 
L 38.946721 27.36 
L 36.98435 27.36 
L 35.085282 27.36 
L 33.122912 27.36 
L 31.287146 27.36 
L 29.324776 27.36 
L 27.362405 27.36 
L 25.463337 27.36 
L 23.500967 27.36 
L 21.601899 27.36 
L 19.639529 27.36 
L 17.677158 27.36 
L 15.77809 27.36 
L 13.81572 27.36 
L 11.916652 27.36 
L 9.954282 27.36 
L 8.181818 27.36 
z
" style="fill:#1f77b4;fill-opacity:0.1;"/>
   </g>
   <g id="matplotlib.axis_1"/>
   <g id="matplotlib.axis_2"/>
   <g id="line2d_1">
    <path clip-path="url(#p6594abcf05)" d="M 8.181818 20.437949 
L 9.954282 20.161326 
L 11.916652 19.884703 
L 13.81572 19.608079 
L 15.77809 19.355219 
L 17.677158 19.166957 
L 19.639529 19.018227 
L 21.601899 19.114425 
L 23.500967 19.438499 
L 25.463337 19.508005 
L 27.362405 19.382269 
L 29.324776 19.458955 
L 31.287146 19.558183 
L 33.122912 19.443051 
L 35.085282 19.613486 
L 36.98435 19.657288 
L 38.946721 19.759724 
L 40.845789 19.919456 
L 42.808159 19.947721 
L 44.770529 20.006716 
L 46.669597 20.207273 
L 48.631968 20.209006 
L 50.531036 20.162449 
L 52.493406 20.117786 
L 54.455776 20.115234 
L 56.22824 20.169056 
L 58.19061 20.13386 
L 60.089678 20.067813 
L 62.052049 19.821049 
L 63.951117 19.04609 
L 65.913487 18.825778 
L 67.875857 18.761737 
L 69.774925 18.665917 
L 71.737296 18.399396 
L 73.636364 18.38015 
L 75.598734 18.493357 
L 77.561104 19.162492 
L 79.333568 19.222902 
L 81.295938 19.067227 
L 83.195006 19.046977 
L 85.157376 19.223469 
L 87.056445 19.294798 
L 89.018815 19.226285 
L 90.981185 19.157301 
L 92.880253 19.230582 
L 94.842624 19.298182 
L 96.741692 19.269693 
L 98.704062 19.327263 
L 100.666432 19.28738 
L 102.438896 19.210614 
L 104.401266 19.193387 
L 106.300334 19.181725 
L 108.262704 19.175808 
L 110.161772 19.227569 
L 112.124143 19.293661 
L 114.086513 19.320623 
L 115.985581 19.524502 
L 117.947951 19.722764 
L 119.84702 19.918913 
L 121.80939 20.171466 
L 123.77176 20.393061 
L 125.607526 20.470713 
L 127.569896 20.611213 
L 129.468964 20.669305 
L 131.431335 20.775438 
L 133.330403 20.866741 
L 135.292773 20.946245 
L 137.255143 20.906812 
L 139.154211 20.96056 
L 141.116582 21.066152 
L 143.01565 21.212563 
L 144.97802 21.303825 
L 146.94039 21.405628 
L 148.712854 21.473033 
L 150.675224 21.583756 
L 152.574292 21.722319 
L 154.536663 21.895141 
L 156.435731 21.9294 
L 158.398101 21.987933 
L 160.360471 22.080778 
L 162.259539 22.167571 
L 164.22191 22.317974 
L 166.120978 22.451963 
L 168.083348 22.551316 
L 170.045718 22.650669 
L 171.818182 22.750022 
" style="fill:none;stroke:#1f77b4;stroke-linecap:square;stroke-width:1.5;"/>
   </g>
  </g>
 </g>
 <defs>
  <clipPath id="p6594abcf05">
   <rect height="25.92" width="180" x="0" y="1.44"/>
  </clipPath>
 </defs>
</svg>
