<?xml version="1.0" encoding="utf-8" standalone="no"?>
<!DOCTYPE svg PUBLIC "-//W3C//DTD SVG 1.1//EN"
  "http://www.w3.org/Graphics/SVG/1.1/DTD/svg11.dtd">
<!-- Created with matplotlib (http://matplotlib.org/) -->
<svg height="28pt" version="1.1" viewBox="0 0 180 28" width="180pt" xmlns="http://www.w3.org/2000/svg" xmlns:xlink="http://www.w3.org/1999/xlink">
 <defs>
  <style type="text/css">
*{stroke-linecap:butt;stroke-linejoin:round;}
  </style>
 </defs>
 <g id="figure_1">
  <g id="patch_1">
   <path d="M 0 28.8 
L 180 28.8 
L 180 0 
L 0 0 
z
" style="fill:none;"/>
  </g>
  <g id="axes_1">
   <g id="patch_2">
    <path d="M 0 27.36 
L 180 27.36 
L 180 1.44 
L 0 1.44 
z
" style="fill:none;"/>
   </g>
   <g id="PolyCollection_1">
    <path clip-path="url(#p7c3c9c9c2b)" d="M 8.181818 27.36 
L 8.181818 20.437014 
L 10.018218 20.160846 
L 12.051375 19.884678 
L 14.018947 19.608511 
L 16.052104 19.355644 
L 18.019676 19.167378 
L 20.052833 19.019164 
L 22.08599 19.115365 
L 24.053562 19.439902 
L 26.086719 19.50941 
L 28.05429 19.383054 
L 30.087448 19.459742 
L 32.120605 19.558972 
L 34.022591 19.443318 
L 36.055748 19.613757 
L 38.023319 19.657104 
L 40.056477 19.759543 
L 42.024048 19.919537 
L 44.057205 19.948053 
L 46.090363 20.007049 
L 48.057934 20.207611 
L 50.091091 20.209344 
L 52.058663 20.162786 
L 54.09182 20.118122 
L 56.124977 20.1155 
L 57.961377 20.169073 
L 59.994535 20.133876 
L 61.962106 20.067827 
L 63.995263 19.821057 
L 65.962835 19.046237 
L 67.995992 18.825919 
L 70.029149 18.761688 
L 71.996721 18.665866 
L 74.029878 18.399338 
L 75.997449 18.380222 
L 78.030607 18.493431 
L 80.063764 19.162426 
L 81.900164 19.222837 
L 83.933321 19.067283 
L 85.900893 19.047031 
L 87.93405 19.223528 
L 89.901621 19.294729 
L 91.934779 19.226215 
L 93.967936 19.157229 
L 95.935507 19.230611 
L 97.968665 19.298088 
L 99.936236 19.269599 
L 101.969393 19.327254 
L 104.002551 19.287455 
L 105.838951 19.210771 
L 107.872108 19.193709 
L 109.839679 19.182199 
L 111.872837 19.176282 
L 113.840408 19.228044 
L 115.873565 19.294123 
L 117.906723 19.321075 
L 119.874294 19.52508 
L 121.907451 19.723246 
L 123.875023 19.919267 
L 125.90818 20.171884 
L 127.941337 20.393687 
L 129.843323 20.471271 
L 131.87648 20.611883 
L 133.844052 20.669999 
L 135.877209 20.776448 
L 137.84478 20.867738 
L 139.877938 20.947335 
L 141.911095 20.907956 
L 143.878666 20.961957 
L 145.911824 21.067657 
L 147.879395 21.214184 
L 149.912552 21.305608 
L 151.94571 21.407794 
L 153.78211 21.475551 
L 155.815267 21.593209 
L 157.782838 21.741059 
L 159.815996 21.914697 
L 161.783567 21.949571 
L 163.816724 22.012165 
L 165.849882 22.113924 
L 167.817453 22.237985 
L 169.85061 22.362045 
L 171.818182 22.486106 
L 171.818182 27.36 
L 171.818182 27.36 
L 169.85061 27.36 
L 167.817453 27.36 
L 165.849882 27.36 
L 163.816724 27.36 
L 161.783567 27.36 
L 159.815996 27.36 
L 157.782838 27.36 
L 155.815267 27.36 
L 153.78211 27.36 
L 151.94571 27.36 
L 149.912552 27.36 
L 147.879395 27.36 
L 145.911824 27.36 
L 143.878666 27.36 
L 141.911095 27.36 
L 139.877938 27.36 
L 137.84478 27.36 
L 135.877209 27.36 
L 133.844052 27.36 
L 131.87648 27.36 
L 129.843323 27.36 
L 127.941337 27.36 
L 125.90818 27.36 
L 123.875023 27.36 
L 121.907451 27.36 
L 119.874294 27.36 
L 117.906723 27.36 
L 115.873565 27.36 
L 113.840408 27.36 
L 111.872837 27.36 
L 109.839679 27.36 
L 107.872108 27.36 
L 105.838951 27.36 
L 104.002551 27.36 
L 101.969393 27.36 
L 99.936236 27.36 
L 97.968665 27.36 
L 95.935507 27.36 
L 93.967936 27.36 
L 91.934779 27.36 
L 89.901621 27.36 
L 87.93405 27.36 
L 85.900893 27.36 
L 83.933321 27.36 
L 81.900164 27.36 
L 80.063764 27.36 
L 78.030607 27.36 
L 75.997449 27.36 
L 74.029878 27.36 
L 71.996721 27.36 
L 70.029149 27.36 
L 67.995992 27.36 
L 65.962835 27.36 
L 63.995263 27.36 
L 61.962106 27.36 
L 59.994535 27.36 
L 57.961377 27.36 
L 56.124977 27.36 
L 54.09182 27.36 
L 52.058663 27.36 
L 50.091091 27.36 
L 48.057934 27.36 
L 46.090363 27.36 
L 44.057205 27.36 
L 42.024048 27.36 
L 40.056477 27.36 
L 38.023319 27.36 
L 36.055748 27.36 
L 34.022591 27.36 
L 32.120605 27.36 
L 30.087448 27.36 
L 28.05429 27.36 
L 26.086719 27.36 
L 24.053562 27.36 
L 22.08599 27.36 
L 20.052833 27.36 
L 18.019676 27.36 
L 16.052104 27.36 
L 14.018947 27.36 
L 12.051375 27.36 
L 10.018218 27.36 
L 8.181818 27.36 
z
" style="fill:#1f77b4;fill-opacity:0.1;"/>
   </g>
   <g id="matplotlib.axis_1"/>
   <g id="matplotlib.axis_2"/>
   <g id="line2d_1">
    <path clip-path="url(#p7c3c9c9c2b)" d="M 8.181818 20.437014 
L 10.018218 20.160846 
L 12.051375 19.884678 
L 14.018947 19.608511 
L 16.052104 19.355644 
L 18.019676 19.167378 
L 20.052833 19.019164 
L 22.08599 19.115365 
L 24.053562 19.439902 
L 26.086719 19.50941 
L 28.05429 19.383054 
L 30.087448 19.459742 
L 32.120605 19.558972 
L 34.022591 19.443318 
L 36.055748 19.613757 
L 38.023319 19.657104 
L 40.056477 19.759543 
L 42.024048 19.919537 
L 44.057205 19.948053 
L 46.090363 20.007049 
L 48.057934 20.207611 
L 50.091091 20.209344 
L 52.058663 20.162786 
L 54.09182 20.118122 
L 56.124977 20.1155 
L 57.961377 20.169073 
L 59.994535 20.133876 
L 61.962106 20.067827 
L 63.995263 19.821057 
L 65.962835 19.046237 
L 67.995992 18.825919 
L 70.029149 18.761688 
L 71.996721 18.665866 
L 74.029878 18.399338 
L 75.997449 18.380222 
L 78.030607 18.493431 
L 80.063764 19.162426 
L 81.900164 19.222837 
L 83.933321 19.067283 
L 85.900893 19.047031 
L 87.93405 19.223528 
L 89.901621 19.294729 
L 91.934779 19.226215 
L 93.967936 19.157229 
L 95.935507 19.230611 
L 97.968665 19.298088 
L 99.936236 19.269599 
L 101.969393 19.327254 
L 104.002551 19.287455 
L 105.838951 19.210771 
L 107.872108 19.193709 
L 109.839679 19.182199 
L 111.872837 19.176282 
L 113.840408 19.228044 
L 115.873565 19.294123 
L 117.906723 19.321075 
L 119.874294 19.52508 
L 121.907451 19.723246 
L 123.875023 19.919267 
L 125.90818 20.171884 
L 127.941337 20.393687 
L 129.843323 20.471271 
L 131.87648 20.611883 
L 133.844052 20.669999 
L 135.877209 20.776448 
L 137.84478 20.867738 
L 139.877938 20.947335 
L 141.911095 20.907956 
L 143.878666 20.961957 
L 145.911824 21.067657 
L 147.879395 21.214184 
L 149.912552 21.305608 
L 151.94571 21.407794 
L 153.78211 21.475551 
L 155.815267 21.593209 
L 157.782838 21.741059 
L 159.815996 21.914697 
L 161.783567 21.949571 
L 163.816724 22.012165 
L 165.849882 22.113924 
L 167.817453 22.237985 
L 169.85061 22.362045 
L 171.818182 22.486106 
" style="fill:none;stroke:#1f77b4;stroke-linecap:square;stroke-width:1.5;"/>
   </g>
  </g>
 </g>
 <defs>
  <clipPath id="p7c3c9c9c2b">
   <rect height="25.92" width="180" x="0" y="1.44"/>
  </clipPath>
 </defs>
</svg>
