<?xml version="1.0" encoding="utf-8" standalone="no"?>
<!DOCTYPE svg PUBLIC "-//W3C//DTD SVG 1.1//EN"
  "http://www.w3.org/Graphics/SVG/1.1/DTD/svg11.dtd">
<!-- Created with matplotlib (http://matplotlib.org/) -->
<svg height="28pt" version="1.1" viewBox="0 0 180 28" width="180pt" xmlns="http://www.w3.org/2000/svg" xmlns:xlink="http://www.w3.org/1999/xlink">
 <defs>
  <style type="text/css">
*{stroke-linecap:butt;stroke-linejoin:round;}
  </style>
 </defs>
 <g id="figure_1">
  <g id="patch_1">
   <path d="M 0 28.8 
L 180 28.8 
L 180 0 
L 0 0 
z
" style="fill:none;"/>
  </g>
  <g id="axes_1">
   <g id="patch_2">
    <path d="M 0 27.36 
L 180 27.36 
L 180 1.44 
L 0 1.44 
z
" style="fill:none;"/>
   </g>
   <g id="PolyCollection_1">
    <path clip-path="url(#p4efa6aba00)" d="M 8.181818 27.36 
L 8.181818 19.516367 
L 9.954282 18.985028 
L 11.916652 18.453688 
L 13.81572 17.922349 
L 15.77809 17.328872 
L 17.677158 16.922018 
L 19.639529 16.586827 
L 21.601899 16.376923 
L 23.500967 16.423582 
L 25.463337 16.345909 
L 27.362405 16.444029 
L 29.324776 16.674393 
L 31.287146 16.771408 
L 33.122912 16.82622 
L 35.085282 16.941451 
L 36.98435 16.985501 
L 38.946721 16.936395 
L 40.845789 16.799688 
L 42.808159 16.685689 
L 44.770529 16.5861 
L 46.669597 16.380746 
L 48.631968 16.276136 
L 50.531036 15.98947 
L 52.493406 15.893319 
L 54.455776 15.867095 
L 56.22824 15.945453 
L 58.19061 15.739388 
L 60.089678 15.538258 
L 62.052049 15.351385 
L 63.951117 15.299965 
L 65.913487 15.122245 
L 67.875857 14.895076 
L 69.774925 14.541026 
L 71.737296 14.483639 
L 73.636364 14.579566 
L 75.598734 14.551914 
L 77.561104 14.517739 
L 79.333568 14.515555 
L 81.295938 14.527786 
L 83.195006 14.5209 
L 85.157376 14.451434 
L 87.056445 14.437236 
L 89.018815 14.435339 
L 90.981185 14.511403 
L 92.880253 14.601237 
L 94.842624 14.805862 
L 96.741692 15.069328 
L 98.704062 15.389202 
L 100.666432 15.582343 
L 102.438896 15.7187 
L 104.401266 15.716483 
L 106.300334 15.660366 
L 108.262704 15.571706 
L 110.161772 15.52163 
L 112.124143 15.494643 
L 114.086513 15.41887 
L 115.985581 15.262216 
L 117.947951 15.304125 
L 119.84702 15.428464 
L 121.80939 15.587808 
L 123.77176 15.923844 
L 125.607526 15.883664 
L 127.569896 15.887901 
L 129.468964 16.042391 
L 131.431335 16.174701 
L 133.330403 16.128557 
L 135.292773 16.197961 
L 137.255143 15.971708 
L 139.154211 16.009094 
L 141.116582 16.035048 
L 143.01565 16.061232 
L 144.97802 16.086857 
L 146.94039 16.259187 
L 148.712854 16.284734 
L 150.675224 16.258461 
L 152.574292 16.31984 
L 154.536663 16.463441 
L 156.435731 16.506229 
L 158.398101 16.539793 
L 160.360471 16.660481 
L 162.259539 16.750707 
L 164.22191 16.916606 
L 166.120978 17.038357 
L 168.083348 17.145376 
L 170.045718 17.252396 
L 171.818182 17.359415 
L 171.818182 27.36 
L 171.818182 27.36 
L 170.045718 27.36 
L 168.083348 27.36 
L 166.120978 27.36 
L 164.22191 27.36 
L 162.259539 27.36 
L 160.360471 27.36 
L 158.398101 27.36 
L 156.435731 27.36 
L 154.536663 27.36 
L 152.574292 27.36 
L 150.675224 27.36 
L 148.712854 27.36 
L 146.94039 27.36 
L 144.97802 27.36 
L 143.01565 27.36 
L 141.116582 27.36 
L 139.154211 27.36 
L 137.255143 27.36 
L 135.292773 27.36 
L 133.330403 27.36 
L 131.431335 27.36 
L 129.468964 27.36 
L 127.569896 27.36 
L 125.607526 27.36 
L 123.77176 27.36 
L 121.80939 27.36 
L 119.84702 27.36 
L 117.947951 27.36 
L 115.985581 27.36 
L 114.086513 27.36 
L 112.124143 27.36 
L 110.161772 27.36 
L 108.262704 27.36 
L 106.300334 27.36 
L 104.401266 27.36 
L 102.438896 27.36 
L 100.666432 27.36 
L 98.704062 27.36 
L 96.741692 27.36 
L 94.842624 27.36 
L 92.880253 27.36 
L 90.981185 27.36 
L 89.018815 27.36 
L 87.056445 27.36 
L 85.157376 27.36 
L 83.195006 27.36 
L 81.295938 27.36 
L 79.333568 27.36 
L 77.561104 27.36 
L 75.598734 27.36 
L 73.636364 27.36 
L 71.737296 27.36 
L 69.774925 27.36 
L 67.875857 27.36 
L 65.913487 27.36 
L 63.951117 27.36 
L 62.052049 27.36 
L 60.089678 27.36 
L 58.19061 27.36 
L 56.22824 27.36 
L 54.455776 27.36 
L 52.493406 27.36 
L 50.531036 27.36 
L 48.631968 27.36 
L 46.669597 27.36 
L 44.770529 27.36 
L 42.808159 27.36 
L 40.845789 27.36 
L 38.946721 27.36 
L 36.98435 27.36 
L 35.085282 27.36 
L 33.122912 27.36 
L 31.287146 27.36 
L 29.324776 27.36 
L 27.362405 27.36 
L 25.463337 27.36 
L 23.500967 27.36 
L 21.601899 27.36 
L 19.639529 27.36 
L 17.677158 27.36 
L 15.77809 27.36 
L 13.81572 27.36 
L 11.916652 27.36 
L 9.954282 27.36 
L 8.181818 27.36 
z
" style="fill:#1f77b4;fill-opacity:0.1;"/>
   </g>
   <g id="matplotlib.axis_1"/>
   <g id="matplotlib.axis_2"/>
   <g id="line2d_1">
    <path clip-path="url(#p4efa6aba00)" d="M 8.181818 19.516367 
L 9.954282 18.985028 
L 11.916652 18.453688 
L 13.81572 17.922349 
L 15.77809 17.328872 
L 17.677158 16.922018 
L 19.639529 16.586827 
L 21.601899 16.376923 
L 23.500967 16.423582 
L 25.463337 16.345909 
L 27.362405 16.444029 
L 29.324776 16.674393 
L 31.287146 16.771408 
L 33.122912 16.82622 
L 35.085282 16.941451 
L 36.98435 16.985501 
L 38.946721 16.936395 
L 40.845789 16.799688 
L 42.808159 16.685689 
L 44.770529 16.5861 
L 46.669597 16.380746 
L 48.631968 16.276136 
L 50.531036 15.98947 
L 52.493406 15.893319 
L 54.455776 15.867095 
L 56.22824 15.945453 
L 58.19061 15.739388 
L 60.089678 15.538258 
L 62.052049 15.351385 
L 63.951117 15.299965 
L 65.913487 15.122245 
L 67.875857 14.895076 
L 69.774925 14.541026 
L 71.737296 14.483639 
L 73.636364 14.579566 
L 75.598734 14.551914 
L 77.561104 14.517739 
L 79.333568 14.515555 
L 81.295938 14.527786 
L 83.195006 14.5209 
L 85.157376 14.451434 
L 87.056445 14.437236 
L 89.018815 14.435339 
L 90.981185 14.511403 
L 92.880253 14.601237 
L 94.842624 14.805862 
L 96.741692 15.069328 
L 98.704062 15.389202 
L 100.666432 15.582343 
L 102.438896 15.7187 
L 104.401266 15.716483 
L 106.300334 15.660366 
L 108.262704 15.571706 
L 110.161772 15.52163 
L 112.124143 15.494643 
L 114.086513 15.41887 
L 115.985581 15.262216 
L 117.947951 15.304125 
L 119.84702 15.428464 
L 121.80939 15.587808 
L 123.77176 15.923844 
L 125.607526 15.883664 
L 127.569896 15.887901 
L 129.468964 16.042391 
L 131.431335 16.174701 
L 133.330403 16.128557 
L 135.292773 16.197961 
L 137.255143 15.971708 
L 139.154211 16.009094 
L 141.116582 16.035048 
L 143.01565 16.061232 
L 144.97802 16.086857 
L 146.94039 16.259187 
L 148.712854 16.284734 
L 150.675224 16.258461 
L 152.574292 16.31984 
L 154.536663 16.463441 
L 156.435731 16.506229 
L 158.398101 16.539793 
L 160.360471 16.660481 
L 162.259539 16.750707 
L 164.22191 16.916606 
L 166.120978 17.038357 
L 168.083348 17.145376 
L 170.045718 17.252396 
L 171.818182 17.359415 
" style="fill:none;stroke:#1f77b4;stroke-linecap:square;stroke-width:1.5;"/>
   </g>
  </g>
 </g>
 <defs>
  <clipPath id="p4efa6aba00">
   <rect height="25.92" width="180" x="0" y="1.44"/>
  </clipPath>
 </defs>
</svg>
