<?xml version="1.0" encoding="utf-8" standalone="no"?>
<!DOCTYPE svg PUBLIC "-//W3C//DTD SVG 1.1//EN"
  "http://www.w3.org/Graphics/SVG/1.1/DTD/svg11.dtd">
<!-- Created with matplotlib (http://matplotlib.org/) -->
<svg height="28pt" version="1.1" viewBox="0 0 180 28" width="180pt" xmlns="http://www.w3.org/2000/svg" xmlns:xlink="http://www.w3.org/1999/xlink">
 <defs>
  <style type="text/css">
*{stroke-linecap:butt;stroke-linejoin:round;}
  </style>
 </defs>
 <g id="figure_1">
  <g id="patch_1">
   <path d="M 0 28.8 
L 180 28.8 
L 180 0 
L 0 0 
z
" style="fill:none;"/>
  </g>
  <g id="axes_1">
   <g id="patch_2">
    <path d="M 0 27.36 
L 180 27.36 
L 180 1.44 
L 0 1.44 
z
" style="fill:none;"/>
   </g>
   <g id="PolyCollection_1">
    <path clip-path="url(#pe16e77dbb3)" d="M 8.181818 27.36 
L 8.181818 19.521101 
L 10.018218 18.988807 
L 12.051375 18.456513 
L 14.018947 17.924218 
L 16.052104 17.330295 
L 18.019676 16.923707 
L 20.052833 16.588424 
L 22.08599 16.378958 
L 24.053562 16.425924 
L 26.086719 16.348389 
L 28.05429 16.446756 
L 30.087448 16.676748 
L 32.120605 16.773213 
L 34.022591 16.827329 
L 36.055748 16.941878 
L 38.023319 16.985623 
L 40.056477 16.936377 
L 42.024048 16.799508 
L 44.057205 16.685506 
L 46.090363 16.585915 
L 48.057934 16.380555 
L 50.091091 16.275942 
L 52.058663 15.989269 
L 54.09182 15.893178 
L 56.124977 15.867119 
L 57.961377 15.945655 
L 59.994535 15.7397 
L 61.962106 15.538626 
L 63.995263 15.35192 
L 65.962835 15.300602 
L 67.995992 15.122815 
L 70.029149 14.895497 
L 71.996721 14.541263 
L 74.029878 14.483806 
L 75.997449 14.579633 
L 78.030607 14.551935 
L 80.063764 14.517696 
L 81.900164 14.515555 
L 83.933321 14.527843 
L 85.900893 14.52104 
L 87.93405 14.451525 
L 89.901621 14.437404 
L 91.934779 14.435448 
L 93.967936 14.511472 
L 95.935507 14.601398 
L 97.968665 14.805926 
L 99.936236 15.069344 
L 101.969393 15.389424 
L 104.002551 15.582761 
L 105.838951 15.719111 
L 107.872108 15.7172 
L 109.839679 15.661005 
L 111.872837 15.572436 
L 113.840408 15.522451 
L 115.873565 15.495289 
L 117.906723 15.419507 
L 119.874294 15.262747 
L 121.907451 15.304612 
L 123.875023 15.429273 
L 125.90818 15.588839 
L 127.941337 15.925119 
L 129.843323 15.885379 
L 131.87648 15.889701 
L 133.844052 16.044664 
L 135.877209 16.177203 
L 137.84478 16.130975 
L 139.877938 16.20044 
L 141.911095 15.97412 
L 143.878666 16.011515 
L 145.911824 16.037278 
L 147.879395 16.063556 
L 149.912552 16.08955 
L 151.94571 16.262547 
L 153.78211 16.288744 
L 155.815267 16.280778 
L 157.782838 16.364296 
L 159.815996 16.510794 
L 161.783567 16.556859 
L 163.816724 16.601463 
L 165.849882 16.745787 
L 167.817453 16.905172 
L 169.85061 17.064558 
L 171.818182 17.223943 
L 171.818182 27.36 
L 171.818182 27.36 
L 169.85061 27.36 
L 167.817453 27.36 
L 165.849882 27.36 
L 163.816724 27.36 
L 161.783567 27.36 
L 159.815996 27.36 
L 157.782838 27.36 
L 155.815267 27.36 
L 153.78211 27.36 
L 151.94571 27.36 
L 149.912552 27.36 
L 147.879395 27.36 
L 145.911824 27.36 
L 143.878666 27.36 
L 141.911095 27.36 
L 139.877938 27.36 
L 137.84478 27.36 
L 135.877209 27.36 
L 133.844052 27.36 
L 131.87648 27.36 
L 129.843323 27.36 
L 127.941337 27.36 
L 125.90818 27.36 
L 123.875023 27.36 
L 121.907451 27.36 
L 119.874294 27.36 
L 117.906723 27.36 
L 115.873565 27.36 
L 113.840408 27.36 
L 111.872837 27.36 
L 109.839679 27.36 
L 107.872108 27.36 
L 105.838951 27.36 
L 104.002551 27.36 
L 101.969393 27.36 
L 99.936236 27.36 
L 97.968665 27.36 
L 95.935507 27.36 
L 93.967936 27.36 
L 91.934779 27.36 
L 89.901621 27.36 
L 87.93405 27.36 
L 85.900893 27.36 
L 83.933321 27.36 
L 81.900164 27.36 
L 80.063764 27.36 
L 78.030607 27.36 
L 75.997449 27.36 
L 74.029878 27.36 
L 71.996721 27.36 
L 70.029149 27.36 
L 67.995992 27.36 
L 65.962835 27.36 
L 63.995263 27.36 
L 61.962106 27.36 
L 59.994535 27.36 
L 57.961377 27.36 
L 56.124977 27.36 
L 54.09182 27.36 
L 52.058663 27.36 
L 50.091091 27.36 
L 48.057934 27.36 
L 46.090363 27.36 
L 44.057205 27.36 
L 42.024048 27.36 
L 40.056477 27.36 
L 38.023319 27.36 
L 36.055748 27.36 
L 34.022591 27.36 
L 32.120605 27.36 
L 30.087448 27.36 
L 28.05429 27.36 
L 26.086719 27.36 
L 24.053562 27.36 
L 22.08599 27.36 
L 20.052833 27.36 
L 18.019676 27.36 
L 16.052104 27.36 
L 14.018947 27.36 
L 12.051375 27.36 
L 10.018218 27.36 
L 8.181818 27.36 
z
" style="fill:#1f77b4;fill-opacity:0.1;"/>
   </g>
   <g id="matplotlib.axis_1"/>
   <g id="matplotlib.axis_2"/>
   <g id="line2d_1">
    <path clip-path="url(#pe16e77dbb3)" d="M 8.181818 19.521101 
L 10.018218 18.988807 
L 12.051375 18.456513 
L 14.018947 17.924218 
L 16.052104 17.330295 
L 18.019676 16.923707 
L 20.052833 16.588424 
L 22.08599 16.378958 
L 24.053562 16.425924 
L 26.086719 16.348389 
L 28.05429 16.446756 
L 30.087448 16.676748 
L 32.120605 16.773213 
L 34.022591 16.827329 
L 36.055748 16.941878 
L 38.023319 16.985623 
L 40.056477 16.936377 
L 42.024048 16.799508 
L 44.057205 16.685506 
L 46.090363 16.585915 
L 48.057934 16.380555 
L 50.091091 16.275942 
L 52.058663 15.989269 
L 54.09182 15.893178 
L 56.124977 15.867119 
L 57.961377 15.945655 
L 59.994535 15.7397 
L 61.962106 15.538626 
L 63.995263 15.35192 
L 65.962835 15.300602 
L 67.995992 15.122815 
L 70.029149 14.895497 
L 71.996721 14.541263 
L 74.029878 14.483806 
L 75.997449 14.579633 
L 78.030607 14.551935 
L 80.063764 14.517696 
L 81.900164 14.515555 
L 83.933321 14.527843 
L 85.900893 14.52104 
L 87.93405 14.451525 
L 89.901621 14.437404 
L 91.934779 14.435448 
L 93.967936 14.511472 
L 95.935507 14.601398 
L 97.968665 14.805926 
L 99.936236 15.069344 
L 101.969393 15.389424 
L 104.002551 15.582761 
L 105.838951 15.719111 
L 107.872108 15.7172 
L 109.839679 15.661005 
L 111.872837 15.572436 
L 113.840408 15.522451 
L 115.873565 15.495289 
L 117.906723 15.419507 
L 119.874294 15.262747 
L 121.907451 15.304612 
L 123.875023 15.429273 
L 125.90818 15.588839 
L 127.941337 15.925119 
L 129.843323 15.885379 
L 131.87648 15.889701 
L 133.844052 16.044664 
L 135.877209 16.177203 
L 137.84478 16.130975 
L 139.877938 16.20044 
L 141.911095 15.97412 
L 143.878666 16.011515 
L 145.911824 16.037278 
L 147.879395 16.063556 
L 149.912552 16.08955 
L 151.94571 16.262547 
L 153.78211 16.288744 
L 155.815267 16.280778 
L 157.782838 16.364296 
L 159.815996 16.510794 
L 161.783567 16.556859 
L 163.816724 16.601463 
L 165.849882 16.745787 
L 167.817453 16.905172 
L 169.85061 17.064558 
L 171.818182 17.223943 
" style="fill:none;stroke:#1f77b4;stroke-linecap:square;stroke-width:1.5;"/>
   </g>
  </g>
 </g>
 <defs>
  <clipPath id="pe16e77dbb3">
   <rect height="25.92" width="180" x="0" y="1.44"/>
  </clipPath>
 </defs>
</svg>
