<?xml version="1.0" encoding="utf-8" standalone="no"?>
<!DOCTYPE svg PUBLIC "-//W3C//DTD SVG 1.1//EN"
  "http://www.w3.org/Graphics/SVG/1.1/DTD/svg11.dtd">
<!-- Created with matplotlib (http://matplotlib.org/) -->
<svg height="28pt" version="1.1" viewBox="0 0 180 28" width="180pt" xmlns="http://www.w3.org/2000/svg" xmlns:xlink="http://www.w3.org/1999/xlink">
 <defs>
  <style type="text/css">
*{stroke-linecap:butt;stroke-linejoin:round;}
  </style>
 </defs>
 <g id="figure_1">
  <g id="patch_1">
   <path d="M 0 28.8 
L 180 28.8 
L 180 0 
L 0 0 
z
" style="fill:none;"/>
  </g>
  <g id="axes_1">
   <g id="patch_2">
    <path d="M 0 27.36 
L 180 27.36 
L 180 1.44 
L 0 1.44 
z
" style="fill:none;"/>
   </g>
   <g id="PolyCollection_1">
    <path clip-path="url(#p072360bb35)" d="M 8.181818 27.36 
L 8.181818 27.167513 
L 10.018218 27.154111 
L 12.051375 27.14071 
L 14.018947 27.127308 
L 16.052104 27.121114 
L 18.019676 27.124574 
L 20.052833 27.107577 
L 22.08599 27.112986 
L 24.053562 27.128156 
L 26.086719 27.149241 
L 28.05429 27.170894 
L 30.087448 27.200051 
L 32.120605 27.222676 
L 34.022591 27.275342 
L 46.090363 27.297289 
L 48.057934 27.31931 
L 50.091091 27.341365 
L 52.058663 27.347275 
L 54.09182 27.345552 
L 56.124977 27.345135 
L 57.961377 27.344418 
L 59.994535 27.338091 
L 61.962106 27.337535 
L 63.995263 27.337408 
L 65.962835 27.337894 
L 67.995992 27.337192 
L 70.029149 27.337514 
L 71.996721 27.328139 
L 74.029878 27.333181 
L 75.997449 27.329231 
L 78.030607 27.32421 
L 80.063764 27.320571 
L 81.900164 26.188337 
L 83.933321 25.555846 
L 85.900893 24.862382 
L 87.93405 24.239513 
L 89.901621 23.546471 
L 91.934779 22.876797 
L 93.967936 22.160808 
L 95.935507 22.37868 
L 97.968665 22.072409 
L 99.936236 21.814607 
L 101.969393 21.290844 
L 104.002551 20.868476 
L 105.838951 20.376617 
L 107.872108 19.898176 
L 109.839679 19.630117 
L 111.872837 19.254329 
L 113.840408 18.781848 
L 115.873565 18.464283 
L 117.906723 18.041157 
L 119.874294 17.718478 
L 121.907451 17.220819 
L 123.875023 16.932007 
L 125.90818 16.840871 
L 127.941337 17.104543 
L 129.843323 17.191439 
L 131.87648 17.229252 
L 133.844052 17.419 
L 135.877209 17.767025 
L 137.84478 17.991908 
L 139.877938 18.154555 
L 141.911095 18.000857 
L 143.878666 18.021214 
L 145.911824 18.209375 
L 147.879395 18.283348 
L 149.912552 18.485962 
L 151.94571 18.620249 
L 153.78211 18.715314 
L 155.815267 18.825814 
L 157.782838 19.038016 
L 159.815996 19.240282 
L 161.783567 19.347146 
L 163.816724 19.379509 
L 165.849882 19.500964 
L 167.817453 19.676118 
L 169.85061 19.851271 
L 171.818182 20.026424 
L 171.818182 27.36 
L 171.818182 27.36 
L 169.85061 27.36 
L 167.817453 27.36 
L 165.849882 27.36 
L 163.816724 27.36 
L 161.783567 27.36 
L 159.815996 27.36 
L 157.782838 27.36 
L 155.815267 27.36 
L 153.78211 27.36 
L 151.94571 27.36 
L 149.912552 27.36 
L 147.879395 27.36 
L 145.911824 27.36 
L 143.878666 27.36 
L 141.911095 27.36 
L 139.877938 27.36 
L 137.84478 27.36 
L 135.877209 27.36 
L 133.844052 27.36 
L 131.87648 27.36 
L 129.843323 27.36 
L 127.941337 27.36 
L 125.90818 27.36 
L 123.875023 27.36 
L 121.907451 27.36 
L 119.874294 27.36 
L 117.906723 27.36 
L 115.873565 27.36 
L 113.840408 27.36 
L 111.872837 27.36 
L 109.839679 27.36 
L 107.872108 27.36 
L 105.838951 27.36 
L 104.002551 27.36 
L 101.969393 27.36 
L 99.936236 27.36 
L 97.968665 27.36 
L 95.935507 27.36 
L 93.967936 27.36 
L 91.934779 27.36 
L 89.901621 27.36 
L 87.93405 27.36 
L 85.900893 27.36 
L 83.933321 27.36 
L 81.900164 27.36 
L 80.063764 27.36 
L 78.030607 27.36 
L 75.997449 27.36 
L 74.029878 27.36 
L 71.996721 27.36 
L 70.029149 27.36 
L 67.995992 27.36 
L 65.962835 27.36 
L 63.995263 27.36 
L 61.962106 27.36 
L 59.994535 27.36 
L 57.961377 27.36 
L 56.124977 27.36 
L 54.09182 27.36 
L 52.058663 27.36 
L 50.091091 27.36 
L 48.057934 27.36 
L 46.090363 27.36 
L 34.022591 27.36 
L 32.120605 27.36 
L 30.087448 27.36 
L 28.05429 27.36 
L 26.086719 27.36 
L 24.053562 27.36 
L 22.08599 27.36 
L 20.052833 27.36 
L 18.019676 27.36 
L 16.052104 27.36 
L 14.018947 27.36 
L 12.051375 27.36 
L 10.018218 27.36 
L 8.181818 27.36 
z
" style="fill:#1f77b4;fill-opacity:0.1;"/>
   </g>
   <g id="matplotlib.axis_1"/>
   <g id="matplotlib.axis_2"/>
   <g id="line2d_1">
    <path clip-path="url(#p072360bb35)" d="M 8.181818 27.167513 
L 10.018218 27.154111 
L 12.051375 27.14071 
L 14.018947 27.127308 
L 16.052104 27.121114 
L 18.019676 27.124574 
L 20.052833 27.107577 
L 22.08599 27.112986 
L 24.053562 27.128156 
L 26.086719 27.149241 
L 28.05429 27.170894 
L 30.087448 27.200051 
L 32.120605 27.222676 
L 34.022591 27.275342 
L 46.090363 27.297289 
L 48.057934 27.31931 
L 50.091091 27.341365 
L 52.058663 27.347275 
L 54.09182 27.345552 
L 56.124977 27.345135 
L 57.961377 27.344418 
L 59.994535 27.338091 
L 61.962106 27.337535 
L 63.995263 27.337408 
L 65.962835 27.337894 
L 67.995992 27.337192 
L 70.029149 27.337514 
L 71.996721 27.328139 
L 74.029878 27.333181 
L 75.997449 27.329231 
L 78.030607 27.32421 
L 80.063764 27.320571 
L 81.900164 26.188337 
L 83.933321 25.555846 
L 85.900893 24.862382 
L 87.93405 24.239513 
L 89.901621 23.546471 
L 91.934779 22.876797 
L 93.967936 22.160808 
L 95.935507 22.37868 
L 97.968665 22.072409 
L 99.936236 21.814607 
L 101.969393 21.290844 
L 104.002551 20.868476 
L 105.838951 20.376617 
L 107.872108 19.898176 
L 109.839679 19.630117 
L 111.872837 19.254329 
L 113.840408 18.781848 
L 115.873565 18.464283 
L 117.906723 18.041157 
L 119.874294 17.718478 
L 121.907451 17.220819 
L 123.875023 16.932007 
L 125.90818 16.840871 
L 127.941337 17.104543 
L 129.843323 17.191439 
L 131.87648 17.229252 
L 133.844052 17.419 
L 135.877209 17.767025 
L 137.84478 17.991908 
L 139.877938 18.154555 
L 141.911095 18.000857 
L 143.878666 18.021214 
L 145.911824 18.209375 
L 147.879395 18.283348 
L 149.912552 18.485962 
L 151.94571 18.620249 
L 153.78211 18.715314 
L 155.815267 18.825814 
L 157.782838 19.038016 
L 159.815996 19.240282 
L 161.783567 19.347146 
L 163.816724 19.379509 
L 165.849882 19.500964 
L 167.817453 19.676118 
L 169.85061 19.851271 
L 171.818182 20.026424 
" style="fill:none;stroke:#1f77b4;stroke-linecap:square;stroke-width:1.5;"/>
   </g>
  </g>
 </g>
 <defs>
  <clipPath id="p072360bb35">
   <rect height="25.92" width="180" x="0" y="1.44"/>
  </clipPath>
 </defs>
</svg>
