<?xml version="1.0" encoding="utf-8" standalone="no"?>
<!DOCTYPE svg PUBLIC "-//W3C//DTD SVG 1.1//EN"
  "http://www.w3.org/Graphics/SVG/1.1/DTD/svg11.dtd">
<!-- Created with matplotlib (http://matplotlib.org/) -->
<svg height="28pt" version="1.1" viewBox="0 0 180 28" width="180pt" xmlns="http://www.w3.org/2000/svg" xmlns:xlink="http://www.w3.org/1999/xlink">
 <defs>
  <style type="text/css">
*{stroke-linecap:butt;stroke-linejoin:round;}
  </style>
 </defs>
 <g id="figure_1">
  <g id="patch_1">
   <path d="M 0 28.8 
L 180 28.8 
L 180 0 
L 0 0 
z
" style="fill:none;"/>
  </g>
  <g id="axes_1">
   <g id="patch_2">
    <path d="M 0 27.36 
L 180 27.36 
L 180 1.44 
L 0 1.44 
z
" style="fill:none;"/>
   </g>
   <g id="PolyCollection_1">
    <path clip-path="url(#p9a90571827)" d="M 8.181818 27.36 
L 8.181818 27.167518 
L 9.954282 27.154117 
L 11.916652 27.140716 
L 13.81572 27.127315 
L 15.77809 27.121121 
L 17.677158 27.124581 
L 19.639529 27.107584 
L 21.601899 27.112993 
L 23.500967 27.128162 
L 25.463337 27.149247 
L 27.362405 27.170899 
L 29.324776 27.200055 
L 31.287146 27.222679 
L 33.122912 27.275344 
L 44.770529 27.29729 
L 46.669597 27.319311 
L 48.631968 27.341365 
L 50.531036 27.347275 
L 52.493406 27.345552 
L 54.455776 27.345253 
L 56.22824 27.344535 
L 58.19061 27.338209 
L 60.089678 27.337653 
L 62.052049 27.337419 
L 63.951117 27.337905 
L 65.913487 27.337204 
L 67.875857 27.337408 
L 69.774925 27.328034 
L 71.737296 27.332987 
L 73.636364 27.329037 
L 75.598734 27.324122 
L 77.561104 27.320406 
L 79.333568 26.188204 
L 81.295938 25.55573 
L 83.195006 24.862286 
L 85.157376 24.239451 
L 87.056445 23.546365 
L 89.018815 22.87671 
L 90.981185 22.160819 
L 92.880253 22.378623 
L 94.842624 22.072361 
L 96.741692 21.814566 
L 98.704062 21.290837 
L 100.666432 20.868544 
L 102.438896 20.376699 
L 104.401266 19.89822 
L 106.300334 19.63023 
L 108.262704 19.254453 
L 110.161772 18.781984 
L 112.124143 18.464437 
L 114.086513 18.041277 
L 115.985581 17.718608 
L 117.947951 17.220892 
L 119.84702 16.931906 
L 121.80939 16.840772 
L 123.77176 17.104374 
L 125.607526 17.191125 
L 127.569896 17.228831 
L 129.468964 17.418467 
L 131.431335 17.766436 
L 133.330403 17.991305 
L 135.292773 18.153668 
L 137.255143 17.999845 
L 139.154211 18.020107 
L 141.116582 18.208055 
L 143.01565 18.281841 
L 144.97802 18.484088 
L 146.94039 18.617908 
L 148.712854 18.7124 
L 150.675224 18.798928 
L 152.574292 18.983606 
L 154.536663 19.183725 
L 156.435731 19.288402 
L 158.398101 19.312088 
L 160.360471 19.413882 
L 162.259539 19.589534 
L 164.22191 19.88216 
L 166.120978 20.118325 
L 168.083348 20.376946 
L 170.045718 20.635568 
L 171.818182 20.894189 
L 171.818182 27.36 
L 171.818182 27.36 
L 170.045718 27.36 
L 168.083348 27.36 
L 166.120978 27.36 
L 164.22191 27.36 
L 162.259539 27.36 
L 160.360471 27.36 
L 158.398101 27.36 
L 156.435731 27.36 
L 154.536663 27.36 
L 152.574292 27.36 
L 150.675224 27.36 
L 148.712854 27.36 
L 146.94039 27.36 
L 144.97802 27.36 
L 143.01565 27.36 
L 141.116582 27.36 
L 139.154211 27.36 
L 137.255143 27.36 
L 135.292773 27.36 
L 133.330403 27.36 
L 131.431335 27.36 
L 129.468964 27.36 
L 127.569896 27.36 
L 125.607526 27.36 
L 123.77176 27.36 
L 121.80939 27.36 
L 119.84702 27.36 
L 117.947951 27.36 
L 115.985581 27.36 
L 114.086513 27.36 
L 112.124143 27.36 
L 110.161772 27.36 
L 108.262704 27.36 
L 106.300334 27.36 
L 104.401266 27.36 
L 102.438896 27.36 
L 100.666432 27.36 
L 98.704062 27.36 
L 96.741692 27.36 
L 94.842624 27.36 
L 92.880253 27.36 
L 90.981185 27.36 
L 89.018815 27.36 
L 87.056445 27.36 
L 85.157376 27.36 
L 83.195006 27.36 
L 81.295938 27.36 
L 79.333568 27.36 
L 77.561104 27.36 
L 75.598734 27.36 
L 73.636364 27.36 
L 71.737296 27.36 
L 69.774925 27.36 
L 67.875857 27.36 
L 65.913487 27.36 
L 63.951117 27.36 
L 62.052049 27.36 
L 60.089678 27.36 
L 58.19061 27.36 
L 56.22824 27.36 
L 54.455776 27.36 
L 52.493406 27.36 
L 50.531036 27.36 
L 48.631968 27.36 
L 46.669597 27.36 
L 44.770529 27.36 
L 33.122912 27.36 
L 31.287146 27.36 
L 29.324776 27.36 
L 27.362405 27.36 
L 25.463337 27.36 
L 23.500967 27.36 
L 21.601899 27.36 
L 19.639529 27.36 
L 17.677158 27.36 
L 15.77809 27.36 
L 13.81572 27.36 
L 11.916652 27.36 
L 9.954282 27.36 
L 8.181818 27.36 
z
" style="fill:#1f77b4;fill-opacity:0.1;"/>
   </g>
   <g id="matplotlib.axis_1"/>
   <g id="matplotlib.axis_2"/>
   <g id="line2d_1">
    <path clip-path="url(#p9a90571827)" d="M 8.181818 27.167518 
L 9.954282 27.154117 
L 11.916652 27.140716 
L 13.81572 27.127315 
L 15.77809 27.121121 
L 17.677158 27.124581 
L 19.639529 27.107584 
L 21.601899 27.112993 
L 23.500967 27.128162 
L 25.463337 27.149247 
L 27.362405 27.170899 
L 29.324776 27.200055 
L 31.287146 27.222679 
L 33.122912 27.275344 
L 44.770529 27.29729 
L 46.669597 27.319311 
L 48.631968 27.341365 
L 50.531036 27.347275 
L 52.493406 27.345552 
L 54.455776 27.345253 
L 56.22824 27.344535 
L 58.19061 27.338209 
L 60.089678 27.337653 
L 62.052049 27.337419 
L 63.951117 27.337905 
L 65.913487 27.337204 
L 67.875857 27.337408 
L 69.774925 27.328034 
L 71.737296 27.332987 
L 73.636364 27.329037 
L 75.598734 27.324122 
L 77.561104 27.320406 
L 79.333568 26.188204 
L 81.295938 25.55573 
L 83.195006 24.862286 
L 85.157376 24.239451 
L 87.056445 23.546365 
L 89.018815 22.87671 
L 90.981185 22.160819 
L 92.880253 22.378623 
L 94.842624 22.072361 
L 96.741692 21.814566 
L 98.704062 21.290837 
L 100.666432 20.868544 
L 102.438896 20.376699 
L 104.401266 19.89822 
L 106.300334 19.63023 
L 108.262704 19.254453 
L 110.161772 18.781984 
L 112.124143 18.464437 
L 114.086513 18.041277 
L 115.985581 17.718608 
L 117.947951 17.220892 
L 119.84702 16.931906 
L 121.80939 16.840772 
L 123.77176 17.104374 
L 125.607526 17.191125 
L 127.569896 17.228831 
L 129.468964 17.418467 
L 131.431335 17.766436 
L 133.330403 17.991305 
L 135.292773 18.153668 
L 137.255143 17.999845 
L 139.154211 18.020107 
L 141.116582 18.208055 
L 143.01565 18.281841 
L 144.97802 18.484088 
L 146.94039 18.617908 
L 148.712854 18.7124 
L 150.675224 18.798928 
L 152.574292 18.983606 
L 154.536663 19.183725 
L 156.435731 19.288402 
L 158.398101 19.312088 
L 160.360471 19.413882 
L 162.259539 19.589534 
L 164.22191 19.88216 
L 166.120978 20.118325 
L 168.083348 20.376946 
L 170.045718 20.635568 
L 171.818182 20.894189 
" style="fill:none;stroke:#1f77b4;stroke-linecap:square;stroke-width:1.5;"/>
   </g>
  </g>
 </g>
 <defs>
  <clipPath id="p9a90571827">
   <rect height="25.92" width="180" x="0" y="1.44"/>
  </clipPath>
 </defs>
</svg>
