<?xml version="1.0" encoding="utf-8" standalone="no"?>
<!DOCTYPE svg PUBLIC "-//W3C//DTD SVG 1.1//EN"
  "http://www.w3.org/Graphics/SVG/1.1/DTD/svg11.dtd">
<!-- Created with matplotlib (http://matplotlib.org/) -->
<svg height="28pt" version="1.1" viewBox="0 0 180 28" width="180pt" xmlns="http://www.w3.org/2000/svg" xmlns:xlink="http://www.w3.org/1999/xlink">
 <defs>
  <style type="text/css">
*{stroke-linecap:butt;stroke-linejoin:round;}
  </style>
 </defs>
 <g id="figure_1">
  <g id="patch_1">
   <path d="M 0 28.8 
L 180 28.8 
L 180 0 
L 0 0 
z
" style="fill:none;"/>
  </g>
  <g id="axes_1">
   <g id="patch_2">
    <path d="M 0 27.36 
L 180 27.36 
L 180 1.44 
L 0 1.44 
z
" style="fill:none;"/>
   </g>
   <g id="PolyCollection_1">
    <path clip-path="url(#pac53f967f5)" d="M 8.181818 27.36 
L 8.181818 27.203104 
L 9.954282 27.191616 
L 11.916652 27.180128 
L 13.81572 27.16864 
L 15.77809 27.163776 
L 17.677158 27.162631 
L 19.639529 27.161162 
L 21.601899 27.128024 
L 23.500967 27.117352 
L 25.463337 27.111946 
L 27.362405 27.126884 
L 29.324776 27.149797 
L 31.287146 27.158697 
L 33.122912 27.155287 
L 44.770529 27.191356 
L 46.669597 27.208351 
L 48.631968 27.219882 
L 50.531036 27.134614 
L 52.493406 26.938537 
L 54.455776 26.800923 
L 56.22824 26.706716 
L 58.19061 26.590546 
L 60.089678 26.484629 
L 62.052049 26.379567 
L 63.951117 26.339593 
L 65.913487 26.299336 
L 67.875857 26.149214 
L 69.774925 25.990243 
L 71.737296 25.846436 
L 73.636364 25.711361 
L 75.598734 25.614281 
L 77.561104 25.547601 
L 79.333568 25.577748 
L 81.295938 25.667318 
L 83.195006 25.749913 
L 85.157376 25.846706 
L 87.056445 25.946549 
L 89.018815 25.968219 
L 90.981185 25.997751 
L 92.880253 25.847427 
L 94.842624 25.713083 
L 96.741692 25.388026 
L 98.704062 25.118583 
L 100.666432 24.78322 
L 102.438896 24.537175 
L 104.401266 24.231478 
L 106.300334 24.065488 
L 108.262704 23.749115 
L 110.161772 23.762967 
L 112.124143 23.440286 
L 114.086513 23.292075 
L 115.985581 23.000088 
L 117.947951 22.787013 
L 119.84702 22.548006 
L 121.80939 22.318413 
L 123.77176 22.003285 
L 125.607526 21.829756 
L 127.569896 21.53232 
L 129.468964 21.30842 
L 131.431335 20.963262 
L 133.330403 20.652769 
L 135.292773 20.32282 
L 137.255143 19.929567 
L 139.154211 19.671992 
L 141.116582 19.319976 
L 143.01565 18.990376 
L 144.97802 18.616035 
L 146.94039 18.235916 
L 148.712854 17.993856 
L 150.675224 17.506617 
L 152.574292 16.969512 
L 154.536663 16.703107 
L 156.435731 16.348034 
L 158.398101 16.047573 
L 160.360471 15.943569 
L 162.259539 15.805478 
L 164.22191 15.897257 
L 166.120978 16.061745 
L 168.083348 16.097742 
L 170.045718 16.133738 
L 171.818182 16.169734 
L 171.818182 27.36 
L 171.818182 27.36 
L 170.045718 27.36 
L 168.083348 27.36 
L 166.120978 27.36 
L 164.22191 27.36 
L 162.259539 27.36 
L 160.360471 27.36 
L 158.398101 27.36 
L 156.435731 27.36 
L 154.536663 27.36 
L 152.574292 27.36 
L 150.675224 27.36 
L 148.712854 27.36 
L 146.94039 27.36 
L 144.97802 27.36 
L 143.01565 27.36 
L 141.116582 27.36 
L 139.154211 27.36 
L 137.255143 27.36 
L 135.292773 27.36 
L 133.330403 27.36 
L 131.431335 27.36 
L 129.468964 27.36 
L 127.569896 27.36 
L 125.607526 27.36 
L 123.77176 27.36 
L 121.80939 27.36 
L 119.84702 27.36 
L 117.947951 27.36 
L 115.985581 27.36 
L 114.086513 27.36 
L 112.124143 27.36 
L 110.161772 27.36 
L 108.262704 27.36 
L 106.300334 27.36 
L 104.401266 27.36 
L 102.438896 27.36 
L 100.666432 27.36 
L 98.704062 27.36 
L 96.741692 27.36 
L 94.842624 27.36 
L 92.880253 27.36 
L 90.981185 27.36 
L 89.018815 27.36 
L 87.056445 27.36 
L 85.157376 27.36 
L 83.195006 27.36 
L 81.295938 27.36 
L 79.333568 27.36 
L 77.561104 27.36 
L 75.598734 27.36 
L 73.636364 27.36 
L 71.737296 27.36 
L 69.774925 27.36 
L 67.875857 27.36 
L 65.913487 27.36 
L 63.951117 27.36 
L 62.052049 27.36 
L 60.089678 27.36 
L 58.19061 27.36 
L 56.22824 27.36 
L 54.455776 27.36 
L 52.493406 27.36 
L 50.531036 27.36 
L 48.631968 27.36 
L 46.669597 27.36 
L 44.770529 27.36 
L 33.122912 27.36 
L 31.287146 27.36 
L 29.324776 27.36 
L 27.362405 27.36 
L 25.463337 27.36 
L 23.500967 27.36 
L 21.601899 27.36 
L 19.639529 27.36 
L 17.677158 27.36 
L 15.77809 27.36 
L 13.81572 27.36 
L 11.916652 27.36 
L 9.954282 27.36 
L 8.181818 27.36 
z
" style="fill:#1f77b4;fill-opacity:0.1;"/>
   </g>
   <g id="matplotlib.axis_1"/>
   <g id="matplotlib.axis_2"/>
   <g id="line2d_1">
    <path clip-path="url(#pac53f967f5)" d="M 8.181818 27.203104 
L 9.954282 27.191616 
L 11.916652 27.180128 
L 13.81572 27.16864 
L 15.77809 27.163776 
L 17.677158 27.162631 
L 19.639529 27.161162 
L 21.601899 27.128024 
L 23.500967 27.117352 
L 25.463337 27.111946 
L 27.362405 27.126884 
L 29.324776 27.149797 
L 31.287146 27.158697 
L 33.122912 27.155287 
L 44.770529 27.191356 
L 46.669597 27.208351 
L 48.631968 27.219882 
L 50.531036 27.134614 
L 52.493406 26.938537 
L 54.455776 26.800923 
L 56.22824 26.706716 
L 58.19061 26.590546 
L 60.089678 26.484629 
L 62.052049 26.379567 
L 63.951117 26.339593 
L 65.913487 26.299336 
L 67.875857 26.149214 
L 69.774925 25.990243 
L 71.737296 25.846436 
L 73.636364 25.711361 
L 75.598734 25.614281 
L 77.561104 25.547601 
L 79.333568 25.577748 
L 81.295938 25.667318 
L 83.195006 25.749913 
L 85.157376 25.846706 
L 87.056445 25.946549 
L 89.018815 25.968219 
L 90.981185 25.997751 
L 92.880253 25.847427 
L 94.842624 25.713083 
L 96.741692 25.388026 
L 98.704062 25.118583 
L 100.666432 24.78322 
L 102.438896 24.537175 
L 104.401266 24.231478 
L 106.300334 24.065488 
L 108.262704 23.749115 
L 110.161772 23.762967 
L 112.124143 23.440286 
L 114.086513 23.292075 
L 115.985581 23.000088 
L 117.947951 22.787013 
L 119.84702 22.548006 
L 121.80939 22.318413 
L 123.77176 22.003285 
L 125.607526 21.829756 
L 127.569896 21.53232 
L 129.468964 21.30842 
L 131.431335 20.963262 
L 133.330403 20.652769 
L 135.292773 20.32282 
L 137.255143 19.929567 
L 139.154211 19.671992 
L 141.116582 19.319976 
L 143.01565 18.990376 
L 144.97802 18.616035 
L 146.94039 18.235916 
L 148.712854 17.993856 
L 150.675224 17.506617 
L 152.574292 16.969512 
L 154.536663 16.703107 
L 156.435731 16.348034 
L 158.398101 16.047573 
L 160.360471 15.943569 
L 162.259539 15.805478 
L 164.22191 15.897257 
L 166.120978 16.061745 
L 168.083348 16.097742 
L 170.045718 16.133738 
L 171.818182 16.169734 
" style="fill:none;stroke:#1f77b4;stroke-linecap:square;stroke-width:1.5;"/>
   </g>
  </g>
 </g>
 <defs>
  <clipPath id="pac53f967f5">
   <rect height="25.92" width="180" x="0" y="1.44"/>
  </clipPath>
 </defs>
</svg>
