<?xml version="1.0" encoding="utf-8" standalone="no"?>
<!DOCTYPE svg PUBLIC "-//W3C//DTD SVG 1.1//EN"
  "http://www.w3.org/Graphics/SVG/1.1/DTD/svg11.dtd">
<!-- Created with matplotlib (http://matplotlib.org/) -->
<svg height="28pt" version="1.1" viewBox="0 0 180 28" width="180pt" xmlns="http://www.w3.org/2000/svg" xmlns:xlink="http://www.w3.org/1999/xlink">
 <defs>
  <style type="text/css">
*{stroke-linecap:butt;stroke-linejoin:round;}
  </style>
 </defs>
 <g id="figure_1">
  <g id="patch_1">
   <path d="M 0 28.8 
L 180 28.8 
L 180 0 
L 0 0 
z
" style="fill:none;"/>
  </g>
  <g id="axes_1">
   <g id="patch_2">
    <path d="M 0 27.36 
L 180 27.36 
L 180 1.44 
L 0 1.44 
z
" style="fill:none;"/>
   </g>
   <g id="PolyCollection_1">
    <path clip-path="url(#p30bf94f159)" d="M 8.181818 27.36 
L 8.181818 27.201301 
L 10.018218 27.189682 
L 12.051375 27.178062 
L 14.018947 27.166442 
L 16.052104 27.161522 
L 18.019676 27.160625 
L 20.052833 27.159139 
L 22.08599 27.12562 
L 24.053562 27.114825 
L 26.086719 27.109357 
L 28.05429 27.124467 
L 30.087448 27.147643 
L 32.120605 27.156385 
L 34.022591 27.152936 
L 46.090363 27.189419 
L 48.057934 27.206609 
L 50.091091 27.218272 
L 52.058663 27.132025 
L 54.09182 26.933697 
L 56.124977 26.794502 
L 57.961377 26.699213 
L 59.994535 26.581708 
L 61.962106 26.474575 
L 63.995263 26.368306 
L 65.962835 26.327873 
L 67.995992 26.287153 
L 70.029149 26.135307 
L 71.996721 25.974581 
L 74.029878 25.829122 
L 75.997449 25.692557 
L 78.030607 25.594362 
L 80.063764 25.526975 
L 81.900164 25.557468 
L 83.933321 25.648068 
L 85.900893 25.73154 
L 87.93405 25.829445 
L 89.901621 25.930373 
L 91.934779 25.95234 
L 93.967936 25.982153 
L 95.935507 25.830102 
L 97.968665 25.694215 
L 99.936236 25.365465 
L 101.969393 25.092967 
L 104.002551 24.753792 
L 105.838951 24.504872 
L 107.872108 24.195665 
L 109.839679 24.027848 
L 111.872837 23.707915 
L 113.840408 23.721919 
L 115.873565 23.395559 
L 117.906723 23.245709 
L 119.874294 22.950531 
L 121.907451 22.735071 
L 123.875023 22.493323 
L 125.90818 22.261103 
L 127.941337 21.942465 
L 129.843323 21.767019 
L 131.87648 21.466178 
L 133.844052 21.239653 
L 135.877209 20.890546 
L 137.84478 20.576693 
L 139.877938 20.243012 
L 141.911095 19.845271 
L 143.878666 19.584928 
L 145.911824 19.229004 
L 147.879395 18.896057 
L 149.912552 18.517935 
L 151.94571 18.133596 
L 153.78211 17.88924 
L 155.815267 17.427026 
L 157.782838 16.917306 
L 159.815996 16.650582 
L 161.783567 16.293985 
L 163.816724 16.006573 
L 165.849882 15.940938 
L 167.817453 15.910418 
L 169.85061 15.879899 
L 171.818182 15.84938 
L 171.818182 27.36 
L 171.818182 27.36 
L 169.85061 27.36 
L 167.817453 27.36 
L 165.849882 27.36 
L 163.816724 27.36 
L 161.783567 27.36 
L 159.815996 27.36 
L 157.782838 27.36 
L 155.815267 27.36 
L 153.78211 27.36 
L 151.94571 27.36 
L 149.912552 27.36 
L 147.879395 27.36 
L 145.911824 27.36 
L 143.878666 27.36 
L 141.911095 27.36 
L 139.877938 27.36 
L 137.84478 27.36 
L 135.877209 27.36 
L 133.844052 27.36 
L 131.87648 27.36 
L 129.843323 27.36 
L 127.941337 27.36 
L 125.90818 27.36 
L 123.875023 27.36 
L 121.907451 27.36 
L 119.874294 27.36 
L 117.906723 27.36 
L 115.873565 27.36 
L 113.840408 27.36 
L 111.872837 27.36 
L 109.839679 27.36 
L 107.872108 27.36 
L 105.838951 27.36 
L 104.002551 27.36 
L 101.969393 27.36 
L 99.936236 27.36 
L 97.968665 27.36 
L 95.935507 27.36 
L 93.967936 27.36 
L 91.934779 27.36 
L 89.901621 27.36 
L 87.93405 27.36 
L 85.900893 27.36 
L 83.933321 27.36 
L 81.900164 27.36 
L 80.063764 27.36 
L 78.030607 27.36 
L 75.997449 27.36 
L 74.029878 27.36 
L 71.996721 27.36 
L 70.029149 27.36 
L 67.995992 27.36 
L 65.962835 27.36 
L 63.995263 27.36 
L 61.962106 27.36 
L 59.994535 27.36 
L 57.961377 27.36 
L 56.124977 27.36 
L 54.09182 27.36 
L 52.058663 27.36 
L 50.091091 27.36 
L 48.057934 27.36 
L 46.090363 27.36 
L 34.022591 27.36 
L 32.120605 27.36 
L 30.087448 27.36 
L 28.05429 27.36 
L 26.086719 27.36 
L 24.053562 27.36 
L 22.08599 27.36 
L 20.052833 27.36 
L 18.019676 27.36 
L 16.052104 27.36 
L 14.018947 27.36 
L 12.051375 27.36 
L 10.018218 27.36 
L 8.181818 27.36 
z
" style="fill:#1f77b4;fill-opacity:0.1;"/>
   </g>
   <g id="matplotlib.axis_1"/>
   <g id="matplotlib.axis_2"/>
   <g id="line2d_1">
    <path clip-path="url(#p30bf94f159)" d="M 8.181818 27.201301 
L 10.018218 27.189682 
L 12.051375 27.178062 
L 14.018947 27.166442 
L 16.052104 27.161522 
L 18.019676 27.160625 
L 20.052833 27.159139 
L 22.08599 27.12562 
L 24.053562 27.114825 
L 26.086719 27.109357 
L 28.05429 27.124467 
L 30.087448 27.147643 
L 32.120605 27.156385 
L 34.022591 27.152936 
L 46.090363 27.189419 
L 48.057934 27.206609 
L 50.091091 27.218272 
L 52.058663 27.132025 
L 54.09182 26.933697 
L 56.124977 26.794502 
L 57.961377 26.699213 
L 59.994535 26.581708 
L 61.962106 26.474575 
L 63.995263 26.368306 
L 65.962835 26.327873 
L 67.995992 26.287153 
L 70.029149 26.135307 
L 71.996721 25.974581 
L 74.029878 25.829122 
L 75.997449 25.692557 
L 78.030607 25.594362 
L 80.063764 25.526975 
L 81.900164 25.557468 
L 83.933321 25.648068 
L 85.900893 25.73154 
L 87.93405 25.829445 
L 89.901621 25.930373 
L 91.934779 25.95234 
L 93.967936 25.982153 
L 95.935507 25.830102 
L 97.968665 25.694215 
L 99.936236 25.365465 
L 101.969393 25.092967 
L 104.002551 24.753792 
L 105.838951 24.504872 
L 107.872108 24.195665 
L 109.839679 24.027848 
L 111.872837 23.707915 
L 113.840408 23.721919 
L 115.873565 23.395559 
L 117.906723 23.245709 
L 119.874294 22.950531 
L 121.907451 22.735071 
L 123.875023 22.493323 
L 125.90818 22.261103 
L 127.941337 21.942465 
L 129.843323 21.767019 
L 131.87648 21.466178 
L 133.844052 21.239653 
L 135.877209 20.890546 
L 137.84478 20.576693 
L 139.877938 20.243012 
L 141.911095 19.845271 
L 143.878666 19.584928 
L 145.911824 19.229004 
L 147.879395 18.896057 
L 149.912552 18.517935 
L 151.94571 18.133596 
L 153.78211 17.88924 
L 155.815267 17.427026 
L 157.782838 16.917306 
L 159.815996 16.650582 
L 161.783567 16.293985 
L 163.816724 16.006573 
L 165.849882 15.940938 
L 167.817453 15.910418 
L 169.85061 15.879899 
L 171.818182 15.84938 
" style="fill:none;stroke:#1f77b4;stroke-linecap:square;stroke-width:1.5;"/>
   </g>
  </g>
 </g>
 <defs>
  <clipPath id="p30bf94f159">
   <rect height="25.92" width="180" x="0" y="1.44"/>
  </clipPath>
 </defs>
</svg>
